<?xml version="1.0" encoding="iso-8859-1"?>
<!-- Generator: Adobe Illustrator 16.0.0, SVG Export Plug-In . SVG Version: 6.00 Build 0)  -->
<!DOCTYPE svg PUBLIC "-//W3C//DTD SVG 1.1//EN" "http://www.w3.org/Graphics/SVG/1.1/DTD/svg11.dtd">
<svg xmlns="http://www.w3.org/2000/svg" xmlns:xlink="http://www.w3.org/1999/xlink" version="1.1" id="Capa_1" x="0px" y="0px" width="512px" height="512px" viewBox="0 0 46.859 46.859" style="enable-background:new 0 0 46.859 46.859;" xml:space="preserve">
<g>
	<path d="M41.212,7.423c0-4.1-3.324-7.423-7.422-7.423H13.069C8.97,0,5.647,3.323,5.647,7.423v32.013   c0,4.101,3.323,7.424,7.422,7.424h20.719c4.1,0,7.422-3.323,7.422-7.424V7.423H41.212z M23.417,5.133   c1.702,0,3.083,1.381,3.083,3.084c0,1.702-1.381,3.084-3.083,3.084c-1.704,0-3.083-1.382-3.083-3.084   C20.333,6.514,21.712,5.133,23.417,5.133z M32.845,41.465H13.986c-1.406,0-2.545-1.145-2.545-2.55c0-1.406,1.14-2.55,2.545-2.55   h18.858c1.404,0,2.543,1.144,2.543,2.55C35.388,40.32,34.251,41.465,32.845,41.465z M32.845,33.305H13.986   c-1.406,0-2.545-1.146-2.545-2.551c0-1.406,1.14-2.552,2.545-2.552h18.858c1.404,0,2.543,1.146,2.543,2.552   C35.39,32.158,34.251,33.305,32.845,33.305z M32.845,25.143H13.986c-1.406,0-2.545-1.108-2.545-2.515   c0-1.406,1.14-2.516,2.545-2.516h18.858c1.404,0,2.543,1.109,2.543,2.516C35.39,24.033,34.251,25.143,32.845,25.143z" fill="#8c8c8c"/>
</g>
<g>
</g>
<g>
</g>
<g>
</g>
<g>
</g>
<g>
</g>
<g>
</g>
<g>
</g>
<g>
</g>
<g>
</g>
<g>
</g>
<g>
</g>
<g>
</g>
<g>
</g>
<g>
</g>
<g>
</g>
</svg>
