<?xml version="1.0" encoding="UTF-8" standalone="no"?>
<!-- Created with Inkscape (http://www.inkscape.org/) -->

<svg
   xmlns:dc="http://purl.org/dc/elements/1.1/"
   xmlns:cc="http://creativecommons.org/ns#"
   xmlns:rdf="http://www.w3.org/1999/02/22-rdf-syntax-ns#"
   xmlns:svg="http://www.w3.org/2000/svg"
   xmlns="http://www.w3.org/2000/svg"
   xmlns:sodipodi="http://sodipodi.sourceforge.net/DTD/sodipodi-0.dtd"
   xmlns:inkscape="http://www.inkscape.org/namespaces/inkscape"
   id="svg2"
   xml:space="preserve"
   height="70"
   viewBox="0 0 70 70.000001"
   width="70"
   version="1.1"
   inkscape:version="0.91 r13725"
   sodipodi:docname="akademinet_mini_LOGO.svg"
   inkscape:export-filename="/home/betul/Desktop/Gobito.com/assets/images/gobito-brands/akademinet_mini_LOGO.png"
   inkscape:export-xdpi="90"
   inkscape:export-ydpi="90"><sodipodi:namedview
     pagecolor="#ffffff"
     bordercolor="#666666"
     borderopacity="1"
     objecttolerance="10"
     gridtolerance="10"
     guidetolerance="10"
     inkscape:pageopacity="0"
     inkscape:pageshadow="2"
     inkscape:window-width="1855"
     inkscape:window-height="1056"
     id="namedview21"
     showgrid="false"
     fit-margin-top="0"
     fit-margin-left="0"
     fit-margin-right="0"
     fit-margin-bottom="0"
     inkscape:zoom="4.72"
     inkscape:cx="53.117854"
     inkscape:cy="17.418311"
     inkscape:window-x="65"
     inkscape:window-y="24"
     inkscape:window-maximized="1"
     inkscape:current-layer="svg2" /><metadata
     id="metadata8"><rdf:RDF><cc:Work
         rdf:about=""><dc:format>image/svg+xml</dc:format><dc:type
           rdf:resource="http://purl.org/dc/dcmitype/StillImage" /><dc:title></dc:title></cc:Work></rdf:RDF></metadata><defs
     id="defs6"><clipPath
       id="clipPath150"
       clipPathUnits="userSpaceOnUse"><path
         id="path152"
         d="m 0,1433.7 4861.3,0 L 4861.3,0 0,0 0,1433.7 Z"
         inkscape:connector-curvature="0" /></clipPath><clipPath
       id="clipPath162"
       clipPathUnits="userSpaceOnUse"><path
         id="path164"
         d="m 0,1433.7 4861.3,0 L 4861.3,0 0,0 0,1433.7 Z"
         inkscape:connector-curvature="0" /></clipPath></defs><rect
     style="opacity:1;fill:#29a9e1;fill-opacity:1;fill-rule:nonzero;stroke:none;stroke-width:5;stroke-linecap:round;stroke-linejoin:bevel;stroke-miterlimit:4;stroke-dasharray:1.25, 1.25;stroke-dashoffset:0;stroke-opacity:1"
     id="rect4149"
     width="70"
     height="70"
     x="0"
     y="0" /><g
     id="g10"
     transform="matrix(1.25,0,0,-1.25,10.000522,60.000234)"><g
       id="g4214"
       transform="matrix(0.022421,0,0,0.022406,-2.2264,3.6953)"><g
         id="g146"
         style="fill:#ffffff"><g
           id="g148"
           clip-path="url(#clipPath150)"
           style="fill:#ffffff"><g
             id="g154"
             transform="translate(99.297,53.828)"
             style="fill:#ffffff"><path
               id="path156"
               d="m 0,0 680.01,0 c 336,0 623.95,0 863.99,183.98 135.92,104.05 240.01,272.05 240.01,504.02 0,200.01 -87.994,368.02 -224.03,479.99 C 1415.92,1288 1200,1352.03 959.96,1352.03 664.02,1352.03 351.97,1255.974 175.99,1032 0,808.02 0,560 0,328.03 L 0,0 Z"
               inkscape:connector-curvature="0"
               style="fill:#ffffff" /></g></g></g><g
         id="g158"
         style="fill:#29a9e1"><g
           id="g160"
           clip-path="url(#clipPath162)"
           style="fill:#29a9e1"><g
             id="g166"
             transform="translate(1499.4,483.72)"><path
               id="path168"
               d="m 0,0 c 0,-72.826 8.049,-150.72 -47.216,-221.03 -55.287,-70.34 -149.24,-100.49 -242.16,-100.49 -75.357,0 -141.14,20.094 -186.4,57.795 -42.719,35.148 -69.34,87.902 -69.34,150.69 0,72.849 33.183,119.84 75.856,152.53 75.382,57.749 166.3,52.035 271.81,52.035 L 0,91.522 0,-0.005 Z m 190.3,273.82 c 0,85.395 0.813,213.52 -99.668,326.56 -77.879,85.393 -195.53,140.68 -363.85,140.68 -135.66,0 -266.04,-27.667 -396.65,-85.427 l 75.428,-150.72 c 100.48,45.194 213.57,70.317 321.58,70.317 110.56,0 172.86,-30.117 220.6,-80.376 C 8.014,429.564 0,344.164 0,273.824 l 0,-15.795 -197.45,0 c -120.55,0 -256.19,0.36 -379.3,-90.074 -75.381,-55.265 -143.16,-150.53 -143.16,-281.15 0,-118.08 55.252,-213.43 128.11,-273.72 18.501,-15.332 38.989,-29.269 61.348,-41.651 255.97,5.55 480.75,34.265 674.33,182.63 2.591,1.998 8.922,10.175 11.488,12.219 40.267,87.786 34.937,169.23 34.937,233.72 l 0,273.82 z"
               stroke-miterlimit="10"
               inkscape:connector-curvature="0"
               style="fill:#29a9e1;stroke:#ffffff;stroke-width:11.15400028;stroke-miterlimit:10" /></g><g
             id="g170"
             transform="translate(1499.4,483.72)"><path
               id="path172"
               d="m 0,0 c 0,-72.826 8.049,-150.72 -47.216,-221.03 -55.287,-70.34 -149.24,-100.49 -242.16,-100.49 -75.357,0 -141.14,20.094 -186.4,57.795 -42.719,35.148 -69.34,87.902 -69.34,150.69 0,72.849 33.183,119.84 75.856,152.53 75.382,57.749 166.3,52.035 271.81,52.035 L 0,91.522 0,-0.005 Z m 190.3,273.82 c 0,85.395 0.813,213.52 -99.668,326.56 -77.879,85.393 -195.53,140.68 -363.85,140.68 -135.66,0 -266.04,-27.667 -396.65,-85.427 l 75.428,-150.72 c 100.48,45.194 213.57,70.317 321.58,70.317 110.56,0 172.86,-30.117 220.6,-80.376 C 8.014,429.564 0,344.164 0,273.824 l 0,-15.795 -197.45,0 c -120.55,0 -256.19,0.36 -379.3,-90.074 -75.381,-55.265 -143.16,-150.53 -143.16,-281.15 0,-118.08 55.252,-213.43 128.11,-273.72 18.501,-15.332 38.989,-29.269 61.348,-41.651 255.97,5.55 480.75,34.265 674.33,182.63 2.591,1.998 8.922,10.175 11.488,12.219 40.267,87.786 34.937,169.23 34.937,233.72 l 0,273.82 z"
               inkscape:connector-curvature="0"
               style="fill:#29a9e1" /></g></g></g></g></g></svg>