<?xml version="1.0" encoding="UTF-8" standalone="no"?>
<svg
   xmlns:dc="http://purl.org/dc/elements/1.1/"
   xmlns:cc="http://creativecommons.org/ns#"
   xmlns:rdf="http://www.w3.org/1999/02/22-rdf-syntax-ns#"
   xmlns:svg="http://www.w3.org/2000/svg"
   xmlns="http://www.w3.org/2000/svg"
   height="44.842297"
   width="58.694954"
   xml:space="preserve"
   viewBox="0 0 58.694952 44.842298"
   y="0px"
   x="0px"
   id="Layer_1"
   version="1.1"><metadata
     id="metadata51"><rdf:RDF><cc:Work
         rdf:about=""><dc:format>image/svg+xml</dc:format><dc:type
           rdf:resource="http://purl.org/dc/dcmitype/StillImage" /><dc:title></dc:title></cc:Work></rdf:RDF></metadata><defs
     id="defs49" /><g
     style="fill:#5958ff;fill-opacity:1"
     transform="matrix(0.19762677,0,0,0.19762677,0,-6.926423)"
     id="g3"><g
       style="fill:#5958ff;fill-opacity:1"
       id="g5"><g
         style="fill:#5958ff;fill-opacity:1"
         id="g7"><path
           style="fill:#5958ff;fill-opacity:1"
           id="path9"
           d="m 45.432,35.049 c -0.008,0 -0.017,0 -0.025,0 -2.809,0 -5.451,1.095 -7.446,3.085 -2.017,2.012 -3.128,4.691 -3.128,7.543 l 0,159.365 c 0,5.844 4.773,10.61 10.641,10.625 24.738,0.059 66.184,5.215 94.776,35.136 l 0,-166.78 c 0,-1.981 -0.506,-3.842 -1.461,-5.382 C 115.322,40.849 70.226,35.107 45.432,35.049 Z" /><path
           style="fill:#5958ff;fill-opacity:1"
           id="path11"
           d="m 262.167,205.042 0,-159.366 c 0,-2.852 -1.111,-5.531 -3.128,-7.543 -1.995,-1.99 -4.639,-3.085 -7.445,-3.085 -0.009,0 -0.018,0 -0.026,0 -24.793,0.059 -69.889,5.801 -93.357,43.593 -0.955,1.54 -1.46,3.401 -1.46,5.382 l 0,166.779 c 28.592,-29.921 70.038,-35.077 94.776,-35.136 5.867,-0.015 10.64,-4.781 10.64,-10.624 z" /><path
           style="fill:#5958ff;fill-opacity:1"
           id="path13"
           d="m 286.373,71.801 -7.706,0 0,133.241 c 0,14.921 -12.157,27.088 -27.101,27.125 -20.983,0.05 -55.581,4.153 -80.084,27.344 42.378,-10.376 87.052,-3.631 112.512,2.171 3.179,0.724 6.464,-0.024 9.011,-2.054 2.538,-2.025 3.994,-5.052 3.994,-8.301 l 0,-168.9 C 297,76.568 292.232,71.801 286.373,71.801 Z" /><path
           style="fill:#5958ff;fill-opacity:1"
           id="path15"
           d="m 18.332,205.042 0,-133.241 -7.706,0 C 4.768,71.801 0,76.568 0,82.427 l 0,168.897 c 0,3.25 1.456,6.276 3.994,8.301 2.545,2.029 5.827,2.78 9.011,2.054 25.46,-5.803 70.135,-12.547 112.511,-2.171 -24.502,-23.19 -59.1,-27.292 -80.083,-27.342 C 30.49,232.13 18.332,219.963 18.332,205.042 Z" /></g></g></g><g
     style="fill:#ffffff"
     transform="matrix(0.19762677,0,0,0.19762677,0,-6.926423)"
     id="g17" /><g
     style="fill:#ffffff"
     transform="matrix(0.19762677,0,0,0.19762677,0,-6.926423)"
     id="g19" /><g
     style="fill:#ffffff"
     transform="matrix(0.19762677,0,0,0.19762677,0,-6.926423)"
     id="g21" /><g
     style="fill:#ffffff"
     transform="matrix(0.19762677,0,0,0.19762677,0,-6.926423)"
     id="g23" /><g
     style="fill:#ffffff"
     transform="matrix(0.19762677,0,0,0.19762677,0,-6.926423)"
     id="g25" /><g
     style="fill:#ffffff"
     transform="matrix(0.19762677,0,0,0.19762677,0,-6.926423)"
     id="g27" /><g
     style="fill:#ffffff"
     transform="matrix(0.19762677,0,0,0.19762677,0,-6.926423)"
     id="g29" /><g
     style="fill:#ffffff"
     transform="matrix(0.19762677,0,0,0.19762677,0,-6.926423)"
     id="g31" /><g
     style="fill:#ffffff"
     transform="matrix(0.19762677,0,0,0.19762677,0,-6.926423)"
     id="g33" /><g
     style="fill:#ffffff"
     transform="matrix(0.19762677,0,0,0.19762677,0,-6.926423)"
     id="g35" /><g
     style="fill:#ffffff"
     transform="matrix(0.19762677,0,0,0.19762677,0,-6.926423)"
     id="g37" /><g
     style="fill:#ffffff"
     transform="matrix(0.19762677,0,0,0.19762677,0,-6.926423)"
     id="g39" /><g
     style="fill:#ffffff"
     transform="matrix(0.19762677,0,0,0.19762677,0,-6.926423)"
     id="g41" /><g
     style="fill:#ffffff"
     transform="matrix(0.19762677,0,0,0.19762677,0,-6.926423)"
     id="g43" /><g
     style="fill:#ffffff"
     transform="matrix(0.19762677,0,0,0.19762677,0,-6.926423)"
     id="g45" /><flowRoot
     transform="matrix(0.19762677,0,0,0.19762677,0,-6.926423)"
     style="font-style:normal;font-variant:normal;font-weight:bold;font-stretch:normal;font-size:16.25px;line-height:125%;font-family:'Proxima Nova Th';-inkscape-font-specification:'Proxima Nova Th, Bold';text-align:start;letter-spacing:0px;word-spacing:0px;writing-mode:lr-tb;text-anchor:start;fill:#ffffff;fill-opacity:1;stroke:none;stroke-width:1px;stroke-linecap:butt;stroke-linejoin:miter;stroke-opacity:1"
     id="flowRoot4179"
     xml:space="preserve"><flowRegion
       id="flowRegion4181"><rect
         style="fill:#ffffff"
         y="122.07162"
         x="333.49463"
         height="27.686346"
         width="2.5169406"
         id="rect4183" /></flowRegion><flowPara
       id="flowPara4185" /></flowRoot></svg>