<?xml version="1.0" encoding="UTF-8" standalone="no"?>
<!-- Generator: Adobe Illustrator 19.0.0, SVG Export Plug-In . SVG Version: 6.00 Build 0)  -->

<svg
   xmlns:dc="http://purl.org/dc/elements/1.1/"
   xmlns:cc="http://creativecommons.org/ns#"
   xmlns:rdf="http://www.w3.org/1999/02/22-rdf-syntax-ns#"
   xmlns:svg="http://www.w3.org/2000/svg"
   xmlns="http://www.w3.org/2000/svg"
   xmlns:sodipodi="http://sodipodi.sourceforge.net/DTD/sodipodi-0.dtd"
   xmlns:inkscape="http://www.inkscape.org/namespaces/inkscape"
   version="1.1"
   id="Layer_1"
   x="0px"
   y="0px"
   viewBox="0 0 305.99999 54.502496"
   xml:space="preserve"
   inkscape:version="0.91 r13725"
   sodipodi:docname="logo.svg"
   width="306"
   height="54.502495"><metadata
     id="metadata51"><rdf:RDF><cc:Work
         rdf:about=""><dc:format>image/svg+xml</dc:format><dc:type
           rdf:resource="http://purl.org/dc/dcmitype/StillImage" /><dc:title></dc:title></cc:Work></rdf:RDF></metadata><defs
     id="defs49" /><sodipodi:namedview
     pagecolor="#ffffff"
     bordercolor="#666666"
     borderopacity="1"
     objecttolerance="10"
     gridtolerance="10"
     guidetolerance="10"
     inkscape:pageopacity="0"
     inkscape:pageshadow="2"
     inkscape:window-width="1855"
     inkscape:window-height="1056"
     id="namedview47"
     showgrid="false"
     fit-margin-top="0"
     fit-margin-left="0"
     fit-margin-right="0"
     fit-margin-bottom="0"
     inkscape:zoom="1.589231"
     inkscape:cx="248.19815"
     inkscape:cy="157.7397"
     inkscape:window-x="65"
     inkscape:window-y="24"
     inkscape:window-maximized="1"
     inkscape:current-layer="Layer_1" /><g
     id="g3"
     transform="matrix(0.19762677,0,0,0.19762677,0,-6.926423)"
     style="fill:#ffffff"><g
       id="g5"
       style="fill:#ffffff"><g
         id="g7"
         style="fill:#ffffff"><path
           d="m 45.432,35.049 c -0.008,0 -0.017,0 -0.025,0 -2.809,0 -5.451,1.095 -7.446,3.085 -2.017,2.012 -3.128,4.691 -3.128,7.543 l 0,159.365 c 0,5.844 4.773,10.61 10.641,10.625 24.738,0.059 66.184,5.215 94.776,35.136 l 0,-166.78 c 0,-1.981 -0.506,-3.842 -1.461,-5.382 C 115.322,40.849 70.226,35.107 45.432,35.049 Z"
           id="path9"
           inkscape:connector-curvature="0"
           style="fill:#ffffff" /><path
           d="m 262.167,205.042 0,-159.366 c 0,-2.852 -1.111,-5.531 -3.128,-7.543 -1.995,-1.99 -4.639,-3.085 -7.445,-3.085 -0.009,0 -0.018,0 -0.026,0 -24.793,0.059 -69.889,5.801 -93.357,43.593 -0.955,1.54 -1.46,3.401 -1.46,5.382 l 0,166.779 c 28.592,-29.921 70.038,-35.077 94.776,-35.136 5.867,-0.015 10.64,-4.781 10.64,-10.624 z"
           id="path11"
           inkscape:connector-curvature="0"
           style="fill:#ffffff" /><path
           d="m 286.373,71.801 -7.706,0 0,133.241 c 0,14.921 -12.157,27.088 -27.101,27.125 -20.983,0.05 -55.581,4.153 -80.084,27.344 42.378,-10.376 87.052,-3.631 112.512,2.171 3.179,0.724 6.464,-0.024 9.011,-2.054 2.538,-2.025 3.994,-5.052 3.994,-8.301 l 0,-168.9 C 297,76.568 292.232,71.801 286.373,71.801 Z"
           id="path13"
           inkscape:connector-curvature="0"
           style="fill:#ffffff" /><path
           d="m 18.332,205.042 0,-133.241 -7.706,0 C 4.768,71.801 0,76.568 0,82.427 l 0,168.897 c 0,3.25 1.456,6.276 3.994,8.301 2.545,2.029 5.827,2.78 9.011,2.054 25.46,-5.803 70.135,-12.547 112.511,-2.171 -24.502,-23.19 -59.1,-27.292 -80.083,-27.342 C 30.49,232.13 18.332,219.963 18.332,205.042 Z"
           id="path15"
           inkscape:connector-curvature="0"
           style="fill:#ffffff" /></g></g></g><g
     id="g17"
     transform="matrix(0.19762677,0,0,0.19762677,0,-6.926423)"
     style="fill:#ffffff" /><g
     id="g19"
     transform="matrix(0.19762677,0,0,0.19762677,0,-6.926423)"
     style="fill:#ffffff" /><g
     id="g21"
     transform="matrix(0.19762677,0,0,0.19762677,0,-6.926423)"
     style="fill:#ffffff" /><g
     id="g23"
     transform="matrix(0.19762677,0,0,0.19762677,0,-6.926423)"
     style="fill:#ffffff" /><g
     id="g25"
     transform="matrix(0.19762677,0,0,0.19762677,0,-6.926423)"
     style="fill:#ffffff" /><g
     id="g27"
     transform="matrix(0.19762677,0,0,0.19762677,0,-6.926423)"
     style="fill:#ffffff" /><g
     id="g29"
     transform="matrix(0.19762677,0,0,0.19762677,0,-6.926423)"
     style="fill:#ffffff" /><g
     id="g31"
     transform="matrix(0.19762677,0,0,0.19762677,0,-6.926423)"
     style="fill:#ffffff" /><g
     id="g33"
     transform="matrix(0.19762677,0,0,0.19762677,0,-6.926423)"
     style="fill:#ffffff" /><g
     id="g35"
     transform="matrix(0.19762677,0,0,0.19762677,0,-6.926423)"
     style="fill:#ffffff" /><g
     id="g37"
     transform="matrix(0.19762677,0,0,0.19762677,0,-6.926423)"
     style="fill:#ffffff" /><g
     id="g39"
     transform="matrix(0.19762677,0,0,0.19762677,0,-6.926423)"
     style="fill:#ffffff" /><g
     id="g41"
     transform="matrix(0.19762677,0,0,0.19762677,0,-6.926423)"
     style="fill:#ffffff" /><g
     id="g43"
     transform="matrix(0.19762677,0,0,0.19762677,0,-6.926423)"
     style="fill:#ffffff" /><g
     id="g45"
     transform="matrix(0.19762677,0,0,0.19762677,0,-6.926423)"
     style="fill:#ffffff" /><flowRoot
     xml:space="preserve"
     id="flowRoot4179"
     style="font-style:normal;font-variant:normal;font-weight:bold;font-stretch:normal;font-size:16.25px;line-height:125%;font-family:'Proxima Nova Th';-inkscape-font-specification:'Proxima Nova Th, Bold';text-align:start;letter-spacing:0px;word-spacing:0px;writing-mode:lr-tb;text-anchor:start;fill:#ffffff;fill-opacity:1;stroke:none;stroke-width:1px;stroke-linecap:butt;stroke-linejoin:miter;stroke-opacity:1"
     transform="matrix(0.19762677,0,0,0.19762677,0,-6.926423)"><flowRegion
       id="flowRegion4181"><rect
         id="rect4183"
         width="2.5169406"
         height="27.686346"
         x="333.49463"
         y="122.07162"
         style="fill:#ffffff" /></flowRegion><flowPara
       id="flowPara4185" /></flowRoot><g
     style="font-style:normal;font-variant:normal;font-weight:normal;font-stretch:normal;font-size:250px;line-height:125%;font-family:'Century Gothic';-inkscape-font-specification:'Century Gothic';text-align:start;letter-spacing:0px;word-spacing:0px;writing-mode:lr-tb;text-anchor:start;fill:#ffffff;fill-opacity:1;stroke:none;stroke-width:1px;stroke-linecap:butt;stroke-linejoin:miter;stroke-opacity:1"
     id="text4187"
     transform="matrix(0.19762677,0,0,0.19762677,6,-3.06992e-6)"><path
       id="path4216"
       style="font-style:normal;font-variant:normal;font-weight:normal;font-stretch:normal;font-size:250px;font-family:'Century Gothic';-inkscape-font-specification:'Century Gothic';fill:#ffffff"
       d="m 1409.9808,43.118973 17.2119,0 0,104.736327 61.4014,-53.466796 25.1465,0 -72.876,63.354496 77.1484,69.458 -24.1699,0 -66.6504,-59.69238 0,59.69238 -17.2119,0 0,-184.082027 z m -30.2734,65.795897 -10.9864,11.35254 q -13.6718,-13.30566 -26.7334,-13.30566 -8.3007,0 -14.2822,5.49316 -5.8594,5.49316 -5.8594,12.81738 0,6.46973 4.8829,12.3291 4.8828,5.98145 20.5078,14.03809 19.0429,9.8877 25.8789,19.04297 6.7138,9.27734 6.7138,20.87402 0,16.35742 -11.4746,27.70996 -11.4746,11.35254 -28.6865,11.35254 -11.4746,0 -21.9727,-5.00488 -10.3759,-5.00488 -17.2119,-13.79395 l 10.7422,-12.20703 q 13.0615,14.77051 27.71,14.77051 10.2539,0 17.456,-6.5918 7.2022,-6.59179 7.2022,-15.50293 0,-7.32421 -4.7608,-13.06152 -4.7607,-5.61523 -21.4843,-14.16016 -17.9444,-9.27734 -24.4141,-18.31054 -6.4697,-9.03321 -6.4697,-20.62988 0,-15.13672 10.2539,-25.14649 10.376,-10.009765 26.123,-10.009765 18.3106,0 36.8653,17.944335 z m -117.5537,74.21875 14.4043,7.56836 q -7.0801,13.91602 -16.3575,22.46094 -9.2773,8.54492 -20.874,13.06152 -11.5967,4.39453 -26.2451,4.39453 -32.4707,0 -50.7813,-21.24023 -18.3105,-21.36231 -18.3105,-48.21778 0,-25.26855 15.5029,-45.04394 19.6533,-25.146485 52.6123,-25.146485 33.9356,0 54.1992,25.756835 14.4043,18.18848 14.6485,45.41016 l -119.3848,0 q 0.4883,23.19336 14.7705,38.08593 14.2823,14.77051 35.2783,14.77051 10.1319,0 19.6534,-3.54004 9.6435,-3.54004 16.3574,-9.39941 6.7139,-5.85938 14.5264,-18.9209 z m 0,-35.7666 q -3.418,-13.67188 -10.0098,-21.85059 -6.4697,-8.17871 -17.2119,-13.18359 -10.7422,-5.00488 -22.583,-5.00488 -19.5313,0 -33.5694,12.57324 -10.2539,9.15527 -15.5029,27.46582 l 98.877,0 z m -295.04399,79.83398 0,-179.565426 37.23149,0 q 40.2832,0 58.4716,6.469727 26.1231,9.155273 40.7715,31.738281 14.7705,22.583008 14.7705,53.833008 0,26.97754 -11.7187,47.48535 -11.5967,20.50781 -30.2735,30.27344 -18.5546,9.76562 -52.124,9.76562 l -57.12889,0 z m 17.21191,-16.96777 20.75198,0 q 37.2314,0 51.6357,-4.63867 20.2637,-6.5918 31.8604,-23.68164 11.5967,-17.21192 11.5967,-41.99219 0,-26.00098 -12.5733,-44.433593 -12.5732,-18.432617 -35.0342,-25.268555 -16.8457,-5.126953 -55.54196,-5.126953 l -12.69532,0 0,145.141601 z M 724.80014,94.388504 l 16.96777,0 0,24.414066 q 10.13184,-13.91602 23.31543,-20.874027 13.1836,-6.958008 29.41895,-6.958008 28.32031,0 48.46191,20.385745 20.1416,20.38574 20.1416,49.07226 0,29.29688 -20.01953,49.80469 -19.89746,20.38574 -48.0957,20.38574 -15.86914,0 -29.1748,-6.59179 -13.30567,-6.5918 -24.04786,-19.65332 l 0,71.41113 -16.96777,0 0,-181.396486 z m 68.35938,13.061526 q -22.2168,0 -37.47559,15.50293 -15.13672,15.50293 -15.13672,38.57422 0,15.13671 6.71387,27.22168 6.83594,12.08496 19.40918,19.16503 12.69531,7.08008 26.7334,7.08008 13.79394,0 25.8789,-7.08008 12.20703,-7.20214 19.40918,-20.01953 7.20215,-12.81738 7.20215,-26.85547 0,-14.16015 -7.20215,-26.85546 -7.08008,-12.69532 -19.16504,-19.65332 -12.08496,-7.08008 -26.36718,-7.08008 z m -121.45997,-64.331057 17.08985,0 0,184.082027 -17.08985,0 0,-184.082027 z m -48.21777,140.014647 14.4043,7.56836 q -7.08008,13.91602 -16.35742,22.46094 -9.27735,8.54492 -20.87403,13.06152 -11.59668,4.39453 -26.24511,4.39453 -32.47071,0 -50.78125,-21.24023 -18.31055,-21.36231 -18.31055,-48.21778 0,-25.26855 15.50293,-45.04394 19.65332,-25.146485 52.6123,-25.146485 33.93555,0 54.19922,25.756835 14.4043,18.18848 14.64844,45.41016 l -119.38477,0 q 0.48828,23.19336 14.77051,38.08593 14.28223,14.77051 35.27832,14.77051 10.13184,0 19.65332,-3.54004 9.64356,-3.54004 16.35742,-9.39941 6.71387,-5.85938 14.52637,-18.9209 z m 0,-35.7666 q -3.41797,-13.67188 -10.00976,-21.85059 -6.46973,-8.17871 -17.21192,-13.18359 -10.74219,-5.00488 -22.58301,-5.00488 -19.53125,0 -33.56933,12.57324 -10.25391,9.15527 -15.50293,27.46582 l 98.87695,0 z m -280.15137,-99.731446 18.06641,0 0,75.317386 91.30859,0 0,-75.317386 18.06641,0 0,179.565426 -18.06641,0 0,-86.66992 -91.30859,0 0,86.66992 -18.06641,0 0,-179.565426 z"
       inkscape:connector-curvature="0" /></g></svg>