<?xml version="1.0" encoding="UTF-8" standalone="no"?>
<!-- Created with Inkscape (http://www.inkscape.org/) -->

<svg
   xmlns:dc="http://purl.org/dc/elements/1.1/"
   xmlns:cc="http://creativecommons.org/ns#"
   xmlns:rdf="http://www.w3.org/1999/02/22-rdf-syntax-ns#"
   xmlns:svg="http://www.w3.org/2000/svg"
   xmlns="http://www.w3.org/2000/svg"
   xmlns:sodipodi="http://sodipodi.sourceforge.net/DTD/sodipodi-0.dtd"
   xmlns:inkscape="http://www.inkscape.org/namespaces/inkscape"
   id="svg2"
   xml:space="preserve"
   height="70.000008"
   viewBox="0 0 70.000008 70.000009"
   width="70.000008"
   version="1.1"
   inkscape:version="0.91 r13725"
   sodipodi:docname="wowslides_mini_LOGO.svg"
   inkscape:export-filename="/home/betul/Desktop/Gobito.com/assets/images/gobito-brands/wowslides_mini_LOGO.png"
   inkscape:export-xdpi="90"
   inkscape:export-ydpi="90"><sodipodi:namedview
     pagecolor="#ffffff"
     bordercolor="#666666"
     borderopacity="1"
     objecttolerance="10"
     gridtolerance="10"
     guidetolerance="10"
     inkscape:pageopacity="0"
     inkscape:pageshadow="2"
     inkscape:window-width="1855"
     inkscape:window-height="1056"
     id="namedview54"
     showgrid="false"
     fit-margin-top="0"
     fit-margin-left="0"
     fit-margin-right="0"
     fit-margin-bottom="0"
     inkscape:zoom="4.72"
     inkscape:cx="12.966105"
     inkscape:cy="21.652546"
     inkscape:window-x="65"
     inkscape:window-y="24"
     inkscape:window-maximized="1"
     inkscape:current-layer="svg2" /><metadata
     id="metadata8"><rdf:RDF><cc:Work
         rdf:about=""><dc:format>image/svg+xml</dc:format><dc:type
           rdf:resource="http://purl.org/dc/dcmitype/StillImage" /><dc:title></dc:title></cc:Work></rdf:RDF></metadata><defs
     id="defs6"><clipPath
       id="clipPath144"
       clipPathUnits="userSpaceOnUse"><path
         id="path146"
         d="m 637.61,140.93 c -14.617,-22.782 -32.148,-42.602 -46.004,-66.141 46.606,9.9492 89.172,23.922 140.91,28.742 29.675,40.348 62.504,77.489 86.289,123.68 -20.641,-2.41 -37.696,-8.313 -60.399,-8.652 -17.199,-21.11 -30.226,-46.457 -48.886,-66.11 -24.477,-3.328 -44.719,-10.91 -71.907,-11.519 z"
         inkscape:connector-curvature="0" /></clipPath><clipPath
       id="clipPath160"
       clipPathUnits="userSpaceOnUse"><path
         id="path162"
         d="M 556.62,21.02 591.61,74.789 499.57,54.641 462.16,0 556.62,21.02 Z"
         inkscape:connector-curvature="0" /></clipPath><clipPath
       id="clipPath176"
       clipPathUnits="userSpaceOnUse"><path
         id="path178"
         d="m 568.58,152.45 -29.152,-3.578 c -5.578,-1.172 -11.391,-2.121 -18.063,-2.211 l -15.367,-1.89 22.5,41.25 66.875,8.75 L 568.58,152.45 Z M 1028.7,1038.3 C 818.25,1128.8 607.14,1218.7 396.02,1308.6 452.23,1123.8 504.2,900.2 504.5,675.56 l -0.383,0.027 c 0.051,-10.066 0.219,-25.469 -0.254,-45.332 -0.719,-23.555 -2.262,-47.078 -4.019,-70.586 -8.23,-109.9 -38.08,-202.59 -44.85,-228.9 -8.75,-28.82 -19,-58.69 -31.13,-89.44 l 105.11,9.652 c 0.73,-0.261 1.554,-0.429 2.214,-0.761 C 518.415,226.579 508.2,200.353 493.81,178.321 460.532,171.31 424.794,166.79 387.37,163.942 c -12.941,-26.363 -27.726,-50.871 -43.117,-74.75 37.66,3.5274 70.41,12 109.28,14.34 l -15.77,-22.909 c -1.742,-2.6016 -3.527,-5.1602 -5.355,-7.7813 l -25.35,-36.86 c 0.149,-0.4922 0.137,-1.0117 0.442,-1.461 30.008,7.3907 59.312,15.461 92.054,20.121 17.704,21.609 30.161,48.437 48.872,69.039 27.285,7.23 59.98,9.039 86.312,17.25 16.676,21.64 30.02,46.679 48.871,66.14 26.258,2.508 52.727,4.84 74.785,11.489 8.227,21.14 22.668,36.082 31.684,56.382 l 63.418,5.821 c 59.363,107.76 102.18,232.78 116,280.68 7.43,24.739 72.116,250.83 59.226,476.83 z"
         inkscape:connector-curvature="0" /></clipPath><clipPath
       id="clipPath192"
       clipPathUnits="userSpaceOnUse"><path
         id="path194"
         d="m 437.77,80.621 15.758,22.91 c -4.84,-6.358 -10.11,-14.491 -15.76,-22.909 z"
         inkscape:connector-curvature="0" /></clipPath><clipPath
       id="clipPath208"
       clipPathUnits="userSpaceOnUse"><path
         id="path210"
         d="m 427.02,1092 c -100.58,14.1 -201.18,28.1 -301.79,42.2 92.18,-147.39 189.69,-329.38 242.68,-524.42 l -0.039,-0.008 c 53.336,-228.33 38.188,-316.7 38.188,-316.7 l 9.734,4.184 c 25.316,60.246 48.621,220.32 49.184,221.13 22.796,193.1 0.882,391.67 -37.957,573.56 z"
         inkscape:connector-curvature="0" /></clipPath><clipPath
       id="clipPath224"
       clipPathUnits="userSpaceOnUse"><path
         id="path226"
         d="m 435.04,931.91 c -6.551,46.375 -14.629,93.7 -24.699,142.19 -81.926,11.51 -163.86,22.97 -245.8,34.4 91.691,-151.13 158.07,-290.61 201.61,-423.51 6.465,16.629 56.305,137.28 68.891,246.92 z"
         inkscape:connector-curvature="0" /></clipPath><clipPath
       id="clipPath240"
       clipPathUnits="userSpaceOnUse"><path
         id="path242"
         d="m 374.12,229.77 c 27.184,162.22 -32.969,368.8 -71.324,477.76 -9.192,25.45 -18.793,50.536 -28.719,75.176 -91.34,-3.03 -182.72,-6.14 -274.08,-9.24 131.36,-146.27 278.83,-339.63 347.6,-557.61 7.628,3.243 17.378,8.032 27.828,13.129 l -1.309,0.782 z"
         inkscape:connector-curvature="0" /></clipPath><clipPath
       id="clipPath256"
       clipPathUnits="userSpaceOnUse"><path
         id="path258"
         d="m 43.106,754.92 c 74.484,-85.54 136.84,-168.25 187.93,-249.04 37.035,80.625 50.551,183.36 52.817,195.23 -7.344,20.308 -15.102,40.82 -23.145,61.14 -72.519,-2.402 -145.06,-4.863 -217.6,-7.324 z"
         inkscape:connector-curvature="0" /></clipPath><clipPath
       id="clipPath272"
       clipPathUnits="userSpaceOnUse"><path
         id="path274"
         d="m 524.19,656.36 c -0.008,-7.683 -0.09,-16.621 -0.333,-26.718 -0.773,-25.45 -2.488,-50.411 -4.058,-71.473 -4.106,-54.797 -13.359,-104.96 -22.613,-145.3 284.44,251.91 440.71,642.65 404.84,658.02 -158.7,68.02 -318.58,136.14 -474.71,202.64 65.125,-223.96 96.945,-419.94 97.191,-597.95 l -0.316,-19.219 z"
         inkscape:connector-curvature="0" /></clipPath></defs><rect
     style="opacity:1;fill:#40c1ba;fill-opacity:1;fill-rule:nonzero;stroke:none;stroke-width:5;stroke-linecap:round;stroke-linejoin:bevel;stroke-miterlimit:4;stroke-dasharray:1.25, 1.25000000000000000;stroke-dashoffset:0;stroke-opacity:1"
     id="rect4149"
     width="70.000008"
     height="70.000008"
     x="0"
     y="0" /><g
     id="g10"
     transform="matrix(1.25,0,0,-1.25,10.000242,59.999992)"><g
       id="g12"
       transform="scale(0.1,0.1)"><g
         id="g4410"
         transform="matrix(0.30567,0,0,0.30567,42.515,2.5226e-5)"
         style="fill:#ffffff"><path
           id="path138"
           d="m 744,463.04 c 17.406,-2.754 31.703,-0.93 48.914,-2.863 -4.062,-15.125 -8.383,-29.961 -14.391,-43.145 15.989,-1.054 52.555,0.723 77.676,0 -9.125,-20.605 -18.422,-41.023 -25.883,-63.281 22.457,-7.93 33.633,2.598 60.383,0 -8.52,-23.1 -21.7,-41.55 -31.63,-63.27 -22.32,-0.718 -43.136,-2.851 -63.269,-5.742 11.68,19.922 22.672,40.59 31.652,63.266 -20.738,6.289 -49.676,-3.984 -74.808,-2.852 5.382,24.309 17.089,42.356 23.027,66.125 -4.824,11.485 -29.352,3.258 -43.152,5.75 2.472,16.692 7.703,30.645 11.484,46.008"
           inkscape:connector-curvature="0"
           style="fill-rule:evenodd" /><g
           id="g140"><g
             id="g142"
             clip-path="url(#clipPath144)"
             style="fill:#ffffff"><path
               id="path154"
               d="m 637.61,140.93 c -14.617,-22.782 -32.148,-42.602 -46.004,-66.141 46.606,9.9492 89.172,23.922 140.91,28.742 29.675,40.348 62.504,77.489 86.289,123.68 -20.641,-2.41 -37.696,-8.313 -60.399,-8.652 -17.199,-21.11 -30.226,-46.457 -48.886,-66.11 -24.477,-3.328 -44.719,-10.91 -71.907,-11.519"
               inkscape:connector-curvature="0"
               style="fill:#ffffff" /></g></g><g
           id="g156"><g
             id="g158"
             clip-path="url(#clipPath160)"
             style="fill:#ffffff"><path
               id="path170"
               d="M 556.62,21.02 591.61,74.789 499.57,54.641 462.16,0 556.62,21.02"
               inkscape:connector-curvature="0"
               style="fill:#ffffff" /></g></g><g
           id="g172"><g
             id="g174"
             clip-path="url(#clipPath176)"
             style="fill:#ffffff"><path
               id="path186"
               d="m 568.58,152.45 -29.152,-3.578 c -5.578,-1.172 -11.391,-2.121 -18.063,-2.211 l -15.367,-1.89 22.5,41.25 66.875,8.75 L 568.58,152.45 Z M 1028.7,1038.3 C 818.25,1128.8 607.14,1218.7 396.02,1308.6 452.23,1123.8 504.2,900.2 504.5,675.56 l -0.383,0.027 c 0.051,-10.066 0.219,-25.469 -0.254,-45.332 -0.719,-23.555 -2.262,-47.078 -4.019,-70.586 -8.23,-109.9 -38.08,-202.59 -44.85,-228.9 -8.75,-28.82 -19,-58.69 -31.13,-89.44 l 105.11,9.652 c 0.73,-0.261 1.554,-0.429 2.214,-0.761 C 518.415,226.579 508.2,200.353 493.81,178.321 460.532,171.31 424.794,166.79 387.37,163.942 c -12.941,-26.363 -27.726,-50.871 -43.117,-74.75 37.66,3.5274 70.41,12 109.28,14.34 l -15.77,-22.909 c -1.742,-2.6016 -3.527,-5.1602 -5.355,-7.7813 l -25.35,-36.86 c 0.149,-0.4922 0.137,-1.0117 0.442,-1.461 30.008,7.3907 59.312,15.461 92.054,20.121 17.704,21.609 30.161,48.437 48.872,69.039 27.285,7.23 59.98,9.039 86.312,17.25 16.676,21.64 30.02,46.679 48.871,66.14 26.258,2.508 52.727,4.84 74.785,11.489 8.227,21.14 22.668,36.082 31.684,56.382 l 63.418,5.821 c 59.363,107.76 102.18,232.78 116,280.68 7.43,24.739 72.116,250.83 59.226,476.83"
               inkscape:connector-curvature="0"
               style="fill:#ffffff" /></g></g><g
           id="g188"><g
             id="g190"
             clip-path="url(#clipPath192)"
             style="fill:#ffffff"><path
               id="path202"
               d="m 437.77,80.621 15.758,22.91 c -4.84,-6.358 -10.11,-14.491 -15.76,-22.909"
               inkscape:connector-curvature="0"
               style="fill:#ffffff" /></g></g><g
           id="g204"><g
             id="g206"
             clip-path="url(#clipPath208)"
             style="fill:#ffffff"><path
               id="path218"
               d="m 427.02,1092 c -100.58,14.1 -201.18,28.1 -301.79,42.2 92.18,-147.39 189.69,-329.38 242.68,-524.42 l -0.039,-0.008 c 53.336,-228.33 38.188,-316.7 38.188,-316.7 l 9.734,4.184 c 25.316,60.246 48.621,220.32 49.184,221.13 22.796,193.1 0.882,391.67 -37.957,573.56"
               inkscape:connector-curvature="0"
               style="fill:#ffffff" /></g></g><g
           id="g220"><g
             id="g222"
             clip-path="url(#clipPath224)"
             style="fill:#ffffff"><path
               id="path234"
               d="m 435.04,931.91 c -6.551,46.375 -14.629,93.7 -24.699,142.19 -81.926,11.51 -163.86,22.97 -245.8,34.4 91.691,-151.13 158.07,-290.61 201.61,-423.51 6.465,16.629 56.305,137.28 68.891,246.92"
               inkscape:connector-curvature="0"
               style="fill:#ffffff" /></g></g><g
           id="g236"><g
             id="g238"
             clip-path="url(#clipPath240)"
             style="fill:#ffffff"><path
               id="path250"
               d="m 374.12,229.77 c 27.184,162.22 -32.969,368.8 -71.324,477.76 -9.192,25.45 -18.793,50.536 -28.719,75.176 -91.34,-3.03 -182.72,-6.14 -274.08,-9.24 131.36,-146.27 278.83,-339.63 347.6,-557.61 7.628,3.243 17.378,8.032 27.828,13.129 l -1.309,0.782"
               inkscape:connector-curvature="0"
               style="fill:#ffffff" /></g></g><g
           id="g252"><g
             id="g254"
             clip-path="url(#clipPath256)"
             style="fill:#ffffff"><path
               id="path266"
               d="m 43.106,754.92 c 74.484,-85.54 136.84,-168.25 187.93,-249.04 37.035,80.625 50.551,183.36 52.817,195.23 -7.344,20.308 -15.102,40.82 -23.145,61.14 -72.519,-2.402 -145.06,-4.863 -217.6,-7.324"
               inkscape:connector-curvature="0"
               style="fill:#ffffff" /></g></g><g
           id="g268"><g
             id="g270"
             clip-path="url(#clipPath272)"
             style="fill:#ffffff"><path
               id="path282"
               d="m 524.19,656.36 c -0.008,-7.683 -0.09,-16.621 -0.333,-26.718 -0.773,-25.45 -2.488,-50.411 -4.058,-71.473 -4.106,-54.797 -13.359,-104.96 -22.613,-145.3 284.44,251.91 440.71,642.65 404.84,658.02 -158.7,68.02 -318.58,136.14 -474.71,202.64 65.125,-223.96 96.945,-419.94 97.191,-597.95 l -0.316,-19.219"
               inkscape:connector-curvature="0"
               style="fill:#ffffff" /></g></g></g></g></g></svg>