<?xml version="1.0" encoding="iso-8859-1"?>
<!-- Generator: Adobe Illustrator 19.0.0, SVG Export Plug-In . SVG Version: 6.00 Build 0)  -->
<svg xmlns="http://www.w3.org/2000/svg" xmlns:xlink="http://www.w3.org/1999/xlink" version="1.1" id="Layer_1" x="0px" y="0px" viewBox="0 0 512 512" style="enable-background:new 0 0 512 512;" xml:space="preserve" width="512px" height="512px">
<g>
	<g>
		<g>
			<path d="M452.267,34.133h-25.6h-8.533H307.199v-25.6c0-4.719-3.814-8.533-8.533-8.533h-85.333c-4.719,0-8.533,3.814-8.533,8.533     v25.6H93.867h-8.533h-25.6c-4.719,0-8.533,3.814-8.533,8.533s3.814,8.533,8.533,8.533H76.8v435.2c0,14.114,11.486,25.6,25.6,25.6     h307.2c14.114,0,25.6-11.486,25.6-25.6V51.2h17.067c4.719,0,8.533-3.814,8.533-8.533S456.986,34.133,452.267,34.133z      M221.866,17.067h68.267v17.067h-68.267V17.067z M418.133,486.4c0,4.71-3.823,8.533-8.533,8.533H102.4     c-4.71,0-8.533-3.823-8.533-8.533V51.2h119.466h85.333h119.467V486.4z" fill="#4d4d4d"/>
			<path d="M153.6,102.4c-4.719,0-8.533,3.814-8.533,8.533V435.2c0,4.719,3.814,8.533,8.533,8.533s8.533-3.814,8.533-8.533V110.933     C162.133,106.214,158.319,102.4,153.6,102.4z" fill="#4d4d4d"/>
			<path d="M221.867,102.4c-4.719,0-8.533,3.814-8.533,8.533V435.2c0,4.719,3.814,8.533,8.533,8.533s8.533-3.814,8.533-8.533     V110.933C230.4,106.214,226.586,102.4,221.867,102.4z" fill="#4d4d4d"/>
			<path d="M290.133,102.4c-4.719,0-8.533,3.814-8.533,8.533V435.2c0,4.719,3.814,8.533,8.533,8.533     c4.719,0,8.533-3.814,8.533-8.533V110.933C298.667,106.214,294.852,102.4,290.133,102.4z" fill="#4d4d4d"/>
			<path d="M358.4,443.733c4.719,0,8.533-3.814,8.533-8.533V110.933c0-4.719-3.814-8.533-8.533-8.533     c-4.719,0-8.533,3.814-8.533,8.533V435.2C349.867,439.919,353.681,443.733,358.4,443.733z" fill="#4d4d4d"/>
		</g>
	</g>
</g>
<g>
</g>
<g>
</g>
<g>
</g>
<g>
</g>
<g>
</g>
<g>
</g>
<g>
</g>
<g>
</g>
<g>
</g>
<g>
</g>
<g>
</g>
<g>
</g>
<g>
</g>
<g>
</g>
<g>
</g>
</svg>
