<?xml version="1.0" encoding="utf-8"?>
<!-- Generator: Adobe Illustrator 23.0.1, SVG Export Plug-In . SVG Version: 6.00 Build 0)  -->
<svg version="1.1" id="Layer_1" xmlns="http://www.w3.org/2000/svg" xmlns:xlink="http://www.w3.org/1999/xlink" x="0px" y="0px"
	 viewBox="0 0 110.86 87.45" style="enable-background:new 0 0 110.86 87.45;" xml:space="preserve">
<style type="text/css">
	.st0{fill:#FFFFFF;}
</style>
<g>
	<g>
		<path class="st0" d="M13.03,86.45c0.22,0.2,0.44,0.3,0.66,0.32v0.4c-0.8-0.04-1.8-0.06-3.02-0.06c-1.36,0-2.36,0.02-3.02,0.06
			v-0.4c0.5-0.02,0.85-0.08,1.07-0.18c0.22-0.1,0.32-0.29,0.32-0.54c0-0.2-0.08-0.51-0.24-0.94l-1.19-3.26H3.29l-0.52,1.37
			c-0.36,0.93-0.54,1.67-0.54,2.21c0,0.49,0.15,0.83,0.44,1.03c0.29,0.19,0.73,0.3,1.32,0.32v0.4c-0.89-0.04-1.71-0.06-2.46-0.06
			c-0.61,0-1.11,0.02-1.51,0.06v-0.4c0.66-0.11,1.23-0.81,1.71-2.09l4.53-11.62c0.21,0.02,0.44,0.03,0.69,0.03
			c0.26,0,0.49-0.01,0.69-0.03l4.82,12.43C12.61,85.94,12.81,86.25,13.03,86.45z M5.5,76.08l-2.06,5.36h4.03L5.5,76.08z"/>
		<path class="st0" d="M22,76.62c0.54,0,0.99,0.06,1.33,0.19c0.35,0.13,0.63,0.32,0.85,0.57c0.22,0.25,0.38,0.58,0.48,0.98
			s0.15,0.94,0.15,1.61v5.34c0,0.37,0.04,0.66,0.13,0.86s0.22,0.35,0.4,0.44c0.18,0.08,0.43,0.13,0.75,0.13v0.42
			c-1.32-0.05-2.19-0.08-2.62-0.08c-0.41,0-1.27,0.03-2.59,0.08v-0.42c0.27,0,0.48-0.04,0.64-0.13s0.27-0.23,0.33-0.44
			s0.1-0.5,0.1-0.86v-6.18c0-0.54-0.09-0.95-0.27-1.23s-0.5-0.42-0.96-0.42c-0.36,0-0.69,0.1-0.99,0.3c-0.3,0.2-0.54,0.48-0.71,0.83
			c-0.17,0.35-0.26,0.74-0.26,1.17v5.53c0,0.37,0.04,0.66,0.11,0.86c0.07,0.21,0.18,0.35,0.34,0.44s0.37,0.13,0.63,0.13v0.42
			c-1.22-0.05-2.04-0.08-2.46-0.08c-0.41,0-1.32,0.03-2.74,0.08v-0.42c0.32,0,0.57-0.04,0.75-0.13c0.18-0.08,0.32-0.23,0.4-0.44
			c0.08-0.21,0.12-0.5,0.12-0.86v-6.27c0-0.61-0.09-1.06-0.28-1.33c-0.19-0.27-0.52-0.41-0.99-0.41v-0.42
			c0.42,0.04,0.83,0.06,1.23,0.06c1.17,0,2.14-0.09,2.9-0.27v1.78C19.34,77.24,20.42,76.62,22,76.62z"/>
		<path class="st0" d="M28.69,86.02c0.43,0.65,1.04,0.97,1.83,0.97c0.39,0,0.72-0.12,0.99-0.35c0.27-0.24,0.41-0.59,0.41-1.06
			c0-0.37-0.08-0.7-0.25-0.99c-0.16-0.29-0.37-0.55-0.63-0.78c-0.25-0.23-0.63-0.54-1.13-0.93c-0.61-0.5-1.08-0.89-1.38-1.17
			c-0.31-0.29-0.57-0.62-0.79-1.01c-0.22-0.39-0.33-0.84-0.33-1.33c0-0.57,0.15-1.06,0.47-1.47c0.31-0.41,0.73-0.73,1.25-0.94
			c0.52-0.21,1.09-0.32,1.71-0.32c0.5,0,0.97,0.06,1.39,0.18c0.42,0.12,0.75,0.26,0.99,0.43c0.13,0.09,0.25,0.14,0.35,0.14
			c0.25,0,0.4-0.24,0.47-0.73h0.44c-0.05,0.67-0.08,1.83-0.08,3.49h-0.44c-0.12-0.87-0.38-1.6-0.78-2.19
			c-0.4-0.59-0.99-0.89-1.76-0.89c-0.39,0-0.72,0.11-0.97,0.34c-0.25,0.23-0.38,0.54-0.38,0.93c0,0.45,0.15,0.83,0.45,1.15
			c0.3,0.32,0.66,0.63,1.08,0.93c0.42,0.3,0.73,0.52,0.92,0.67c0.54,0.41,0.97,0.76,1.29,1.07c0.32,0.3,0.58,0.65,0.78,1.03
			c0.2,0.38,0.3,0.83,0.3,1.32c0,0.58-0.17,1.1-0.51,1.54c-0.34,0.45-0.8,0.79-1.37,1.03c-0.58,0.24-1.21,0.36-1.89,0.36
			c-0.7,0-1.32-0.14-1.84-0.42c-0.39-0.2-0.71-0.34-0.93-0.42c-0.04-0.01-0.07-0.02-0.1-0.02c-0.21,0-0.37,0.24-0.47,0.71h-0.44
			c0.05-0.76,0.08-2.08,0.08-3.97h0.44C27.98,84.48,28.26,85.37,28.69,86.02z"/>
		<path class="st0" d="M40.23,86.19c0.08,0.21,0.22,0.35,0.4,0.44c0.18,0.08,0.43,0.13,0.75,0.13v0.42
			c-1.32-0.05-2.2-0.08-2.64-0.08c-0.42,0-1.34,0.03-2.76,0.08v-0.42c0.32,0,0.57-0.04,0.75-0.13c0.18-0.08,0.32-0.23,0.4-0.44
			c0.08-0.21,0.12-0.5,0.12-0.86v-6.27c0-0.61-0.09-1.06-0.28-1.33c-0.19-0.27-0.52-0.41-0.99-0.41v-0.42
			c0.42,0.04,0.83,0.06,1.23,0.06c1.17,0,2.14-0.09,2.9-0.27v8.64C40.11,85.69,40.15,85.98,40.23,86.19z M39.87,72.18
			c0.33,0.27,0.49,0.64,0.49,1.12c0,0.48-0.16,0.85-0.49,1.13c-0.33,0.27-0.76,0.41-1.31,0.41c-0.56,0-1.01-0.14-1.33-0.41
			s-0.48-0.65-0.48-1.13c0-0.47,0.16-0.84,0.48-1.12s0.77-0.41,1.33-0.41C39.11,71.77,39.54,71.91,39.87,72.18z"/>
		<path class="st0" d="M53.16,86.41c0.14,0.15,0.31,0.26,0.52,0.33v0.42c-1.06-0.05-1.76-0.08-2.09-0.08
			c-0.44,0-1.29,0.03-2.56,0.08v-0.42c0.39,0,0.59-0.13,0.59-0.38c0-0.08-0.03-0.18-0.1-0.3l-1.97-3.55
			c-0.13-0.22-0.27-0.37-0.41-0.46c-0.15-0.09-0.33-0.14-0.56-0.15v3.42c0,0.37,0.04,0.66,0.12,0.86s0.2,0.35,0.37,0.44
			c0.17,0.08,0.41,0.13,0.7,0.13v0.42c-1.32-0.05-2.18-0.08-2.58-0.08c-0.46,0-1.37,0.03-2.75,0.08v-0.42
			c0.32,0,0.57-0.04,0.75-0.13c0.18-0.08,0.31-0.23,0.4-0.44s0.13-0.5,0.13-0.86V73.99c0-0.61-0.1-1.06-0.29-1.33
			c-0.19-0.28-0.52-0.41-0.98-0.41v-0.42c0.42,0.04,0.83,0.06,1.23,0.06c1.16,0,2.13-0.09,2.9-0.28v9.9
			c0.27-0.03,0.49-0.08,0.68-0.15s0.36-0.19,0.51-0.35l1.5-1.46c0.45-0.45,0.67-0.85,0.67-1.21c0-0.3-0.14-0.55-0.43-0.73
			c-0.29-0.18-0.66-0.29-1.11-0.31v-0.4c0.74,0.04,1.51,0.06,2.33,0.06c1.09,0,1.86-0.02,2.33-0.06v0.4
			c-0.79,0.17-1.62,0.69-2.48,1.53l-1.27,1.32l3.34,5.57C52.85,86.03,53.02,86.26,53.16,86.41z"/>
		<path class="st0" d="M58.84,86.19c0.08,0.21,0.21,0.35,0.4,0.44s0.43,0.13,0.75,0.13v0.42c-1.37-0.05-2.26-0.08-2.66-0.08
			c-0.46,0-1.37,0.03-2.74,0.08v-0.42c0.32,0,0.57-0.04,0.75-0.13s0.31-0.23,0.4-0.44c0.08-0.21,0.13-0.5,0.13-0.86V73.99
			c0-0.61-0.1-1.06-0.29-1.33c-0.19-0.28-0.52-0.41-0.98-0.41v-0.42c0.42,0.04,0.83,0.06,1.23,0.06c1.16,0,2.13-0.09,2.9-0.28v13.72
			C58.72,85.69,58.76,85.98,58.84,86.19z"/>
		<path class="st0" d="M69.24,77.92c0.86,0.87,1.29,2.24,1.29,4.12c0,1.88-0.43,3.25-1.29,4.11s-2.05,1.29-3.56,1.29
			s-2.7-0.43-3.57-1.29c-0.87-0.86-1.3-2.23-1.3-4.11c0-1.88,0.43-3.25,1.3-4.12c0.87-0.87,2.06-1.3,3.57-1.3
			S68.37,77.05,69.24,77.92z M64.31,78.25c-0.34,0.83-0.51,2.09-0.51,3.79c0,1.69,0.17,2.95,0.51,3.77
			c0.34,0.82,0.79,1.23,1.36,1.23c0.58,0,1.03-0.41,1.36-1.23s0.5-2.08,0.5-3.78c0-1.71-0.17-2.97-0.5-3.8
			c-0.33-0.83-0.79-1.24-1.36-1.24C65.1,77.01,64.65,77.42,64.31,78.25z"/>
		<path class="st0" d="M81.77,86.32c0.18,0.27,0.52,0.41,0.99,0.41v0.42c-0.42-0.04-0.83-0.06-1.23-0.06c-1.17,0-2.14,0.09-2.9,0.27
			v-1.71c-0.45,1.2-1.31,1.79-2.58,1.79c-0.81,0-1.52-0.2-2.13-0.59c-0.61-0.39-1.09-1-1.43-1.81c-0.34-0.82-0.51-1.84-0.5-3.07
			c-0.01-1.16,0.18-2.15,0.56-2.95c0.38-0.8,0.9-1.4,1.57-1.8c0.67-0.4,1.44-0.6,2.3-0.6c0.98,0,1.71,0.25,2.2,0.75v-3.38
			c0-0.61-0.1-1.06-0.29-1.33c-0.19-0.28-0.52-0.41-0.98-0.41v-0.42c0.42,0.04,0.83,0.06,1.23,0.06c1.16,0,2.13-0.09,2.9-0.28v13.38
			C81.49,85.6,81.58,86.04,81.77,86.32z M77.17,77.19c-0.7,0-1.24,0.4-1.62,1.21c-0.38,0.81-0.57,2.01-0.56,3.62
			c-0.02,3.05,0.6,4.57,1.87,4.57c0.28,0,0.55-0.07,0.81-0.21c0.25-0.14,0.46-0.35,0.64-0.62c0.17-0.27,0.28-0.58,0.32-0.94v-6.96
			C78.29,77.42,77.81,77.19,77.17,77.19z"/>
		<path class="st0" d="M86.56,81.96c0,0.88,0.12,1.61,0.37,2.19c0.25,0.58,0.56,1,0.96,1.27c0.39,0.27,0.81,0.4,1.26,0.4
			c1.09,0,1.97-0.53,2.63-1.59l0.35,0.12c-0.17,0.54-0.43,1.05-0.78,1.52S90.54,86.71,90,87c-0.54,0.29-1.16,0.44-1.85,0.44
			c-0.91,0-1.71-0.19-2.4-0.58c-0.69-0.39-1.23-0.98-1.61-1.77s-0.58-1.78-0.58-2.95c0-1.2,0.21-2.22,0.62-3.04
			c0.41-0.82,0.99-1.44,1.72-1.86c0.73-0.41,1.57-0.62,2.53-0.62c2.49,0,3.73,1.47,3.73,4.4h-5.58
			C86.57,81.22,86.56,81.53,86.56,81.96z M89.35,78.07c-0.23-0.69-0.58-1.03-1.04-1.03c-0.47,0-0.86,0.29-1.18,0.88
			c-0.31,0.58-0.51,1.5-0.58,2.73h3.11C89.68,79.61,89.58,78.75,89.35,78.07z"/>
		<path class="st0" d="M103.34,86.32c0.18,0.27,0.52,0.41,0.99,0.41v0.42c-0.42-0.04-0.83-0.06-1.23-0.06
			c-1.17,0-2.14,0.09-2.9,0.27v-1.71c-0.45,1.2-1.31,1.79-2.58,1.79c-0.81,0-1.52-0.2-2.13-0.59c-0.61-0.39-1.09-1-1.43-1.81
			c-0.34-0.82-0.51-1.84-0.5-3.07c-0.01-1.16,0.18-2.15,0.56-2.95c0.38-0.8,0.9-1.4,1.57-1.8c0.67-0.4,1.44-0.6,2.3-0.6
			c0.98,0,1.71,0.25,2.2,0.75v-3.38c0-0.61-0.1-1.06-0.29-1.33c-0.19-0.28-0.52-0.41-0.98-0.41v-0.42c0.42,0.04,0.83,0.06,1.23,0.06
			c1.16,0,2.13-0.09,2.9-0.28v13.38C103.07,85.6,103.16,86.04,103.34,86.32z M98.75,77.19c-0.7,0-1.24,0.4-1.62,1.21
			c-0.38,0.81-0.57,2.01-0.56,3.62c-0.02,3.05,0.6,4.57,1.87,4.57c0.28,0,0.55-0.07,0.81-0.21c0.25-0.14,0.46-0.35,0.64-0.62
			c0.17-0.27,0.28-0.58,0.32-0.94v-6.96C99.87,77.42,99.38,77.19,98.75,77.19z"/>
		<path class="st0" d="M109.71,86.19c0.08,0.21,0.22,0.35,0.4,0.44c0.18,0.08,0.43,0.13,0.75,0.13v0.42
			c-1.32-0.05-2.2-0.08-2.64-0.08c-0.42,0-1.34,0.03-2.76,0.08v-0.42c0.32,0,0.57-0.04,0.75-0.13c0.18-0.08,0.32-0.23,0.4-0.44
			c0.08-0.21,0.12-0.5,0.12-0.86v-6.27c0-0.61-0.09-1.06-0.28-1.33c-0.19-0.27-0.52-0.41-0.99-0.41v-0.42
			c0.42,0.04,0.83,0.06,1.23,0.06c1.17,0,2.14-0.09,2.9-0.27v8.64C109.58,85.69,109.63,85.98,109.71,86.19z M109.35,72.18
			c0.33,0.27,0.49,0.64,0.49,1.12c0,0.48-0.16,0.85-0.49,1.13c-0.33,0.27-0.76,0.41-1.31,0.41c-0.56,0-1.01-0.14-1.33-0.41
			s-0.48-0.65-0.48-1.13c0-0.47,0.16-0.84,0.48-1.12s0.77-0.41,1.33-0.41C108.58,71.77,109.02,71.91,109.35,72.18z"/>
	</g>
	<g>
		<path class="st0" d="M88.03,36.81l-4.76-20.84c-0.58-2.55-2.3-4.7-4.65-5.84L59.35,0.85c-2.36-1.14-5.11-1.14-7.46,0l-19.26,9.28
			c-2.36,1.14-4.07,3.28-4.65,5.84l-4.76,20.84c-0.58,2.55,0.03,5.23,1.66,7.28L38.21,60.8c1.63,2.05,4.11,3.24,6.72,3.24h21.38
			c2.62,0,5.09-1.19,6.72-3.24l13.33-16.72C88,42.04,88.61,39.36,88.03,36.81z M72.84,34.82c0,0.01,0,0.03,0,0.04
			c-0.01,0.91-0.24,1.82-0.67,2.62c-0.5,0.93-1.24,1.69-2.15,2.22l-3.55,2.05L51.7,50.27l-0.05,0.03c-0.72,0.42-1.52,0.68-2.35,0.75
			c-0.22,0.02-0.44,0.02-0.66,0.02c-1.97-0.06-3.73-1.12-4.71-2.82c-0.15-0.26-0.28-0.54-0.38-0.81c-0.25-0.58-0.37-1.2-0.37-1.84
			V25V23.2v-1.14c0-1.2,0.64-2.3,1.68-2.9l5.12-2.91c1.28-0.73,2.86-0.65,4.06,0.19l12.44,8.68c0.15,0.09,0.24,0.24,0.24,0.41v4.22
			v0.53c0,0.74-0.41,1.43-1.08,1.82L47.34,42.65c-0.68,0.39-1.24,1-1.5,1.75c-0.31,0.91-0.2,1.88,0.29,2.68
			c0.65,1.05,1.86,1.61,3.16,1.43c0.43-0.06,0.84-0.22,1.21-0.44L66,39.13l2.78-1.6c0.97-0.56,1.56-1.59,1.56-2.71v-0.39v-3.31
			v-2.96c0-0.17,0.09-0.33,0.24-0.41c0.07-0.04,0.16-0.06,0.24-0.06c0.08,0,0.16,0.02,0.24,0.06l1.55,0.89
			c0.15,0.09,0.24,0.24,0.24,0.41V34.82z"/>
	</g>
</g>
</svg>
