<?xml version="1.0" encoding="utf-8"?>
<!-- Generator: Adobe Illustrator 23.0.1, SVG Export Plug-In . SVG Version: 6.00 Build 0)  -->
<svg version="1.1" id="Layer_1" xmlns="http://www.w3.org/2000/svg" xmlns:xlink="http://www.w3.org/1999/xlink" x="0px" y="0px"
	 viewBox="0 0 178.31 50" style="enable-background:new 0 0 178.31 50;" xml:space="preserve">
<style type="text/css">
	.st0{fill:#FFFFFF;}
</style>
<g>
	<g>
		<g>
			<path class="st0" d="M75.1,33.26c0.24,0.21,0.47,0.32,0.71,0.34v0.43c-0.85-0.04-1.93-0.06-3.23-0.06
				c-1.45,0-2.53,0.02-3.23,0.06v-0.43c0.53-0.02,0.91-0.09,1.15-0.2c0.23-0.11,0.35-0.3,0.35-0.58c0-0.21-0.09-0.55-0.26-1.01
				l-1.28-3.49h-4.63l-0.56,1.46c-0.39,1-0.58,1.78-0.58,2.36c0,0.53,0.16,0.89,0.47,1.1c0.31,0.21,0.78,0.32,1.41,0.34v0.43
				c-0.95-0.04-1.83-0.06-2.63-0.06c-0.65,0-1.19,0.02-1.62,0.06v-0.43c0.7-0.12,1.31-0.86,1.83-2.23l4.84-12.42
				c0.23,0.02,0.47,0.03,0.74,0.03c0.28,0,0.52-0.01,0.74-0.03l5.15,13.3C74.66,32.7,74.87,33.04,75.1,33.26z M67.06,22.16
				l-2.2,5.74h4.3L67.06,22.16z"/>
		</g>
		<g>
			<path class="st0" d="M84.58,22.74c0.58,0,1.06,0.07,1.43,0.21c0.37,0.14,0.67,0.34,0.91,0.61c0.23,0.27,0.4,0.62,0.51,1.05
				c0.1,0.43,0.16,1,0.16,1.72v5.71c0,0.39,0.04,0.7,0.13,0.92s0.23,0.38,0.43,0.47c0.19,0.09,0.46,0.13,0.8,0.13v0.45
				c-1.41-0.06-2.34-0.08-2.8-0.08c-0.44,0-1.36,0.03-2.77,0.08v-0.45c0.29,0,0.52-0.04,0.68-0.13c0.17-0.09,0.29-0.25,0.36-0.47
				s0.11-0.53,0.11-0.92v-6.61c0-0.58-0.1-1.02-0.29-1.32c-0.19-0.3-0.53-0.45-1.03-0.45c-0.39,0-0.74,0.11-1.06,0.32
				s-0.58,0.51-0.76,0.89c-0.19,0.38-0.28,0.79-0.28,1.25v5.91c0,0.39,0.04,0.7,0.11,0.92s0.2,0.38,0.36,0.47
				c0.17,0.09,0.39,0.13,0.67,0.13v0.45c-1.3-0.06-2.18-0.08-2.63-0.08c-0.44,0-1.41,0.03-2.93,0.08v-0.45
				c0.34,0,0.61-0.04,0.8-0.13c0.2-0.09,0.34-0.25,0.43-0.47c0.09-0.22,0.13-0.53,0.13-0.92v-6.7c0-0.66-0.1-1.13-0.3-1.43
				c-0.2-0.29-0.55-0.44-1.06-0.44v-0.45c0.45,0.04,0.89,0.06,1.32,0.06c1.25,0,2.28-0.1,3.1-0.29v1.91
				C81.73,23.4,82.89,22.74,84.58,22.74z"/>
		</g>
		<g>
			<path class="st0" d="M91.6,32.79c0.46,0.69,1.11,1.04,1.95,1.04c0.42,0,0.77-0.13,1.06-0.38c0.29-0.25,0.44-0.63,0.44-1.14
				c0-0.39-0.09-0.75-0.26-1.06c-0.18-0.31-0.4-0.59-0.67-0.83c-0.27-0.24-0.67-0.57-1.21-1c-0.66-0.53-1.15-0.95-1.48-1.25
				c-0.33-0.3-0.61-0.67-0.85-1.08c-0.24-0.42-0.35-0.89-0.35-1.43c0-0.61,0.17-1.13,0.5-1.58c0.33-0.44,0.78-0.78,1.34-1.01
				c0.56-0.23,1.17-0.34,1.83-0.34c0.54,0,1.03,0.07,1.48,0.2c0.45,0.13,0.8,0.28,1.06,0.46c0.14,0.1,0.26,0.15,0.37,0.15
				c0.26,0,0.43-0.26,0.5-0.78h0.47c-0.06,0.71-0.08,1.96-0.08,3.73h-0.47c-0.12-0.93-0.4-1.71-0.83-2.34
				c-0.43-0.63-1.06-0.95-1.88-0.95c-0.42,0-0.77,0.12-1.04,0.36c-0.27,0.24-0.4,0.57-0.4,1c0,0.48,0.16,0.89,0.48,1.23
				c0.32,0.35,0.7,0.68,1.15,1c0.45,0.32,0.78,0.56,0.99,0.72c0.58,0.44,1.04,0.82,1.38,1.14c0.34,0.33,0.62,0.69,0.83,1.1
				c0.21,0.41,0.32,0.88,0.32,1.42c0,0.62-0.18,1.17-0.54,1.65c-0.36,0.48-0.85,0.85-1.47,1.1c-0.62,0.26-1.29,0.39-2.02,0.39
				c-0.75,0-1.41-0.15-1.97-0.45c-0.42-0.21-0.75-0.36-1-0.45c-0.04-0.01-0.08-0.02-0.1-0.02c-0.23,0-0.39,0.25-0.5,0.76h-0.47
				c0.06-0.81,0.08-2.22,0.08-4.24h0.47C90.84,31.14,91.14,32.1,91.6,32.79z"/>
		</g>
		<g>
			<path class="st0" d="M103.8,32.97c0.09,0.22,0.23,0.38,0.43,0.47c0.19,0.09,0.46,0.13,0.8,0.13v0.45
				c-1.41-0.06-2.35-0.08-2.82-0.08c-0.45,0-1.43,0.03-2.96,0.08v-0.45c0.34,0,0.61-0.04,0.8-0.13c0.2-0.09,0.34-0.25,0.43-0.47
				c0.09-0.22,0.13-0.53,0.13-0.92v-6.7c0-0.66-0.1-1.13-0.3-1.43c-0.2-0.29-0.55-0.44-1.06-0.44v-0.45
				c0.45,0.04,0.89,0.06,1.32,0.06c1.25,0,2.28-0.1,3.1-0.29v9.24C103.67,32.44,103.71,32.75,103.8,32.97z M103.42,17.99
				c0.35,0.29,0.52,0.69,0.52,1.19c0,0.51-0.17,0.91-0.52,1.2c-0.35,0.29-0.82,0.44-1.41,0.44c-0.6,0-1.08-0.15-1.42-0.44
				c-0.35-0.29-0.52-0.69-0.52-1.2c0-0.5,0.17-0.9,0.52-1.19c0.35-0.29,0.82-0.44,1.42-0.44C102.6,17.56,103.07,17.7,103.42,17.99z"
				/>
		</g>
		<g>
			<path class="st0" d="M117.5,33.21c0.15,0.16,0.33,0.28,0.56,0.36v0.45c-1.13-0.06-1.88-0.08-2.23-0.08
				c-0.47,0-1.38,0.03-2.74,0.08v-0.45c0.42,0,0.63-0.13,0.63-0.4c0-0.09-0.03-0.2-0.1-0.32l-2.11-3.8
				c-0.14-0.23-0.29-0.4-0.44-0.49c-0.16-0.09-0.35-0.15-0.6-0.16v3.65c0,0.39,0.04,0.7,0.12,0.92c0.08,0.22,0.22,0.38,0.4,0.47
				c0.18,0.09,0.43,0.13,0.75,0.13v0.45c-1.41-0.06-2.33-0.08-2.76-0.08c-0.49,0-1.47,0.03-2.94,0.08v-0.45
				c0.34,0,0.61-0.04,0.8-0.13c0.19-0.09,0.34-0.25,0.43-0.47c0.09-0.22,0.13-0.53,0.13-0.92V19.93c0-0.66-0.1-1.13-0.31-1.43
				c-0.2-0.29-0.55-0.44-1.05-0.44v-0.45c0.45,0.04,0.89,0.06,1.32,0.06c1.24,0,2.28-0.1,3.1-0.3v10.59
				c0.28-0.03,0.53-0.08,0.73-0.16c0.2-0.08,0.38-0.21,0.55-0.38l1.61-1.57c0.48-0.48,0.72-0.91,0.72-1.3
				c0-0.32-0.15-0.59-0.46-0.78c-0.31-0.2-0.7-0.31-1.19-0.33v-0.43c0.79,0.04,1.62,0.06,2.49,0.06c1.16,0,1.99-0.02,2.49-0.06v0.43
				c-0.84,0.19-1.73,0.73-2.65,1.64l-1.36,1.41l3.57,5.95C117.17,32.8,117.35,33.05,117.5,33.21z"/>
		</g>
		<g>
			<path class="st0" d="M123.46,32.97c0.09,0.22,0.23,0.38,0.43,0.47c0.2,0.09,0.47,0.13,0.8,0.13v0.45
				c-1.47-0.06-2.41-0.08-2.84-0.08c-0.49,0-1.47,0.03-2.93,0.08v-0.45c0.34,0,0.61-0.04,0.8-0.13c0.19-0.09,0.34-0.25,0.43-0.47
				c0.09-0.22,0.13-0.53,0.13-0.92V19.93c0-0.66-0.1-1.13-0.31-1.43c-0.2-0.29-0.55-0.44-1.05-0.44v-0.45
				c0.45,0.04,0.89,0.06,1.32,0.06c1.24,0,2.28-0.1,3.1-0.3v14.67C123.33,32.44,123.38,32.75,123.46,32.97z"/>
		</g>
		<g>
			<path class="st0" d="M134.43,24.13c0.92,0.93,1.38,2.4,1.38,4.41c0,2.01-0.46,3.47-1.38,4.39c-0.92,0.92-2.19,1.38-3.81,1.38
				s-2.89-0.46-3.82-1.38c-0.93-0.92-1.39-2.39-1.39-4.39c0-2.01,0.46-3.47,1.39-4.4c0.93-0.93,2.2-1.4,3.82-1.4
				S133.51,23.21,134.43,24.13z M129.16,24.49c-0.36,0.89-0.54,2.24-0.54,4.06c0,1.81,0.18,3.16,0.54,4.03
				c0.36,0.88,0.85,1.32,1.46,1.32c0.62,0,1.1-0.44,1.46-1.31c0.36-0.88,0.53-2.22,0.53-4.04c0-1.83-0.18-3.18-0.53-4.06
				c-0.36-0.88-0.84-1.32-1.46-1.32C130.01,23.16,129.52,23.6,129.16,24.49z"/>
		</g>
		<g>
			<path class="st0" d="M147.69,33.11c0.2,0.29,0.55,0.44,1.06,0.44V34c-0.45-0.04-0.89-0.06-1.32-0.06c-1.25,0-2.29,0.1-3.1,0.29
				V32.4c-0.48,1.28-1.4,1.92-2.76,1.92c-0.86,0-1.62-0.21-2.28-0.63c-0.65-0.42-1.16-1.06-1.52-1.94
				c-0.36-0.87-0.54-1.97-0.53-3.28c-0.01-1.24,0.19-2.3,0.6-3.15c0.4-0.86,0.96-1.5,1.68-1.93c0.72-0.43,1.54-0.64,2.46-0.64
				c1.04,0,1.83,0.27,2.35,0.8v-3.61c0-0.66-0.1-1.13-0.31-1.43c-0.2-0.29-0.55-0.44-1.05-0.44v-0.45c0.45,0.04,0.89,0.06,1.32,0.06
				c1.24,0,2.28-0.1,3.1-0.3v14.3C147.39,32.34,147.49,32.82,147.69,33.11z M142.78,23.36c-0.75,0-1.32,0.43-1.73,1.3
				c-0.41,0.86-0.61,2.15-0.6,3.87c-0.02,3.26,0.65,4.89,2,4.89c0.3,0,0.59-0.08,0.86-0.23c0.27-0.15,0.5-0.37,0.68-0.66
				c0.18-0.29,0.3-0.62,0.35-1v-7.44C143.97,23.6,143.45,23.36,142.78,23.36z"/>
		</g>
		<g>
			<path class="st0" d="M152.6,28.45c0,0.94,0.13,1.72,0.39,2.34c0.26,0.62,0.6,1.07,1.02,1.36c0.42,0.29,0.87,0.43,1.34,0.43
				c1.17,0,2.11-0.57,2.81-1.7l0.37,0.12c-0.18,0.58-0.46,1.12-0.83,1.62c-0.38,0.5-0.85,0.91-1.43,1.22
				c-0.58,0.31-1.24,0.47-1.98,0.47c-0.97,0-1.83-0.21-2.57-0.62c-0.74-0.41-1.31-1.05-1.72-1.89c-0.41-0.85-0.62-1.9-0.62-3.16
				c0-1.29,0.22-2.37,0.66-3.25c0.44-0.88,1.05-1.54,1.84-1.99s1.68-0.66,2.71-0.66c2.66,0,3.99,1.57,3.99,4.71h-5.96
				C152.61,27.66,152.6,27.99,152.6,28.45z M155.58,24.29c-0.25-0.73-0.62-1.1-1.11-1.1c-0.51,0-0.92,0.31-1.26,0.94
				c-0.34,0.63-0.54,1.6-0.62,2.92h3.33C155.94,25.94,155.83,25.02,155.58,24.29z"/>
		</g>
		<g>
			<path class="st0" d="M170.41,33.11c0.2,0.29,0.55,0.44,1.06,0.44V34c-0.45-0.04-0.89-0.06-1.32-0.06c-1.25,0-2.29,0.1-3.1,0.29
				V32.4c-0.48,1.28-1.4,1.92-2.76,1.92c-0.86,0-1.62-0.21-2.28-0.63c-0.65-0.42-1.16-1.06-1.52-1.94
				c-0.36-0.87-0.54-1.97-0.53-3.28c-0.01-1.24,0.19-2.3,0.6-3.15c0.4-0.86,0.96-1.5,1.68-1.93c0.72-0.43,1.54-0.64,2.46-0.64
				c1.04,0,1.83,0.27,2.35,0.8v-3.61c0-0.66-0.1-1.13-0.31-1.43c-0.2-0.29-0.55-0.44-1.05-0.44v-0.45c0.45,0.04,0.89,0.06,1.32,0.06
				c1.24,0,2.28-0.1,3.1-0.3v14.3C170.11,32.34,170.21,32.82,170.41,33.11z M165.5,23.36c-0.75,0-1.32,0.43-1.73,1.3
				c-0.41,0.86-0.61,2.15-0.6,3.87c-0.02,3.26,0.65,4.89,2,4.89c0.3,0,0.59-0.08,0.86-0.23c0.27-0.15,0.5-0.37,0.68-0.66
				c0.18-0.29,0.3-0.62,0.35-1v-7.44C166.69,23.6,166.17,23.36,165.5,23.36z"/>
		</g>
		<g>
			<path class="st0" d="M177.09,32.97c0.09,0.22,0.23,0.38,0.43,0.47c0.19,0.09,0.46,0.13,0.8,0.13v0.45
				c-1.41-0.06-2.35-0.08-2.82-0.08c-0.45,0-1.43,0.03-2.96,0.08v-0.45c0.34,0,0.61-0.04,0.8-0.13c0.2-0.09,0.34-0.25,0.43-0.47
				c0.09-0.22,0.13-0.53,0.13-0.92v-6.7c0-0.66-0.1-1.13-0.3-1.43c-0.2-0.29-0.55-0.44-1.06-0.44v-0.45
				c0.45,0.04,0.89,0.06,1.32,0.06c1.25,0,2.29-0.1,3.1-0.29v9.24C176.96,32.44,177,32.75,177.09,32.97z M176.7,17.99
				c0.35,0.29,0.52,0.69,0.52,1.19c0,0.51-0.18,0.91-0.52,1.2c-0.35,0.29-0.82,0.44-1.41,0.44c-0.6,0-1.07-0.15-1.42-0.44
				c-0.35-0.29-0.52-0.69-0.52-1.2c0-0.5,0.17-0.9,0.52-1.19c0.35-0.29,0.82-0.44,1.42-0.44C175.88,17.56,176.35,17.7,176.7,17.99z"
				/>
		</g>
	</g>
	<g>
		<path class="st0" d="M50.77,28.74l-3.71-16.27c-0.45-1.99-1.79-3.67-3.63-4.56L28.38,0.67c-1.84-0.89-3.99-0.89-5.83,0L7.52,7.91
			c-1.84,0.89-3.18,2.56-3.63,4.56L0.17,28.74c-0.45,1.99,0.02,4.08,1.3,5.68l10.41,13.05c1.27,1.6,3.21,2.53,5.25,2.53h16.69
			c2.04,0,3.98-0.93,5.25-2.53l10.41-13.05C50.75,32.82,51.23,30.73,50.77,28.74z M38.91,27.18c0,0.01,0,0.02,0,0.03
			c-0.01,0.71-0.19,1.42-0.52,2.05c-0.39,0.72-0.97,1.32-1.68,1.73l-2.77,1.6l-11.53,6.66l-0.04,0.02
			c-0.56,0.32-1.19,0.53-1.84,0.58c-0.17,0.01-0.34,0.02-0.52,0.01c-1.54-0.05-2.91-0.87-3.68-2.2c-0.12-0.2-0.22-0.42-0.3-0.63
			c-0.19-0.46-0.29-0.94-0.29-1.44V19.52v-1.41v-0.89c0-0.94,0.5-1.8,1.31-2.26l4-2.27c1-0.57,2.23-0.51,3.17,0.15l9.72,6.77
			c0.12,0.07,0.19,0.19,0.19,0.32v3.29v0.42c0,0.58-0.32,1.12-0.84,1.42L19.01,33.3c-0.53,0.31-0.97,0.78-1.17,1.36
			c-0.24,0.71-0.16,1.46,0.23,2.09c0.51,0.82,1.45,1.26,2.46,1.12c0.33-0.05,0.65-0.17,0.95-0.34l12.09-6.98l2.17-1.25
			c0.75-0.44,1.22-1.24,1.22-2.11v-0.3V24.3v-2.31c0-0.13,0.07-0.26,0.19-0.32c0.06-0.03,0.12-0.05,0.19-0.05
			c0.06,0,0.13,0.02,0.19,0.05l1.21,0.7c0.12,0.07,0.19,0.19,0.19,0.32V27.18z"/>
	</g>
</g>
</svg>
