<?xml version="1.0" encoding="UTF-8" standalone="no"?>
<svg
   xmlns:dc="http://purl.org/dc/elements/1.1/"
   xmlns:cc="http://creativecommons.org/ns#"
   xmlns:rdf="http://www.w3.org/1999/02/22-rdf-syntax-ns#"
   xmlns:svg="http://www.w3.org/2000/svg"
   xmlns="http://www.w3.org/2000/svg"
   height="49.997501"
   width="50.93782"
   xml:space="preserve"
   viewBox="0 0 50.937821 49.997501"
   y="0px"
   x="0px"
   id="Layer_1"
   version="1.1"><metadata
     id="metadata42"><rdf:RDF><cc:Work
         rdf:about=""><dc:format>image/svg+xml</dc:format><dc:type
           rdf:resource="http://purl.org/dc/dcmitype/StillImage" /><dc:title></dc:title></cc:Work></rdf:RDF></metadata><defs
     id="defs40" /><style
     id="style3"
     type="text/css">
	.st0{fill:#4D4D4F;}
	.st1{fill:url(#SVGID_1_);}
</style><g
     transform="translate(-0.00327304,-0.0025)"
     id="g5"><linearGradient
       gradientTransform="translate(0.00327304,0.0025)"
       y2="50.395901"
       x2="17.0273"
       y1="2.8011"
       x1="34.350399"
       gradientUnits="userSpaceOnUse"
       id="SVGID_1_"><stop
         id="stop32"
         style="stop-color:#FFC141"
         offset="0" /><stop
         id="stop34"
         style="stop-color:#FF4552"
         offset="1" /></linearGradient><path
       style="fill:url(#SVGID_1_)"
       id="path36"
       d="M 50.77,28.74 47.06,12.47 C 46.61,10.48 45.27,8.8 43.43,7.91 L 28.38,0.67 c -1.84,-0.89 -3.99,-0.89 -5.83,0 L 7.52,7.91 C 5.68,8.8 4.34,10.47 3.89,12.47 L 0.17,28.74 c -0.45,1.99 0.02,4.08 1.3,5.68 l 10.41,13.05 c 1.27,1.6 3.21,2.53 5.25,2.53 l 16.69,0 c 2.04,0 3.98,-0.93 5.25,-2.53 L 49.48,34.42 c 1.27,-1.6 1.75,-3.69 1.29,-5.68 z M 38.91,27.18 c 0,0.01 0,0.02 0,0.03 -0.01,0.71 -0.19,1.42 -0.52,2.05 -0.39,0.72 -0.97,1.32 -1.68,1.73 l -2.77,1.6 -11.53,6.66 -0.04,0.02 c -0.56,0.32 -1.19,0.53 -1.84,0.58 -0.17,0.01 -0.34,0.02 -0.52,0.01 -1.54,-0.05 -2.91,-0.87 -3.68,-2.2 -0.12,-0.2 -0.22,-0.42 -0.3,-0.63 -0.19,-0.46 -0.29,-0.94 -0.29,-1.44 l 0,-16.07 0,-1.41 0,-0.89 c 0,-0.94 0.5,-1.8 1.31,-2.26 l 4,-2.27 c 1,-0.57 2.23,-0.51 3.17,0.15 l 9.72,6.77 c 0.12,0.07 0.19,0.19 0.19,0.32 l 0,3.29 0,0.42 c 0,0.58 -0.32,1.12 -0.84,1.42 L 19.01,33.3 c -0.53,0.31 -0.97,0.78 -1.17,1.36 -0.24,0.71 -0.16,1.46 0.23,2.09 0.51,0.82 1.45,1.26 2.46,1.12 0.33,-0.05 0.65,-0.17 0.95,-0.34 l 12.09,-6.98 2.17,-1.25 c 0.75,-0.44 1.22,-1.24 1.22,-2.11 l 0,-0.3 0,-2.59 0,-2.31 c 0,-0.13 0.07,-0.26 0.19,-0.32 0.06,-0.03 0.12,-0.05 0.19,-0.05 0.06,0 0.13,0.02 0.19,0.05 l 1.21,0.7 c 0.12,0.07 0.19,0.19 0.19,0.32 l 0,4.49 z"
       class="st1" /></g></svg>