<?xml version="1.0" encoding="UTF-8" standalone="no"?>
<svg
   xmlns:dc="http://purl.org/dc/elements/1.1/"
   xmlns:cc="http://creativecommons.org/ns#"
   xmlns:rdf="http://www.w3.org/1999/02/22-rdf-syntax-ns#"
   xmlns:svg="http://www.w3.org/2000/svg"
   xmlns="http://www.w3.org/2000/svg"
   version="1.1"
   id="svg12755"
   viewBox="0 0 365.36708 300.00002"
   height="84.666672mm"
   width="103.11471mm">
  <defs
     id="defs12757" />
  <metadata
     id="metadata12760">
    <rdf:RDF>
      <cc:Work
         rdf:about="">
        <dc:format>image/svg+xml</dc:format>
        <dc:type
           rdf:resource="http://purl.org/dc/dcmitype/StillImage" />
        <dc:title></dc:title>
      </cc:Work>
    </rdf:RDF>
  </metadata>
  <g
     transform="translate(-162.73764,-398.91697)"
     id="layer1">
    <g
       transform="matrix(0.29883455,0,0,-0.29883455,-484.41547,2928.2795)"
       id="g12658">
      <path
         d="m 3264.69,7962.14 c 0,-269.39 -218.39,-487.77 -487.78,-487.77 -269.39,0 -487.78,218.38 -487.78,487.77 0,269.4 218.39,487.78 487.78,487.78 269.39,0 487.78,-218.38 487.78,-487.78"
         style="fill:#f3f4f6;fill-opacity:1;fill-rule:nonzero;stroke:none"
         id="path338" />
      <path
         d="m 2439.12,7973.63 653.61,0 c 6.66,0 12.01,-5.36 12.01,-12.03 l 0,-242.26 c 0,-6.59 -5.35,-12.02 -12.01,-12.02 l -653.61,0 c -6.57,0 -12.01,5.43 -12.01,12.02 l 0,242.26 c 0,6.67 5.44,12.03 12.01,12.03"
         style="fill:#1b7d9a;fill-opacity:1;fill-rule:evenodd;stroke:none"
         id="path516" />
      <path
         d="m 2521.56,7947.55 44.01,0 0,-44.01 -44.01,0 0,44.01 z m 56.02,0 44.01,0 0,-44.01 -44.01,0 0,44.01 z m 56.02,0 44.01,0 0,-44.01 -44.01,0 0,44.01 z m 55.95,0 44.01,0 0,-44.01 -44.01,0 0,44.01 z m 56.02,0 44.01,0 0,-44.01 -44.01,0 0,44.01 z m 56.02,0 44.01,0 0,-44.01 -44.01,0 0,44.01 z m 56.02,0 44.01,0 0,-44.01 -44.01,0 0,44.01 z m 55.95,0 44.01,0 0,-44.01 -44.01,0 0,44.01 z m 56.02,0 44.01,0 0,-44.01 -44.01,0 0,44.01 z m 56.02,0 44.01,0 0,-44.01 -44.01,0 0,44.01 z m -560.08,-56.11 44.03,0 0,-44.01 -44.03,0 0,44.01 z m 56.04,0 44.01,0 0,-44.01 -44.01,0 0,44.01 z m 56.02,0 44.01,0 0,-44.01 -44.01,0 0,44.01 z m 56.02,0 44.01,0 0,-44.01 -44.01,0 0,44.01 z m 55.95,0 44.01,0 0,-44.01 -44.01,0 0,44.01 z m 56.02,0 44.01,0 0,-44.01 -44.01,0 0,44.01 z m 56.02,0 44.01,0 0,-44.01 -44.01,0 0,44.01 z m 56.02,0 44.01,0 0,-44.01 -44.01,0 0,44.01 z m 55.95,0 100.03,0 0,-44.01 -100.03,0 0,44.01 z m 112.04,0 44.01,0 0,-44.01 -44.01,0 0,44.01 z m -560.08,-56.93 44.03,0 0,-44.01 -44.03,0 0,44.01 z m 56.04,0 44.01,0 0,-44.01 -44.01,0 0,44.01 z m 56.02,0 44.01,0 0,-44.01 -44.01,0 0,44.01 z m 56.02,0 44.01,0 0,-44.01 -44.01,0 0,44.01 z m 55.95,0 44.01,0 0,-44.01 -44.01,0 0,44.01 z m 56.02,0 44.01,0 0,-44.01 -44.01,0 0,44.01 z m 56.02,0 44.01,0 0,-44.01 -44.01,0 0,44.01 z m 56.02,0 99.96,0 0,-44.01 -99.96,0 0,44.01 z m 111.97,0 44.01,0 0,-44.01 -44.01,0 0,44.01 z m 56.02,0 44.01,0 0,-44.01 -44.01,0 0,44.01 z m -560.08,-55.45 44.03,0 0,-44.01 -44.03,0 0,44.01 z m 56.04,0 44.01,0 0,-44.01 -44.01,0 0,44.01 z m 56.02,0 324.04,0 0,-44.01 -324.04,0 0,44.01 z m 335.98,0 44.01,0 0,-44.01 -44.01,0 0,44.01 z m 56.02,0 44.01,0 0,-44.01 -44.01,0 0,44.01 z m 56.02,0 44.01,0 0,-44.01 -44.01,0 0,44.01 z m -560.08,168.49 44.03,0 0,-44.01 -44.03,0 0,44.01"
         style="fill:#87d0eb;fill-opacity:1;fill-rule:evenodd;stroke:none"
         id="path518" />
      <path
         d="m 2497.11,7535.63 c 0.25,-0.49 0.59,-0.9 0.91,-1.31 l 104.31,0 0,108.34 c 2.81,0.41 5.44,1.48 7.5,3.22 22.05,17.59 44.17,35.28 66.22,52.89 15.79,12.76 13.91,26.9 -9.54,27.56 -17.86,-2.38 -34.47,-10.29 -51.01,-18.76 l 0,134.92 c 0,8.22 -6.66,14.89 -14.89,14.89 -8.3,0 -14.97,-6.67 -14.97,-14.89 l 0,-100.94 -5.11,0 0,120.43 c 0,8.23 -6.73,14.98 -14.96,14.98 -8.23,0 -14.98,-6.75 -14.98,-14.98 l 0,-120.43 -5.1,0 0,92.79 c 0,8.24 -6.75,14.97 -14.97,14.97 -8.23,0 -14.97,-6.73 -14.97,-14.97 l 0,-92.79 -5.02,0 0,55.03 c 0,8.22 -6.75,14.98 -14.98,14.98 -8.21,0 -14.96,-6.76 -14.96,-14.98 l 0,-138.94 c 0,-7.07 9.95,-14.39 16.52,-15.97 l 0,-106.04"
         style="fill:#fec974;fill-opacity:1;fill-rule:evenodd;stroke:none"
         id="path520" />
      <path
         d="m 2509.38,7802.26 c -2.23,5.42 -7.58,9.3 -13.83,9.3 -6.33,0 -11.76,-3.95 -13.98,-9.54 1.15,-9.72 6.91,-17.2 13.91,-17.2 6.98,0 12.83,7.57 13.9,17.44 z m 34.71,38.51 c -2.47,5.01 -7.57,8.54 -13.57,8.54 -6.58,0 -12.26,-4.35 -14.23,-10.36 1.4,-9.38 7,-16.38 13.82,-16.38 7.16,0 13.07,8 13.98,18.2 z m 34.96,27.71 c -2.46,5.03 -7.56,8.48 -13.48,8.48 -6.75,0 -12.42,-4.53 -14.32,-10.61 1.32,-9.38 7,-16.45 13.82,-16.45 7.23,0 13.25,8.14 13.98,18.58 z m 35.54,-20.73 c -2.22,5.6 -7.64,9.63 -13.98,9.63 -6.25,0 -11.6,-3.79 -13.82,-9.22 0.99,-9.86 6.84,-17.52 13.91,-17.52 6.91,0 12.75,7.41 13.89,17.11 z m 71.18,-136.4 c -1.16,-4.03 -4.54,-8.39 -9.72,-12.58 l -14.64,-11.69 c -0.32,1.4 -0.5,2.81 -0.5,4.28 0,11.11 9.79,20.17 21.8,20.17 1.07,0 2.06,-0.09 3.06,-0.18"
         style="fill:#ffffff;fill-opacity:1;fill-rule:evenodd;stroke:none"
         id="path522" />
      <path
         d="m 2495.73,7599.96 108,0 c 4.2,0 7.66,-3.37 7.66,-7.56 l 0,-8.48 -123.32,0 0,8.48 c 0,4.19 3.38,7.56 7.66,7.56"
         style="fill:#f7a29a;fill-opacity:1;fill-rule:evenodd;stroke:none"
         id="path524" />
      <path
         d="m 2484.45,7583.92 130.48,0 c 5.35,0 9.79,-4.35 9.79,-9.7 l 0,-104.31 c 0,-5.35 -4.44,-9.72 -9.79,-9.72 l -130.48,0 c -5.35,0 -9.7,4.37 -9.7,9.72 l 0,104.31 c 0,5.35 4.35,9.7 9.7,9.7"
         style="fill:#f47f75;fill-opacity:1;fill-rule:evenodd;stroke:none"
         id="path526" />
      <path
         d="m 3018.6,7535.63 c -0.32,-0.49 -0.65,-0.9 -0.89,-1.31 l -104.4,0 0,108.34 c -2.81,0.41 -5.35,1.48 -7.5,3.22 -22.04,17.59 -44.08,35.28 -66.13,52.89 -15.88,12.76 -13.98,26.9 9.54,27.56 17.77,-2.38 34.47,-10.29 50.92,-18.76 l 0,134.92 c 0,8.22 6.75,14.89 14.98,14.89 8.23,0 14.97,-6.67 14.97,-14.89 l 0,-100.94 5.09,0 0,120.43 c 0,8.23 6.75,14.98 14.98,14.98 8.23,0 14.98,-6.75 14.98,-14.98 l 0,-120.43 5.01,0 0,92.79 c 0,8.24 6.75,14.97 14.98,14.97 8.22,0 14.97,-6.73 14.97,-14.97 l 0,-92.79 5.1,0 0,55.03 c 0,8.22 6.74,14.98 14.98,14.98 8.21,0 14.96,-6.76 14.96,-14.98 l 0,-138.94 c 0,-7.07 -9.95,-14.39 -16.54,-15.97 l 0,-106.04"
         style="fill:#fec974;fill-opacity:1;fill-rule:evenodd;stroke:none"
         id="path528" />
      <path
         d="m 3006.36,7802.26 c 2.22,5.42 7.57,9.3 13.82,9.3 6.33,0 11.76,-3.95 13.89,-9.54 -1.06,-9.72 -6.91,-17.2 -13.82,-17.2 -7.07,0 -12.91,7.57 -13.89,17.44 z m -34.72,38.51 c 2.38,5.01 7.57,8.54 13.49,8.54 6.66,0 12.33,-4.35 14.23,-10.36 -1.32,-9.38 -6.98,-16.38 -13.74,-16.38 -7.24,0 -13.16,8 -13.98,18.2 z m -34.96,27.71 c 2.37,5.03 7.56,8.48 13.48,8.48 6.66,0 12.42,-4.53 14.32,-10.61 -1.32,-9.38 -7,-16.45 -13.82,-16.45 -7.32,0 -13.33,8.14 -13.98,18.58 z m -35.55,-20.73 c 2.14,5.6 7.65,9.63 13.99,9.63 6.17,0 11.59,-3.79 13.83,-9.22 -1,-9.86 -6.84,-17.52 -13.91,-17.52 -7,0 -12.76,7.41 -13.91,17.11 z m -71.24,-136.4 c 1.23,-4.03 4.52,-8.39 9.79,-12.58 l 14.64,-11.69 c 0.25,1.4 0.41,2.81 0.41,4.28 0,11.11 -9.7,20.17 -21.71,20.17 -1.08,0 -2.06,-0.09 -3.13,-0.18"
         style="fill:#ffffff;fill-opacity:1;fill-rule:evenodd;stroke:none"
         id="path530" />
      <path
         d="m 3020,7599.96 -108.09,0 c -4.2,0 -7.66,-3.37 -7.66,-7.56 l 0,-8.48 123.41,0 0,8.48 c 0,4.19 -3.46,7.56 -7.66,7.56"
         style="fill:#f7a29a;fill-opacity:1;fill-rule:evenodd;stroke:none"
         id="path532" />
      <path
         d="m 3031.2,7583.92 -130.49,0 c -5.34,0 -9.7,-4.35 -9.7,-9.7 l 0,-104.31 c 0,-5.35 4.36,-9.72 9.7,-9.72 l 130.49,0 c 5.34,0 9.7,4.37 9.7,9.72 l 0,104.31 c 0,5.35 -4.36,9.7 -9.7,9.7"
         style="fill:#f47f75;fill-opacity:1;fill-rule:evenodd;stroke:none"
         id="path534" />
      <path
         d="m 2658.94,7995.34 193.98,0 c 5.03,0 9.29,2.47 9.38,5.51 l 0.41,9.04 -213.56,0 0.41,-9.04 c 0.08,-3.04 4.37,-5.51 9.38,-5.51"
         style="fill:#1b7d9a;fill-opacity:1;fill-rule:evenodd;stroke:none"
         id="path536" />
      <path
         d="m 2656.71,8005.88 198.43,0 c 4.94,0 8.32,2.13 7.5,4.67 l -18.44,60.48 c -0.82,2.63 -5.51,4.76 -10.45,4.76 l -155.64,0 c -4.94,0 -9.63,-2.13 -10.45,-4.76 l -18.43,-60.48 c -0.83,-2.54 2.55,-4.67 7.48,-4.67"
         style="fill:#256478;fill-opacity:1;fill-rule:evenodd;stroke:none"
         id="path538" />
      <path
         d="m 2435.5,8386.18 640.86,0 c 15.87,0 26.74,-10.52 24.18,-23.44 l -59.64,-298.78 c -2.63,-12.92 -17.68,-23.46 -33.56,-23.46 l -502.82,0 c -15.86,0 -30.93,10.54 -33.56,23.46 l -59.64,298.78 c -2.55,12.92 8.31,23.44 24.18,23.44"
         style="fill:#1b7d9a;fill-opacity:1;fill-rule:evenodd;stroke:none"
         id="path540" />
      <path
         d="m 2465.04,8356.9 581.79,0 c 9.05,0 15.21,-8.23 13.74,-18.26 l -33.98,-232.98 c -1.49,-10.04 -10.04,-18.27 -19.08,-18.27 l -503.15,0 c -9.04,0 -17.61,8.23 -19.08,18.27 l -33.99,232.98 c -1.47,10.03 4.69,18.26 13.75,18.26"
         style="fill:#f3f4f6;fill-opacity:1;fill-rule:evenodd;stroke:none"
         id="path542" />
      <path
         d="m 2416.17,8379.03 21.8,24.18 c 211.99,0 423.92,0 635.92,0 l 21.8,-24.18 c -270.58,-7.73 -408.95,-7.73 -679.52,0"
         style="fill:#256478;fill-opacity:1;fill-rule:evenodd;stroke:none"
         id="path544" />
      <path
         d="m 2531.42,8087.39 57.6719,0 0,238.328 -57.6719,0 0,-238.328 z"
         style="fill:#43acc4;fill-opacity:1;fill-rule:evenodd;stroke:none"
         id="path546" />
      <path
         d="m 2631.63,8087.39 53.4766,0 0,207.805 -53.4766,0 0,-207.805 z"
         style="fill:#f16858;fill-opacity:1;fill-rule:evenodd;stroke:none"
         id="path548" />
      <path
         d="m 2729.77,8087.39 53.4805,0 0,103.902 -53.4805,0 0,-103.902 z"
         style="fill:#08c6a2;fill-opacity:1;fill-rule:evenodd;stroke:none"
         id="path550" />
      <path
         d="m 2827.92,8087.39 53.4609,0 0,286.453 -53.4609,0 0,-286.453 z"
         style="fill:#43acc4;fill-opacity:1;fill-rule:evenodd;stroke:none"
         id="path552" />
      <path
         d="m 2926.05,8087.39 53.3906,0 0,157.863 -53.3906,0 0,-157.863 z"
         style="fill:#f16858;fill-opacity:1;fill-rule:evenodd;stroke:none"
         id="path554" />
      <path
         d="m 2754.28,8210.86 -92.68,105.48 -97.1,45.36 -105.08,-70.08 -3.25,4.85 107.82,71.92 101.19,-47.27 87.32,-99.37 97.37,232.96 103.29,-179.35 100.63,24.49 1.38,-5.67 -104.88,-25.53 -99.58,172.91 -96.43,-230.7"
         style="fill:#f7d33d;fill-opacity:1;fill-rule:nonzero;stroke:none"
         id="path556" />
      <path
         d="m 2560.3,8344.97 c 11.35,0 20.57,9.21 20.57,20.57 0,11.35 -9.22,20.64 -20.57,20.64 -11.34,0 -20.65,-9.29 -20.65,-20.64 0,-11.36 9.31,-20.57 20.65,-20.57"
         style="fill:#f7d33d;fill-opacity:1;fill-rule:evenodd;stroke:none"
         id="path558" />
      <path
         d="m 2560.3,8353.36 c 6.66,0 12.18,5.52 12.18,12.18 0,6.75 -5.52,12.26 -12.18,12.26 -6.74,0 -12.25,-5.51 -12.25,-12.26 0,-6.66 5.51,-12.18 12.25,-12.18"
         style="fill:#ffffff;fill-opacity:1;fill-rule:evenodd;stroke:none"
         id="path560" />
      <path
         d="m 2658.37,8301.86 c 11.35,0 20.65,9.3 20.65,20.65 0,11.35 -9.3,20.65 -20.65,20.65 -11.35,0 -20.58,-9.3 -20.58,-20.65 0,-11.35 9.23,-20.65 20.58,-20.65"
         style="fill:#f7d33d;fill-opacity:1;fill-rule:evenodd;stroke:none"
         id="path562" />
      <path
         d="m 2658.37,8310.25 c 6.74,0 12.26,5.52 12.26,12.26 0,6.75 -5.52,12.19 -12.26,12.19 -6.75,0 -12.19,-5.44 -12.19,-12.19 0,-6.74 5.44,-12.26 12.19,-12.26"
         style="fill:#ffffff;fill-opacity:1;fill-rule:evenodd;stroke:none"
         id="path564" />
      <path
         d="m 2756.52,8201.5 c 11.33,0 20.64,9.29 20.64,20.64 0,11.36 -9.31,20.66 -20.64,20.66 -11.38,0 -20.67,-9.3 -20.67,-20.66 0,-11.35 9.29,-20.64 20.67,-20.64"
         style="fill:#f7d33d;fill-opacity:1;fill-rule:evenodd;stroke:none"
         id="path566" />
      <path
         d="m 2756.52,8209.88 c 6.73,0 12.24,5.53 12.24,12.26 0,6.75 -5.51,12.26 -12.24,12.26 -6.76,0 -12.27,-5.51 -12.27,-12.26 0,-6.73 5.51,-12.26 12.27,-12.26"
         style="fill:#ffffff;fill-opacity:1;fill-rule:evenodd;stroke:none"
         id="path568" />
      <path
         d="m 2854.66,8422.88 c 11.34,0 20.56,9.21 20.56,20.57 0,11.35 -9.22,20.64 -20.56,20.64 -11.37,0 -20.66,-9.29 -20.66,-20.64 0,-11.36 9.29,-20.57 20.66,-20.57"
         style="fill:#f7d33d;fill-opacity:1;fill-rule:evenodd;stroke:none"
         id="path570" />
      <path
         d="m 2854.66,8431.27 c 6.73,0 12.17,5.43 12.17,12.18 0,6.74 -5.44,12.25 -12.17,12.25 -6.75,0 -12.26,-5.51 -12.26,-12.25 0,-6.75 5.51,-12.18 12.26,-12.18"
         style="fill:#ffffff;fill-opacity:1;fill-rule:evenodd;stroke:none"
         id="path572" />
      <path
         d="m 2952.79,8263.61 c 11.35,0 20.57,9.22 20.57,20.64 0,11.36 -9.22,20.58 -20.57,20.58 -11.43,0 -20.65,-9.22 -20.65,-20.58 0,-11.42 9.22,-20.64 20.65,-20.64"
         style="fill:#f7d33d;fill-opacity:1;fill-rule:evenodd;stroke:none"
         id="path574" />
      <path
         d="m 2952.79,8272 c 6.66,0 12.19,5.52 12.19,12.25 0,6.67 -5.53,12.19 -12.19,12.19 -6.74,0 -12.26,-5.52 -12.26,-12.19 0,-6.73 5.52,-12.25 12.26,-12.25"
         style="fill:#ffffff;fill-opacity:1;fill-rule:evenodd;stroke:none"
         id="path576" />
      <path
         d="m 3254.8,7929.04 c 73.71,0 133.43,-59.65 133.43,-133.36 0,-73.63 -59.72,-133.35 -133.43,-133.35 l -118.47,-13.33 51.09,31.5 c -39.49,23.21 -65.98,66.06 -65.98,115.18 0,73.71 59.73,133.36 133.36,133.36"
         style="fill:#f47f75;fill-opacity:1;fill-rule:evenodd;stroke:none"
         id="path578" />
      <path
         d="m 3258,7703.46 c -4.86,0 -9.05,1.72 -12.5,5.26 -3.46,3.46 -5.18,7.57 -5.18,12.42 0,4.94 1.72,9.13 5.18,12.59 3.45,3.45 7.64,5.18 12.5,5.18 4.94,0 9.13,-1.73 12.59,-5.18 3.45,-3.46 5.19,-7.65 5.19,-12.59 0,-4.85 -1.74,-8.96 -5.19,-12.42 -3.46,-3.54 -7.65,-5.26 -12.59,-5.26 z m -46.15,115.92 c -0.4,4.76 -0.58,9.29 -0.58,13.41 0,14.39 2.64,24.84 7.9,31.25 6.67,8.14 15.21,13.01 25.68,14.55 3.69,0.59 7.32,0.91 10.85,0.91 6.33,0 12.51,-0.91 18.43,-2.7 9.13,-2.81 16.13,-8.41 20.8,-16.7 4.12,-7.5 6.19,-17.04 6.19,-28.64 l 0,-4.02 c -0.59,-13.5 -3.38,-24.61 -8.32,-33.49 -5.01,-8.8 -12.51,-15.23 -22.62,-19.17 l -0.33,-22.21 -25.84,-0.41 -0.32,40.31 c 13.08,1.89 21.06,7.65 24.02,17.19 1.98,6.59 2.97,13.09 2.97,19.33 0,2.64 -0.18,5.27 -0.5,7.9 -1.24,8.48 -6.5,12.67 -15.72,12.67 l -0.57,0 c -8.07,-0.25 -12.1,-7.57 -12.1,-21.96 0,-2.81 0.09,-5.76 0.34,-8.89 l -30.28,0.67"
         style="fill:#ffffff;fill-opacity:1;fill-rule:evenodd;stroke:none"
         id="path580" />
      <path
         d="m 2299.03,8159.79 c -73.72,0 -133.44,-59.73 -133.44,-133.44 0,-73.63 59.72,-133.35 133.44,-133.35 l 118.38,-13.32 -51.01,31.59 c 39.49,23.11 65.97,66.05 65.97,115.08 0,73.71 -59.72,133.44 -133.34,133.44"
         style="fill:#f47f75;fill-opacity:1;fill-rule:evenodd;stroke:none"
         id="path582" />
      <path
         d="m 2204.82,8009.23 14.89,1.25 c 0,-9.22 2.88,-13.82 8.81,-13.82 5.76,0 8.89,2.72 9.39,8.22 0.23,2.63 0.32,5.26 0.32,7.82 0,3.04 -0.16,6.08 -0.41,9.13 -0.57,5.51 -2.79,8.3 -6.82,8.3 l -0.43,0 c -4.36,-0.23 -7.48,-3.54 -9.37,-10.11 l -15.47,0.41 1.81,52.64 42.62,0.75 0.24,-15.46 -28.29,-0.58 -1.15,-21.56 c 1.97,5.6 5.5,8.8 10.6,9.63 1.24,0.25 2.48,0.33 3.63,0.33 3.69,0 7.07,-0.98 10.2,-2.88 4.03,-2.55 6.57,-8.64 7.57,-18.18 0.33,-3.29 0.57,-6.5 0.57,-9.63 0,-5.92 -0.66,-11.51 -1.98,-16.78 -1.88,-8.06 -5.67,-13.08 -11.35,-15.06 -4.03,-1.39 -8.07,-2.13 -12.17,-2.13 -1.65,0 -3.29,0.16 -5.01,0.41 -5.77,0.82 -10.29,3.28 -13.66,7.48 -3.04,3.71 -4.61,9.55 -4.61,17.45 0,0.74 0,1.56 0.07,2.37 z m 80.72,63.43 c 16.69,0 25.09,-15.21 25.09,-45.73 0,-30.52 -8.97,-45.75 -26.9,-45.75 -17.86,0 -26.83,15.8 -26.83,47.39 0,29.38 9.54,44.09 28.64,44.09 z m 84.73,-9.86 -20.57,-71.99 -7.98,1.4 20.56,71.98 7.99,-1.39 z m -35.46,0 c 10.61,0 15.88,-6.25 15.88,-18.6 0,-0.49 0,-0.98 0,-1.56 -0.42,-13.4 -6.09,-20.15 -16.95,-20.33 l -0.33,0 c -10.36,0 -15.46,6.35 -15.46,19.01 l 0,1.16 c 0.32,13.48 5.92,20.32 16.86,20.32 z m -1.48,-10.78 c -1.97,-0.57 -3.37,-2.47 -4.03,-5.67 -0.5,-1.99 -0.66,-3.87 -0.66,-5.85 0,-1.31 0.07,-2.62 0.25,-4.03 0.49,-3.29 2.13,-5.02 4.85,-5.1 l 0.32,0 c 2.48,0 4.21,1.23 5.19,3.7 0.75,2.06 1.16,4.44 1.16,7.25 0,0.73 0,1.39 -0.09,2.13 -0.25,3.7 -0.98,6.01 -2.22,7 -0.73,0.57 -1.73,0.82 -2.8,0.82 -0.65,0 -1.31,-0.09 -1.97,-0.25 z m 44.01,-19.83 c 10.61,0 15.87,-6.17 15.87,-18.58 0,-0.5 0,-1 0,-1.5 -0.48,-13.4 -6.08,-20.23 -16.93,-20.31 l -0.34,-0.08 c -10.36,0 -15.46,6.34 -15.46,19.08 l 0,1.08 c 0.25,13.56 5.92,20.31 16.86,20.31 z m -1.56,-10.77 c -1.9,-0.58 -3.29,-2.39 -3.94,-5.68 -0.5,-1.88 -0.66,-3.86 -0.66,-5.76 0,-1.31 0.07,-2.71 0.23,-4.03 0.5,-3.29 2.15,-5.01 4.87,-5.1 l 0.32,0 c 2.47,0 4.19,1.23 5.1,3.62 0.83,2.06 1.24,4.52 1.24,7.32 0,0.66 0,1.39 -0.09,2.14 -0.24,3.7 -0.97,6 -2.22,6.91 -0.82,0.58 -1.72,0.83 -2.79,0.83 -0.66,0 -1.33,-0.09 -2.06,-0.25 z m -101.68,5.1 c 0,-1.15 -0.09,-2.22 -0.09,-3.3 0,-16.69 3.46,-25.09 10.38,-25.09 7.32,0 10.94,9.47 10.94,28.39 0,18.93 -3.38,28.38 -10.21,28.38 -6.83,0 -10.45,-9.45 -11.02,-28.38"
         style="fill:#ffffff;fill-opacity:1;fill-rule:evenodd;stroke:none"
         id="path584" />
      <path
         d="m 2179.33,7612.72 398.5,0 0,82.9219 -398.5,0 0,-82.9219 z"
         style="fill:#08c6a2;fill-opacity:1;fill-rule:evenodd;stroke:none"
         id="path586" />
      <path
         d="m 2532.58,7671.62 c -5.51,-2.8 -7.73,-9.63 -4.94,-15.14 2.81,-5.59 9.63,-7.81 15.14,-4.93 5.59,2.79 7.81,9.63 4.93,15.13 -2.79,5.6 -9.54,7.73 -15.13,4.94 z m -2.88,5.6 c -8.64,-4.37 -12.1,-14.98 -7.66,-23.61 3.87,-7.66 12.67,-11.27 20.57,-8.89 l 8.8,-17.36 5.77,2.97 -8.81,17.27 c 6.58,5.1 8.89,14.32 5.03,21.96 -4.44,8.64 -14.98,12.1 -23.7,7.66"
         style="fill:#fefefe;fill-opacity:1;fill-rule:evenodd;stroke:none"
         id="path588" />
      <path
         d="m 2372.65,7637.88 0,-6.25 4.85,0 0,6.25 -4.85,0 z m -9.95,0 0,-6.25 4.85,0 0,6.25 -4.85,0 z m -10.04,0 0,-6.25 4.86,0 0,6.25 -4.86,0 z m -10.12,14.07 0,-20.32 5.03,0 0,45.18 -5.03,0 0,-20.33 -11.11,0 0,20.33 -5.01,0 0,-45.18 5.01,0 0,20.32 11.11,0 z m -30.93,25.27 c -6.91,0 -10.11,-4.53 -10.11,-11.36 l 0,-23.29 c 0,-6.91 3.2,-11.35 10.11,-11.35 7,0 10.19,4.44 10.19,11.35 l 0,5.6 -4.76,0 0,-5.92 c 0,-4.03 -1.65,-6.5 -5.26,-6.5 -3.62,0 -5.27,2.47 -5.27,6.5 l 0,23.86 c 0,4.11 1.65,6.58 5.27,6.58 3.61,0 5.26,-2.47 5.26,-6.58 l 0,-4.28 4.76,0 0,4.03 c 0,6.83 -3.19,11.36 -10.19,11.36 z m -30.1,-21.73 0,16.7 4.92,0 c 3.71,0 5.19,-2.13 5.19,-6.16 l 0,-4.36 c 0,-4.87 -2.39,-6.18 -6.33,-6.18 l -3.78,0 z m -5.03,21.32 0,-45.18 5.03,0 0,19.26 3.53,0 c 4.19,0 6.58,-1.57 6.58,-6.66 l 0,-7.08 c 0,-3.04 0.25,-4.19 0.82,-5.52 l 5.11,0 c -0.83,1.58 -0.92,3.46 -0.92,5.44 l 0,7 c 0,4.84 -1.48,8.22 -5.67,9.45 3.87,1.24 5.67,4.28 5.67,9.29 l 0,3.62 c 0,6.75 -2.95,10.38 -10.11,10.38 l -10.04,0 z m -16.45,-5.68 5.02,-26.09 -10.03,0 5.01,26.09 z m 5.76,-30.37 1.72,-9.13 5.03,0 -8.64,45.18 -7.25,0 -8.63,-45.18 4.6,0 1.74,9.13 11.43,0 z m -34.72,16.04 0,15.39 13.57,0 0,4.62 -18.59,0 0,-45.18 18.59,0 0,4.62 -13.57,0 0,16.04 11.03,0 0,4.51 -11.03,0 z m -19.5,20.42 c -6.75,0 -10.03,-4.28 -10.03,-11.28 0,-12.67 15.14,-13.65 15.14,-23.69 0,-4.12 -1.73,-6.5 -5.27,-6.5 -3.62,0 -5.34,2.38 -5.34,6.5 l 0,2.79 -4.69,0 0,-2.54 c 0,-6.84 3.2,-11.28 10.11,-11.28 6.91,0 10.2,4.44 10.2,11.28 0,12.67 -15.13,13.65 -15.13,23.77 0,4.04 1.55,6.42 5.18,6.42 3.53,0 5.1,-2.38 5.1,-6.5 l 0,-1.48 4.77,0 0,1.23 c 0,6.84 -3.21,11.28 -10.04,11.28"
         style="fill:#ffffff;fill-opacity:1;fill-rule:evenodd;stroke:none"
         id="path590" />
      <path
         d="m 3084.59,8098 77.16,0 c 6.5,0 11.85,-5.35 11.85,-11.92 l 0,-77.09 c 0,-6.58 -5.35,-11.84 -11.85,-11.84 l -77.16,0 c -6.5,0 -11.85,5.26 -11.85,11.84 l 0,77.09 c 0,6.57 5.35,11.92 11.85,11.92"
         style="fill:#ffffff;fill-opacity:1;fill-rule:evenodd;stroke:none"
         id="path592" />
      <path
         d="m 3161.75,8093.24 -77.16,0 c -1.98,0 -3.7,-0.82 -5.02,-2.13 -1.32,-1.25 -2.05,-3.06 -2.05,-5.03 l 0,-77.09 c 0,-1.97 0.73,-3.77 2.05,-5.01 1.32,-1.32 3.04,-2.14 5.02,-2.14 l 77.16,0 c 1.9,0 3.7,0.82 5.01,2.14 1.24,1.24 2.06,3.04 2.06,5.01 l 0,77.09 c 0,1.97 -0.82,3.78 -2.06,5.03 -1.31,1.31 -3.11,2.13 -5.01,2.13 z m -77.16,9.45 77.16,0 c 4.53,0 8.72,-1.81 11.69,-4.85 3.04,-3.04 4.92,-7.16 4.92,-11.76 l 0,-77.09 c 0,-4.6 -1.88,-8.71 -4.92,-11.76 -2.97,-3.04 -7.16,-4.85 -11.69,-4.85 l -77.16,0 c -4.53,0 -8.73,1.81 -11.77,4.85 -2.96,3.05 -4.85,7.16 -4.85,11.76 l 0,77.09 c 0,4.6 1.89,8.72 4.85,11.76 3.04,3.04 7.24,4.85 11.77,4.85"
         style="fill:#08c6a2;fill-opacity:1;fill-rule:nonzero;stroke:none"
         id="path594" />
      <path
         d="m 3077.52,8068.97 34.46,-60.8 111.8,136.81 -111.48,-98.15 -34.78,22.14"
         style="fill:#03386e;fill-opacity:1;fill-rule:evenodd;stroke:none"
         id="path596" />
      <path
         d="m 3351.95,8070.62 c -6.75,0 -9.95,-4.37 -9.95,-11.28 0,-12.76 15.05,-13.73 15.05,-23.77 0,-4.03 -1.64,-6.42 -5.26,-6.42 -3.63,0 -5.26,2.39 -5.26,6.42 l 0,2.88 -4.69,0 0,-2.63 c 0,-6.83 3.2,-11.27 10.11,-11.27 6.91,0 10.2,4.44 10.2,11.27 0,12.73 -15.21,13.64 -15.21,23.77 0,4.03 1.56,6.41 5.19,6.41 3.6,0 5.17,-2.38 5.17,-6.41 l 0,-1.48 4.77,0 0,1.23 c 0,6.82 -3.21,11.28 -10.12,11.28 z m -23.93,0 c -6.75,0 -10.04,-4.37 -10.04,-11.28 0,-12.76 15.13,-13.73 15.13,-23.77 0,-4.03 -1.72,-6.42 -5.27,-6.42 -3.61,0 -5.33,2.39 -5.33,6.42 l 0,2.88 -4.69,0 0,-2.63 c 0,-6.83 3.2,-11.27 10.11,-11.27 6.91,0 10.2,4.44 10.2,11.27 0,12.73 -15.14,13.64 -15.14,23.77 0,4.03 1.56,6.41 5.19,6.41 3.53,0 5.1,-2.38 5.1,-6.41 l 0,-1.48 4.77,0 0,1.23 c 0,6.82 -3.21,11.28 -10.03,11.28 z m -27.65,-20.49 0,15.46 13.49,0 0,4.53 -18.52,0 0,-45.09 18.52,0 0,4.53 -13.49,0 0,16.05 11.02,0 0,4.52 -11.02,0 z m -19.83,20.49 c -6.91,0 -10.11,-4.53 -10.11,-11.35 l 0,-23.38 c 0,-6.83 3.2,-11.34 10.11,-11.34 7,0 10.2,4.51 10.2,11.34 l 0,5.59 -4.76,0 0,-5.83 c 0,-4.03 -1.65,-6.5 -5.28,-6.5 -3.61,0 -5.34,2.47 -5.34,6.5 l 0,23.87 c 0,4.01 1.73,6.48 5.34,6.48 3.63,0 5.28,-2.47 5.28,-6.48 l 0,-4.38 4.76,0 0,4.13 c 0,6.82 -3.2,11.35 -10.2,11.35 z m -24.52,0 c -6.91,0 -10.11,-4.53 -10.11,-11.35 l 0,-23.38 c 0,-6.83 3.2,-11.34 10.11,-11.34 7,0 10.22,4.51 10.22,11.34 l 0,5.59 -4.78,0 0,-5.83 c 0,-4.03 -1.57,-6.5 -5.28,-6.5 -3.61,0 -5.25,2.47 -5.25,6.5 l 0,23.87 c 0,4.01 1.64,6.48 5.25,6.48 3.71,0 5.28,-2.47 5.28,-6.48 l 0,-4.38 4.78,0 0,4.13 c 0,6.82 -3.22,11.35 -10.22,11.35 z m -29.85,-0.5 -5.02,0 0,-34.23 c 0,-6.83 3.21,-11.43 10.12,-11.43 6.91,0 10.11,4.6 10.11,11.43 l 0,34.23 -4.76,0 0,-34.47 c 0,-4.03 -1.56,-6.5 -5.19,-6.5 -3.71,0 -5.26,2.47 -5.26,6.5 l 0,34.47 z m -19.34,0.5 c -6.74,0 -9.95,-4.37 -9.95,-11.28 0,-12.76 15.05,-13.73 15.05,-23.77 0,-4.03 -1.64,-6.42 -5.26,-6.42 -3.63,0 -5.26,2.39 -5.26,6.42 l 0,2.88 -4.7,0 0,-2.63 c 0,-6.83 3.2,-11.27 10.12,-11.27 6.83,0 10.12,4.44 10.12,11.27 0,12.73 -15.13,13.64 -15.13,23.77 0,4.03 1.56,6.41 5.18,6.41 3.63,0 5.18,-2.38 5.18,-6.41 l 0,-1.48 4.77,0 0,1.23 c 0,6.82 -3.29,11.28 -10.12,11.28"
         style="fill:#03386e;fill-opacity:1;fill-rule:evenodd;stroke:none"
         id="path598" />
    </g>
  </g>
</svg>
