<?xml version="1.0" encoding="UTF-8" standalone="no"?>
<svg
   xmlns:dc="http://purl.org/dc/elements/1.1/"
   xmlns:cc="http://creativecommons.org/ns#"
   xmlns:rdf="http://www.w3.org/1999/02/22-rdf-syntax-ns#"
   xmlns:svg="http://www.w3.org/2000/svg"
   xmlns="http://www.w3.org/2000/svg"
   version="1.1"
   id="svg13531"
   viewBox="0 0 307.64246 299.99999"
   height="84.666664mm"
   width="86.82354mm">
  <defs
     id="defs13533" />
  <metadata
     id="metadata13536">
    <rdf:RDF>
      <cc:Work
         rdf:about="">
        <dc:format>image/svg+xml</dc:format>
        <dc:type
           rdf:resource="http://purl.org/dc/dcmitype/StillImage" />
        <dc:title></dc:title>
      </cc:Work>
    </rdf:RDF>
  </metadata>
  <g
     transform="translate(-142.18453,-461.1648)"
     id="layer1">
    <g
       id="g13450"
       transform="matrix(0.2754037,0,0,-0.2754037,-468.76553,1454.5487)">
      <path
         d="m 3264.69,3062.36 c 0,-269.39 -218.39,-487.77 -487.78,-487.77 -269.39,0 -487.78,218.38 -487.78,487.77 0,269.4 218.39,487.78 487.78,487.78 269.39,0 487.78,-218.38 487.78,-487.78"
         style="fill:#1b4f7f;fill-opacity:1;fill-rule:nonzero;stroke:none"
         id="path1770" />
      <path
         d="m 3036.63,3038.31 c 156.57,0 284.32,127.75 284.32,284.32 0,156.64 -127.75,284.38 -284.32,284.38 -156.65,0 -284.4,-127.74 -284.4,-284.38 0,-156.57 127.75,-284.32 284.4,-284.32"
         style="fill:#3dd4e9;fill-opacity:1;fill-rule:evenodd;stroke:none"
         id="path1956" />
      <path
         d="m 2791.39,3466.68 c 10.93,18.54 23.85,35.77 38.59,51.33 l 109.29,0 c 14.15,0 25.66,-11.5 25.66,-25.66 0,-14.08 -11.51,-25.67 -25.66,-25.67 l -147.88,0 z m -20.28,-246.15 c -11.75,30.47 -18.38,63.59 -18.79,98.19 l 91.82,0 c 11.18,0 20.37,-9.19 20.37,-20.35 0,-2.98 -0.67,-5.8 -1.83,-8.37 l 52.32,0 c 19.13,0 34.78,-15.65 34.78,-34.78 0,-19.11 -15.65,-34.69 -34.78,-34.69 l -143.89,0 z m 522.67,223.54 c 17.39,-36.83 27.17,-77.98 27.17,-121.44 0,-4.65 -0.09,-9.2 -0.34,-13.75 -8.02,-3.32 -16.88,-5.05 -26.08,-5.05 l -190.08,0 c -38.59,0 -70.14,31.54 -70.14,70.12 0,38.59 31.55,70.12 70.14,70.12 l 189.33,0 z m 22.37,-173.45 c -4.81,-26.08 -13.17,-50.91 -24.59,-73.93 l -226.27,0 c -20.37,0 -37.02,16.64 -37.02,36.94 0,20.36 16.65,36.99 37.02,36.99 l 250.86,0"
         style="fill:#7dc983;fill-opacity:1;fill-rule:evenodd;stroke:none"
         id="path1958" />
      <path
         d="m 2814.99,3459.16 c 5.14,0 9.94,-1.18 14.33,-3.16 3.64,1.74 7.94,2.91 12.41,3.16 -0.73,2.3 -1.16,4.79 -1.16,7.36 0,14.82 13.26,26.74 29.56,26.74 16.4,0 29.65,-11.92 29.65,-26.74 0,-5.47 -1.91,-10.52 -4.97,-14.82 9.44,-2.66 16.22,-10.02 16.22,-18.8 0,-3.73 -1.32,-7.28 -3.48,-10.26 13.25,-2.57 21.77,-6.55 21.77,-10.93 0,-7.7 -25.57,-14 -57.2,-14 -13.08,0 -25.09,1.08 -34.78,2.9 -5.87,-5.29 -13.73,-8.52 -22.35,-8.52 -18.54,0 -33.52,14.97 -33.52,33.53 0,18.54 14.98,33.54 33.52,33.54 z m 404.53,81.21 c 16.06,-13.58 30.64,-28.82 43.39,-45.53 l -126.92,0 c -3.23,-3.23 -7.7,-5.22 -12.58,-5.22 -2,0 -3.83,0.32 -5.55,0.91 0,-0.34 0,-0.59 0,-0.84 0,-16.71 -13.59,-30.29 -30.31,-30.29 -16.8,0 -30.39,13.58 -30.39,30.29 0,5.47 1.49,10.52 3.98,14.99 l -14.98,0 c -11.85,0 -21.61,9.69 -21.61,21.61 0,6.21 2.64,11.77 6.78,15.73 3.56,9.28 12.51,15.91 23.03,15.91 8.1,0 15.31,-3.9 19.78,-9.95 l 16.15,0 c 3.97,8.28 12.42,14 22.17,14 9.78,0 18.31,-5.72 22.2,-14 l 17.48,0 c 6.53,0 12.41,-2.98 16.46,-7.61 l 50.92,0 z m -52.25,-286.05 c 16.57,0 30.73,10.43 36.27,25 6.63,6.2 10.77,15.07 10.77,24.84 0,18.79 -15.4,34.11 -34.12,34.11 l -23.51,0 c 3.89,6.96 6.12,14.98 6.12,23.51 0,26.41 -21.36,47.77 -47.76,47.77 -26.33,0 -47.77,-21.36 -47.77,-47.77 0,-0.4 0.07,-0.83 0.07,-1.24 -2.8,0.91 -5.71,1.41 -8.76,1.41 -14,0 -25.59,-10.26 -27.66,-23.68 l -17.64,0 c -18.79,0 -34.1,-15.32 -34.1,-34.11 0,-18.8 15.31,-34.11 34.1,-34.11 l 27.49,0 c 6.21,-13.09 19.55,-22.1 34.95,-22.1 15.47,0 28.81,9.01 35.01,22.1 l 25.42,0 c 7.05,-9.53 18.38,-15.73 31.12,-15.73"
         style="fill:#ffffff;fill-opacity:1;fill-rule:evenodd;stroke:none"
         id="path1960" />
      <path
         d="m 2360.79,3300.68 806.41,0 c 12.99,0 23.6,-10.68 23.6,-23.6 l 0,-531.2 c 0,-12.9 -10.61,-23.51 -23.6,-23.51 l -806.41,0 c -12.92,0 -23.51,10.61 -23.51,23.51 l 0,531.2 c 0,12.92 10.59,23.6 23.51,23.6"
         style="fill:#ffffff;fill-opacity:1;fill-rule:evenodd;stroke:none"
         id="path1962" />
      <path
         d="m 2354.42,3300.68 819.15,0 c 9.44,0 17.23,-7.77 17.23,-17.22 l 0,-52.83 c 0,-0.73 -0.67,-1.4 -1.49,-1.4 l -852.03,0 0,54.23 c 0,9.45 7.7,17.22 17.14,17.22"
         style="fill:#43b8c9;fill-opacity:1;fill-rule:evenodd;stroke:none"
         id="path1964" />
      <path
         d="m 2379.42,3250.09 c 8.6,0 15.65,7.05 15.65,15.65 0,8.61 -7.05,15.65 -15.65,15.65 -8.61,0 -15.65,-7.04 -15.65,-15.65 0,-8.6 7.04,-15.65 15.65,-15.65"
         style="fill:#ffdb79;fill-opacity:1;fill-rule:evenodd;stroke:none"
         id="path1966" />
      <path
         d="m 2423.22,3250.09 c 8.61,0 15.73,7.05 15.73,15.65 0,8.61 -7.12,15.65 -15.73,15.65 -8.62,0 -15.66,-7.04 -15.66,-15.65 0,-8.6 7.04,-15.65 15.66,-15.65"
         style="fill:#9bdde7;fill-opacity:1;fill-rule:evenodd;stroke:none"
         id="path1968" />
      <path
         d="m 2467.02,3250.09 c 8.6,0 15.64,7.05 15.64,15.65 0,8.61 -7.04,15.65 -15.64,15.65 -8.61,0 -15.65,-7.04 -15.65,-15.65 0,-8.6 7.04,-15.65 15.65,-15.65"
         style="fill:#f77b55;fill-opacity:1;fill-rule:evenodd;stroke:none"
         id="path1970" />
      <path
         d="m 2506.42,3249.19 660.035,0 0,29.7188 -660.035,0 0,-29.7188 z"
         style="fill:#ffffff;fill-opacity:1;fill-rule:evenodd;stroke:none"
         id="path1972" />
      <path
         d="m 2432.15,3137.58 673.2,0 c 11.83,0 21.52,-9.69 21.52,-21.53 l 0,-42.55 c 0,-11.84 -9.69,-21.53 -21.52,-21.53 l -673.2,0 c -11.92,0 -21.6,9.69 -21.6,21.53 l 0,42.55 c 0,11.84 9.68,21.53 21.6,21.53"
         style="fill:#ffd45b;fill-opacity:1;fill-rule:evenodd;stroke:none"
         id="path1974" />
      <path
         d="m 2677.73,3175.25 181.727,0 0,13.1641 -181.727,0 0,-13.1641 z"
         style="fill:#cccccc;fill-opacity:1;fill-rule:evenodd;stroke:none"
         id="path1976" />
      <path
         d="m 2455.59,3175.25 181.809,0 0,13.1641 -181.809,0 0,-13.1641 z"
         style="fill:#cccccc;fill-opacity:1;fill-rule:evenodd;stroke:none"
         id="path1978" />
      <path
         d="m 2906.06,3175.25 181.738,0 0,13.1641 -181.738,0 0,-13.1641 z"
         style="fill:#cccccc;fill-opacity:1;fill-rule:evenodd;stroke:none"
         id="path1980" />
      <path
         d="m 2600.57,3075.39 0,6.15 6.12,0 0,-6.15 -6.12,0 z m -36.61,0 -9.52,31.72 5.55,0 5.05,-18.3 1.82,-6.78 c 0.09,0.32 0.67,2.47 1.66,6.53 l 5.06,18.55 5.45,0 4.81,-18.37 1.48,-6.05 1.83,6.12 5.54,18.3 5.22,0 -9.94,-31.72 -5.63,0 -4.96,18.97 -1.33,5.47 -6.37,-24.44 -5.72,0 z m -44.04,0 -9.6,31.72 5.63,0 5.04,-18.3 1.75,-6.78 c 0.08,0.32 0.66,2.47 1.65,6.53 l 5.04,18.55 5.47,0 4.81,-18.37 1.58,-6.05 1.81,6.12 5.46,18.3 5.22,0 -9.94,-31.72 -5.54,0 -5.05,18.97 -1.24,5.47 -6.46,-24.44 -5.63,0 z m -44.12,0 -9.62,31.72 5.64,0 5.04,-18.3 1.83,-6.78 c 0.09,0.32 0.58,2.47 1.65,6.53 l 4.97,18.55 5.55,0 4.72,-18.37 1.58,-6.05 1.81,6.12 5.46,18.3 5.22,0 -9.94,-31.72 -5.55,0 -5.04,18.97 -1.24,5.47 -6.37,-24.44 -5.71,0"
         style="fill:#6c6d70;fill-opacity:1;fill-rule:evenodd;stroke:none"
         id="path1982" />
      <path
         d="m 2491.52,2874.05 c 34.53,0 62.67,28.16 62.67,62.67 0,34.53 -28.14,62.68 -62.67,62.68 -34.53,0 -62.67,-28.15 -62.67,-62.68 0,-34.51 28.14,-62.67 62.67,-62.67"
         style="fill:#adecf7;fill-opacity:1;fill-rule:evenodd;stroke:none"
         id="path1984" />
      <path
         d="m 2456.74,2950.04 32.63,-55.55 76.92,126.1 -75.02,-86.02 -34.53,15.47"
         style="fill:#f26d6e;fill-opacity:1;fill-rule:evenodd;stroke:none"
         id="path1986" />
      <path
         d="m 2612.49,2957.83 295.402,0 0,9.3516 -295.402,0 0,-9.3516 z"
         style="fill:#a6a9ab;fill-opacity:1;fill-rule:evenodd;stroke:none"
         id="path1988" />
      <path
         d="m 2730.62,2931.18 177.27,0 0,9.3516 -177.27,0 0,-9.3516 z"
         style="fill:#a6a9ab;fill-opacity:1;fill-rule:evenodd;stroke:none"
         id="path1990" />
      <path
         d="m 2608.92,2904.52 194.07,0 0,9.4375 -194.07,0 0,-9.4375 z"
         style="fill:#a6a9ab;fill-opacity:1;fill-rule:evenodd;stroke:none"
         id="path1992" />
      <path
         d="m 2852.34,2904.52 55.5547,0 0,9.4375 -55.5547,0 0,-9.4375 z"
         style="fill:#a6a9ab;fill-opacity:1;fill-rule:evenodd;stroke:none"
         id="path1994" />
      <path
         d="m 2643.86,2931.18 31.2969,0 0,9.3516 -31.2969,0 0,-9.3516 z"
         style="fill:#a6a9ab;fill-opacity:1;fill-rule:evenodd;stroke:none"
         id="path1996" />
      <path
         d="m 2975.2,2995 261.13,0 c 16.73,0 30.39,-13.66 30.39,-30.37 l 0,-240.61 c 0,-16.72 -13.66,-30.38 -30.39,-30.38 l -261.13,0 c -16.64,0 -30.3,13.66 -30.3,30.38 l 0,240.61 c 0,16.71 13.66,30.37 30.3,30.37"
         style="fill:#e62c34;fill-opacity:1;fill-rule:evenodd;stroke:none"
         id="path1998" />
      <path
         d="m 2944.9,2795.98 321.82,0 0,96.6992 -321.82,0 0,-96.6992 z"
         style="fill:#08c6a2;fill-opacity:1;fill-rule:evenodd;stroke:none"
         id="path2000" />
      <path
         d="m 2996.82,2723.29 0,7.11 7.02,0 0,-7.11 -7.02,0 z m 17.86,43.63 0,7.11 6.21,0 0,-7.11 -6.21,0 z m 0,-43.63 0,36.75 6.21,0 0,-36.75 -6.21,0 z m 15.74,0 0,36.75 5.63,0 0,-5.22 c 2.66,4.06 6.54,6.05 11.67,6.05 2.24,0 4.23,-0.41 6.14,-1.24 1.81,-0.75 3.23,-1.83 4.13,-3.15 0.91,-1.24 1.58,-2.82 1.9,-4.55 0.25,-1.16 0.43,-3.14 0.43,-6.05 l 0,-22.59 -6.3,0 0,22.34 c 0,2.57 -0.25,4.48 -0.66,5.71 -0.49,1.24 -1.41,2.24 -2.66,2.98 -1.15,0.75 -2.64,1.17 -4.29,1.17 -2.65,0 -4.9,-0.83 -6.89,-2.57 -1.89,-1.65 -2.8,-4.88 -2.8,-9.6 l 0,-20.03 -6.3,0 z m 40.9,0 0,31.95 -5.54,0 0,4.8 5.54,0 0,3.9 c 0,2.48 0.25,4.29 0.67,5.54 0.57,1.57 1.65,2.9 3.14,3.9 1.5,0.99 3.64,1.49 6.37,1.49 1.74,0 3.66,-0.18 5.8,-0.59 l -0.92,-5.46 c -1.31,0.16 -2.55,0.33 -3.72,0.33 -1.9,0 -3.21,-0.42 -3.96,-1.24 -0.83,-0.74 -1.17,-2.32 -1.17,-4.47 l 0,-3.4 7.11,0 0,-4.8 -7.02,0 0,-31.95 -6.3,0 z m 15.9,18.37 c 0,6.79 1.9,11.84 5.62,15.07 3.16,2.73 7.05,4.14 11.61,4.14 5.03,0 9.18,-1.65 12.41,-4.97 3.14,-3.32 4.8,-7.86 4.8,-13.75 0,-4.72 -0.75,-8.36 -2.15,-11.09 -1.4,-2.73 -3.48,-4.79 -6.21,-6.3 -2.65,-1.47 -5.63,-2.22 -8.85,-2.22 -5.15,0 -9.29,1.57 -12.51,4.88 -3.15,3.31 -4.72,8.03 -4.72,14.24 z m 6.37,0 c 0,-4.73 0.99,-8.2 3.07,-10.51 2.07,-2.41 4.63,-3.57 7.79,-3.57 3.05,0 5.71,1.16 7.69,3.57 2.06,2.31 3.15,5.87 3.15,10.68 0,4.55 -1.09,8.02 -3.15,10.35 -2.07,2.32 -4.64,3.47 -7.69,3.47 -3.16,0 -5.72,-1.15 -7.79,-3.47 -2.08,-2.33 -3.07,-5.8 -3.07,-10.52"
         style="fill:#fefefe;fill-opacity:1;fill-rule:evenodd;stroke:none"
         id="path2002" />
      <path
         d="m 2996.82,2822.97 0,7.11 7.02,0 0,-7.11 -7.02,0 z m 17.86,0 0,36.83 5.64,0 0,-5.21 c 2.65,3.97 6.54,5.96 11.68,5.96 2.23,0 4.22,-0.41 6.12,-1.16 1.83,-0.83 3.23,-1.89 4.14,-3.14 0.92,-1.33 1.58,-2.82 1.91,-4.64 0.25,-1.16 0.32,-3.15 0.32,-6.04 l 0,-22.6 -6.21,0 0,22.35 c 0,2.56 -0.24,4.47 -0.73,5.72 -0.42,1.24 -1.33,2.23 -2.57,2.98 -1.24,0.73 -2.66,1.15 -4.31,1.15 -2.64,0 -4.97,-0.83 -6.87,-2.57 -1.9,-1.65 -2.91,-4.79 -2.91,-9.51 l 0,-20.12 -6.21,0 z m 64.5,11.92 6.46,-0.83 c -1,-3.73 -2.89,-6.71 -5.63,-8.7 -2.73,-2.07 -6.21,-3.14 -10.5,-3.14 -5.39,0 -9.62,1.66 -12.76,4.97 -3.14,3.3 -4.72,7.95 -4.72,13.91 0,6.12 1.58,10.92 4.81,14.32 3.14,3.39 7.28,5.13 12.33,5.13 4.88,0 8.94,-1.65 12,-4.97 3.15,-3.39 4.72,-8.11 4.72,-14.16 0,-0.32 -0.08,-0.9 -0.08,-1.65 l -27.41,0 c 0.25,-3.97 1.42,-7.11 3.48,-9.28 1.99,-2.06 4.56,-3.14 7.63,-3.14 2.31,0 4.22,0.58 5.87,1.74 1.58,1.24 2.89,3.14 3.8,5.8 z m -20.35,10.01 20.44,0 c -0.25,3.07 -1.07,5.39 -2.31,6.96 -2,2.41 -4.56,3.56 -7.71,3.56 -2.9,0 -5.29,-0.92 -7.2,-2.82 -1.98,-1.9 -3.06,-4.47 -3.22,-7.7 z m 48.26,-16.31 0.83,-5.55 c -1.74,-0.32 -3.31,-0.57 -4.72,-0.57 -2.24,0 -3.97,0.41 -5.22,1.07 -1.24,0.76 -2.14,1.66 -2.65,2.82 -0.5,1.24 -0.75,3.64 -0.75,7.36 l 0,21.2 -4.63,0 0,4.88 4.63,0 0,9.03 6.21,3.82 0,-12.85 6.3,0 0,-4.88 -6.3,0 0,-21.52 c 0,-1.74 0.17,-2.91 0.34,-3.4 0.25,-0.5 0.58,-0.91 1.08,-1.25 0.5,-0.32 1.24,-0.41 2.15,-0.41 0.66,0 1.57,0.09 2.73,0.25"
         style="fill:#fefefe;fill-opacity:1;fill-rule:evenodd;stroke:none"
         id="path2004" />
      <path
         d="m 2996.82,2924.97 0,7.12 7.02,0 0,-7.12 -7.02,0 z m 41.89,13.49 6.12,-0.91 c -0.66,-4.15 -2.4,-7.45 -5.13,-9.77 -2.73,-2.4 -6.14,-3.55 -10.18,-3.55 -4.97,0 -9.04,1.56 -12.1,4.88 -3.06,3.31 -4.54,8.03 -4.54,14.07 0,3.97 0.65,7.45 1.98,10.43 1.24,2.98 3.32,5.21 5.96,6.71 2.64,1.48 5.63,2.23 8.77,2.23 3.97,0 7.29,-0.99 9.77,-3.07 2.58,-1.97 4.14,-4.88 4.89,-8.6 l -6.04,-0.91 c -0.58,2.49 -1.58,4.31 -3.07,5.54 -1.49,1.24 -3.23,1.91 -5.3,1.91 -3.14,0 -5.71,-1.17 -7.7,-3.4 -1.9,-2.22 -2.9,-5.79 -2.9,-10.59 0,-4.97 0.91,-8.54 2.82,-10.76 1.9,-2.24 4.39,-3.4 7.46,-3.4 2.39,0 4.47,0.74 6.12,2.23 1.57,1.49 2.64,3.82 3.07,6.96 z m 9.1,4.89 c 0,6.78 1.9,11.84 5.62,15.07 3.15,2.73 7.05,4.13 11.61,4.13 5.04,0 9.19,-1.65 12.42,-4.97 3.14,-3.3 4.79,-7.86 4.79,-13.75 0,-4.7 -0.75,-8.35 -2.15,-11.09 -1.4,-2.73 -3.47,-4.79 -6.21,-6.28 -2.73,-1.49 -5.62,-2.23 -8.85,-2.23 -5.15,0 -9.28,1.56 -12.51,4.88 -3.14,3.31 -4.72,8.03 -4.72,14.24 z m 6.37,0 c 0,-4.72 0.99,-8.21 3.07,-10.52 2.07,-2.4 4.63,-3.56 7.79,-3.56 3.05,0 5.71,1.16 7.7,3.56 2.06,2.31 3.14,5.88 3.14,10.68 0,4.56 -1.08,8.04 -3.14,10.35 -2.08,2.32 -4.65,3.48 -7.7,3.48 -3.16,0 -5.72,-1.16 -7.79,-3.48 -2.08,-2.31 -3.07,-5.79 -3.07,-10.51 z m 35.36,-18.38 0,36.76 5.62,0 0,-5.23 c 1.09,1.83 2.65,3.32 4.56,4.4 1.91,1.07 4.05,1.65 6.53,1.65 2.74,0 4.97,-0.58 6.71,-1.74 1.74,-1.08 2.98,-2.64 3.66,-4.72 2.89,4.31 6.7,6.46 11.41,6.46 3.65,0 6.45,-0.99 8.46,-3.07 1.97,-1.97 2.98,-5.12 2.98,-9.26 l 0,-25.25 -6.3,0 0,23.17 c 0,2.49 -0.16,4.23 -0.58,5.38 -0.41,1.08 -1.16,1.92 -2.24,2.57 -1.08,0.75 -2.32,1.09 -3.72,1.09 -2.56,0 -4.72,-0.93 -6.47,-2.58 -1.73,-1.74 -2.55,-4.56 -2.55,-8.28 l 0,-21.35 -6.21,0 0,23.83 c 0,2.82 -0.51,4.9 -1.58,6.3 -0.99,1.33 -2.64,2.08 -4.97,2.08 -1.74,0 -3.39,-0.5 -4.88,-1.42 -1.49,-0.91 -2.57,-2.24 -3.23,-4.05 -0.67,-1.74 -0.99,-4.31 -0.99,-7.7 l 0,-19.04 -6.21,0"
         style="fill:#fefefe;fill-opacity:1;fill-rule:evenodd;stroke:none"
         id="path2006" />
      <path
         d="m 2659.17,2673.86 c 8.45,-3.82 15.99,-9.19 22.11,-15.9 l 25.33,11.5 17.8,-39.23 -25.32,-11.43 c 0.5,-4.47 0.5,-9.12 0.07,-13.75 -0.49,-4.63 -1.4,-9.1 -2.73,-13.41 l 22.61,-16.22 -25.09,-34.94 -22.61,16.13 c -7.27,-5.3 -15.72,-9.19 -24.75,-11.25 l -2.73,-27.66 -42.89,4.23 2.74,27.57 c -8.45,3.81 -15.99,9.28 -22.18,15.89 l -25.27,-11.42 -17.8,39.16 25.25,11.51 c -0.41,4.47 -0.49,9.02 0,13.66 0.43,4.63 1.41,9.19 2.65,13.49 l -22.52,16.15 25,35.02 22.61,-16.22 c 7.37,5.38 15.82,9.26 24.84,11.34 l 2.73,27.64 42.81,-4.22 -2.66,-27.64"
         style="fill:#e6e6e6;fill-opacity:1;fill-rule:evenodd;stroke:none"
         id="path2008" />
      <path
         d="m 2635.59,2653.82 c 23.26,-2.25 40.31,-23.02 37.99,-46.28 -2.31,-23.27 -23.01,-40.25 -46.28,-38.01 -23.26,2.32 -40.32,23.01 -38,46.29 2.24,23.26 23.01,40.31 46.29,38 z m -2.08,-20.7 c 11.84,-1.17 20.53,-11.67 19.38,-23.51 -1.17,-11.85 -11.76,-20.54 -23.51,-19.38 -11.85,1.16 -20.54,11.75 -19.38,23.6 1.16,11.75 11.68,20.44 23.51,19.29"
         style="fill:#363f48;fill-opacity:1;fill-rule:evenodd;stroke:none"
         id="path2010" />
      <path
         d="m 2503.69,2663.34 c 3.56,-6.05 5.8,-12.67 6.71,-19.46 l 20.7,-4.05 -6.3,-31.96 -20.61,3.97 c -1.65,-2.98 -3.73,-5.8 -6.04,-8.44 -2.32,-2.66 -4.81,-5.06 -7.54,-7.13 l 6.87,-19.87 -30.87,-10.6 -6.8,19.88 c -6.86,0 -13.82,1.24 -20.28,3.97 l -13.82,-15.9 -24.52,21.45 13.75,15.81 c -3.56,6.12 -5.8,12.76 -6.71,19.54 l -20.61,4.06 6.2,31.96 20.7,-3.98 c 1.66,2.89 3.65,5.8 5.96,8.45 2.32,2.64 4.89,5.05 7.54,7.11 l -6.8,19.87 30.8,10.61 6.89,-19.96 c 6.86,0.09 13.73,-1.24 20.19,-3.88 l 13.82,15.81 24.59,-21.37 -13.82,-15.89"
         style="fill:#e6e6e6;fill-opacity:1;fill-rule:evenodd;stroke:none"
         id="path2012" />
      <path
         d="m 2480.34,2661.35 c 13.41,-11.59 14.83,-31.87 3.16,-45.21 -11.61,-13.32 -31.89,-14.73 -45.21,-3.14 -13.34,11.68 -14.74,31.87 -3.16,45.28 11.68,13.34 31.89,14.74 45.21,3.07 z M 2470,2649.52 c 6.79,-5.97 7.54,-16.24 1.65,-23.02 -5.97,-6.79 -16.22,-7.45 -23.02,-1.58 -6.79,5.88 -7.54,16.22 -1.58,23.02 5.9,6.79 16.15,7.45 22.95,1.58"
         style="fill:#363f48;fill-opacity:1;fill-rule:evenodd;stroke:none"
         id="path2014" />
      <path
         d="m 3228.29,2835.8 40.17,-21.86 40.15,-21.95 -34.2,-9.69 27,-44.2 -19.54,-12.01 -27,44.29 -24.26,-25.98 -1.15,45.69 -1.17,45.71"
         style="fill:#fefefe;fill-opacity:1;fill-rule:evenodd;stroke:none"
         id="path2016" />
      <path
         d="m 3229.55,3122.5 c 3.46,0 6.28,-2.89 6.28,-6.37 0,-3.56 -2.82,-6.37 -6.28,-6.37 l -12.76,0 c -3.47,0 -6.37,2.81 -6.37,6.37 0,3.48 2.9,6.37 6.37,6.37 l 12.76,0 z m 48.26,-1.31 c 3.48,-0.66 5.71,-3.98 5.13,-7.45 -0.66,-3.41 -3.98,-5.72 -7.45,-5.06 l -0.08,0 -0.42,0.09 -0.41,0.07 -0.33,0.09 -0.41,0 -0.34,0.09 -0.41,0.09 -0.41,0.07 -0.34,0 -0.4,0.09 -0.43,0 -0.41,0.07 -0.33,0 -0.41,0.09 -0.41,0 -0.34,0.09 -0.41,0 -0.42,0.08 -0.83,0 -0.32,0.08 -1.58,0 -0.41,0.08 -1.65,0 c -3.48,0 -6.3,2.81 -6.3,6.37 0,3.48 2.82,6.37 6.3,6.37 l 0.49,0 0.5,-0.07 2.4,0 0.5,-0.09 0.9,0 0.5,-0.08 0.49,0 0.5,-0.08 0.43,0 0.49,-0.09 0.48,0 0.43,-0.08 0.49,0 0.5,-0.08 0.41,-0.08 0.5,-0.09 0.49,0 0.43,-0.07 0.49,-0.09 0.5,-0.07 0.41,-0.09 0.5,-0.09 0.41,-0.09 0.49,-0.07 0.09,0 z m 42.48,-28.74 c 2.14,-2.81 1.56,-6.78 -1.25,-8.86 -2.82,-2.14 -6.79,-1.56 -8.85,1.17 l -0.17,0.16 -0.25,0.33 -0.16,0.24 -0.25,0.34 -0.25,0.25 -0.25,0.33 -0.25,0.25 -0.17,0.34 -0.25,0.32 -0.25,0.25 -0.25,0.25 -0.25,0.33 -0.24,0.25 -0.25,0.34 -0.24,0.24 -0.26,0.25 -0.25,0.32 -0.24,0.25 -0.26,0.25 -0.32,0.34 -0.25,0.25 -0.24,0.24 -0.25,0.25 -0.25,0.32 -0.25,0.25 -0.34,0.25 -0.25,0.25 -0.24,0.25 -0.25,0.25 -0.32,0.26 -0.27,0.32 -0.07,0 c -2.57,2.41 -2.82,6.46 -0.41,9.03 2.31,2.56 6.37,2.81 8.93,0.41 l 0.17,-0.07 0.33,-0.34 0.33,-0.33 0.34,-0.34 0.34,-0.25 0.32,-0.32 0.33,-0.34 0.25,-0.33 0.32,-0.33 0.34,-0.24 0.33,-0.34 0.32,-0.33 0.25,-0.33 0.34,-0.33 0.34,-0.34 0.25,-0.32 0.33,-0.34 0.32,-0.32 0.25,-0.33 0.33,-0.34 0.25,-0.41 0.33,-0.33 0.33,-0.32 0.25,-0.34 0.25,-0.34 0.34,-0.41 0.24,-0.33 0.33,-0.34 0.24,-0.32 0.25,-0.41 0.34,-0.33 0.09,-0.18 z m 15.15,-51.65 c 0,-3.57 -2.91,-6.39 -6.39,-6.39 -3.55,0 -6.37,2.82 -6.37,6.39 l 0,8.6 -0.09,0.41 0,1.17 -0.07,0.41 0,0.83 -0.09,0.32 0,0.34 c -0.33,3.57 2.24,6.62 5.8,6.96 3.48,0.33 6.54,-2.33 6.87,-5.8 l 0.09,-0.41 0,-0.91 0.07,-0.5 0,-0.49 0.09,-0.5 0,-1.91 0.09,-0.5 0,-8.02 z m 0,-50.92 c 0,-3.48 -2.91,-6.38 -6.39,-6.38 -3.55,0 -6.37,2.9 -6.37,6.38 l 0,12.75 c 0,3.46 2.82,6.37 6.37,6.37 3.48,0 6.39,-2.91 6.39,-6.37 l 0,-12.75 z m 0,-50.93 c 0,-3.47 -2.91,-6.28 -6.39,-6.28 -3.55,0 -6.37,2.81 -6.37,6.28 l 0,12.76 c 0,3.48 2.82,6.37 6.37,6.37 3.48,0 6.39,-2.89 6.39,-6.37 l 0,-12.76 z m 0,-50.83 c 0,-3.57 -2.91,-6.37 -6.39,-6.37 -3.55,0 -6.37,2.8 -6.37,6.37 l 0,12.67 c 0,3.57 2.82,6.37 6.37,6.37 3.48,0 6.39,-2.8 6.39,-6.37 l 0,-12.67 z m 0,-50.91 c 0,-3.49 -2.91,-6.38 -6.39,-6.38 -3.55,0 -6.37,2.89 -6.37,6.38 l 0,12.74 c 0,3.48 2.82,6.37 6.37,6.37 3.48,0 6.39,-2.89 6.39,-6.37 l 0,-12.74 z m 0,-50.92 c 0,-3.47 -2.91,-6.29 -6.39,-6.29 -3.55,0 -6.37,2.82 -6.37,6.29 l 0,12.75 c 0,3.56 2.82,6.37 6.37,6.37 3.48,0 6.39,-2.81 6.39,-6.37 l 0,-12.75 z m 0,-50.84 c 0,-3.56 -2.91,-6.38 -6.39,-6.38 -3.55,0 -6.37,2.82 -6.37,6.38 l 0,12.66 c 0,3.57 2.82,6.39 6.37,6.39 3.48,0 6.39,-2.82 6.39,-6.39 l 0,-12.66 z m 0,-50.93 c 0,-3.46 -2.91,-6.37 -6.39,-6.37 -3.55,0 -6.37,2.91 -6.37,6.37 l 0,12.76 c 0,3.48 2.82,6.38 6.37,6.38 3.48,0 6.39,-2.9 6.39,-6.38 l 0,-12.76 z m -13.82,-51.9 c -2.08,-2.82 -6.05,-3.56 -8.87,-1.49 -2.9,1.99 -3.55,5.96 -1.58,8.86 l 0.17,0.24 0.25,0.25 0.25,0.34 0.16,0.32 0.25,0.34 0.18,0.25 0.23,0.33 0.18,0.34 0.24,0.32 0.16,0.33 0.16,0.33 0.25,0.33 0.18,0.25 0.16,0.34 0.25,0.32 0.16,0.33 0.17,0.34 0.16,0.34 0.25,0.32 0.16,0.34 0.18,0.33 0.16,0.32 0.17,0.34 0.17,0.32 0.24,0.34 0.16,0.33 0.16,0.34 0.18,0.32 0.16,0.41 0.09,0.34 0.16,0.24 c 1.49,3.23 5.3,4.65 8.44,3.16 3.23,-1.51 4.56,-5.31 3.14,-8.46 l -0.16,-0.32 -0.24,-0.42 -0.17,-0.42 -0.24,-0.41 -0.18,-0.42 -0.16,-0.41 -0.25,-0.41 -0.16,-0.41 -0.24,-0.42 -0.25,-0.41 -0.18,-0.34 -0.25,-0.4 -0.25,-0.41 -0.16,-0.43 -0.25,-0.4 -0.24,-0.34 -0.17,-0.41 -0.24,-0.41 -0.25,-0.34 -0.25,-0.42 -0.25,-0.41 -0.25,-0.32 -0.24,-0.42 -0.25,-0.41 -0.25,-0.34 -0.25,-0.41 -0.25,-0.34 -0.25,-0.4 -0.25,-0.34 -0.24,-0.41 -0.16,-0.25 z m -45.3,-30.05 c -3.48,-0.75 -6.87,1.4 -7.61,4.88 -0.76,3.4 1.4,6.79 4.88,7.54 l 0.41,0.08 0.41,0.08 0.33,0.08 0.42,0.16 0.33,0.09 0.42,0.09 0.32,0.07 0.43,0.09 0.32,0.09 0.33,0.16 0.41,0.09 0.34,0.07 0.41,0.18 0.33,0.07 0.41,0.09 0.34,0.16 0.32,0.09 0.42,0.16 0.33,0.08 0.33,0.16 0.43,0.09 0.32,0.16 0.33,0.09 0.41,0.16 0.34,0.17 0.32,0.08 0.33,0.17 0.43,0.16 0.32,0.17 0.34,0.08 c 3.23,1.41 6.95,-0.08 8.36,-3.31 1.41,-3.23 -0.09,-6.96 -3.31,-8.36 l -0.09,0 -0.41,-0.16 -0.42,-0.18 -0.41,-0.16 -0.41,-0.16 -0.42,-0.17 -0.41,-0.16 -0.5,-0.16 -0.41,-0.18 -0.42,-0.16 -0.41,-0.16 -0.49,-0.16 -0.41,-0.18 -0.43,-0.16 -0.41,-0.09 -0.49,-0.16 -0.41,-0.17 -0.42,-0.08 -0.5,-0.17 -0.41,-0.16 -0.43,-0.09 -0.49,-0.16 -0.41,-0.09 -0.41,-0.16 -0.5,-0.09 -0.41,-0.07 -0.5,-0.17 -0.42,-0.08 -0.49,-0.08 -0.41,-0.17 -0.5,-0.08 z m -52.16,-1.74 c -3.48,0 -6.37,2.89 -6.37,6.37 0,3.57 2.89,6.39 6.37,6.39 l 12.75,0 c 3.48,0 6.37,-2.82 6.37,-6.39 0,-3.48 -2.89,-6.37 -6.37,-6.37 l -12.75,0 z m -50.93,0 c -3.46,0 -6.28,2.89 -6.28,6.37 0,3.57 2.82,6.39 6.28,6.39 l 12.76,0 c 3.48,0 6.37,-2.82 6.37,-6.39 0,-3.48 -2.89,-6.37 -6.37,-6.37 l -12.76,0 z m -50.83,0 c -3.55,0 -6.37,2.89 -6.37,6.37 0,3.57 2.82,6.39 6.37,6.39 l 12.67,0 c 3.57,0 6.37,-2.82 6.37,-6.39 0,-3.48 -2.8,-6.37 -6.37,-6.37 l -12.67,0 z m -50.9,0 c -3.48,0 -6.39,2.89 -6.39,6.37 0,3.57 2.91,6.39 6.39,6.39 l 12.73,0 c 3.48,0 6.39,-2.82 6.39,-6.39 0,-3.48 -2.91,-6.37 -6.39,-6.37 l -12.73,0 z m -50.93,0 c -3.47,0 -6.29,2.89 -6.29,6.37 0,3.57 2.82,6.39 6.29,6.39 l 12.75,0 c 3.49,0 6.38,-2.82 6.38,-6.39 0,-3.48 -2.89,-6.37 -6.38,-6.37 l -12.75,0 z m -50.83,0 c -3.56,0 -6.38,2.89 -6.38,6.37 0,3.57 2.82,6.39 6.38,6.39 l 12.67,0 c 3.55,0 6.37,-2.82 6.37,-6.39 0,-3.48 -2.82,-6.37 -6.37,-6.37 l -12.67,0 z m -50.92,0 c -3.48,0 -6.37,2.89 -6.37,6.37 0,3.57 2.89,6.39 6.37,6.39 l 12.75,0 c 3.47,0 6.38,-2.82 6.38,-6.39 0,-3.48 -2.91,-6.37 -6.38,-6.37 l -12.75,0 z m -50.92,0 c -3.48,0 -6.29,2.89 -6.29,6.37 0,3.57 2.81,6.39 6.29,6.39 l 12.75,0 c 3.55,0 6.37,-2.82 6.37,-6.39 0,-3.48 -2.82,-6.37 -6.37,-6.37 l -12.75,0 z m -50.84,0 c -3.56,0 -6.37,2.89 -6.37,6.37 0,3.57 2.81,6.39 6.37,6.39 l 12.67,0 c 3.57,0 6.37,-2.82 6.37,-6.39 0,-3.48 -2.8,-6.37 -6.37,-6.37 l -12.67,0 z m -50.92,0 c -3.48,0 -6.37,2.89 -6.37,6.37 0,3.57 2.89,6.39 6.37,6.39 l 12.76,0 c 3.48,0 6.37,-2.82 6.37,-6.39 0,-3.48 -2.89,-6.37 -6.37,-6.37 l -12.76,0 z m -43.54,0 c -3.48,0 -6.37,2.89 -6.37,6.37 0,3.57 2.89,6.39 6.37,6.39 l 7.2,0 c 3.57,0 6.38,-2.82 6.38,-6.39 0,-3.48 -2.81,-6.37 -6.38,-6.37 l -7.2,0 z m -363.55,0 c -3.57,0 -6.37,2.89 -6.37,6.37 0,3.57 2.8,6.39 6.37,6.39 l 12.75,0 c 3.49,0 6.29,-2.82 6.29,-6.39 0,-3.48 -2.8,-6.37 -6.29,-6.37 l -12.75,0 z m -50.92,0 c -3.48,0 -6.37,2.89 -6.37,6.37 0,3.57 2.89,6.39 6.37,6.39 l 12.76,0 c 3.47,0 6.36,-2.82 6.36,-6.39 0,-3.48 -2.89,-6.37 -6.36,-6.37 l -12.76,0 z m -52.41,10.27 c -3.06,1.74 -4.05,5.63 -2.31,8.69 1.82,3.06 5.71,4.05 8.77,2.31 l 0,-0.07 0.33,-0.17 0.34,-0.17 0.32,-0.16 0.33,-0.24 0.34,-0.18 0.34,-0.16 0.32,-0.16 0.34,-0.18 0.33,-0.16 0.32,-0.16 0.34,-0.18 0.33,-0.16 0.32,-0.16 0.34,-0.17 0.41,-0.16 0.34,-0.16 0.33,-0.18 0.33,-0.16 0.33,-0.16 0.32,-0.17 0.42,-0.17 0.34,-0.08 0.32,-0.17 0.34,-0.16 0.41,-0.17 0.33,-0.08 0.33,-0.17 0.33,-0.16 0.43,-0.09 0.32,-0.16 0.09,0 c 3.3,-1.15 5.05,-4.81 3.88,-8.11 -1.15,-3.31 -4.79,-5.05 -8.11,-3.9 l -0.17,0.09 -0.41,0.16 -0.5,0.18 -0.41,0.16 -0.41,0.16 -0.42,0.17 -0.41,0.16 -0.41,0.16 -0.42,0.18 -0.5,0.16 -0.41,0.16 -0.41,0.18 -0.42,0.25 -0.41,0.16 -0.42,0.16 -0.41,0.17 -0.41,0.25 -0.41,0.16 -0.43,0.25 -0.4,0.16 -0.34,0.25 -0.41,0.17 -0.41,0.16 -0.42,0.25 -0.41,0.25 -0.41,0.16 -0.42,0.25 -0.33,0.25 -0.42,0.17 -0.41,0.25 -0.42,0.25 z m -33.86,42.39 c -1.08,3.39 0.75,6.95 4.07,8.02 3.38,1.08 6.95,-0.74 8.02,-4.13 l 0.09,-0.34 0.16,-0.32 0.08,-0.34 0.09,-0.41 0.16,-0.33 0.09,-0.34 0.16,-0.41 0.16,-0.32 0.09,-0.34 0.16,-0.41 0.17,-0.33 0.08,-0.34 0.17,-0.33 0.16,-0.41 0.09,-0.34 0.16,-0.32 0.16,-0.34 0.18,-0.41 0.16,-0.33 0.09,-0.34 0.16,-0.32 0.16,-0.33 0.17,-0.34 0.16,-0.41 0.16,-0.32 0.18,-0.34 0.16,-0.33 0.16,-0.34 0.25,-0.32 0.17,-0.34 0.08,-0.16 c 1.66,-3.15 0.49,-6.95 -2.56,-8.62 -3.16,-1.65 -6.95,-0.5 -8.62,2.57 l -0.16,0.25 -0.25,0.42 -0.16,0.41 -0.25,0.41 -0.17,0.41 -0.24,0.42 -0.17,0.41 -0.16,0.42 -0.25,0.42 -0.18,0.41 -0.16,0.42 -0.25,0.41 -0.16,0.41 -0.17,0.42 -0.16,0.41 -0.17,0.41 -0.24,0.41 -0.18,0.42 -0.16,0.41 -0.16,0.43 -0.17,0.48 -0.16,0.42 -0.16,0.41 -0.09,0.41 -0.16,0.42 -0.18,0.5 -0.16,0.41 -0.16,0.42 -0.18,0.41 -0.07,0.5 -0.09,0.25 z m -3.48,52.57 c 0,3.48 2.9,6.28 6.37,6.28 3.48,0 6.39,-2.8 6.39,-6.28 l 0,-12.76 c 0,-3.47 -2.91,-6.37 -6.39,-6.37 -3.47,0 -6.37,2.9 -6.37,6.37 l 0,12.76 z m 0,50.83 c 0,3.57 2.9,6.38 6.37,6.38 3.48,0 6.39,-2.81 6.39,-6.38 l 0,-12.66 c 0,-3.57 -2.91,-6.37 -6.39,-6.37 -3.47,0 -6.37,2.8 -6.37,6.37 l 0,12.66 z m 0,50.93 c 0,3.47 2.9,6.37 6.37,6.37 3.48,0 6.39,-2.9 6.39,-6.37 l 0,-12.76 c 0,-3.48 -2.91,-6.37 -6.39,-6.37 -3.47,0 -6.37,2.89 -6.37,6.37 l 0,12.76 z m 0,50.92 c 0,3.47 2.9,6.28 6.37,6.28 3.48,0 6.39,-2.81 6.39,-6.28 l 0,-12.76 c 0,-3.48 -2.91,-6.37 -6.39,-6.37 -3.47,0 -6.37,2.89 -6.37,6.37 l 0,12.76 z m 0,50.83 c 0,3.55 2.9,6.37 6.37,6.37 3.48,0 6.39,-2.82 6.39,-6.37 l 0,-12.67 c 0,-3.56 -2.91,-6.38 -6.39,-6.38 -3.47,0 -6.37,2.82 -6.37,6.38 l 0,12.67 z m 0,50.92 c 0,3.48 2.9,6.37 6.37,6.37 3.48,0 6.39,-2.89 6.39,-6.37 l 0,-12.76 c 0,-3.47 -2.91,-6.38 -6.39,-6.38 -3.47,0 -6.37,2.91 -6.37,6.38 l 0,12.76 z m 0,50.91 c 0,3.48 2.9,6.3 6.37,6.3 3.48,0 6.39,-2.82 6.39,-6.3 l 0,-12.74 c 0,-3.57 -2.91,-6.39 -6.39,-6.39 -3.47,0 -6.37,2.82 -6.37,6.39 l 0,12.74 z m 1.75,52.07 c 0.74,3.48 4.13,5.64 7.6,4.9 3.41,-0.74 5.56,-4.15 4.81,-7.63 l 0,-0.07 -0.08,-0.34 -0.08,-0.41 -0.08,-0.33 -0.08,-0.41 -0.09,-0.43 0,-0.32 -0.08,-0.42 -0.09,-0.41 -0.07,-0.33 -0.09,-0.41 0,-0.41 -0.09,-0.34 -0.07,-0.41 0,-0.42 -0.09,-0.32 0,-0.43 -0.09,-0.41 0,-0.33 -0.07,-0.41 0,-0.41 -0.09,-0.43 0,-0.74 -0.09,-0.41 0,-1.16 -0.07,-0.42 0,-0.41 c -0.09,-3.56 -2.98,-6.29 -6.55,-6.21 -3.47,0.09 -6.29,2.98 -6.12,6.55 l 0,1.49 0.08,0.5 0,0.99 0.08,0.41 0,0.5 0.09,0.49 0,0.5 0.07,0.41 0,0.49 0.09,0.5 0.09,0.43 0,0.49 0.07,0.5 0.09,0.41 0.09,0.49 0.07,0.5 0,0.41 0.09,0.5 0.08,0.42 0.08,0.5 0.09,0.41 0.08,0.49 0.17,0.5 0.08,0.41 0.09,0.5 0.08,0.42 0,0.07 z m 30.12,45.21 c 2.82,2.08 6.8,1.41 8.87,-1.49 2.08,-2.82 1.4,-6.79 -1.49,-8.85 l -0.16,-0.09 -0.34,-0.25 -0.33,-0.25 -0.25,-0.16 -0.34,-0.25 -0.32,-0.25 -0.25,-0.24 -0.33,-0.16 -0.25,-0.25 -0.32,-0.25 -0.25,-0.25 -0.34,-0.25 -0.24,-0.24 -0.34,-0.25 -0.25,-0.18 -0.32,-0.25 -0.25,-0.25 -0.34,-0.25 -0.24,-0.24 -0.25,-0.25 -0.34,-0.25 -0.25,-0.25 -0.24,-0.32 -0.32,-0.26 -0.25,-0.25 -0.27,-0.25 -0.32,-0.25 -0.25,-0.25 -0.25,-0.25 -0.24,-0.32 -0.25,-0.25 -0.09,0 c -2.4,-2.57 -6.46,-2.64 -8.94,-0.16 -2.56,2.4 -2.65,6.46 -0.16,8.93 l 0.09,0.18 0.32,0.24 0.25,0.33 0.33,0.33 0.34,0.34 0.32,0.32 0.33,0.25 0.34,0.34 0.32,0.33 0.34,0.34 0.33,0.23 0.33,0.34 0.33,0.33 0.34,0.25 0.32,0.32 0.33,0.25 0.34,0.34 0.41,0.25 0.34,0.33 0.32,0.25 0.33,0.34 0.34,0.23 0.41,0.34 0.34,0.25 0.32,0.24 0.42,0.34 0.32,0.25 0.34,0.25 0.41,0.24 0.33,0.25 0.41,0.34 0.16,0.07 z m 39.59,1 c -3.48,-0.25 -6.46,2.48 -6.71,5.96 -0.16,3.47 2.48,6.54 6.05,6.7 l 0.41,0 0.49,0.09 2.4,0 0.5,0.07 13.16,0 c 3.57,0 6.39,-2.89 6.39,-6.37 0,-3.56 -2.82,-6.37 -6.39,-6.37 l -14.32,0 -0.33,-0.08 -1.65,0"
         style="fill:#fefefe;fill-opacity:1;fill-rule:nonzero;stroke:none"
         id="path2018" />
      <path
         d="m 2575.81,3599.57 c -35.61,0 -65.58,-22.85 -74.02,-53.81 -34.69,-3.81 -61.6,-31.47 -61.6,-64.92 0,-36.09 31.21,-65.4 69.71,-65.4 l 178.26,0 c 0.16,0 0.32,0 0.57,0 33.2,0 60.11,25.24 60.11,56.45 0,23.2 -14.9,43.14 -36.35,51.83 0.09,0.34 0.09,0.75 0.09,1.17 0,22.02 -19.04,39.91 -42.55,39.91 -9.19,0 -17.64,-2.74 -24.59,-7.38 -12.01,24.84 -38.67,42.15 -69.63,42.15"
         style="fill:#01b9ad;fill-opacity:1;fill-rule:evenodd;stroke:none"
         id="path2020" />
      <path
         d="m 2383.06,3425.45 c -17.8,0 -32.79,-11.43 -37,-26.9 -17.4,-1.83 -30.8,-15.65 -30.8,-32.46 0,-18.05 15.56,-32.63 34.85,-32.63 l 89.09,0 c 0.16,0 0.24,0 0.33,0 16.56,0 30.06,12.59 30.06,28.16 0,11.68 -7.46,21.6 -18.14,25.91 0,0.25 0,0.42 0,0.58 0,11.02 -9.52,19.95 -21.27,19.95 -4.56,0 -8.87,-1.32 -12.35,-3.64 -5.96,12.42 -19.28,21.03 -34.77,21.03"
         style="fill:#01b9ad;fill-opacity:1;fill-rule:evenodd;stroke:none"
         id="path2022" />
    </g>
  </g>
</svg>
