<?xml version="1.0" encoding="UTF-8" standalone="no"?>
<svg
   xmlns:dc="http://purl.org/dc/elements/1.1/"
   xmlns:cc="http://creativecommons.org/ns#"
   xmlns:rdf="http://www.w3.org/1999/02/22-rdf-syntax-ns#"
   xmlns:svg="http://www.w3.org/2000/svg"
   xmlns="http://www.w3.org/2000/svg"
   version="1.1"
   id="svg15895"
   viewBox="0 0 298.70542 299.99999"
   height="84.666664mm"
   width="84.301308mm">
  <defs
     id="defs15897" />
  <metadata
     id="metadata15900">
    <rdf:RDF>
      <cc:Work
         rdf:about="">
        <dc:format>image/svg+xml</dc:format>
        <dc:type
           rdf:resource="http://purl.org/dc/dcmitype/StillImage" />
        <dc:title></dc:title>
      </cc:Work>
    </rdf:RDF>
  </metadata>
  <g
     transform="translate(68.722559,-717.17896)"
     id="layer1">
    <g
       id="g15850"
       transform="matrix(0.30618554,0,0,-0.30618554,-3015.492,1054.0596)">
      <path
         d="m 10599.7,612.473 c 0,-269.391 -218.4,-487.778 -487.8,-487.778 -269.38,0 -487.77,218.387 -487.77,487.778 0,269.394 218.39,487.777 487.77,487.777 269.4,0 487.8,-218.383 487.8,-487.777"
         style="fill:#2c82d0;fill-opacity:1;fill-rule:nonzero;stroke:none"
         id="path7958" />
      <path
         d="m 10089.5,168.707 193.473,0 0,59.5977 -193.473,0 0,-59.5977 z"
         style="fill:#cc5945;fill-opacity:1;fill-rule:evenodd;stroke:none"
         id="path8148" />
      <path
         d="m 9809,805.125 754.4,0 c 7.4,0 13.4,-5.988 13.4,-13.352 l 0,-562.808 c 0,-7.379 -6,-13.356 -13.4,-13.356 l -754.4,0 c -7.3,0 -13.37,5.977 -13.37,13.356 l 0,562.808 c 0,7.364 6.07,13.352 13.37,13.352"
         style="fill:#ee6249;fill-opacity:1;fill-rule:evenodd;stroke:none"
         id="path8150" />
      <path
         d="m 10186.2,253.555 c 6.9,0 12.4,5.582 12.4,12.39 0,6.793 -5.5,12.375 -12.4,12.375 -6.8,0 -12.4,-5.582 -12.4,-12.375 0,-6.808 5.6,-12.39 12.4,-12.39"
         style="fill:#ffffff;fill-opacity:1;fill-rule:evenodd;stroke:none"
         id="path8152" />
      <path
         d="m 9829,771.344 714.4,0 c 4.4,0 7.9,-3.61 7.9,-7.949 l 0,-448.192 c 0,-4.344 -3.5,-7.937 -7.9,-7.937 l -714.4,0 c -4.35,0 -7.87,3.593 -7.87,7.937 l 0,448.192 c 0,4.339 3.52,7.949 7.87,7.949"
         style="fill:#fff2d9;fill-opacity:1;fill-rule:evenodd;stroke:none"
         id="path8154" />
      <path
         d="m 10047.7,181.168 277,0 c 7.3,0 13.2,-5.973 13.2,-13.281 l 0,-5.082 c 0,-7.293 -5.9,-13.285 -13.2,-13.285 l -277,0 c -7.3,0 -13.3,5.992 -13.3,13.285 l 0,5.082 c 0,7.308 6,13.281 13.3,13.281"
         style="fill:#ee6249;fill-opacity:1;fill-rule:evenodd;stroke:none"
         id="path8156" />
      <path
         d="m 9997.3,1032.29 c 16.6,-6.63 31.4,-16.64 43.8,-29.02 l 47.9,23.87 36.9,-74.202 -47.8,-23.86 c 1.2,-8.519 1.5,-17.375 0.9,-26.39 -0.5,-8.942 -1.9,-17.637 -4.1,-25.993 l 44.6,-29.59 -45.9,-69.113 -44.6,29.59 c -13.7,-10.742 -29.73,-18.848 -47.03,-23.437 l -3.27,-53.375 -82.72,5.082 3.27,53.378 c -16.55,6.719 -31.39,16.641 -43.77,29.016 l -47.88,-23.859 -36.97,74.269 47.87,23.774 c -1.14,8.621 -1.55,17.461 -0.98,26.402 0.57,9.016 1.97,17.711 4.27,26.07 l -44.61,29.516 45.75,69.112 44.68,-29.52 c 13.78,10.74 29.67,18.85 46.97,23.45 l 3.28,53.37 82.74,-5.09 -3.3,-53.45"
         style="fill:#43acc4;fill-opacity:1;fill-rule:evenodd;stroke:none"
         id="path8158" />
      <path
         d="m 9953.27,992.211 c 45.02,-2.789 79.23,-41.481 76.43,-86.41 -2.8,-45.004 -41.5,-79.196 -86.42,-76.403 -44.93,2.774 -79.19,41.481 -76.4,86.395 2.79,44.934 41.48,79.195 86.39,76.418 z m -2.45,-40.094 c 22.87,-1.387 40.25,-21.066 38.85,-43.863 -1.38,-22.867 -21.07,-40.254 -43.94,-38.852 -22.86,1.391 -40.25,21.071 -38.85,43.938 1.48,22.867 21.15,40.254 43.94,38.777"
         style="fill:#03386e;fill-opacity:1;fill-rule:evenodd;stroke:none"
         id="path8160" />
      <path
         d="m 9850.31,712.328 c 6.64,-10.418 11.07,-22.062 13.03,-34.031 l 36.73,-5.813 -8.94,-56.898 -36.72,5.816 c -2.79,-5.32 -6.15,-10.492 -10.08,-15.328 -3.94,-4.91 -8.28,-9.265 -12.87,-13.035 l 13.28,-34.762 -53.7,-20.66 -13.37,34.762 c -12.12,-0.57 -24.43,1.316 -36.07,5.656 l -23.37,-28.933 -44.75,36.238 23.36,28.93 c -6.72,10.492 -11.06,22.062 -13.12,34.031 l -36.72,5.816 9.02,56.899 36.73,-5.746 c 2.7,5.335 6.06,10.418 10,15.328 3.93,4.836 8.28,9.191 12.94,13.035 l -13.35,34.687 53.77,20.66 13.37,-34.687 c 12.14,0.496 24.43,-1.301 35.98,-5.727 l 23.45,28.93 44.76,-36.238 -23.36,-28.93"
         style="fill:#fec878;fill-opacity:1;fill-rule:evenodd;stroke:none"
         id="path8162" />
      <path
         d="m 9809.23,707.406 c 24.27,-19.758 28.04,-55.422 8.38,-79.765 -19.68,-24.36 -55.35,-28.039 -79.7,-8.36 -24.34,19.668 -28.11,55.336 -8.44,79.68 19.68,24.34 55.42,28.125 79.76,8.445 z m -17.53,-21.73 c 12.37,-9.992 14.26,-28.11 4.25,-40.488 -9.99,-12.391 -28.11,-14.274 -40.49,-4.266 -12.39,9.992 -14.26,28.113 -4.26,40.488 9.99,12.391 28.12,14.278 40.5,4.266"
         style="fill:#03386e;fill-opacity:1;fill-rule:evenodd;stroke:none"
         id="path8164" />
      <path
         d="m 10056.3,673.141 c 6.2,-6.883 10.7,-14.918 13.6,-23.524 l 27.7,0 -0.1,-42.887 -27.6,0 c -1.4,-4.265 -3.3,-8.359 -5.7,-12.46 -2.3,-4.02 -5,-7.704 -8,-11.063 l 13.9,-23.934 -37.1,-21.406 -13.9,23.949 c -8.8,-1.812 -18.1,-1.812 -27.14,0 l -13.85,-23.949 -37.13,21.477 13.86,23.937 c -6.15,6.969 -10.65,15.004 -13.53,23.539 l -27.7,0 0.07,42.868 27.63,0 c 1.4,4.269 3.28,8.445 5.65,12.464 2.3,4.02 5.01,7.7 7.95,11.063 l -13.85,23.945 37.14,21.395 13.85,-23.934 c 8.85,1.797 18.15,1.883 27.15,0 l 13.8,23.934 37.2,-21.481 -13.9,-23.933"
         style="fill:#ee6249;fill-opacity:1;fill-rule:evenodd;stroke:none"
         id="path8166" />
      <path
         d="m 10026.7,664.695 c 20.2,-11.644 27.1,-37.39 15.4,-57.554 -11.7,-20.164 -37.4,-27.047 -57.59,-15.414 -20.16,11.644 -27.06,37.476 -15.41,57.64 11.65,20.164 37.5,27.047 57.6,15.328 z m -10.4,-17.957 c 10.3,-5.902 13.8,-19.023 7.8,-29.269 -5.9,-10.242 -19,-13.688 -29.26,-7.785 -10.24,5.902 -13.77,19.023 -7.79,29.265 5.91,10.242 19.05,13.778 29.25,7.789"
         style="fill:#3f3f41;fill-opacity:1;fill-rule:evenodd;stroke:none"
         id="path8168" />
      <path
         d="m 10394.4,608.047 c 15.8,-3.363 30.5,-9.922 43.5,-19.024 l 38.8,28.696 44.4,-60.258 -38.9,-28.609 c 2.4,-7.379 4.1,-15.168 5,-23.278 0.9,-8.035 1,-15.984 0.3,-23.773 l 44.2,-19.36 -30,-68.527 -44.2,19.344 c -10.5,-11.719 -23.5,-21.317 -38.2,-28.11 l 5.4,-47.972 -74.3,-8.285 -5.3,47.972 c -15.8,3.36 -30.5,9.922 -43.4,19.008 l -38.9,-28.683 -44.4,60.257 38.9,28.61 c -2.4,7.453 -4.1,15.168 -5,23.277 -0.9,8.039 -0.9,15.984 -0.3,23.773 l -44.2,19.348 30,68.543 44.2,-19.348 c 10.6,11.719 23.5,21.321 38.1,28.114 l -5.4,47.968 74.4,8.27 5.3,-47.953"
         style="fill:#08c6a2;fill-opacity:1;fill-rule:evenodd;stroke:none"
         id="path8170" />
      <path
         d="m 10361.6,565.586 c 40.4,4.5 76.8,-24.606 81.3,-64.934 4.5,-40.418 -24.6,-76.812 -65,-81.328 -40.4,-4.5 -76.8,24.59 -81.3,64.934 -4.5,40.414 24.6,76.812 65,81.328 z m 4,-36.004 c 20.5,2.309 39,-12.449 41.3,-32.949 2.3,-20.5 -12.5,-39.028 -33,-41.32 -20.5,-2.297 -39,12.46 -41.3,32.96 -2.3,20.575 12.5,39.016 33,41.309"
         style="fill:#3f3f41;fill-opacity:1;fill-rule:evenodd;stroke:none"
         id="path8172" />
      <path
         d="m 10423.8,449.246 c -11,-13.851 -27.3,-23.449 -46.4,-25.566 -4.2,-0.5 -8.6,-0.586 -12.8,-0.25 -4.2,0.25 -8.4,0.98 -12.5,2.047 -3.9,1.066 -7.8,2.453 -11.5,4.175 -3.8,1.813 -7.3,3.86 -10.7,6.153 l -0.7,0.41 -330.67,154.211 0,0.48 -3.19,0.907 c -1.56,0.41 -3.04,0.906 -4.43,1.55 -1.4,0.582 -2.87,1.242 -4.26,2.059 l 0,0.086 c -9.02,5.16 -15.1,13.605 -17.62,22.941 -2.48,9.352 -1.4,19.68 3.77,28.699 4.42,7.54 10.97,13.032 18.52,16.161 7.7,3.109 16.28,3.679 24.58,1.296 l 3.9,-1.066 360.9,-102.309 -0.1,-0.25 4.5,-0.976 c 14.2,-3.274 26.9,-10.828 36.4,-21.481 9.1,-10.328 15.4,-23.523 17,-38.367 2.2,-19.011 -3.6,-37.054 -14.7,-50.91 z m 23.3,51.902 c -1.8,16.641 -8.8,31.473 -19.2,43.118 -10.6,11.879 -24.7,20.414 -40.5,24.093 l -0.1,0 -369.1,104.621 -3.9,1.141 -0.1,-0.164 c -8.9,1.637 -17.97,0.66 -26.16,-2.613 -9.18,-3.785 -17.31,-10.508 -22.71,-19.844 -6.4,-11.148 -7.7,-23.785 -4.68,-35.258 3.12,-11.469 10.49,-21.812 21.64,-28.289 1.66,-0.976 3.45,-1.797 5.26,-2.539 1.71,-0.73 3.36,-1.391 5.08,-1.887 L 10325.3,428.5 c 3.7,-2.527 7.6,-4.82 11.6,-6.707 4.1,-1.898 8.3,-3.375 12.7,-4.602 l 4.4,-1.961 0.2,0.891 c 3.2,-0.656 6.5,-1.137 9.9,-1.387 4.7,-0.32 9.4,-0.246 14.3,0.321 21.4,2.383 39.8,13.211 52.2,28.785 12.4,15.578 19,35.902 16.5,57.308"
         style="fill:#fefefe;fill-opacity:1;fill-rule:nonzero;stroke:none"
         id="path8174" />
      <path
         d="m 10176.9,938.75 109.367,0 0,15.1641 -109.367,0 0,-15.1641 z"
         style="fill:#bbbdbf;fill-opacity:1;fill-rule:evenodd;stroke:none"
         id="path8176" />
      <path
         d="m 10176.9,903.828 156.504,0 0,15.168 -156.504,0 0,-15.168 z"
         style="fill:#bbbdbf;fill-opacity:1;fill-rule:evenodd;stroke:none"
         id="path8178" />
      <path
         d="m 10176.9,868.82 80.512,0 0,15.2539 -80.512,0 0,-15.2539 z"
         style="fill:#bbbdbf;fill-opacity:1;fill-rule:evenodd;stroke:none"
         id="path8180" />
      <path
         d="m 10176.9,833.898 127.648,0 0,15.2539 -127.648,0 0,-15.2539 z"
         style="fill:#bbbdbf;fill-opacity:1;fill-rule:evenodd;stroke:none"
         id="path8182" />
      <path
         d="m 10376.7,902.688 63.793,0 0,63.7813 -63.793,0 0,-63.7813 z"
         style="fill:#08c6a2;fill-opacity:1;fill-rule:evenodd;stroke:none"
         id="path8184" />
      <path
         d="m 10459.1,902.688 63.777,0 0,63.7813 -63.777,0 0,-63.7813 z"
         style="fill:#fbfbfb;fill-opacity:1;fill-rule:evenodd;stroke:none"
         id="path8186" />
      <path
         d="m 10376.7,817.18 63.793,0 0,63.8555 -63.793,0 0,-63.8555 z"
         style="fill:#fab943;fill-opacity:1;fill-rule:evenodd;stroke:none"
         id="path8188" />
      <path
         d="m 10459.1,817.18 63.777,0 0,63.8555 -63.777,0 0,-63.8555 z"
         style="fill:#f87f74;fill-opacity:1;fill-rule:evenodd;stroke:none"
         id="path8190" />
      <path
         d="m 10376.7,731.746 63.793,0 0,63.7813 -63.793,0 0,-63.7813 z"
         style="fill:#fbfbfb;fill-opacity:1;fill-rule:evenodd;stroke:none"
         id="path8192" />
      <path
         d="m 10459.1,731.746 63.777,0 0,63.7813 -63.777,0 0,-63.7813 z"
         style="fill:#08c6a2;fill-opacity:1;fill-rule:evenodd;stroke:none"
         id="path8194" />
      <path
         d="m 10259.2,660.59 c 35.9,0 65.2,29.265 65.2,65.183 0,35.899 -29.3,65.254 -65.2,65.254 -35.9,0 -65.2,-29.355 -65.2,-65.254 0,-35.918 29.3,-65.183 65.2,-65.183"
         style="fill:#adecf7;fill-opacity:1;fill-rule:evenodd;stroke:none"
         id="path8196" />
      <path
         d="m 10223.1,739.711 33.8,-57.875 80,131.238 -78,-89.523 -35.8,16.16"
         style="fill:#f26d6e;fill-opacity:1;fill-rule:evenodd;stroke:none"
         id="path8198" />
      <g
         id="g15833"
         transform="matrix(0.79014375,0,0,0.79014375,-18.866663,-1551.5411)">
        <path
           id="path8502"
           style="fill:#363f48;fill-opacity:1;fill-rule:evenodd;stroke:none"
           d="m 12573.597,2298.5949 242,0 c 36.2,0 65.8,29.68 65.8,65.83 l 0,102.88 c 0,92.83 -75.9,168.71 -168.6,168.71 l -36.3,0 c -92.8,0 -168.7,-75.88 -168.7,-168.71 l 0,-102.88 c 0,-36.15 29.6,-65.83 65.8,-65.83" />
        <path
           id="path8504"
           style="fill:#02465d;fill-opacity:1;fill-rule:evenodd;stroke:none"
           d="m 12878.097,2131.4349 c -5.5,82.93 -75.1,149.09 -159.3,149.09 l -48.3,0 c -84.3,0 -153.8,-66.16 -159.4,-149.09 55.5,-22.45 130.1,-13.69 195.8,-13.69 65.9,0 115.7,-8.76 171.2,13.69" />
        <path
           id="path8506"
           style="fill:#07253f;fill-opacity:1;fill-rule:evenodd;stroke:none"
           d="m 12762.497,2274.4449 c -13.9,3.98 -28.6,6.08 -43.7,6.08 l -48.3,0 c -15.2,0 -29.9,-2.1 -43.8,-6.08 l 0,-6.64 c 0,-26.6 21.7,-48.33 48.3,-48.33 l 39.2,0 c 26.6,0 48.3,21.73 48.3,48.33 l 0,6.64" />
        <path
           id="path8508"
           style="fill:#f7caa3;fill-opacity:1;fill-rule:evenodd;stroke:none"
           d="m 12679.197,2237.3949 30.9,0 c 20.9,0 38,17.11 38,38.11 l 0,57.14 c 0,20.92 -17.1,38.11 -38,38.11 l -30.9,0 c -21,0 -38.1,-17.19 -38.1,-38.11 l 0,-57.14 c 0,-21 17.1,-38.11 38.1,-38.11" />
        <path
           id="path8510"
           style="fill:#f9d4b4;fill-opacity:1;fill-rule:evenodd;stroke:none"
           d="m 12823.997,2501.1149 c 3.2,-13.63 4.9,-27.98 4.9,-42.81 0,-88.19 -60.1,-159.71 -134.3,-159.71 -74.2,0 -134.2,71.52 -134.2,159.71 0,14.83 1.7,29.18 4.8,42.81 33.9,16.21 79.4,26.1 129.4,26.1 50,0 95.5,-9.89 129.4,-26.1" />
        <path
           id="path8512"
           style="fill:#363f48;fill-opacity:1;fill-rule:evenodd;stroke:none"
           d="m 12303.997,2272.4149 146,0 c 21.9,0 39.8,17.84 39.8,39.65 l 0,62.09 c 0,56.02 -45.9,101.83 -101.8,101.83 l -21.9,0 c -56,0 -101.7,-45.81 -101.7,-101.83 l 0,-62.09 c 0,-21.81 17.8,-39.65 39.6,-39.65" />
        <path
           id="path8514"
           style="fill:#f65d30;fill-opacity:1;fill-rule:evenodd;stroke:none"
           d="m 12487.697,2171.5649 c -3.3,50.02 -45.3,89.91 -96.1,89.91 l -29.1,0 c -50.9,0 -92.9,-39.89 -96.2,-89.91 33.5,-13.53 78.5,-8.27 118.2,-8.27 39.7,0 69.7,-5.26 103.2,8.27" />
        <path
           id="path8516"
           style="fill:#c35231;fill-opacity:1;fill-rule:evenodd;stroke:none"
           d="m 12417.997,2257.8249 c -8.4,2.35 -17.3,3.65 -26.4,3.65 l -29.1,0 c -9.2,0 -18,-1.3 -26.5,-3.65 l 0,-4.05 c 0,-15.97 13.2,-29.11 29.2,-29.11 l 23.7,0 c 16,0 29.1,13.14 29.1,29.11 l 0,4.05" />
        <path
           id="path8518"
           style="fill:#f7caa3;fill-opacity:1;fill-rule:evenodd;stroke:none"
           d="m 12367.697,2235.4549 18.7,0 c 12.5,0 22.9,10.37 22.9,23.02 l 0,34.46 c 0,12.64 -10.4,22.94 -22.9,22.94 l -18.7,0 c -12.6,0 -23,-10.3 -23,-22.94 l 0,-34.46 c 0,-12.65 10.4,-23.02 23,-23.02" />
        <path
           id="path8520"
           style="fill:#f9d4b4;fill-opacity:1;fill-rule:evenodd;stroke:none"
           d="m 12455.097,2394.5849 c 1.9,-8.18 3,-16.86 3,-25.86 0,-53.17 -36.4,-96.31 -81,-96.31 -44.8,0 -81,43.14 -81,96.31 0,9 0.9,17.68 2.9,25.86 20.4,9.73 47.8,15.74 78.1,15.74 30.1,0 57.6,-6.01 78,-15.74" />
        <path
           id="path8522"
           style="fill:#363f48;fill-opacity:1;fill-rule:evenodd;stroke:none"
           d="m 12907.697,2223.8649 77.6,0 c 11.6,0 21.1,9.39 21.1,21 l 0,32.99 c 0,29.66 -24.3,53.99 -54.1,53.99 l -11.6,0 c -29.7,0 -54,-24.33 -54,-53.99 l 0,-32.99 c 0,-11.61 9.5,-21 21,-21" />
        <path
           id="path8524"
           style="fill:#ffcc56;fill-opacity:1;fill-rule:evenodd;stroke:none"
           d="m 13005.297,2170.2649 c -1.7,26.6 -24,47.75 -51,47.75 l -15.5,0 c -27,0 -49.2,-21.15 -51,-47.75 17.7,-7.22 41.7,-4.36 62.7,-4.36 21,0 37,-2.86 54.8,4.36" />
        <path
           id="path8526"
           style="fill:#d9af50;fill-opacity:1;fill-rule:evenodd;stroke:none"
           d="m 12968.297,2216.0749 c -4.5,1.3 -9.2,1.94 -14,1.94 l -15.5,0 c -4.9,0 -9.6,-0.64 -14,-1.94 l 0,-2.1 c 0,-8.52 6.9,-15.49 15.4,-15.49 l 12.6,0 c 8.5,0 15.5,6.97 15.5,15.49 l 0,2.1" />
        <path
           id="path8528"
           style="fill:#f7caa3;fill-opacity:1;fill-rule:evenodd;stroke:none"
           d="m 12941.597,2204.2449 9.9,0 c 6.7,0 12.2,5.43 12.2,12.15 l 0,18.33 c 0,6.73 -5.5,12.15 -12.2,12.15 l -9.9,0 c -6.7,0 -12.2,-5.42 -12.2,-12.15 l 0,-18.33 c 0,-6.72 5.5,-12.15 12.2,-12.15" />
        <path
           id="path8530"
           style="fill:#f9d4b4;fill-opacity:1;fill-rule:evenodd;stroke:none"
           d="m 12987.997,2288.6349 c 1,-4.29 1.5,-8.93 1.5,-13.7 0,-28.22 -19.3,-51.07 -42.9,-51.07 -23.8,0 -43.1,22.85 -43.1,51.07 0,4.77 0.6,9.41 1.6,13.77 10.8,5.12 25.4,8.36 41.5,8.36 15.9,0 30.5,-3.24 41.4,-8.43" />
      </g>
    </g>
  </g>
</svg>
