<?xml version="1.0" encoding="UTF-8" standalone="no"?>
<svg
   xmlns:dc="http://purl.org/dc/elements/1.1/"
   xmlns:cc="http://creativecommons.org/ns#"
   xmlns:rdf="http://www.w3.org/1999/02/22-rdf-syntax-ns#"
   xmlns:svg="http://www.w3.org/2000/svg"
   xmlns="http://www.w3.org/2000/svg"
   version="1.1"
   id="svg14295"
   viewBox="0 0 352.36806 299.99999"
   height="84.666664mm"
   width="99.446098mm">
  <defs
     id="defs14297" />
  <metadata
     id="metadata14300">
    <rdf:RDF>
      <cc:Work
         rdf:about="">
        <dc:format>image/svg+xml</dc:format>
        <dc:type
           rdf:resource="http://purl.org/dc/dcmitype/StillImage" />
        <dc:title></dc:title>
      </cc:Work>
    </rdf:RDF>
  </metadata>
  <g
     transform="translate(164.58115,-551.799)"
     id="layer1">
    <g
       id="g14174"
       transform="matrix(0.30387159,0,0,-0.30387159,-1946.6697,2376.8153)">
      <path
         d="m 6932.19,5512.25 c 0,-269.39 -218.39,-487.77 -487.78,-487.77 -269.39,0 -487.78,218.38 -487.78,487.77 0,269.39 218.39,487.78 487.78,487.78 269.39,0 487.78,-218.39 487.78,-487.78"
         style="fill:#f8e07c;fill-opacity:1;fill-rule:nonzero;stroke:none"
         id="path1480" />
      <path
         d="m 5877.07,5266.34 c -30.43,30.93 -1.36,111.77 46.61,147.08 61.45,45.18 115.55,64.06 156.28,35.32 -38.27,-36.75 -80.92,-69.03 -117.93,-107.12 -31.52,-32.45 41.64,-12.99 73.67,18.03 l 4.89,-102.66 c -6.32,-13.33 -13.07,-25.54 -16.95,-39.79 -7.92,-28.99 -11.38,-61.95 -17.44,-92.55 l -87.75,-3.45 c -9.27,59.84 -0.67,103.67 -41.38,145.14"
         style="fill:#fed9b1;fill-opacity:1;fill-rule:evenodd;stroke:none"
         id="path1660" />
      <path
         d="m 5902.78,5052 c 22.67,-3.88 45.76,-5.99 69.37,-5.99 14.99,0 29.91,0.94 44.58,2.53 l 0,64.39 c 0,5.41 -3.71,9.87 -8.17,9.87 l -97.6,0 c -4.47,0 -8.18,-4.46 -8.18,-9.87 l 0,-60.93"
         style="fill:#4d8c51;fill-opacity:1;fill-rule:evenodd;stroke:none"
         id="path1662" />
      <path
         d="m 6019.01,5114.54 -118.42,0 c -3.47,0 -6.25,2.78 -6.25,6.24 l 0,12.97 c 0,3.47 2.78,6.25 6.25,6.25 l 118.42,0 c 3.38,0 6.24,-2.78 6.24,-6.25 l 0,-12.97 c 0,-3.46 -2.86,-6.24 -6.24,-6.24"
         style="fill:#6fa272;fill-opacity:1;fill-rule:evenodd;stroke:none"
         id="path1664" />
      <path
         d="m 7011.75,5266.34 c 30.43,30.93 1.34,111.77 -46.61,147.08 -61.44,45.18 -115.57,64.06 -156.27,35.32 38.27,-36.75 80.92,-69.03 117.91,-107.12 31.54,-32.45 -41.55,-12.99 -73.65,18.03 l -4.9,-102.66 c 6.33,-13.33 13.06,-25.54 16.95,-39.79 7.92,-28.99 11.37,-61.95 17.43,-92.55 l 87.76,-3.45 c 9.26,59.84 0.67,103.67 41.38,145.14"
         style="fill:#fed9b1;fill-opacity:1;fill-rule:evenodd;stroke:none"
         id="path1666" />
      <path
         d="m 6986.05,5052 c -22.68,-3.88 -45.78,-5.99 -69.38,-5.99 -15.01,0 -29.92,0.94 -44.58,2.53 l 0,64.39 c 0,5.41 3.7,9.87 8.17,9.87 l 97.6,0 c 4.48,0 8.19,-4.46 8.19,-9.87 l 0,-60.93"
         style="fill:#4d8c51;fill-opacity:1;fill-rule:evenodd;stroke:none"
         id="path1668" />
      <path
         d="m 6869.9,5114.54 118.41,0 c 3.38,0 6.24,2.78 6.24,6.24 l 0,12.97 c 0,3.47 -2.86,6.25 -6.24,6.25 l -118.41,0 c -3.46,0 -6.24,-2.78 -6.24,-6.25 l 0,-12.97 c 0,-3.46 2.78,-6.24 6.24,-6.24"
         style="fill:#6fa272;fill-opacity:1;fill-rule:evenodd;stroke:none"
         id="path1670" />
      <path
         d="m 6008.48,5772.15 872.72,0 c 20.89,0 38,-17.11 38,-38.09 l 0,-499.75 c 0,-20.89 -17.11,-38.02 -38,-38.02 l -872.72,0 c -20.91,0 -38.02,17.13 -38.02,38.02 l 0,499.75 c 0,20.98 17.11,38.09 38.02,38.09"
         style="fill:#f14c47;fill-opacity:1;fill-rule:evenodd;stroke:none"
         id="path1672" />
      <path
         d="m 6133.55,5735.74 720.74,0 c 15.26,0 27.74,-12.47 27.74,-27.74 l 0,-444.01 c 0,-15.26 -12.48,-27.74 -27.74,-27.74 l -720.74,0 c -15.25,0 -27.73,12.48 -27.73,27.74 l 0,444.01 c 0,15.27 12.48,27.74 27.73,27.74"
         style="fill:#fbfbfb;fill-opacity:1;fill-rule:evenodd;stroke:none"
         id="path1674" />
      <path
         d="m 6037.98,5454.3 c 16.43,0 29.92,13.4 29.92,29.93 0,16.51 -13.49,29.92 -29.92,29.92 -16.53,0 -29.93,-13.41 -29.93,-29.92 0,-16.53 13.4,-29.93 29.93,-29.93"
         style="fill:#fab943;fill-opacity:1;fill-rule:evenodd;stroke:none"
         id="path1676" />
      <path
         d="m 6037.98,5454.3 0,-0.14 c 16.51,0 30.05,13.47 30.07,30.07 -0.02,16.6 -13.56,30.07 -30.07,30.07 -16.6,0 -30.07,-13.47 -30.07,-30.07 0,-16.6 13.47,-30.07 30.07,-30.07 l 0,0.29 c -8.23,0 -15.67,3.33 -21.06,8.72 -5.39,5.4 -8.72,12.83 -8.72,21.06 0,8.21 3.33,15.66 8.72,21.06 5.39,5.39 12.83,8.72 21.06,8.72 8.18,0 15.62,-3.33 21.02,-8.72 5.39,-5.4 8.75,-12.85 8.75,-21.06 0,-8.23 -3.36,-15.66 -8.75,-21.06 -5.4,-5.39 -12.84,-8.72 -21.02,-8.72 l 0,-0.15"
         style="fill:#faa199;fill-opacity:1;fill-rule:nonzero;stroke:none"
         id="path1678" />
      <path
         d="m 6037.98,5637.71 c 12.55,0 22.75,-4.8 22.75,-10.61 0,-5.83 -10.2,-10.62 -22.75,-10.62 -12.66,0 -22.77,4.79 -22.77,10.62 0,5.81 10.11,10.61 22.77,10.61 z m 0,-30 c 12.55,0 22.75,-4.81 22.75,-10.62 0,-5.91 -10.2,-10.63 -22.75,-10.63 -12.66,0 -22.77,4.72 -22.77,10.63 0,5.81 10.11,10.62 22.77,10.62 z m 0,60.01 c 12.55,0 22.75,-4.81 22.75,-10.62 0,-5.82 -10.2,-10.62 -22.75,-10.62 -12.66,0 -22.77,4.8 -22.77,10.62 0,5.81 10.11,10.62 22.77,10.62"
         style="fill:#fab943;fill-opacity:1;fill-rule:evenodd;stroke:none"
         id="path1680" />
      <path
         d="m 6184.55,5607.04 295.27,0 0,66.832 -295.27,0 0,-66.832 z"
         style="fill:#e5e6e7;fill-opacity:1;fill-rule:evenodd;stroke:none"
         id="path1682" />
      <path
         d="m 6184.55,5607.04 66.8477,0 0,66.832 -66.8477,0 0,-66.832 z"
         style="fill:#43b8c9;fill-opacity:1;fill-rule:evenodd;stroke:none"
         id="path1684" />
      <path
         d="m 6184.55,5529.74 295.27,0 0,66.8359 -295.27,0 0,-66.8359 z"
         style="fill:#e5e6e7;fill-opacity:1;fill-rule:evenodd;stroke:none"
         id="path1686" />
      <path
         d="m 6184.55,5529.74 66.8477,0 0,66.8359 -66.8477,0 0,-66.8359 z"
         style="fill:#43b8c9;fill-opacity:1;fill-rule:evenodd;stroke:none"
         id="path1688" />
      <path
         d="m 6223.91,5570.54 0,7.25 c 0,1.6 -0.67,3.11 -1.77,4.21 -1.09,1.02 -2.53,1.69 -4.21,1.69 -1.61,0 -3.13,-0.67 -4.13,-1.69 -1.1,-1.1 -1.77,-2.61 -1.77,-4.21 l 0,-7.25 11.88,0 z m -5.98,17.87 0,0 c 2.95,0 5.64,-1.18 7.59,-3.13 1.85,-1.93 3.11,-4.54 3.11,-7.49 l 0,-7.25 2.19,0 c 1.86,0 3.46,-1.61 3.46,-3.47 l 0,-29.16 -28.15,0 c -2.44,0 -4.47,2.03 -4.47,4.47 l 0,28.16 5.65,0 0,7.25 c 0,2.95 1.18,5.56 3.11,7.49 1.95,1.95 4.65,3.13 7.51,3.13 z m 0,-26.21 c 2.44,0 4.39,-1.95 4.39,-4.31 0,-1.77 -1.03,-3.19 -2.46,-3.96 l 0,-5.89 c 0,-0.51 -0.42,-0.94 -0.83,-0.94 l -2.12,0 c -0.5,0 -0.83,0.43 -0.83,0.94 l 0,5.89 c -1.44,0.77 -2.46,2.19 -2.46,3.96 0,2.36 1.95,4.31 4.31,4.31"
         style="fill:#fefefe;fill-opacity:1;fill-rule:evenodd;stroke:none"
         id="path1690" />
      <path
         d="m 6368.97,5500.91 164.191,0 0,52.9375 -164.191,0 0,-52.9375 z"
         style="fill:#e5e6e7;fill-opacity:1;fill-rule:evenodd;stroke:none"
         id="path1692" />
      <path
         d="m 6362.15,5507.49 164.191,0 0,53.0117 -164.191,0 0,-53.0117 z"
         style="fill:#43b8c9;fill-opacity:1;fill-rule:evenodd;stroke:none"
         id="path1694" />
      <path
         d="m 6204.94,5617.57 26.06,0 0,9.11 c 0,5.05 -4.14,9.17 -9.2,9.17 l -7.67,0 c -5.05,0 -9.19,-4.12 -9.19,-9.17 l 0,-9.11 z m 12.99,45.86 c 6.4,0 11.63,-5.24 11.63,-11.64 0,-6.41 -5.23,-11.63 -11.63,-11.63 -6.41,0 -11.55,5.22 -11.55,11.63 0,6.4 5.14,11.64 11.55,11.64"
         style="fill:#fefefe;fill-opacity:1;fill-rule:evenodd;stroke:none"
         id="path1696" />
      <path
         d="m 6474.59,5542.13 10.2,-23.43 4.62,0 0,29 -3.95,0 0,-21 -9.28,21 -5.64,0 0,-29 4.05,0 0,23.43 z m -13,5.57 0,-29 4.48,0 0,29 -4.48,0 z m -13.22,0.25 c -6.15,0 -8.94,-2.86 -8.94,-7.25 l 0,-15 c 0,-4.39 2.79,-7.25 8.94,-7.25 6.15,0 9.02,2.86 9.02,7.25 l 0,8.51 -8.35,0 0,-2.87 4.14,0 0,-5.82 c 0,-2.6 -1.43,-4.12 -4.72,-4.12 -3.21,0 -4.63,1.52 -4.63,4.12 l 0,15.34 c 0,2.62 1.42,4.14 4.63,4.14 3.29,0 4.72,-1.52 4.72,-4.14 l 0,-2.68 4.21,0 0,2.52 c 0,4.39 -2.87,7.25 -9.02,7.25 z m -26.8,-7.09 c 0,2.62 1.6,4.14 4.72,4.14 3.29,0 4.8,-1.52 4.8,-4.14 l 0,-15.34 c 0,-2.6 -1.51,-4.12 -4.8,-4.12 -3.12,0 -4.72,1.52 -4.72,4.12 l 0,15.34 z m -4.38,-15.16 c 0,-4.39 3.02,-7.25 9.1,-7.25 6.23,0 9.27,2.86 9.27,7.25 l 0,15 c 0,4.39 -3.04,7.25 -9.27,7.25 -6.08,0 -9.1,-2.86 -9.1,-7.25 l 0,-15 z m -3.04,-7 0,2.95 -11.38,0 0,26.05 -4.47,0 0,-29 15.85,0"
         style="fill:#fefefe;fill-opacity:1;fill-rule:evenodd;stroke:none"
         id="path1698" />
      <path
         d="m 6558.28,5545 285.652,0 0,130.059 -285.652,0 0,-130.059 z"
         style="fill:#ffdb79;fill-opacity:1;fill-rule:evenodd;stroke:none"
         id="path1700" />
      <path
         d="m 6632.04,5507.74 203.625,0 0,9.0156 -203.625,0 0,-9.0156 z"
         style="fill:#cccccc;fill-opacity:1;fill-rule:evenodd;stroke:none"
         id="path1702" />
      <path
         d="m 6606.41,5490.96 203.73,0 0,8.9414 -203.73,0 0,-8.9414 z"
         style="fill:#cccccc;fill-opacity:1;fill-rule:evenodd;stroke:none"
         id="path1704" />
      <path
         d="m 6625.96,5473.02 203.727,0 0,8.9297 -203.727,0 0,-8.9297 z"
         style="fill:#cccccc;fill-opacity:1;fill-rule:evenodd;stroke:none"
         id="path1706" />
      <path
         d="m 6212.19,5299.89 47.12,70.72 -1.77,4.05 -85.38,91.36 2.79,2.53 86.04,-92.12 7.42,82.43 3.72,-0.35 -7.51,-84.37 111.69,26.47 2.53,0.26 -0.61,-2.53 -4.2,-1.7 -110.42,-26.37 -48.29,-72.48 -3.13,2.1"
         style="fill:#43b8c9;fill-opacity:1;fill-rule:nonzero;stroke:none"
         id="path1708" />
      <path
         d="m 6272.55,5470.74 c 11.21,-1.01 19.46,-10.87 18.45,-22 -1,-11.21 -10.87,-19.47 -22,-18.46 -11.21,1.01 -19.46,10.87 -18.45,22.01 1,11.21 10.87,19.46 22,18.45 z M 6379,5438.11 c 20.91,-1.84 36.34,-20.31 34.48,-41.13 -1.86,-20.89 -20.31,-36.23 -41.13,-34.38 -20.91,1.86 -36.34,20.22 -34.49,41.13 1.86,20.82 20.33,36.24 41.14,34.38 z m -112.78,-24.6 c 22.93,-2.02 39.79,-22.26 37.76,-45.18 -2.02,-22.84 -22.24,-39.79 -45.18,-37.76 -22.84,2.02 -39.77,22.26 -37.75,45.18 2.1,22.93 22.34,39.77 45.17,37.76 z m -50.57,-93.47 c 11.72,-1.02 20.31,-11.38 19.31,-23.1 -1.01,-11.72 -11.39,-20.31 -23.1,-19.3 -11.72,1.09 -20.32,11.38 -19.31,23.1 1.1,11.7 11.38,20.39 23.1,19.3 z m -38.85,169.76 c 11.7,-1.1 20.31,-11.39 19.3,-23.1 -1.02,-11.72 -11.38,-20.4 -23.1,-19.31 -11.71,1.01 -20.31,11.38 -19.3,23.1 1.1,11.71 11.38,20.31 23.1,19.31"
         style="fill:#fab943;fill-opacity:1;fill-rule:evenodd;stroke:none"
         id="path1710" />
      <path
         d="m 6381.03,5415.7 c 3.78,0 5.56,-1.86 5.56,-4.9 l 0,-17.94 c 0,-3.13 -1.78,-4.89 -5.56,-4.89 -3.8,0 -5.57,1.76 -5.57,4.89 l 0,17.94 c 0,3.04 1.77,4.9 5.57,4.9 z m 0,3.45 c -7.16,0 -10.71,-3.36 -10.71,-8.51 l 0,-17.62 c 0,-5.14 3.55,-8.5 10.71,-8.5 2.27,0 4.2,0.41 5.64,1.01 1.09,-1.44 3.04,-2.19 5.99,-2.19 l 0.84,0 0,3.37 -0.59,0 c -1.52,0 -2.36,0.25 -2.96,1.01 1.28,1.43 1.86,3.2 1.86,5.3 l 0,17.62 c 0,5.15 -3.54,8.51 -10.78,8.51 z m -20.91,-0.34 0,-33.95 5.23,0 0,33.95 -5.23,0"
         style="fill:#fefefe;fill-opacity:1;fill-rule:evenodd;stroke:none"
         id="path1712" />
      <path
         d="m 6276.51,5385.44 c 3.78,0 5.55,-1.86 5.55,-4.88 l 0,-17.96 c 0,-3.12 -1.77,-4.98 -5.55,-4.98 -3.8,0 -5.57,1.86 -5.57,4.98 l 0,17.96 c 0,3.02 1.77,4.88 5.57,4.88 z m 0,3.46 c -7.17,0 -10.71,-3.37 -10.71,-8.6 l 0,-17.54 c 0,-5.14 3.54,-8.5 10.71,-8.5 2.26,0 4.21,0.33 5.64,1.01 1.1,-1.43 3.04,-2.2 5.99,-2.2 l 0.85,0 0,3.29 -0.6,0 c -1.52,0 -2.35,0.25 -2.95,1.1 1.27,1.34 1.85,3.2 1.85,5.3 l 0,17.54 c 0,5.23 -3.53,8.6 -10.78,8.6 z m -29.16,-15.43 0,11.63 13.99,0 0,3.47 -19.23,0 0,-33.98 19.23,0 0,3.38 -13.99,0 0,12.13 11.38,0 0,3.37 -11.38,0"
         style="fill:#fefefe;fill-opacity:1;fill-rule:evenodd;stroke:none"
         id="path1714" />
      <path
         d="m 6927.12,5325.17 26.21,-122.72 -76.11,-46.78 c -3.45,20.99 -6.74,42.14 -12.04,61.53 -3.89,14.25 -10.62,26.46 -16.95,39.79 0.09,0.76 -50.32,133.08 -55.46,146.57 -5.06,13.41 1.77,28.67 13.91,36.25 7,4.38 19.63,5.73 25.87,2.28 25.88,-14 41.81,-119.03 94.57,-116.92"
         style="fill:#fed9b1;fill-opacity:1;fill-rule:evenodd;stroke:none"
         id="path1716" />
      <path
         d="m 6803.14,5391.43 c -0.94,2.86 -5.66,15.68 -5.66,17.53 0.68,33.71 31.36,32.78 43.5,12.73 3.38,-5.56 4.64,-10.96 6.67,-18.13 5.05,-17.52 -38.11,-30.67 -44.51,-12.13"
         style="fill:#ffffff;fill-opacity:1;fill-rule:evenodd;stroke:none"
         id="path1718" />
      <path
         d="m 5961.69,5325.17 -26.21,-122.72 76.2,-46.78 c 3.37,20.99 6.66,42.14 11.96,61.53 3.88,14.25 10.63,26.46 16.95,39.79 -0.09,0.76 50.31,133.08 55.45,146.57 5.06,13.41 -1.77,28.67 -13.89,36.25 -7,4.38 -19.65,5.73 -25.9,2.28 -25.87,-14 -41.8,-119.03 -94.56,-116.92"
         style="fill:#fed9b1;fill-opacity:1;fill-rule:evenodd;stroke:none"
         id="path1720" />
      <path
         d="m 6085.68,5391.43 c 0.93,2.86 5.64,15.68 5.64,17.53 -0.67,33.71 -31.35,32.78 -43.48,12.73 -3.38,-5.56 -4.65,-10.96 -6.66,-18.13 -4.97,-17.52 38.09,-30.67 44.5,-12.13"
         style="fill:#ffffff;fill-opacity:1;fill-rule:evenodd;stroke:none"
         id="path1722" />
      <path
         d="m 6137.52,5690.89 c 86.73,0 157.44,70.81 157.44,157.55 0,86.73 -70.71,157.44 -157.44,157.44 -86.73,0 -157.45,-70.71 -157.45,-157.44 0,-86.74 70.72,-157.55 157.45,-157.55"
         style="fill:#43acc4;fill-opacity:1;fill-rule:evenodd;stroke:none"
         id="path1724" />
      <path
         d="m 6137.52,5717.37 c 72.14,0 131.07,58.83 131.07,131.07 0,72.15 -58.93,130.97 -131.07,130.97 -72.14,0 -131.07,-58.82 -131.07,-130.97 0,-72.24 58.93,-131.07 131.07,-131.07"
         style="fill:#ccdff3;fill-opacity:1;fill-rule:evenodd;stroke:none"
         id="path1726" />
      <path
         d="m 6130.35,5848.44 14.332,0 0,101.316 -14.332,0 0,-101.316 z"
         style="fill:#43acc4;fill-opacity:1;fill-rule:evenodd;stroke:none"
         id="path1728" />
      <path
         d="m 6134.4,5854.16 6.4,-12.81 -63.46,-31.85 -6.49,12.81 63.55,31.85"
         style="fill:#43acc4;fill-opacity:1;fill-rule:evenodd;stroke:none"
         id="path1730" />
      <path
         d="m 6137.52,5829.63 c 10.36,0 18.8,8.43 18.8,18.81 0,10.28 -8.44,18.79 -18.8,18.79 -10.37,0 -18.8,-8.51 -18.8,-18.79 0,-10.38 8.43,-18.81 18.8,-18.81"
         style="fill:#43acc4;fill-opacity:1;fill-rule:evenodd;stroke:none"
         id="path1732" />
      <path
         d="m 6512.52,5723.86 94.23,0 c 10.53,0 19.21,9.26 19.21,20.64 l 0,72.07 c 0,1.09 -0.41,2.03 -1.1,2.79 -0.67,0.75 -1.59,1.17 -2.61,1.17 l -2.53,0 0,-76.03 c 0,-3.87 -1.43,-7.33 -3.78,-9.86 -2.37,-2.53 -5.66,-4.12 -9.19,-4.12 l -94.23,0 c -11.81,0 -21.41,-10.37 -21.41,-22.93 0,-12.65 9.6,-23.01 21.41,-23.01 l 385.19,0 c 4.13,0 7.92,-1.77 10.7,-4.72 2.78,-3.04 4.48,-7.08 4.48,-11.56 0,-4.45 -1.7,-8.59 -4.48,-11.54 -2.78,-2.95 -6.57,-4.72 -10.7,-4.72 l -324.85,0 0,-0.09 c -0.25,0.09 -0.42,0.09 -0.58,0.09 l -3.71,0 c -11.81,0 -21.41,-10.36 -21.41,-23.01 0,-12.55 9.6,-22.93 21.41,-22.93 l 3.71,0 c 0.16,0 0.33,0 0.58,0 l 425.58,0 c 4.12,0 7.92,-1.85 10.69,-4.8 2.78,-2.96 4.48,-6.99 4.48,-11.46 0,-4.56 -1.7,-8.61 -4.48,-11.54 -2.77,-2.95 -6.57,-4.81 -10.69,-4.81 l -384.27,0 c -13.66,0 -24.78,-11.97 -24.78,-26.64 l 0,-229.94 c 0,-2.44 0.92,-4.8 2.52,-6.49 1.01,-1.09 2.29,-1.85 3.63,-2.28 l 0,238.71 c 0,5.57 2.1,10.54 5.48,14.16 3.28,3.45 7.67,5.64 12.55,5.82 l 385.03,0 c 3.45,0 6.74,0.92 9.61,2.53 l 0,0.08 c 1.93,1.1 3.79,2.44 5.31,4.14 3.87,4.12 6.24,9.86 6.32,16.08 -0.08,12.57 -9.61,22.77 -21.24,22.77 l -74.59,0 0,0.34 -355.44,0 c -4.23,0 -8.01,1.85 -10.71,4.8 -2.78,2.95 -4.46,6.99 -4.46,11.46 0,4.47 1.68,8.61 4.46,11.56 2.7,2.95 6.48,4.79 10.71,4.79 l 329.14,0 c 11.72,0 21.4,10.28 21.4,22.92 0,6.24 -2.35,11.99 -6.15,16.11 l -0.16,0.08 c -1.85,2.02 -4.05,3.63 -6.49,4.81 -2.36,1.18 -4.98,1.86 -7.76,1.93 l -386.03,0 c -4.23,0 -8.01,1.86 -10.72,4.81 -2.77,2.95 -4.46,7.09 -4.46,11.55 0,4.46 1.69,8.51 4.46,11.46 2.71,2.95 6.49,4.81 10.72,4.81"
         style="fill:#43acc4;fill-opacity:1;fill-rule:nonzero;stroke:none"
         id="path1734" />
      <path
         d="m 6552.13,5812.27 37.08,-9.52 c 28.67,16.1 31.96,32.02 1.27,47.79 l -37.59,-9.35 c -69.87,-17.37 -68.28,-11.3 -0.76,-28.92"
         style="fill:#fbc081;fill-opacity:1;fill-rule:evenodd;stroke:none"
         id="path1736" />
      <path
         d="m 6533.84,5837.05 c -45.86,-10.78 -45.01,-9.52 -0.5,-20.48 4.29,2.7 6.91,6.24 6.98,10.2 0.18,3.88 -2.35,7.51 -6.48,10.28"
         style="fill:#4d4d4d;fill-opacity:1;fill-rule:evenodd;stroke:none"
         id="path1738" />
      <path
         d="m 6823.61,5835.2 -22.32,0.09 -197.58,0.42 c -10.12,0 -18.28,4.12 -18.21,9.18 0.18,5.07 8.61,9.11 18.72,9.11 l 219.9,-0.42 c 0.85,0 1.7,-0.09 2.44,-0.09 l 22.61,-0.09 c 8.67,0 15.75,-3.53 15.59,-7.83 l -0.27,-10.46 -40.88,0.09"
         style="fill:#b96f2d;fill-opacity:1;fill-rule:evenodd;stroke:none"
         id="path1740" />
      <path
         d="m 6823.61,5837.73 -22.32,0.08 -197.58,0.59 c -10.12,0 -18.55,-4.63 -18.71,-10.27 -0.08,-5.75 8.1,-10.47 18.21,-10.47 l 197.56,-0.67 22.43,-0.09 40.8,-0.07 0.49,20.74 -40.88,0.16"
         style="fill:#e4883a;fill-opacity:1;fill-rule:evenodd;stroke:none"
         id="path1742" />
      <path
         d="m 6822.69,5798.63 -8.85,0 -211.14,0.76 c -10.11,0 -18.29,4.79 -18.21,10.6 0.18,5.82 8.61,10.54 18.72,10.54 l 197.56,-0.67 22.34,-0.09 40.89,-0.16 -0.27,-12.15 c -0.16,-4.54 -6.15,-8.34 -13.73,-8.92 l -27.31,0.09"
         style="fill:#f99e3f;fill-opacity:1;fill-rule:evenodd;stroke:none"
         id="path1744" />
      <path
         d="m 6905.38,5839.33 -0.76,-27.48 c -0.16,-7.58 -6.58,-13.74 -14.16,-13.74 l -35.66,0.09 c -7.58,0 -13.57,6.15 -13.39,13.74 l 0.76,27.48 c 0.16,7.58 6.56,13.74 14.07,13.74 l 35.74,-0.09 c 7.58,0 13.57,-6.24 13.4,-13.74"
         style="fill:#f1698d;fill-opacity:1;fill-rule:evenodd;stroke:none"
         id="path1746" />
      <path
         d="m 6864.07,5847.08 -1.34,-43.24 c -0.09,-3.2 -2.78,-5.81 -6.07,-5.81 l -11.8,0 c -3.2,0 -5.82,2.61 -5.65,5.9 l 1.26,43.15 c 0.18,3.28 2.87,5.9 6.08,5.9 l 11.79,0 c 3.29,0 5.82,-2.69 5.73,-5.9"
         style="fill:#d85e7f;fill-opacity:1;fill-rule:evenodd;stroke:none"
         id="path1748" />
      <path
         d="m 6422.16,5029.15 -102.24,220.08 c -4.22,9.1 -0.26,19.9 8.77,24.11 l 158.71,73.67 c 9.01,4.21 19.8,0.25 24.02,-8.76 l 102.24,-220.17 c 4.22,-9.02 0.26,-19.89 -8.77,-24.03 l -158.71,-73.74 c -9.02,-4.22 -19.81,-0.26 -24.02,8.84"
         style="fill:#6fa272;fill-opacity:1;fill-rule:evenodd;stroke:none"
         id="path1750" />
      <path
         d="m 6406.82,5032.95 -102.33,220.42 c -4.22,9.01 -0.25,19.72 8.68,23.84 l 157.37,73.09 c 8.94,4.12 19.64,0.25 23.86,-8.68 l 102.32,-220.42 c 4.21,-9.02 0.25,-19.72 -8.68,-23.86 l -157.36,-73.07 c -8.95,-4.22 -19.66,-0.25 -23.86,8.68"
         style="fill:#4d8c51;fill-opacity:1;fill-rule:evenodd;stroke:none"
         id="path1752" />
      <path
         d="m 6315.7,5241.98 c -2.02,4.47 -0.09,9.78 4.38,11.88 4.47,2.03 9.78,0.09 11.9,-4.38 2.1,-4.46 0.16,-9.78 -4.32,-11.88 -4.54,-2.1 -9.86,-0.17 -11.96,4.38 z m 29.92,-64.39 c -2.1,4.54 -0.17,9.86 4.39,11.88 4.47,2.1 9.77,0.17 11.88,-4.3 2.03,-4.47 0.08,-9.86 -4.39,-11.88 -4.45,-2.11 -9.77,-0.17 -11.88,4.3 z m 14.92,-32.12 c -2.1,4.48 -0.09,9.78 4.39,11.88 4.46,2.12 9.77,0.09 11.87,-4.38 2.12,-4.46 0.09,-9.77 -4.38,-11.88 -4.46,-2.1 -9.78,-0.09 -11.88,4.38 z m 14.92,-32.2 c -2.02,4.47 -0.09,9.86 4.38,11.89 4.47,2.11 9.78,0.16 11.88,-4.31 2.12,-4.54 0.18,-9.85 -4.29,-11.88 -4.55,-2.1 -9.87,-0.16 -11.97,4.3 z m 15,-32.19 c -2.1,4.55 -0.17,9.87 4.3,11.97 4.47,2.01 9.87,0.09 11.88,-4.39 2.12,-4.47 0.18,-9.77 -4.3,-11.87 -4.45,-2.12 -9.86,-0.18 -11.88,4.29 z m 14.92,-32.12 c -2.1,4.48 -0.17,9.78 4.39,11.88 4.47,2.12 9.77,0.18 11.88,-4.38 2.03,-4.46 0.08,-9.78 -4.39,-11.88 -4.46,-2.01 -9.77,-0.09 -11.88,4.38 z m -74.68,160.82 c -2.1,4.47 -0.16,9.79 4.3,11.89 4.47,2.11 9.86,0.17 11.89,-4.38 2.11,-4.47 0.16,-9.77 -4.31,-11.9 -4.45,-2.01 -9.86,-0.07 -11.88,4.39"
         style="fill:#fefefe;fill-opacity:1;fill-rule:evenodd;stroke:none"
         id="path1754" />
      <path
         d="m 6370.99,5072.4 0,0 c -1.51,3.36 -0.08,7.32 3.29,8.84 l 16.86,7.94 c 3.37,1.5 7.33,0.07 8.85,-3.29 1.6,-3.38 0.09,-7.34 -3.2,-8.85 l -16.86,-7.85 c -3.38,-1.6 -7.34,-0.16 -8.94,3.21 z m -14.92,32.19 0,0 c -1.5,3.29 -0.07,7.34 3.22,8.86 l 16.93,7.83 c 3.29,1.6 7.33,0.08 8.85,-3.2 1.6,-3.37 0.08,-7.34 -3.21,-8.93 l -16.93,-7.85 c -3.29,-1.51 -7.34,-0.09 -8.86,3.29 z m -14.92,32.12 0,0 c -1.59,3.37 -0.09,7.33 3.2,8.92 l 16.95,7.85 c 3.29,1.52 7.34,0.09 8.86,-3.28 1.52,-3.29 0.08,-7.34 -3.29,-8.86 l -16.86,-7.83 c -3.38,-1.61 -7.34,-0.09 -8.86,3.2 z m -14.99,32.2 0,0 c -1.52,3.36 -0.09,7.32 3.27,8.84 l 16.86,7.85 c 3.38,1.6 7.34,0.08 8.95,-3.2 1.52,-3.38 0.07,-7.34 -3.29,-8.95 l -16.86,-7.82 c -3.38,-1.52 -7.34,-0.09 -8.93,3.28 z m -14.93,32.19 0,0 c -1.51,3.29 -0.08,7.33 3.29,8.85 l 16.86,7.84 c 3.37,1.51 7.33,0.09 8.85,-3.29 1.61,-3.27 0.09,-7.32 -3.2,-8.84 l -16.86,-7.85 c -3.38,-1.52 -7.33,-0.08 -8.94,3.29 z m -14.92,32.11 0,0 c -1.51,3.38 -0.08,7.34 3.21,8.95 l 16.94,7.83 c 3.29,1.52 7.33,0.09 8.85,-3.29 1.6,-3.29 0.09,-7.33 -3.2,-8.85 l -16.95,-7.83 c -3.28,-1.61 -7.33,-0.09 -8.85,3.19 z m 89.6,-193.01 0,0 c -1.51,3.37 -0.08,7.33 3.29,8.94 l 16.85,7.83 c 3.38,1.52 7.34,0.09 8.95,-3.29 1.5,-3.28 0.07,-7.33 -3.29,-8.85 l -16.86,-7.83 c -3.38,-1.52 -7.33,-0.09 -8.94,3.2"
         style="fill:#bbbdbf;fill-opacity:1;fill-rule:evenodd;stroke:none"
         id="path1756" />
      <path
         d="m 6358.68,5260.52 101.91,47.37 c 4.64,2.11 10.12,0.09 12.23,-4.46 l 17.11,-36.75 c 2.1,-4.55 0.09,-10.11 -4.47,-12.22 l -102,-47.37 c -4.54,-2.1 -10.02,-0.09 -12.21,4.47 l -17.04,36.75 c -2.1,4.63 -0.16,10.11 4.47,12.21"
         style="fill:#8ab38d;fill-opacity:1;fill-rule:evenodd;stroke:none"
         id="path1758" />
      <path
         d="m 6562.91,5141.34 0,242.75 c 0,9.94 8.1,18.12 18.05,18.12 l 174.97,0 c 9.95,0 18.13,-8.18 18.13,-18.12 l 0,-242.75 c 0,-9.94 -8.18,-18.03 -18.13,-18.03 l -174.97,0 c -9.95,0 -18.05,8.09 -18.05,18.03"
         style="fill:#92cada;fill-opacity:1;fill-rule:evenodd;stroke:none"
         id="path1760" />
      <path
         d="m 6550.61,5151.29 0,243.08 c 0,9.86 8.09,17.95 17.96,17.95 l 173.47,0 c 9.86,0 17.94,-8.09 17.94,-17.95 l 0,-243.08 c 0,-9.86 -8.08,-17.96 -17.94,-17.96 l -173.47,0 c -9.87,0 -17.96,8.1 -17.96,17.96"
         style="fill:#43acc4;fill-opacity:1;fill-rule:evenodd;stroke:none"
         id="path1762" />
      <path
         d="m 6574.38,5137.47 0,270.73 c 0,2.27 1.77,4.12 4.05,4.12 l 39.36,0 c 2.28,0 4.12,-1.85 4.12,-4.12 l 0,-270.73 c 0,-2.28 -1.84,-4.14 -4.12,-4.14 l -39.36,0 c -2.28,0 -4.05,1.86 -4.05,4.14"
         style="fill:#8ebde5;fill-opacity:1;fill-rule:evenodd;stroke:none"
         id="path1764" />
      <path
         d="m 6670.55,5133.33 37.6,0 0,-38.09 -18.47,18.46 -19.13,-19.06 0,38.69"
         style="fill:#1b8a75;fill-opacity:1;fill-rule:evenodd;stroke:none"
         id="path1766" />
    </g>
  </g>
</svg>
