<?xml version="1.0" encoding="UTF-8" standalone="no"?>
<svg
   xmlns:dc="http://purl.org/dc/elements/1.1/"
   xmlns:cc="http://creativecommons.org/ns#"
   xmlns:rdf="http://www.w3.org/1999/02/22-rdf-syntax-ns#"
   xmlns:svg="http://www.w3.org/2000/svg"
   xmlns="http://www.w3.org/2000/svg"
   version="1.1"
   id="svg15121"
   viewBox="0 0 310.11779 299.99999"
   height="84.666664mm"
   width="87.522133mm">
  <defs
     id="defs15123" />
  <metadata
     id="metadata15126">
    <rdf:RDF>
      <cc:Work
         rdf:about="">
        <dc:format>image/svg+xml</dc:format>
        <dc:type
           rdf:resource="http://purl.org/dc/dcmitype/StillImage" />
        <dc:title></dc:title>
      </cc:Work>
    </rdf:RDF>
  </metadata>
  <g
     transform="translate(-43.296701,-484.94126)"
     id="layer1">
    <g
       id="g14978"
       transform="matrix(0.27826732,0,0,-0.27826732,-1594.9131,1146.2352)">
      <path
         d="m 6932.19,1837.42 c 0,-269.4 -218.39,-487.78 -487.78,-487.78 -269.39,0 -487.78,218.38 -487.78,487.78 0,269.39 218.39,487.78 487.78,487.78 269.39,0 487.78,-218.39 487.78,-487.78"
         style="fill:#71c8d2;fill-opacity:1;fill-rule:nonzero;stroke:none"
         id="path7052" />
      <path
         d="m 6315.98,1634.16 665.512,0 0,451.645 -665.512,0 0,-451.645 z"
         style="fill:#ffffff;fill-opacity:1;fill-rule:evenodd;stroke:none"
         id="path7232" />
      <path
         d="m 6310.98,2085.8 675.5,0 c 8.36,0 15.16,-6.81 15.16,-15.08 0,-8.34 -6.8,-15.14 -15.16,-15.14 l -675.5,0 c -8.34,0 -15.14,6.8 -15.14,15.14 0,8.27 6.8,15.08 15.14,15.08"
         style="fill:#fcce3d;fill-opacity:1;fill-rule:evenodd;stroke:none"
         id="path7234" />
      <path
         d="m 6556.29,1639.55 10.73,-5.64 c 4.83,-2.54 6.79,-8.68 4.18,-13.59 l -103.18,-196.35 c -2.61,-4.91 -8.68,-6.79 -13.59,-4.25 l -10.72,5.64 c -4.91,2.63 -6.8,8.68 -4.25,13.6 l 103.17,196.42 c 2.62,4.83 8.75,6.8 13.66,4.17"
         style="fill:#ffffff;fill-opacity:1;fill-rule:evenodd;stroke:none"
         id="path7236" />
      <path
         d="m 6741.17,1639.55 -10.63,-5.64 c -4.91,-2.54 -6.89,-8.68 -4.27,-13.59 l 103.17,-196.35 c 2.61,-4.91 8.68,-6.79 13.59,-4.25 l 10.72,5.64 c 4.93,2.63 6.81,8.68 4.27,13.6 l -103.17,196.42 c -2.62,4.83 -8.77,6.8 -13.68,4.17"
         style="fill:#ffffff;fill-opacity:1;fill-rule:evenodd;stroke:none"
         id="path7238" />
      <path
         d="m 6642.68,1467.77 12.11,0 c 5.58,0 10.08,4.51 10.08,10.07 l 0,160.89 c 0,5.57 -4.5,10.16 -10.08,10.16 l -12.11,0 c -5.57,0 -10.07,-4.59 -10.07,-10.16 l 0,-160.89 c 0,-5.56 4.5,-10.07 10.07,-10.07"
         style="fill:#ffffff;fill-opacity:1;fill-rule:evenodd;stroke:none"
         id="path7240" />
      <path
         d="m 6310.98,1650.29 675.5,0 c 8.36,0 15.16,-6.88 15.16,-15.15 0,-8.36 -6.8,-15.16 -15.16,-15.16 l -675.5,0 c -8.34,0 -15.14,6.8 -15.14,15.16 0,8.27 6.8,15.15 15.14,15.15"
         style="fill:#fcce3d;fill-opacity:1;fill-rule:evenodd;stroke:none"
         id="path7242" />
      <path
         d="m 6447.14,1858.57 c 39.15,0 71.16,32.02 71.16,71.16 0,39.22 -32.01,71.16 -71.16,71.16 -39.21,0 -71.14,-31.94 -71.14,-71.16 0,-39.14 31.93,-71.16 71.14,-71.16"
         style="fill:#adecf7;fill-opacity:1;fill-rule:evenodd;stroke:none"
         id="path7244" />
      <path
         d="m 6407.69,1944.89 37,-63.05 87.29,143.12 -85.16,-97.59 -39.13,17.52"
         style="fill:#f26d6e;fill-opacity:1;fill-rule:evenodd;stroke:none"
         id="path7246" />
      <path
         d="m 6584.46,1953.73 335.289,0 0,10.7227 -335.289,0 0,-10.7227 z"
         style="fill:#a6a9ab;fill-opacity:1;fill-rule:evenodd;stroke:none"
         id="path7248" />
      <path
         d="m 6718.58,1923.51 201.172,0 0,10.6523 -201.172,0 0,-10.6523 z"
         style="fill:#a6a9ab;fill-opacity:1;fill-rule:evenodd;stroke:none"
         id="path7250" />
      <path
         d="m 6580.37,1893.22 220.328,0 0,10.6367 -220.328,0 0,-10.6367 z"
         style="fill:#a6a9ab;fill-opacity:1;fill-rule:evenodd;stroke:none"
         id="path7252" />
      <path
         d="m 6856.79,1893.22 62.9609,0 0,10.6367 -62.9609,0 0,-10.6367 z"
         style="fill:#a6a9ab;fill-opacity:1;fill-rule:evenodd;stroke:none"
         id="path7254" />
      <path
         d="m 6620.07,1923.51 35.5508,0 0,10.6523 -35.5508,0 0,-10.6523 z"
         style="fill:#a6a9ab;fill-opacity:1;fill-rule:evenodd;stroke:none"
         id="path7256" />
      <path
         d="m 6825.92,1697.61 c 32.92,0 59.69,26.85 59.69,59.77 0,32.92 -26.77,59.68 -59.69,59.68 -32.9,0 -59.69,-26.76 -59.69,-59.68 0,-32.92 26.79,-59.77 59.69,-59.77"
         style="fill:#adecf7;fill-opacity:1;fill-rule:evenodd;stroke:none"
         id="path7258" />
      <path
         d="m 6853.02,1761.55 c 0,3.69 -2.95,6.64 -6.63,6.64 -3.68,0 -6.63,-2.95 -6.63,-6.64 0,-3.76 2.95,-6.7 6.63,-6.7 0.91,0 1.64,-0.75 1.64,-1.65 0,-0.9 -0.73,-1.55 -1.64,-1.55 -0.89,0 -1.55,0.65 -1.55,1.64 l -5.08,0 c 0,-3.85 2.95,-6.71 6.63,-6.71 3.68,0 6.63,2.94 6.63,6.62 0,1.56 -0.49,3.03 -1.38,4.18 -1.23,1.56 -3.12,2.54 -5.25,2.54 -0.89,0 -1.55,0.73 -1.55,1.63 0,0.91 0.66,1.64 1.55,1.64 0.91,0 1.64,-0.73 1.64,-1.64 l 4.99,0 z m -30.38,-14.97 13.43,0 0,4.57 -7.77,0 0,4.02 6.87,0 0,4.75 -6.87,0 0,3.52 7.77,0 0,4.75 -13.43,0 0,-21.61 z m -2.45,21.61 -6.55,0 -4.18,-7.21 -4.08,7.21 -6.56,0 7.86,-13.68 0,-7.93 5.65,0 0,7.93 7.86,13.68"
         style="fill:#f26d6e;fill-opacity:1;fill-rule:evenodd;stroke:none"
         id="path7260" />
      <path
         d="m 6524.85,1731.43 c 29.97,0 54.37,24.4 54.37,54.37 0,29.97 -24.4,54.44 -54.37,54.44 -29.97,0 -54.44,-24.47 -54.44,-54.44 0,-29.97 24.47,-54.37 54.44,-54.37"
         style="fill:#a6a9ab;fill-opacity:1;fill-rule:evenodd;stroke:none"
         id="path7262" />
      <path
         d="m 6664.21,1751.81 c 18.75,0 33.97,15.31 33.97,33.99 0,18.74 -15.22,33.97 -33.97,33.97 -18.75,0 -33.98,-15.23 -33.98,-33.97 0,-18.68 15.23,-33.99 33.98,-33.99"
         style="fill:#a6a9ab;fill-opacity:1;fill-rule:evenodd;stroke:none"
         id="path7264" />
      <path
         d="m 6603.3,1673.95 c 16.86,0 30.54,13.67 30.54,30.46 0,16.86 -13.68,30.54 -30.54,30.54 -16.79,0 -30.55,-13.68 -30.55,-30.54 0,-16.79 13.76,-30.46 30.55,-30.46"
         style="fill:#a6a9ab;fill-opacity:1;fill-rule:evenodd;stroke:none"
         id="path7266" />
      <path
         d="m 6653.9,1793.41 c -0.09,1.06 -0.09,2.04 -0.09,3.02 0,3.2 0.41,5.57 1.39,7.38 1.24,2.12 3.28,3.52 5.97,4.01 1.41,0.33 2.71,0.4 3.95,0.4 1.3,0 2.44,-0.16 3.59,-0.4 2.21,-0.57 4.02,-1.71 5.32,-3.6 1.32,-1.88 2.05,-4.51 2.22,-7.79 l 0,-0.9 c 0,-2.87 -0.49,-4.91 -1.4,-6.21 -0.98,-1.48 -2.53,-2.55 -4.82,-3.29 1.88,-0.32 3.27,-0.98 4.18,-2.05 0.98,-1.05 1.63,-2.52 1.95,-4.32 0.25,-1 0.33,-2.06 0.33,-3.29 0,-0.98 -0.08,-2.05 -0.24,-3.18 -0.25,-2.46 -1.31,-4.68 -3.04,-6.48 -1.71,-1.8 -4.41,-2.77 -8.02,-2.86 l -0.49,0 c -3.35,0 -6.06,0.9 -8.1,2.61 -2.05,1.8 -3.11,5.73 -3.11,11.63 l 0,0.25 7.77,0.41 c 0,-0.33 -0.09,-0.66 -0.09,-0.99 0,-4.17 1.16,-6.38 3.37,-6.55 0.16,0 0.33,0 0.41,0 2.13,0 3.35,1.07 3.76,3.28 0.17,0.65 0.17,1.24 0.17,1.81 0,1.55 -0.42,2.93 -1.32,4.09 -1.21,1.55 -3.27,2.37 -6.14,2.37 l -0.41,5.65 c 0.34,0 0.66,0 1,0 2.53,0 4.25,0.73 5.14,2.21 0.9,1.31 1.31,3.04 1.31,5.15 0,0.5 0,0.91 -0.07,1.32 -0.16,2.54 -1.31,3.84 -3.44,3.84 l -0.33,0 c -2.13,-0.16 -3.2,-2.2 -3.2,-6.29 0,-0.5 0,-0.98 0,-1.57 l -7.52,0.34"
         style="fill:#ffffff;fill-opacity:1;fill-rule:evenodd;stroke:none"
         id="path7268" />
      <path
         d="m 6508.15,1798.07 c -0.08,1.48 -0.16,2.79 -0.16,4.02 0,4.34 0.81,7.45 2.38,9.41 2.04,2.45 4.57,3.93 7.68,4.43 1.16,0.16 2.22,0.24 3.28,0.24 1.97,0 3.77,-0.24 5.56,-0.81 2.79,-0.84 4.84,-2.55 6.23,-5 1.15,-2.14 1.72,-4.75 1.72,-8.02 0,-0.66 0,-1.32 0,-2.05 -0.32,-4.18 -1.55,-7.95 -3.77,-11.47 -2.2,-3.52 -6.05,-8.59 -11.54,-15.06 l 15.88,-0.17 -0.07,-9.08 c -6.97,-0.34 -15.97,-0.5 -26.95,-0.5 l -0.81,9.91 c 6.55,7.2 11.29,12.69 14.08,16.45 2.62,3.54 3.85,7.06 3.85,10.4 l 0,0.91 c -0.25,3.68 -1.8,5.48 -4.58,5.48 l -0.09,0 c -2.45,-0.07 -3.69,-2.3 -3.69,-6.64 0,-0.81 0.08,-1.7 0.08,-2.68 l -9.08,0.23"
         style="fill:#ffffff;fill-opacity:1;fill-rule:evenodd;stroke:none"
         id="path7270" />
      <path
         d="m 6607.3,1719.88 c -0.07,-7.45 -0.16,-14.9 -0.16,-22.27 0,-3.77 0,-7.45 0.09,-11.15 l -5.91,-0.32 c -0.16,9.59 -0.24,18.34 -0.4,26.45 -1.39,-0.25 -3.19,-0.9 -5.48,-1.97 l -1.16,5.24 6.64,4.18 6.38,-0.16"
         style="fill:#ffffff;fill-opacity:1;fill-rule:evenodd;stroke:none"
         id="path7272" />
      <path
         d="m 6073.2,1930.64 132.49,0 0,-104.49 -132.49,0 0,104.49"
         style="fill:#f9bf92;fill-opacity:1;fill-rule:evenodd;stroke:none"
         id="path7274" />
      <path
         d="m 6139.45,1881.02 c -70.41,0.82 -127.32,76.8 -127.32,170.39 0,93.58 56.91,169.56 127.32,170.38 70.42,-0.82 127.33,-76.8 127.33,-170.38 0,-93.59 -56.91,-169.57 -127.33,-170.39"
         style="fill:#f9d4b4;fill-opacity:1;fill-rule:evenodd;stroke:none"
         id="path7276" />
      <path
         d="m 6040.71,1862.34 86.13,-310.48 0,-90.56 12.61,45.28 12.53,-45.28 0,90.56 86.22,310.48 -32.51,2.71 -66.24,-28.82 -66.25,28.82 -32.49,-2.71"
         style="fill:#fbfffc;fill-opacity:1;fill-rule:evenodd;stroke:none"
         id="path7278" />
      <path
         d="m 6040.71,1862.34 -114.8,-43.05 -38.73,-224.93 61.01,-218.7 382.53,0 60.92,218.7 -38.65,224.93 -114.79,43.05 -98.75,-346.58 -98.74,346.58"
         style="fill:#3c4650;fill-opacity:1;fill-rule:evenodd;stroke:none"
         id="path7280" />
      <path
         d="m 6139.45,2243.25 c -36.93,-7.04 -58.54,0.73 -82.7,-13.92 -33.81,-20.47 -65.09,-74.84 -52.32,-150.91 3.52,-21.36 7.13,-42.81 10.72,-64.28 6.89,37.1 4.11,75.09 34.08,110.06 10.88,-10.89 -5.41,-24.4 5.39,-35.29 9.42,26.45 54.46,42 84.83,46.1 31.68,1.64 87.37,-4.83 107.34,-22.76 23.09,-20.72 9.5,-58.21 16.88,-98.11 3.59,21.47 7.2,42.92 10.79,64.28 12.77,76.07 -18.58,130.44 -52.3,150.91 -24.25,14.65 -45.78,6.88 -82.71,13.92"
         style="fill:#3f3e43;fill-opacity:1;fill-rule:evenodd;stroke:none"
         id="path7282" />
      <path
         d="m 6139.45,1836.23 -29.72,-29.96 15.55,-37.26 -11.87,-167.04 26.04,-86.21 26.04,86.21 -11.95,167.04 15.64,37.26 -29.73,29.96"
         style="fill:#ee6249;fill-opacity:1;fill-rule:evenodd;stroke:none"
         id="path7284" />
      <path
         d="m 6661.83,2032.41 c 81.31,0 147.55,66.32 147.55,147.63 0,81.3 -66.24,147.54 -147.55,147.54 -81.3,0 -147.62,-66.24 -147.62,-147.54 0,-81.31 66.32,-147.63 147.62,-147.63"
         style="fill:#ee6249;fill-opacity:1;fill-rule:evenodd;stroke:none"
         id="path7286" />
      <path
         d="m 6661.83,2057.22 c 67.64,0 122.83,55.19 122.83,122.82 0,67.63 -55.19,122.82 -122.83,122.82 -67.71,0 -122.81,-55.19 -122.81,-122.82 0,-67.63 55.1,-122.82 122.81,-122.82"
         style="fill:#ffdf86;fill-opacity:1;fill-rule:evenodd;stroke:none"
         id="path7288" />
      <path
         d="m 6655.13,2180.04 13.4297,0 0,94.9766 -13.4297,0 0,-94.9766 z"
         style="fill:#ee6249;fill-opacity:1;fill-rule:evenodd;stroke:none"
         id="path7290" />
      <path
         d="m 6658.89,2185.36 5.98,-11.95 -59.53,-29.89 -5.97,12.03 59.52,29.81"
         style="fill:#ee6249;fill-opacity:1;fill-rule:evenodd;stroke:none"
         id="path7292" />
      <path
         d="m 6661.83,2162.44 c 9.67,0 17.61,7.86 17.61,17.6 0,9.66 -7.94,17.6 -17.61,17.6 -9.74,0 -17.59,-7.94 -17.59,-17.6 0,-9.74 7.85,-17.6 17.59,-17.6"
         style="fill:#ee6249;fill-opacity:1;fill-rule:evenodd;stroke:none"
         id="path7294" />
      <path
         d="m 6192.01,1530.73 314.09,0 c 6.72,0 12.13,-5.4 12.13,-12.1 l 0,-208.15 c 0,-6.63 -5.41,-12.11 -12.13,-12.11 l -314.09,0 c -6.71,0 -12.11,5.48 -12.11,12.11 l 0,208.15 c 0,6.7 5.4,12.1 12.11,12.1"
         style="fill:#dbdbdb;fill-opacity:1;fill-rule:evenodd;stroke:none"
         id="path7296" />
      <path
         d="m 6193.9,1584.61 310.31,0 c 7.71,0 14.02,-6.3 14.02,-14.07 l 0,-48.81 c 0,-7.69 -6.31,-13.99 -14.02,-13.99 l -310.31,0 c -7.7,0 -14,6.3 -14,13.99 l 0,48.81 c 0,7.77 6.3,14.07 14,14.07"
         style="fill:#a1a1a1;fill-opacity:1;fill-rule:evenodd;stroke:none"
         id="path7298" />
      <path
         d="m 6220.02,1556.29 c 5.98,0 10.8,4.91 10.8,10.89 0,5.97 -4.82,10.88 -10.8,10.88 -6.06,0 -10.88,-4.91 -10.88,-10.88 0,-5.98 4.82,-10.89 10.88,-10.89"
         style="fill:#686868;fill-opacity:1;fill-rule:evenodd;stroke:none"
         id="path7300" />
      <path
         d="m 6263.01,1556.29 c 5.97,0 10.88,4.91 10.88,10.89 0,5.97 -4.91,10.88 -10.88,10.88 -5.98,0 -10.9,-4.91 -10.9,-10.88 0,-5.98 4.92,-10.89 10.9,-10.89"
         style="fill:#686868;fill-opacity:1;fill-rule:evenodd;stroke:none"
         id="path7302" />
      <path
         d="m 6306.07,1556.29 c 5.98,0 10.81,4.91 10.81,10.89 0,5.97 -4.83,10.88 -10.81,10.88 -6.05,0 -10.89,-4.91 -10.89,-10.88 0,-5.98 4.84,-10.89 10.89,-10.89"
         style="fill:#686868;fill-opacity:1;fill-rule:evenodd;stroke:none"
         id="path7304" />
      <path
         d="m 6349.05,1556.29 c 5.98,0 10.91,4.91 10.91,10.89 0,5.97 -4.93,10.88 -10.91,10.88 -5.97,0 -10.88,-4.91 -10.88,-10.88 0,-5.98 4.91,-10.89 10.88,-10.89"
         style="fill:#686868;fill-opacity:1;fill-rule:evenodd;stroke:none"
         id="path7306" />
      <path
         d="m 6392.13,1556.29 c 5.98,0 10.82,4.91 10.82,10.89 0,5.97 -4.84,10.88 -10.82,10.88 -6.06,0 -10.9,-4.91 -10.9,-10.88 0,-5.98 4.84,-10.89 10.9,-10.89"
         style="fill:#686868;fill-opacity:1;fill-rule:evenodd;stroke:none"
         id="path7308" />
      <path
         d="m 6435.12,1556.29 c 5.97,0 10.88,4.91 10.88,10.89 0,5.97 -4.91,10.88 -10.88,10.88 -5.98,0 -10.9,-4.91 -10.9,-10.88 0,-5.98 4.92,-10.89 10.9,-10.89"
         style="fill:#686868;fill-opacity:1;fill-rule:evenodd;stroke:none"
         id="path7310" />
      <path
         d="m 6478.11,1556.29 c 6.05,0 10.88,4.91 10.88,10.89 0,5.97 -4.83,10.88 -10.88,10.88 -5.98,0 -10.82,-4.91 -10.82,-10.88 0,-5.98 4.84,-10.89 10.82,-10.89"
         style="fill:#686868;fill-opacity:1;fill-rule:evenodd;stroke:none"
         id="path7312" />
      <path
         d="m 6210.68,1438.96 33.7383,0 0,33.7227 -33.7383,0 0,-33.7227 z"
         style="fill:#f26d6e;fill-opacity:1;fill-rule:evenodd;stroke:none"
         id="path7314" />
      <path
         d="m 6210.68,1382.37 33.7383,0 0,33.8242 -33.7383,0 0,-33.8242 z"
         style="fill:#f26d6e;fill-opacity:1;fill-rule:evenodd;stroke:none"
         id="path7316" />
      <path
         d="m 6271.69,1438.96 33.7227,0 0,33.7227 -33.7227,0 0,-33.7227 z"
         style="fill:#ffffff;fill-opacity:1;fill-rule:evenodd;stroke:none"
         id="path7318" />
      <path
         d="m 6271.69,1382.37 33.7227,0 0,33.8242 -33.7227,0 0,-33.8242 z"
         style="fill:#ffffff;fill-opacity:1;fill-rule:evenodd;stroke:none"
         id="path7320" />
      <path
         d="m 6332.61,1438.96 33.7383,0 0,33.7227 -33.7383,0 0,-33.7227 z"
         style="fill:#ffffff;fill-opacity:1;fill-rule:evenodd;stroke:none"
         id="path7322" />
      <path
         d="m 6332.61,1382.37 33.7383,0 0,33.8242 -33.7383,0 0,-33.8242 z"
         style="fill:#ffffff;fill-opacity:1;fill-rule:evenodd;stroke:none"
         id="path7324" />
      <path
         d="m 6393.52,1438.96 33.7383,0 0,33.7227 -33.7383,0 0,-33.7227 z"
         style="fill:#ffffff;fill-opacity:1;fill-rule:evenodd;stroke:none"
         id="path7326" />
      <path
         d="m 6393.52,1382.37 33.7383,0 0,33.8242 -33.7383,0 0,-33.8242 z"
         style="fill:#ffffff;fill-opacity:1;fill-rule:evenodd;stroke:none"
         id="path7328" />
      <path
         d="m 6454.43,1438.96 33.8281,0 0,33.7227 -33.8281,0 0,-33.7227 z"
         style="fill:#ffffff;fill-opacity:1;fill-rule:evenodd;stroke:none"
         id="path7330" />
      <path
         d="m 6454.43,1382.37 33.8281,0 0,33.8242 -33.8281,0 0,-33.8242 z"
         style="fill:#ffffff;fill-opacity:1;fill-rule:evenodd;stroke:none"
         id="path7332" />
      <path
         d="m 6398.52,1404.23 11.87,-16.45 33.25,45.53 -32.76,-34.24 -12.36,5.16"
         style="fill:#f26d6e;fill-opacity:1;fill-rule:evenodd;stroke:none"
         id="path7334" />
      <path
         d="m 6210.68,1325.88 33.7383,0 0,33.7383 -33.7383,0 0,-33.7383 z"
         style="fill:#f26d6e;fill-opacity:1;fill-rule:evenodd;stroke:none"
         id="path7336" />
      <path
         d="m 6271.69,1325.88 33.7227,0 0,33.7383 -33.7227,0 0,-33.7383 z"
         style="fill:#ffffff;fill-opacity:1;fill-rule:evenodd;stroke:none"
         id="path7338" />
      <path
         d="m 6332.61,1325.88 33.7383,0 0,33.7383 -33.7383,0 0,-33.7383 z"
         style="fill:#ffffff;fill-opacity:1;fill-rule:evenodd;stroke:none"
         id="path7340" />
      <path
         d="m 6393.52,1325.88 33.7383,0 0,33.7383 -33.7383,0 0,-33.7383 z"
         style="fill:#ffffff;fill-opacity:1;fill-rule:evenodd;stroke:none"
         id="path7342" />
      <path
         d="m 6454.43,1325.88 33.8281,0 0,33.7383 -33.8281,0 0,-33.7383 z"
         style="fill:#ffffff;fill-opacity:1;fill-rule:evenodd;stroke:none"
         id="path7344" />
      <path
         d="m 6220.34,1603.85 0,0 c 4.43,0 8.11,-3.68 8.11,-8.09 l 0,-22.61 c 0,-4.42 -3.68,-8.11 -8.11,-8.11 -4.5,0 -8.11,3.69 -8.11,8.11 l 0,22.61 c 0,4.41 3.61,8.09 8.11,8.09"
         style="fill:#dbdbdb;fill-opacity:1;fill-rule:evenodd;stroke:none"
         id="path7346" />
      <path
         d="m 6263.33,1603.85 0,0 c 4.5,0 8.11,-3.68 8.11,-8.09 l 0,-22.61 c 0,-4.42 -3.61,-8.11 -8.11,-8.11 -4.41,0 -8.11,3.69 -8.11,8.11 l 0,22.61 c 0,4.41 3.7,8.09 8.11,8.09"
         style="fill:#dbdbdb;fill-opacity:1;fill-rule:evenodd;stroke:none"
         id="path7348" />
      <path
         d="m 6306.41,1603.85 0,0 c 4.41,0 8.11,-3.68 8.11,-8.09 l 0,-22.61 c 0,-4.42 -3.7,-8.11 -8.11,-8.11 -4.5,0 -8.11,3.69 -8.11,8.11 l 0,22.61 c 0,4.41 3.61,8.09 8.11,8.09"
         style="fill:#dbdbdb;fill-opacity:1;fill-rule:evenodd;stroke:none"
         id="path7350" />
      <path
         d="m 6349.39,1603.85 0,0 c 4.5,0 8.1,-3.68 8.1,-8.09 l 0,-22.61 c 0,-4.42 -3.6,-8.11 -8.1,-8.11 -4.43,0 -8.1,3.69 -8.1,8.11 l 0,22.61 c 0,4.41 3.67,8.09 8.1,8.09"
         style="fill:#dbdbdb;fill-opacity:1;fill-rule:evenodd;stroke:none"
         id="path7352" />
      <path
         d="m 6392.45,1603.85 0,0 c 4.43,0 8.11,-3.68 8.11,-8.09 l 0,-22.61 c 0,-4.42 -3.68,-8.11 -8.11,-8.11 -4.5,0 -8.11,3.69 -8.11,8.11 l 0,22.61 c 0,4.41 3.61,8.09 8.11,8.09"
         style="fill:#dbdbdb;fill-opacity:1;fill-rule:evenodd;stroke:none"
         id="path7354" />
      <path
         d="m 6435.44,1603.85 0,0 c 4.5,0 8.11,-3.68 8.11,-8.09 l 0,-22.61 c 0,-4.42 -3.61,-8.11 -8.11,-8.11 -4.41,0 -8.11,3.69 -8.11,8.11 l 0,22.61 c 0,4.41 3.7,8.09 8.11,8.09"
         style="fill:#dbdbdb;fill-opacity:1;fill-rule:evenodd;stroke:none"
         id="path7356" />
      <path
         d="m 6478.52,1603.85 0,0 c 4.41,0 8.09,-3.68 8.09,-8.09 l 0,-22.61 c 0,-4.42 -3.68,-8.11 -8.09,-8.11 -4.52,0 -8.11,3.69 -8.11,8.11 l 0,22.61 c 0,4.41 3.59,8.09 8.11,8.09"
         style="fill:#dbdbdb;fill-opacity:1;fill-rule:evenodd;stroke:none"
         id="path7358" />
      <path
         d="m 6284.3,2237.1 7.2,-7.36 45.61,44.78 -7.21,7.29 -45.6,-44.71 z m -146.16,139.37 10.24,0 0,-9.34 -10.24,0 0,9.34 z m 205.1,-81.55 7.22,-7.29 -6.64,-6.56 -7.21,7.29 6.63,6.56 z m -164.66,-4.02 10.08,-2.04 6.39,31.27 -10.08,2.06 -6.39,-31.29 z m 74.03,-28.83 8.43,-5.72 17.92,26.53 -8.5,5.73 -17.85,-26.54 z m 56.98,-54.53 5.66,-8.59 26.6,17.68 -5.65,8.52 -26.61,-17.61 z m 31.94,-72.95 1.96,-10.07 31.36,6.07 -1.89,10.06 -31.43,-6.06 z m -125.35,145.91 9.5,-3.93 18.66,45.12 -9.41,3.93 -18.75,-45.12 z m 112.99,-107.84 3.84,-9.49 45.28,18.42 -3.85,9.5 -45.27,-18.43 z m -326.95,64.44 -7.2,-7.36 -45.61,44.78 7.21,7.29 45.6,-44.71 z m -58.95,57.82 -7.21,-7.29 6.72,-6.56 7.12,7.29 -6.63,6.56 z m 164.65,-4.02 -10.06,-2.04 -6.3,31.27 9.98,2.06 6.38,-31.29 z m -73.93,-28.83 -8.52,-5.72 -17.93,26.53 8.52,5.73 17.93,-26.54 z m -56.99,-54.53 -5.65,-8.59 -26.68,17.68 5.64,8.52 26.69,-17.61 z m -32.01,-72.95 -1.97,-10.07 -31.36,6.07 1.97,10.06 31.36,-6.06 z m 125.35,145.91 -9.41,-3.93 -18.75,45.12 9.5,3.93 18.66,-45.12 z m -112.99,-107.84 -3.84,-9.49 -45.28,18.42 3.93,9.5 45.19,-18.43 z m 180.79,121.2 10.24,0 0,63.93 -10.24,0 0,-63.93"
         style="fill:#fcce3d;fill-opacity:1;fill-rule:evenodd;stroke:none"
         id="path7360" />
    </g>
  </g>
</svg>
