<?xml version="1.0" encoding="UTF-8" standalone="no"?>
<svg
   xmlns:dc="http://purl.org/dc/elements/1.1/"
   xmlns:cc="http://creativecommons.org/ns#"
   xmlns:rdf="http://www.w3.org/1999/02/22-rdf-syntax-ns#"
   xmlns:svg="http://www.w3.org/2000/svg"
   xmlns="http://www.w3.org/2000/svg"
   id="svg2"
   version="1.1"
   xml:space="preserve"
   width="10"
   height="5.9437637"
   viewBox="0 0 10 5.9437637"><metadata
     id="metadata8"><rdf:RDF><cc:Work
         rdf:about=""><dc:format>image/svg+xml</dc:format><dc:type
           rdf:resource="http://purl.org/dc/dcmitype/StillImage" /><dc:title></dc:title></cc:Work></rdf:RDF></metadata><defs
     id="defs6"><clipPath
       clipPathUnits="userSpaceOnUse"
       id="clipPath16"><path
         d="M 0,25 25,25 25,0 0,0 0,25 Z"
         id="path18" /></clipPath></defs><g
     id="g10"
     transform="matrix(0.99064279,0,0,-0.99064279,-9.0619914,18.71313)"><g
       id="g12"
       transform="translate(1.6949153,3.3898305)"><g
         id="g14"
         clip-path="url(#clipPath16)"><g
           id="g20"
           transform="translate(7.7734,13.8584)"><path
             d="m 0,0 4.086,-4.086 c 0.363,-0.363 0.918,-0.363 1.281,0 L 9.453,0 c 0.369,0.368 0.45,0.877 0.082,1.239 L 9.383,1.392 C 9.056,1.684 8.676,1.748 8.383,1.432 7.378,0.427 6.372,-0.579 5.367,-1.584 5.004,-1.941 4.449,-1.941 4.086,-1.584 L 1.07,1.432 C 0.783,1.748 0.397,1.684 0.07,1.392 L -0.082,1.239 C -0.45,0.877 -0.369,0.368 0,0"
             style="fill:#8a8b8b;fill-opacity:1;fill-rule:nonzero;stroke:none"
             id="path22" /></g></g></g></g></svg>