<?xml version="1.0" encoding="UTF-8" standalone="no"?>
<svg
   xmlns:dc="http://purl.org/dc/elements/1.1/"
   xmlns:cc="http://creativecommons.org/ns#"
   xmlns:rdf="http://www.w3.org/1999/02/22-rdf-syntax-ns#"
   xmlns:svg="http://www.w3.org/2000/svg"
   xmlns="http://www.w3.org/2000/svg"
   viewBox="0 0 50 50"
   height="50"
   width="50"
   xml:space="preserve"
   version="1.1"
   id="svg2"><metadata
     id="metadata8"><rdf:RDF><cc:Work
         rdf:about=""><dc:format>image/svg+xml</dc:format><dc:type
           rdf:resource="http://purl.org/dc/dcmitype/StillImage" /><dc:title></dc:title></cc:Work></rdf:RDF></metadata><defs
     id="defs6"><clipPath
       id="clipPath16"
       clipPathUnits="userSpaceOnUse"><path
         id="path18"
         d="M 0,40 40,40 40,0 0,0 0,40 Z" /></clipPath></defs><g
     transform="matrix(1.25,0,0,-1.25,0,50)"
     id="g10"><g
       id="g12"><g
         clip-path="url(#clipPath16)"
         id="g14"><g
           transform="translate(20,38.0952)"
           id="g20"><path
             id="path22"
             style="fill:#5b626c;fill-opacity:1;fill-rule:nonzero;stroke:none"
             d="m 0,0 c -9.978,0 -18.095,-8.118 -18.095,-18.095 0,-9.978 8.117,-18.096 18.095,-18.096 9.978,0 18.096,8.118 18.096,18.096 C 18.096,-8.118 9.978,0 0,0 m 0,-38.095 c -11.028,0 -20,8.972 -20,20 0,11.028 8.972,20 20,20 11.028,0 20,-8.972 20,-20 0,-11.028 -8.972,-20 -20,-20" /></g><g
           transform="translate(20.022,27.2173)"
           id="g24"><path
             id="path26"
             style="fill:#5b626c;fill-opacity:1;fill-rule:evenodd;stroke:none"
             d="M 0,0 5.274,-3.042 C 5.512,-3.182 5.591,-3.481 5.45,-3.709 L -1.336,-15.48 c -0.043,-0.07 -0.105,-0.132 -0.176,-0.176 l -2.768,-1.767 -1.917,-1.213 c -0.158,-0.106 -0.352,-0.106 -0.501,-0.018 l -0.826,0.485 c -0.176,0.095 -0.264,0.281 -0.247,0.457 l 0.098,2.25 0.149,3.295 c 0.008,0.081 0.026,0.159 0.07,0.221 l 6.786,11.77 C -0.527,0.053 -0.228,0.132 0,0" /></g><g
           transform="translate(24.0049,31.2437)"
           id="g28"><path
             id="path30"
             style="fill:#5b626c;fill-opacity:1;fill-rule:evenodd;stroke:none"
             d="M 0,0 2.786,-1.609 C 3.243,-1.873 3.55,-2.303 3.683,-2.778 3.806,-3.252 3.753,-3.78 3.49,-4.237 L 2.681,-5.635 C 2.548,-5.872 2.25,-5.952 2.021,-5.811 l -5.274,3.041 c -0.238,0.133 -0.316,0.432 -0.185,0.669 l 0.809,1.398 c 0.264,0.457 0.694,0.764 1.17,0.896 C -0.985,0.316 -0.458,0.264 0,0" /></g></g></g></g></svg>