<?xml version="1.0" encoding="UTF-8" standalone="no"?>
<svg
   xmlns:dc="http://purl.org/dc/elements/1.1/"
   xmlns:cc="http://creativecommons.org/ns#"
   xmlns:rdf="http://www.w3.org/1999/02/22-rdf-syntax-ns#"
   xmlns:svg="http://www.w3.org/2000/svg"
   xmlns="http://www.w3.org/2000/svg"
   xmlns:sodipodi="http://sodipodi.sourceforge.net/DTD/sodipodi-0.dtd"
   xmlns:inkscape="http://www.inkscape.org/namespaces/inkscape"
   version="1.1"
   id="svg5779"
   viewBox="0 0 29.999998 31.156658"
   height="8.7931013mm"
   width="8.4666662mm"
   inkscape:version="0.91 r13725"
   sodipodi:docname="search.svg">
  <sodipodi:namedview
     pagecolor="#ffffff"
     bordercolor="#666666"
     borderopacity="1"
     objecttolerance="10"
     gridtolerance="10"
     guidetolerance="10"
     inkscape:pageopacity="0"
     inkscape:pageshadow="2"
     inkscape:window-width="1855"
     inkscape:window-height="1056"
     id="namedview23"
     showgrid="false"
     fit-margin-top="0"
     fit-margin-left="0"
     fit-margin-right="0"
     fit-margin-bottom="0"
     inkscape:zoom="4.7199995"
     inkscape:cx="-5.2713206"
     inkscape:cy="24.999997"
     inkscape:window-x="65"
     inkscape:window-y="24"
     inkscape:window-maximized="1"
     inkscape:current-layer="svg5779" />
  <defs
     id="defs5781" />
  <metadata
     id="metadata5784">
    <rdf:RDF>
      <cc:Work
         rdf:about="">
        <dc:format>image/svg+xml</dc:format>
        <dc:type
           rdf:resource="http://purl.org/dc/dcmitype/StillImage" />
        <dc:title></dc:title>
      </cc:Work>
    </rdf:RDF>
  </metadata>
  <g
     transform="matrix(0.62313312,0,0,0.62313312,-154.13613,-300.13077)"
     id="layer1">
    <g
       style="fill:#363b42;fill-opacity:1"
       transform="matrix(0.94400189,0,0,0.94400189,246.42871,481.64792)"
       id="g4417">
      <path
         style="fill:#363b42;fill-opacity:1"
         d="M 51.704,51.273 36.845,35.82 c 3.79,-3.801 6.138,-9.041 6.138,-14.82 0,-11.58 -9.42,-21 -21,-21 -11.58,0 -21,9.42 -21,21 0,11.58 9.42,21 21,21 5.083,0 9.748,-1.817 13.384,-4.832 l 14.895,15.491 c 0.196,0.205 0.458,0.307 0.721,0.307 0.25,0 0.499,-0.093 0.693,-0.279 0.398,-0.383 0.41,-1.016 0.028,-1.414 z M 21.983,40 c -10.477,0 -19,-8.523 -19,-19 0,-10.477 8.523,-19 19,-19 10.477,0 19,8.523 19,19 0,10.477 -8.524,19 -19,19 z"
         id="path4379"
         inkscape:connector-curvature="0" />
      <g
         style="fill:#363b42;fill-opacity:1"
         id="g4381" />
      <g
         style="fill:#363b42;fill-opacity:1"
         id="g4383" />
      <g
         style="fill:#363b42;fill-opacity:1"
         id="g4385" />
      <g
         style="fill:#363b42;fill-opacity:1"
         id="g4387" />
      <g
         style="fill:#363b42;fill-opacity:1"
         id="g4389" />
      <g
         style="fill:#363b42;fill-opacity:1"
         id="g4391" />
      <g
         style="fill:#363b42;fill-opacity:1"
         id="g4393" />
      <g
         style="fill:#363b42;fill-opacity:1"
         id="g4395" />
      <g
         style="fill:#363b42;fill-opacity:1"
         id="g4397" />
      <g
         style="fill:#363b42;fill-opacity:1"
         id="g4399" />
      <g
         style="fill:#363b42;fill-opacity:1"
         id="g4401" />
      <g
         style="fill:#363b42;fill-opacity:1"
         id="g4403" />
      <g
         style="fill:#363b42;fill-opacity:1"
         id="g4405" />
      <g
         style="fill:#363b42;fill-opacity:1"
         id="g4407" />
      <g
         style="fill:#363b42;fill-opacity:1"
         id="g4409" />
    </g>
  </g>
</svg>
