<?xml version="1.0" encoding="UTF-8" standalone="no"?>
<svg
   xmlns:dc="http://purl.org/dc/elements/1.1/"
   xmlns:cc="http://creativecommons.org/ns#"
   xmlns:rdf="http://www.w3.org/1999/02/22-rdf-syntax-ns#"
   xmlns:svg="http://www.w3.org/2000/svg"
   xmlns="http://www.w3.org/2000/svg"
   version="1.1"
   id="svg5131"
   viewBox="0 0 46.487709 50.000002"
   height="14.111112mm"
   width="13.119864mm">
  <defs
     id="defs5133" />
  <metadata
     id="metadata5136">
    <rdf:RDF>
      <cc:Work
         rdf:about="">
        <dc:format>image/svg+xml</dc:format>
        <dc:type
           rdf:resource="http://purl.org/dc/dcmitype/StillImage" />
        <dc:title></dc:title>
      </cc:Work>
    </rdf:RDF>
  </metadata>
  <g
     transform="translate(-356.75614,-538.79077)"
     id="layer1">
    <g
       style="fill:#363b42;fill-opacity:1"
       transform="matrix(1.1621927,0,0,-1.1621927,259.27224,1001.1974)"
       id="g10">
      <g
         style="fill:#363b42;fill-opacity:1"
         transform="scale(0.1,0.1)"
         id="g12">
        <g
           style="fill:#363b42;fill-opacity:1"
           transform="matrix(13.610645,0,0,-13.610645,83087.549,29704.739)"
           id="g4636">
          <g
             style="fill:#363b42;fill-opacity:1"
             id="g4594">
            <g
               style="fill:#363b42;fill-opacity:1"
               id="g4596">
              <g
                 style="fill:#363b42;fill-opacity:1"
                 id="g4735"
                 transform="matrix(6.2604702,0,0,-6.2604702,-7755.6606,9991.8872)">
                <g
                   style="fill:#363b42;fill-opacity:1"
                   id="g4737"
                   transform="scale(0.1,0.1)">
                  <g
                     style="fill:#363b42;fill-opacity:1"
                     transform="matrix(0.40450688,0,0,0.40450688,2021.6375,10271.247)"
                     id="g6569">
                    <g
                       style="fill:#363b42;fill-opacity:1"
                       transform="matrix(0.17455722,0,0,0.17455722,1478.258,5417.2265)"
                       id="g4435">
                      <path
                         d="m 1976.88,6745.8659 c -75.66,0 -144.0759,-68.4159 -144.0759,-144.0759 0,-75.66 68.4159,-144.0759 144.0759,-144.0759 75.65,0 145.4371,68.4159 145.4371,144.0759 0,75.66 -69.7871,144.0759 -145.4371,144.0759 z m 0,-319.9359 c -96.98,0 -175.87,78.89 -175.87,175.86 0,96.97 78.89,175.86 175.87,175.86 96.97,0 175.86,-78.89 175.86,-175.86 0,-96.97 -78.89,-175.86 -175.86,-175.86"
                         style="fill:#363b42;fill-opacity:1;fill-rule:nonzero;stroke:none"
                         id="path4829" />
                      <path
                         d="m 2309.29,6062.59 -34.5465,0 c 0,161.97 -139.997,297.8635 -301.977,297.8635 -161.98,0 -293.76,-135.8935 -293.76,-297.8635 l -34.5465,0 c 0,183.29 149.12,332.41 332.42,332.41 183.29,0 332.41,-149.12 332.41,-332.41"
                         style="fill:#363b42;fill-opacity:1;fill-rule:nonzero;stroke:none"
                         id="path4835" />
                    </g>
                  </g>
                </g>
              </g>
            </g>
          </g>
          <g
             style="fill:#363b42;fill-opacity:1"
             id="g4600" />
          <g
             style="fill:#363b42;fill-opacity:1"
             id="g4602" />
          <g
             style="fill:#363b42;fill-opacity:1"
             id="g4604" />
          <g
             style="fill:#363b42;fill-opacity:1"
             id="g4606" />
          <g
             style="fill:#363b42;fill-opacity:1"
             id="g4608" />
          <g
             style="fill:#363b42;fill-opacity:1"
             id="g4610" />
          <g
             style="fill:#363b42;fill-opacity:1"
             id="g4612" />
          <g
             style="fill:#363b42;fill-opacity:1"
             id="g4614" />
          <g
             style="fill:#363b42;fill-opacity:1"
             id="g4616" />
          <g
             style="fill:#363b42;fill-opacity:1"
             id="g4618" />
          <g
             style="fill:#363b42;fill-opacity:1"
             id="g4620" />
          <g
             style="fill:#363b42;fill-opacity:1"
             id="g4622" />
          <g
             style="fill:#363b42;fill-opacity:1"
             id="g4624" />
          <g
             style="fill:#363b42;fill-opacity:1"
             id="g4626" />
          <g
             style="fill:#363b42;fill-opacity:1"
             id="g4628" />
        </g>
      </g>
    </g>
  </g>
</svg>
