<?xml version="1.0" encoding="UTF-8" standalone="no"?>
<svg
   xmlns:dc="http://purl.org/dc/elements/1.1/"
   xmlns:cc="http://creativecommons.org/ns#"
   xmlns:rdf="http://www.w3.org/1999/02/22-rdf-syntax-ns#"
   xmlns:svg="http://www.w3.org/2000/svg"
   xmlns="http://www.w3.org/2000/svg"
   viewBox="0 0 140 180"
   height="180"
   width="140"
   xml:space="preserve"
   version="1.1"
   id="svg2"><metadata
     id="metadata8"><rdf:RDF><cc:Work
         rdf:about=""><dc:format>image/svg+xml</dc:format><dc:type
           rdf:resource="http://purl.org/dc/dcmitype/StillImage" /><dc:title></dc:title></cc:Work></rdf:RDF></metadata><defs
     id="defs6"><clipPath
       id="clipPath24"
       clipPathUnits="userSpaceOnUse"><path
         id="path26"
         d="m 2843.72,419.793 47.9727,0 0,477.52 -47.9727,0 0,-477.52 z" /></clipPath><linearGradient
       id="linearGradient28"
       spreadMethod="pad"
       gradientTransform="matrix(-2.52e-5,-576.071,-576.071,2.52e-5,2867.71,924.303)"
       gradientUnits="userSpaceOnUse"
       y2="0"
       x2="1"
       y1="0"
       x1="0"><stop
         id="stop30"
         offset="0"
         style="stop-opacity:1;stop-color:#68ccbc" /><stop
         id="stop32"
         offset="1"
         style="stop-opacity:1;stop-color:#448ba5" /></linearGradient><clipPath
       id="clipPath40"
       clipPathUnits="userSpaceOnUse"><path
         id="path42"
         d="m 2940.8,419.793 0,353.484 47.96,0 0,-353.484 -47.96,0 z m 0,396.102 0,81.418 47.96,0 0,-81.418 -47.96,0 z" /></clipPath><linearGradient
       id="linearGradient44"
       spreadMethod="pad"
       gradientTransform="matrix(-2.52e-5,-576.071,-576.071,2.52e-5,2964.79,924.303)"
       gradientUnits="userSpaceOnUse"
       y2="0"
       x2="1"
       y1="0"
       x1="0"><stop
         id="stop46"
         offset="0"
         style="stop-opacity:1;stop-color:#68ccbc" /><stop
         id="stop48"
         offset="1"
         style="stop-opacity:1;stop-color:#448ba5" /></linearGradient><clipPath
       id="clipPath56"
       clipPathUnits="userSpaceOnUse"><path
         id="path58"
         d="m 3210.83,737.953 c -39.37,0 -72.4,-13.902 -99.09,-41.676 -12.23,-12.812 -21.81,-27.871 -28.72,-45.117 -6.95,-17.707 -10.44,-35.273 -10.44,-52.707 0,-40.183 13.14,-73.75 39.44,-100.703 27.77,-28.398 62.3,-42.59 103.54,-42.59 39.76,0 73.08,15.043 100.07,45.129 24.99,28.203 37.51,60.578 37.51,97.207 0,27.578 -7.67,53.02 -23.01,76.375 -13.26,20.402 -31.17,36.496 -53.66,48.293 -20.43,10.508 -42.31,15.789 -65.64,15.789 z m 188.41,159.36 0,-477.52 -47.98,0 0,63.77 c -16.4,-23.145 -33.35,-39.961 -50.8,-50.489 -24.21,-14.523 -52.08,-21.769 -83.63,-21.769 -57.24,0 -104.57,19.355 -142.03,58.047 -33.87,34.953 -50.83,77.128 -50.83,126.574 0,53.418 18.41,97.929 55.24,133.496 36.18,34.91 80.58,52.391 133.18,52.391 32.41,0 62.69,-7.997 90.9,-24.012 17.89,-10.078 33.86,-23.645 47.97,-40.684 l 0,180.196 47.98,0 z" /></clipPath><linearGradient
       id="linearGradient60"
       spreadMethod="pad"
       gradientTransform="matrix(-2.52e-5,-576.044,-576.044,2.52e-5,3211.6,924.303)"
       gradientUnits="userSpaceOnUse"
       y2="0"
       x2="1"
       y1="0"
       x1="0"><stop
         id="stop62"
         offset="0"
         style="stop-opacity:1;stop-color:#68ccbc" /><stop
         id="stop64"
         offset="1"
         style="stop-opacity:1;stop-color:#448ba5" /></linearGradient><clipPath
       id="clipPath72"
       clipPathUnits="userSpaceOnUse"><path
         id="path74"
         d="m 3754.81,623.992 c -6.95,30.098 -19.67,54.512 -38.2,73.231 -12.64,12.843 -27.76,22.824 -45.44,29.992 -17.45,7.137 -35.36,10.738 -53.65,10.738 -26.09,0 -50.08,-6.961 -71.94,-20.836 -33.47,-21.066 -54.07,-52.07 -61.87,-93.125 l 271.1,0 z m 47.65,-43.222 -319.71,0 c 1.5,-26.094 11.05,-50.5 28.71,-73.223 12,-15.559 27.05,-27.883 45.16,-36.906 20.21,-10.118 41.44,-15.164 63.72,-15.164 34.32,0 64.19,11.453 89.63,34.394 15.39,13.699 26.62,29.141 33.82,46.414 l 49.84,0 c -9.88,-28.64 -27.24,-54.609 -52.08,-77.976 -33.25,-31.348 -73.33,-47.004 -120.24,-47.004 -53.43,0 -98.36,18.937 -134.78,56.808 -34.49,35.977 -51.73,79.317 -51.73,130.02 0,51.758 17.97,95.312 53.95,130.664 35.55,35.351 78.69,53.016 129.4,53.016 42.48,0 80.27,-12.625 113.28,-37.852 35.35,-26.727 57.48,-62.215 66.3,-106.387 3.17,-15.136 4.73,-34.082 4.73,-56.804 z" /></clipPath><linearGradient
       id="linearGradient76"
       spreadMethod="pad"
       gradientTransform="matrix(-2.52e-5,-576.043,-576.043,2.52e-5,3618.63,924.298)"
       gradientUnits="userSpaceOnUse"
       y2="0"
       x2="1"
       y1="0"
       x1="0"><stop
         id="stop78"
         offset="0"
         style="stop-opacity:1;stop-color:#68ccbc" /><stop
         id="stop80"
         offset="1"
         style="stop-opacity:1;stop-color:#448ba5" /></linearGradient><clipPath
       id="clipPath88"
       clipPathUnits="userSpaceOnUse"><path
         id="path90"
         d="m 3807.04,523.953 47.36,0 c 1.28,-19.14 6.2,-34.308 14.83,-45.449 11.99,-15.578 29.15,-23.344 51.43,-23.344 17.07,0 31.04,5.481 42.01,16.41 11.77,11.797 17.64,26.836 17.64,45.118 0,20.41 -7.56,35.683 -22.71,45.781 -9.03,6.094 -24.18,13.476 -45.44,22.066 -27.36,11.176 -43.55,18.332 -48.61,21.488 -29.04,18.094 -43.55,43.543 -43.55,76.368 0,28.613 9.57,52.398 28.72,71.328 18.73,18.73 42.49,28.094 71.33,28.094 35.35,0 62.69,-13.274 82.06,-39.778 10.94,-15.359 16.83,-33.98 17.68,-55.855 l -48.62,0 c -1.24,17.675 -6.4,30.605 -15.46,38.828 -9.45,8.613 -21.46,12.945 -35.96,12.945 -13.9,0 -25.79,-4.742 -35.68,-14.207 -10.3,-10.117 -15.46,-22.305 -15.46,-36.641 0,-20.378 10.73,-35.945 32.19,-46.679 7.14,-3.602 29.44,-13.164 66.91,-28.723 40.82,-17.058 61.22,-47.137 61.22,-90.269 0,-32.61 -10.42,-59.329 -31.23,-80.168 -19.81,-19.969 -45.46,-29.961 -77.04,-29.961 -26.06,0 -48.8,6.601 -68.16,19.863 -29.69,20.203 -44.79,51.145 -45.46,92.785 z" /></clipPath><linearGradient
       id="linearGradient92"
       spreadMethod="pad"
       gradientTransform="matrix(-2.52e-5,-576.043,-576.043,2.52e-5,3917.99,924.298)"
       gradientUnits="userSpaceOnUse"
       y2="0"
       x2="1"
       y1="0"
       x1="0"><stop
         id="stop94"
         offset="0"
         style="stop-opacity:1;stop-color:#68ccbc" /><stop
         id="stop96"
         offset="1"
         style="stop-opacity:1;stop-color:#448ba5" /></linearGradient><clipPath
       id="clipPath104"
       clipPathUnits="userSpaceOnUse"><path
         id="path106"
         d="m 2665.18,713.66 c 2.22,3.574 4.73,6.934 7.95,10.086 9.88,9.465 21.75,14.207 35.65,14.207 14.52,0 26.51,-4.332 35.97,-12.945 9.08,-8.223 14.21,-21.153 15.48,-38.828 l 48.61,0 c -0.84,21.875 -6.76,40.496 -17.69,55.855 -19.35,26.504 -46.72,39.778 -82.07,39.778 -6.94,0 -13.54,-0.575 -19.91,-1.68 l -23.99,-66.473 z" /></clipPath><linearGradient
       id="linearGradient108"
       spreadMethod="pad"
       gradientTransform="matrix(-2.52e-5,-575.991,-575.991,2.52e-5,2737.01,924.288)"
       gradientUnits="userSpaceOnUse"
       y2="0"
       x2="1"
       y1="0"
       x1="0"><stop
         id="stop110"
         offset="0"
         style="stop-opacity:1;stop-color:#68ccbc" /><stop
         id="stop112"
         offset="1"
         style="stop-opacity:1;stop-color:#448ba5" /></linearGradient><clipPath
       id="clipPath120"
       clipPathUnits="userSpaceOnUse"><path
         id="path122"
         d="m 2756.74,611.703 c -37.46,15.559 -59.77,25.121 -66.91,28.723 -21.44,10.734 -32.18,26.301 -32.18,46.679 0,2.649 0.36,5.129 0.7,7.61 l -26.05,-72.336 c 5.75,-5.984 12.42,-11.473 20.31,-16.356 5.04,-3.156 21.23,-10.312 48.6,-21.488 21.24,-8.59 36.41,-15.972 45.45,-22.066 15.13,-10.098 22.72,-25.371 22.72,-45.781 0,-18.282 -5.9,-33.321 -17.67,-45.118 -10.95,-10.929 -24.94,-16.41 -41.99,-16.41 -22.31,0 -39.44,7.766 -51.43,23.344 -8.64,11.141 -13.58,26.309 -14.84,45.449 l -46.61,0 -0.62,-1.75 c 1.03,-40.742 16.06,-71.113 45.34,-91.035 19.33,-13.262 42.07,-19.863 68.16,-19.863 31.58,0 57.23,9.992 77.01,29.961 20.84,20.839 31.23,47.558 31.23,80.168 0,43.132 -20.38,73.211 -61.22,90.269 z" /></clipPath><linearGradient
       id="linearGradient124"
       spreadMethod="pad"
       gradientTransform="matrix(-2.52e-5,-576.051,-576.051,2.52e-5,2707.09,924.308)"
       gradientUnits="userSpaceOnUse"
       y2="0"
       x2="1"
       y1="0"
       x1="0"><stop
         id="stop126"
         offset="0"
         style="stop-opacity:1;stop-color:#68ccbc" /><stop
         id="stop128"
         offset="1"
         style="stop-opacity:1;stop-color:#448ba5" /></linearGradient><linearGradient
       id="linearGradient132"
       spreadMethod="pad"
       gradientTransform="matrix(-311.055,-1221.18,-1221.18,311.055,953.47375,1185.51)"
       gradientUnits="userSpaceOnUse"
       y2="0"
       x2="1"
       y1="0"
       x1="0"><stop
         id="stop134"
         offset="0"
         style="stop-opacity:1;stop-color:#448ba5" /><stop
         id="stop136"
         offset="1"
         style="stop-opacity:1;stop-color:#68ccbc" /></linearGradient><clipPath
       id="clipPath144"
       clipPathUnits="userSpaceOnUse"><path
         id="path146"
         d="m 637.613,140.93 c -14.617,-22.782 -32.148,-42.6019 -46.004,-66.1409 46.606,9.9492 89.172,23.9218 140.907,28.7419 29.675,40.348 62.504,77.489 86.289,123.68 -20.641,-2.41 -37.696,-8.313 -60.399,-8.652 -17.199,-21.11 -30.226,-46.457 -48.886,-66.11 -24.477,-3.328 -44.719,-10.91 -71.907,-11.519 z" /></clipPath><linearGradient
       id="linearGradient148"
       spreadMethod="pad"
       gradientTransform="matrix(-165.012,-1022.58,-1022.58,165.012,814.13775,1169.27)"
       gradientUnits="userSpaceOnUse"
       y2="0"
       x2="1"
       y1="0"
       x1="0"><stop
         id="stop150"
         offset="0"
         style="stop-opacity:1;stop-color:#448ba5" /><stop
         id="stop152"
         offset="1"
         style="stop-opacity:1;stop-color:#68ccbc" /></linearGradient><clipPath
       id="clipPath160"
       clipPathUnits="userSpaceOnUse"><path
         id="path162"
         d="M 556.621,21.0195 591.609,74.7891 499.566,54.6406 462.156,0 556.621,21.0195 Z" /></clipPath><linearGradient
       id="linearGradient164"
       spreadMethod="pad"
       gradientTransform="matrix(-389.998,-1090,-1090,389.998,855.77375,1147.46)"
       gradientUnits="userSpaceOnUse"
       y2="0"
       x2="1"
       y1="0"
       x1="0"><stop
         id="stop166"
         offset="0"
         style="stop-opacity:1;stop-color:#448ba5" /><stop
         id="stop168"
         offset="1"
         style="stop-opacity:1;stop-color:#68ccbc" /></linearGradient><clipPath
       id="clipPath176"
       clipPathUnits="userSpaceOnUse"><path
         id="path178"
         d="m 568.578,152.449 -29.152,-3.578 c -5.578,-1.172 -11.391,-2.121 -18.063,-2.211 l -15.367,-1.89 22.5,41.25 66.875,8.75 -26.793,-42.321 z M 1028.73,1038.27 C 818.254,1128.78 607.141,1218.68 396.016,1308.6 452.23,1123.75 504.195,900.203 504.504,675.555 l -0.383,0.027 c 0.051,-10.066 0.219,-25.469 -0.254,-45.332 -0.719,-23.555 -2.262,-47.078 -4.019,-70.586 C 491.621,449.773 461.77,357.078 455,330.77 446.25,301.949 435.996,272.078 423.871,241.328 l 105.106,9.652 c 0.73,-0.261 1.554,-0.429 2.214,-0.761 -12.773,-23.641 -22.988,-49.867 -37.378,-71.899 -33.278,-7.011 -69.016,-11.531 -106.442,-14.379 -12.941,-26.363 -27.726,-50.871 -43.117,-74.7496 37.66,3.5274 70.41,11.9996 109.277,14.3396 L 437.773,80.6211 c -1.742,-2.6016 -3.527,-5.1602 -5.355,-7.7813 L 407.07,35.9805 c 0.149,-0.4922 0.137,-1.0117 0.442,-1.461 30.008,7.3907 59.312,15.461 92.054,20.1211 17.704,21.6094 30.161,48.4374 48.872,69.0394 27.285,7.23 59.98,9.039 86.312,17.25 16.676,21.64 30.02,46.679 48.871,66.14 26.258,2.508 52.727,4.84 74.785,11.489 8.227,21.14 22.668,36.082 31.684,56.382 l 63.418,5.821 c 59.363,107.761 102.18,232.781 115.996,280.679 7.43,24.739 72.116,250.832 59.226,476.829 z" /></clipPath><linearGradient
       id="linearGradient180"
       spreadMethod="pad"
       gradientTransform="matrix(-389.998,-1090,-1090,389.998,710.14875,1199.56)"
       gradientUnits="userSpaceOnUse"
       y2="0"
       x2="1"
       y1="0"
       x1="0"><stop
         id="stop182"
         offset="0"
         style="stop-opacity:1;stop-color:#448ba5" /><stop
         id="stop184"
         offset="1"
         style="stop-opacity:1;stop-color:#68ccbc" /></linearGradient><clipPath
       id="clipPath192"
       clipPathUnits="userSpaceOnUse"><path
         id="path194"
         d="m 437.773,80.6211 15.758,22.9099 C 448.688,97.1719 443.422,89.0391 437.773,80.6211 Z" /></clipPath><linearGradient
       id="linearGradient196"
       spreadMethod="pad"
       gradientTransform="matrix(-164.999,-1022.5,-1022.5,164.999,570.42675,1208.52)"
       gradientUnits="userSpaceOnUse"
       y2="0"
       x2="1"
       y1="0"
       x1="0"><stop
         id="stop198"
         offset="0"
         style="stop-opacity:1;stop-color:#448ba5" /><stop
         id="stop200"
         offset="1"
         style="stop-opacity:1;stop-color:#68ccbc" /></linearGradient><clipPath
       id="clipPath208"
       clipPathUnits="userSpaceOnUse"><path
         id="path210"
         d="M 427.02,1091.95 C 326.445,1106.1 225.836,1120.14 125.227,1134.18 217.41,986.813 314.918,804.82 367.91,609.781 l -0.039,-0.008 c 53.336,-228.332 38.188,-316.695 38.188,-316.695 l 9.734,4.184 c 25.316,60.246 48.621,220.324 49.184,221.133 22.796,193.105 0.882,391.671 -37.957,573.555 z" /></clipPath><linearGradient
       id="linearGradient212"
       spreadMethod="pad"
       gradientTransform="matrix(116.25,-800,-800,-116.25,237.13075,1157.26)"
       gradientUnits="userSpaceOnUse"
       y2="0"
       x2="1"
       y1="0"
       x1="0"><stop
         id="stop214"
         offset="0"
         style="stop-opacity:1;stop-color:#448ba5" /><stop
         id="stop216"
         offset="1"
         style="stop-opacity:1;stop-color:#68ccbc" /></linearGradient><clipPath
       id="clipPath224"
       clipPathUnits="userSpaceOnUse"><path
         id="path226"
         d="m 435.043,931.91 c -6.551,46.375 -14.629,93.7 -24.699,142.19 -81.926,11.51 -163.856,22.97 -245.805,34.4 91.691,-151.129 158.066,-290.613 201.613,-423.512 6.465,16.629 56.305,137.285 68.891,246.922 z" /></clipPath><linearGradient
       id="linearGradient228"
       spreadMethod="pad"
       gradientTransform="matrix(269.995,-463.321,-463.321,-269.995,176.66175,1231.48)"
       gradientUnits="userSpaceOnUse"
       y2="0"
       x2="1"
       y1="0"
       x1="0"><stop
         id="stop230"
         offset="0"
         style="stop-opacity:1;stop-color:#448ba5" /><stop
         id="stop232"
         offset="1"
         style="stop-opacity:1;stop-color:#68ccbc" /></linearGradient><clipPath
       id="clipPath240"
       clipPathUnits="userSpaceOnUse"><path
         id="path242"
         d="m 374.121,229.77 c 27.184,162.218 -32.969,368.8 -71.324,477.757 -9.192,25.45 -18.793,50.536 -28.719,75.176 C 182.742,779.676 91.3633,776.57 0,773.473 131.363,627.195 278.828,433.836 347.602,215.859 c 7.628,3.243 17.378,8.032 27.828,13.129 l -1.309,0.782 z" /></clipPath><linearGradient
       id="linearGradient244"
       spreadMethod="pad"
       gradientTransform="matrix(332.667,-558.183,-558.183,-332.667,57.13575,902.71302)"
       gradientUnits="userSpaceOnUse"
       y2="0"
       x2="1"
       y1="0"
       x1="0"><stop
         id="stop246"
         offset="0"
         style="stop-opacity:1;stop-color:#448ba5" /><stop
         id="stop248"
         offset="1"
         style="stop-opacity:1;stop-color:#68ccbc" /></linearGradient><clipPath
       id="clipPath256"
       clipPathUnits="userSpaceOnUse"><path
         id="path258"
         d="M 43.1055,754.918 C 117.59,669.383 179.949,586.668 231.035,505.875 c 37.035,80.625 50.551,183.359 52.817,195.227 -7.344,20.308 -15.102,40.82 -23.145,61.14 -72.519,-2.402 -145.062,-4.863 -217.6015,-7.324 z" /></clipPath><linearGradient
       id="linearGradient260"
       spreadMethod="pad"
       gradientTransform="matrix(299.255,-502.121,-502.121,-299.255,-4.5343502,1011.619)"
       gradientUnits="userSpaceOnUse"
       y2="0"
       x2="1"
       y1="0"
       x1="0"><stop
         id="stop262"
         offset="0"
         style="stop-opacity:1;stop-color:#448ba5" /><stop
         id="stop264"
         offset="1"
         style="stop-opacity:1;stop-color:#68ccbc" /></linearGradient><clipPath
       id="clipPath272"
       clipPathUnits="userSpaceOnUse"><path
         id="path274"
         d="m 524.188,656.363 c -0.008,-7.683 -0.09,-16.621 -0.333,-26.718 -0.773,-25.45 -2.488,-50.411 -4.058,-71.473 -4.106,-54.797 -13.359,-104.961 -22.613,-145.305 284.437,251.906 440.707,642.653 404.836,658.023 -158.704,68.02 -318.579,136.14 -474.707,202.64 65.125,-223.96 96.945,-419.94 97.191,-597.948 l -0.316,-19.219 z" /></clipPath><linearGradient
       id="linearGradient276"
       spreadMethod="pad"
       gradientTransform="matrix(89.9995,-723.331,-723.331,-89.9995,598.42475,1275.53)"
       gradientUnits="userSpaceOnUse"
       y2="0"
       x2="1"
       y1="0"
       x1="0"><stop
         id="stop278"
         offset="0"
         style="stop-opacity:1;stop-color:#448ba5" /><stop
         id="stop280"
         offset="1"
         style="stop-opacity:1;stop-color:#68ccbc" /></linearGradient></defs><g
     transform="matrix(1.25,0,0,-1.25,0,180)"
     id="g10"><g
       transform="scale(0.1,0.1)"
       id="g12"><g
         transform="translate(44.78825,65.7)"
         id="g4410"><path
           d="m 744,463.035 c 17.406,-2.754 31.703,-0.93 48.914,-2.863 -4.062,-15.125 -8.383,-29.961 -14.391,-43.145 15.989,-1.054 52.555,0.723 77.676,0 -9.125,-20.605 -18.422,-41.023 -25.883,-63.281 22.457,-7.93 33.633,2.598 60.383,0 C 882.18,330.652 869,312.195 859.066,290.48 c -22.32,-0.718 -43.136,-2.851 -63.269,-5.742 11.68,19.922 22.672,40.59 31.652,63.266 -20.738,6.289 -49.676,-3.984 -74.808,-2.852 5.382,24.309 17.089,42.356 23.027,66.125 -4.824,11.485 -29.352,3.258 -43.152,5.75 2.472,16.692 7.703,30.645 11.484,46.008"
           style="fill:url(#linearGradient132);fill-opacity:1;fill-rule:evenodd;stroke:none"
           id="path138" /><g
           id="g140"><g
             id="g142"
             clip-path="url(#clipPath144)"><path
               d="m 637.613,140.93 c -14.617,-22.782 -32.148,-42.6019 -46.004,-66.1409 46.606,9.9492 89.172,23.9218 140.907,28.7419 29.675,40.348 62.504,77.489 86.289,123.68 -20.641,-2.41 -37.696,-8.313 -60.399,-8.652 -17.199,-21.11 -30.226,-46.457 -48.886,-66.11 -24.477,-3.328 -44.719,-10.91 -71.907,-11.519"
               style="fill:url(#linearGradient148);fill-opacity:1;fill-rule:nonzero;stroke:none"
               id="path154" /></g></g><g
           id="g156"><g
             id="g158"
             clip-path="url(#clipPath160)"><path
               d="M 556.621,21.0195 591.609,74.7891 499.566,54.6406 462.156,0 556.621,21.0195"
               style="fill:url(#linearGradient164);fill-opacity:1;fill-rule:nonzero;stroke:none"
               id="path170" /></g></g><g
           id="g172"><g
             id="g174"
             clip-path="url(#clipPath176)"><path
               d="m 568.578,152.449 -29.152,-3.578 c -5.578,-1.172 -11.391,-2.121 -18.063,-2.211 l -15.367,-1.89 22.5,41.25 66.875,8.75 -26.793,-42.321 z M 1028.73,1038.27 C 818.254,1128.78 607.141,1218.68 396.016,1308.6 452.23,1123.75 504.195,900.203 504.504,675.555 l -0.383,0.027 c 0.051,-10.066 0.219,-25.469 -0.254,-45.332 -0.719,-23.555 -2.262,-47.078 -4.019,-70.586 C 491.621,449.773 461.77,357.078 455,330.77 446.25,301.949 435.996,272.078 423.871,241.328 l 105.106,9.652 c 0.73,-0.261 1.554,-0.429 2.214,-0.761 -12.773,-23.641 -22.988,-49.867 -37.378,-71.899 -33.278,-7.011 -69.016,-11.531 -106.442,-14.379 -12.941,-26.363 -27.726,-50.871 -43.117,-74.7496 37.66,3.5274 70.41,11.9996 109.277,14.3396 L 437.773,80.6211 c -1.742,-2.6016 -3.527,-5.1602 -5.355,-7.7813 L 407.07,35.9805 c 0.149,-0.4922 0.137,-1.0117 0.442,-1.461 30.008,7.3907 59.312,15.461 92.054,20.1211 17.704,21.6094 30.161,48.4374 48.872,69.0394 27.285,7.23 59.98,9.039 86.312,17.25 16.676,21.64 30.02,46.679 48.871,66.14 26.258,2.508 52.727,4.84 74.785,11.489 8.227,21.14 22.668,36.082 31.684,56.382 l 63.418,5.821 c 59.363,107.761 102.18,232.781 115.996,280.679 7.43,24.739 72.116,250.832 59.226,476.829"
               style="fill:url(#linearGradient180);fill-opacity:1;fill-rule:nonzero;stroke:none"
               id="path186" /></g></g><g
           id="g188"><g
             id="g190"
             clip-path="url(#clipPath192)"><path
               d="m 437.773,80.6211 15.758,22.9099 C 448.688,97.1719 443.422,89.0391 437.773,80.6211"
               style="fill:url(#linearGradient196);fill-opacity:1;fill-rule:nonzero;stroke:none"
               id="path202" /></g></g><g
           id="g204"><g
             id="g206"
             clip-path="url(#clipPath208)"><path
               d="M 427.02,1091.95 C 326.445,1106.1 225.836,1120.14 125.227,1134.18 217.41,986.813 314.918,804.82 367.91,609.781 l -0.039,-0.008 c 53.336,-228.332 38.188,-316.695 38.188,-316.695 l 9.734,4.184 c 25.316,60.246 48.621,220.324 49.184,221.133 22.796,193.105 0.882,391.671 -37.957,573.555"
               style="fill:url(#linearGradient212);fill-opacity:1;fill-rule:nonzero;stroke:none"
               id="path218" /></g></g><g
           id="g220"><g
             id="g222"
             clip-path="url(#clipPath224)"><path
               d="m 435.043,931.91 c -6.551,46.375 -14.629,93.7 -24.699,142.19 -81.926,11.51 -163.856,22.97 -245.805,34.4 91.691,-151.129 158.066,-290.613 201.613,-423.512 6.465,16.629 56.305,137.285 68.891,246.922"
               style="fill:url(#linearGradient228);fill-opacity:1;fill-rule:nonzero;stroke:none"
               id="path234" /></g></g><g
           id="g236"><g
             id="g238"
             clip-path="url(#clipPath240)"><path
               d="m 374.121,229.77 c 27.184,162.218 -32.969,368.8 -71.324,477.757 -9.192,25.45 -18.793,50.536 -28.719,75.176 C 182.742,779.676 91.3633,776.57 0,773.473 131.363,627.195 278.828,433.836 347.602,215.859 c 7.628,3.243 17.378,8.032 27.828,13.129 l -1.309,0.782"
               style="fill:url(#linearGradient244);fill-opacity:1;fill-rule:nonzero;stroke:none"
               id="path250" /></g></g><g
           id="g252"><g
             id="g254"
             clip-path="url(#clipPath256)"><path
               d="M 43.1055,754.918 C 117.59,669.383 179.949,586.668 231.035,505.875 c 37.035,80.625 50.551,183.359 52.817,195.227 -7.344,20.308 -15.102,40.82 -23.145,61.14 -72.519,-2.402 -145.062,-4.863 -217.6015,-7.324"
               style="fill:url(#linearGradient260);fill-opacity:1;fill-rule:nonzero;stroke:none"
               id="path266" /></g></g><g
           id="g268"><g
             id="g270"
             clip-path="url(#clipPath272)"><path
               d="m 524.188,656.363 c -0.008,-7.683 -0.09,-16.621 -0.333,-26.718 -0.773,-25.45 -2.488,-50.411 -4.058,-71.473 -4.106,-54.797 -13.359,-104.961 -22.613,-145.305 284.437,251.906 440.707,642.653 404.836,658.023 -158.704,68.02 -318.579,136.14 -474.707,202.64 65.125,-223.96 96.945,-419.94 97.191,-597.948 l -0.316,-19.219"
               style="fill:url(#linearGradient276);fill-opacity:1;fill-rule:nonzero;stroke:none"
               id="path282" /></g></g></g></g></g></svg>