<svg id="Layer_1" data-name="Layer 1" xmlns="http://www.w3.org/2000/svg" xmlns:xlink="http://www.w3.org/1999/xlink" viewBox="0 0 184.73 60"><defs><style>.cls-1{fill:#fcfcfc;}.cls-2{fill:url(#linear-gradient);}.cls-3{fill:url(#linear-gradient-2);}.cls-4{fill:url(#linear-gradient-3);}.cls-5{fill:url(#linear-gradient-4);}.cls-6{fill:url(#linear-gradient-5);}.cls-7{fill:url(#linear-gradient-6);}.cls-8{fill:url(#linear-gradient-7);}.cls-9{fill-rule:evenodd;fill:url(#linear-gradient-8);}.cls-10{fill:url(#linear-gradient-9);}.cls-11{fill:url(#linear-gradient-10);}.cls-12{fill:url(#linear-gradient-11);}.cls-13{fill:url(#linear-gradient-12);}.cls-14{fill:url(#linear-gradient-13);}.cls-15{fill:url(#linear-gradient-14);}.cls-16{fill:url(#linear-gradient-15);}.cls-17{fill:url(#linear-gradient-16);}.cls-18{fill:url(#linear-gradient-17);}</style><linearGradient id="linear-gradient" x1="131.49" y1="17.62" x2="131.49" y2="44.03" gradientUnits="userSpaceOnUse"><stop offset="0" stop-color="#5cc4bf"/><stop offset="1" stop-color="#3789a1"/></linearGradient><linearGradient id="linear-gradient-2" x1="135.94" y1="17.62" x2="135.94" y2="44.03" xlink:href="#linear-gradient"/><linearGradient id="linear-gradient-3" x1="147.25" y1="17.62" x2="147.25" y2="44.03" xlink:href="#linear-gradient"/><linearGradient id="linear-gradient-4" x1="165.92" y1="17.62" x2="165.92" y2="44.03" xlink:href="#linear-gradient"/><linearGradient id="linear-gradient-5" x1="179.64" y1="17.62" x2="179.64" y2="44.03" xlink:href="#linear-gradient"/><linearGradient id="linear-gradient-6" x1="125.49" y1="17.62" x2="125.49" y2="44.03" xlink:href="#linear-gradient"/><linearGradient id="linear-gradient-7" x1="124.12" y1="17.62" x2="124.12" y2="44.03" xlink:href="#linear-gradient"/><linearGradient id="linear-gradient-8" x1="45.77" y1="8.66" x2="31.51" y2="64.65" gradientUnits="userSpaceOnUse"><stop offset="0" stop-color="#3789a1"/><stop offset="1" stop-color="#5cc4bf"/></linearGradient><linearGradient id="linear-gradient-9" x1="39.38" y1="9.4" x2="31.82" y2="56.29" xlink:href="#linear-gradient-8"/><linearGradient id="linear-gradient-10" x1="41.29" y1="10.4" x2="23.41" y2="60.38" xlink:href="#linear-gradient-8"/><linearGradient id="linear-gradient-11" x1="34.61" y1="8.01" x2="16.73" y2="57.99" xlink:href="#linear-gradient-8"/><linearGradient id="linear-gradient-12" x1="28.21" y1="7.6" x2="20.64" y2="54.48" xlink:href="#linear-gradient-8"/><linearGradient id="linear-gradient-13" x1="12.93" y1="9.95" x2="18.26" y2="46.63" xlink:href="#linear-gradient-8"/><linearGradient id="linear-gradient-14" x1="10.15" y1="6.55" x2="22.53" y2="27.79" xlink:href="#linear-gradient-8"/><linearGradient id="linear-gradient-15" x1="4.67" y1="21.62" x2="19.93" y2="47.22" xlink:href="#linear-gradient-8"/><linearGradient id="linear-gradient-16" x1="1.85" y1="16.63" x2="15.57" y2="39.65" xlink:href="#linear-gradient-8"/><linearGradient id="linear-gradient-17" x1="29.49" y1="4.53" x2="33.62" y2="37.69" xlink:href="#linear-gradient-8"/></defs><title>WowslidesLogo</title><path class="cls-1" d="M64.67,40.75,58.81,24.33h4.24l2.94,10,2.75-10h3.15l2.69,10,3-10h4.21L75.86,40.75H73.4L70.29,30.1,67.1,40.75Z" transform="translate(0)"/><path class="cls-1" d="M90.32,23.94a8.89,8.89,0,0,1,4.42,1.17,8.33,8.33,0,0,1,3.4,3.53,8.87,8.87,0,0,1,.94,4,8.16,8.16,0,0,1-1.29,4.39A8.5,8.5,0,0,1,94.3,40.2a8.75,8.75,0,0,1-11.72-3.75,8.27,8.27,0,0,1-1-3.9,8.41,8.41,0,0,1,1.25-4.47,8.78,8.78,0,0,1,7.44-4.14Zm0,3.61A4.5,4.5,0,0,0,87,29a4.87,4.87,0,0,0-1.4,3.47A5,5,0,0,0,87,36.09a4.63,4.63,0,0,0,6.66,0,5.15,5.15,0,0,0,0-7.13A4.51,4.51,0,0,0,90.34,27.55Z" transform="translate(0)"/><path class="cls-1" d="M104.38,40.75,98.52,24.33h4.24l2.94,10,2.75-10h3.15l2.69,10,3-10h4.22l-5.92,16.42h-2.46L110,30.1l-3.19,10.65Z" transform="translate(0)"/><path class="cls-2" d="M130.39,40.75V18.86h2.2V40.75Z" transform="translate(0)"/><path class="cls-3" d="M134.84,22.59V18.86H137v3.73Zm0,18.16V24.54H137V40.75Z" transform="translate(0)"/><path class="cls-4" d="M155.86,18.86V40.75h-2.2V37.83a8.18,8.18,0,0,1-2.33,2.31,7.28,7.28,0,0,1-3.84,1A8.7,8.7,0,0,1,141,38.48a8,8,0,0,1-2.33-5.8,8.15,8.15,0,0,1,2.53-6.12,8.75,8.75,0,0,1,10.28-1.31,8.09,8.09,0,0,1,2.2,1.87V18.86Zm-8.64,7.3a6.05,6.05,0,0,0-4.55,1.92,6.2,6.2,0,0,0-1.31,2.06,6.6,6.6,0,0,0-.48,2.42,6.42,6.42,0,0,0,6.55,6.57A5.9,5.9,0,0,0,152,37.06a6.5,6.5,0,0,0,1.72-4.46,6.27,6.27,0,0,0-1.05-3.5,6.55,6.55,0,0,0-5.47-2.94Z" transform="translate(0)"/><path class="cls-5" d="M174.34,33.37H159.69a6.18,6.18,0,0,0,3.38,5.05,6.51,6.51,0,0,0,2.92.7,5.93,5.93,0,0,0,4.11-1.58,5.83,5.83,0,0,0,1.55-2.13h2.29A8.93,8.93,0,0,1,171.55,39,7.76,7.76,0,0,1,166,41.14a8.48,8.48,0,0,1-8.55-8.56,8.37,8.37,0,0,1,8.4-8.43,8.34,8.34,0,0,1,5.2,1.74,7.84,7.84,0,0,1,3,4.88A13.43,13.43,0,0,1,174.34,33.37Zm-2.18-2A6.86,6.86,0,0,0,170.41,28a6,6,0,0,0-2.09-1.37,6.4,6.4,0,0,0-2.46-.5,6,6,0,0,0-3.29,1,6.17,6.17,0,0,0-2.84,4.27Z" transform="translate(0)"/><path class="cls-6" d="M174.55,36h2.18a3.65,3.65,0,0,0,.68,2.08,2.8,2.8,0,0,0,2.35,1.07,2.61,2.61,0,0,0,1.93-.75,2.8,2.8,0,0,0,.81-2.07,2.35,2.35,0,0,0-1-2.1,12.05,12.05,0,0,0-2.09-1,20.24,20.24,0,0,1-2.22-1,3.89,3.89,0,0,1-2-3.5A4.65,4.65,0,0,1,183.5,26a4.63,4.63,0,0,1,.81,2.56h-2.23a2.55,2.55,0,0,0-.71-1.78,2.33,2.33,0,0,0-1.65-.6,2.34,2.34,0,0,0-2.34,2.34,2.33,2.33,0,0,0,1.47,2.14c.33.16,1.35.6,3.07,1.31a4.18,4.18,0,0,1,2.81,4.14,5,5,0,0,1-1.43,3.68,4.79,4.79,0,0,1-3.54,1.37,5.38,5.38,0,0,1-3.12-.91A4.89,4.89,0,0,1,174.55,36Z" transform="translate(0)"/><path class="cls-7" d="M122.2,27.28a2.29,2.29,0,0,1,2-1.12,2.36,2.36,0,0,1,1.65.6,2.59,2.59,0,0,1,.71,1.78h2.23A4.63,4.63,0,0,0,128,26a4.4,4.4,0,0,0-3.77-1.83,5.31,5.31,0,0,0-.91.08Z" transform="translate(0)"/><path class="cls-8" d="M126.4,32c-1.72-.71-2.74-1.15-3.07-1.31a2.34,2.34,0,0,1-1.48-2.14,1.87,1.87,0,0,1,0-.35l-1.2,3.31a4.63,4.63,0,0,0,.93.75,20.84,20.84,0,0,0,2.23,1,12.05,12.05,0,0,1,2.09,1,2.35,2.35,0,0,1,1,2.1,2.8,2.8,0,0,1-.81,2.07,2.62,2.62,0,0,1-1.93.75,2.82,2.82,0,0,1-2.36-1.07A3.81,3.81,0,0,1,121.2,36h-2.13l0,.08a4.83,4.83,0,0,0,2.08,4.17,5.36,5.36,0,0,0,3.12.91,4.75,4.75,0,0,0,3.53-1.37,5,5,0,0,0,1.43-3.68A4.17,4.17,0,0,0,126.4,32Z" transform="translate(0)"/><path class="cls-9" d="M34.11,38.77c.8.13,1.46,0,2.25.13a14.36,14.36,0,0,1-.66,2c.73,0,2.41,0,3.56,0-.42.94-.85,1.88-1.19,2.9,1,.36,1.54-.12,2.77,0-.39,1.06-1,1.91-1.45,2.9a26,26,0,0,0-2.9.26A21.2,21.2,0,0,0,37.94,44c-.95-.28-2.28.19-3.43.13.25-1.11.78-1.94,1.05-3-.22-.52-1.34-.15-2-.26A21,21,0,0,1,34.11,38.77Z" transform="translate(0)"/><path class="cls-10" d="M29.23,53.54c-.67,1-1.47,2-2.1,3a50.84,50.84,0,0,1,6.46-1.32,42.41,42.41,0,0,0,3.95-5.67,25.26,25.26,0,0,1-2.77.4c-.79,1-1.38,2.13-2.24,3A26.78,26.78,0,0,1,29.23,53.54Z" transform="translate(0)"/><polygon class="cls-11" points="25.52 59.04 27.13 56.57 22.91 57.49 21.19 60 25.52 59.04"/><path class="cls-12" d="M47.17,12.39Q32.7,6.18,18.16,0c2.58,8.48,5,18.73,5,29h0c0,.47,0,1.17,0,2.08,0,1.08-.1,2.16-.18,3.24a52.9,52.9,0,0,1-2.06,10.49c-.4,1.33-.87,2.7-1.43,4.1l4.82-.44.11,0c-.59,1.08-1.06,2.28-1.72,3.29a35.94,35.94,0,0,1-4.88.66,31.92,31.92,0,0,1-2,3.43c1.73-.16,3.23-.55,5-.66l-.72,1-.24.36-1.17,1.69s0,0,0,.07a43.1,43.1,0,0,1,4.23-.93c.81-1,1.38-2.22,2.24-3.16,1.25-.33,2.75-.42,4-.79a35.93,35.93,0,0,1,2.24-3A19.28,19.28,0,0,0,34.77,50c.38-1,1-1.66,1.46-2.59l2.9-.26a70.44,70.44,0,0,0,5.32-12.87C44.79,33.12,47.76,22.76,47.17,12.39ZM26.07,53l-1.34.16a4.07,4.07,0,0,1-.83.11l-.7.08,1-1.89,3.07-.4Z" transform="translate(0)"/><path class="cls-13" d="M20.07,56.3l.72-1C20.57,55.54,20.33,55.92,20.07,56.3Z" transform="translate(0)"/><path class="cls-14" d="M19.58,9.93,5.74,8c4.23,6.75,8.7,15.1,11.13,24h0c2.44,10.47,1.75,14.52,1.75,14.52l.44-.19c1.17-2.76,2.23-10.1,2.26-10.14C22.36,27.38,21.36,18.27,19.58,9.93Z" transform="translate(0)"/><path class="cls-15" d="M20,17.27c-.3-2.13-.67-4.29-1.14-6.52L7.54,9.17a94.36,94.36,0,0,1,9.25,19.42A49.4,49.4,0,0,0,20,17.27Z" transform="translate(0)"/><path class="cls-16" d="M17.15,49.46c1.25-7.43-1.51-16.9-3.27-21.9-.42-1.17-.86-2.32-1.31-3.45L0,24.54c6,6.7,12.78,15.57,15.94,25.56.35-.15.79-.37,1.27-.6Z" transform="translate(0)"/><path class="cls-17" d="M2,25.39a93.63,93.63,0,0,1,8.61,11.42,36.75,36.75,0,0,0,2.42-9c-.33-.93-.69-1.87-1.06-2.8Z" transform="translate(0)"/><path class="cls-18" d="M24,29.91c0,.35,0,.76,0,1.22,0,1.17-.12,2.31-.19,3.28a46,46,0,0,1-1,6.66C35.84,29.52,43,11.6,41.36,10.9,34.08,7.78,26.75,4.66,19.59,1.61,22.58,11.88,24,20.86,24.05,29Z" transform="translate(0)"/></svg>