<?xml version="1.0" encoding="UTF-8" standalone="no"?>
<svg
   xmlns:dc="http://purl.org/dc/elements/1.1/"
   xmlns:cc="http://creativecommons.org/ns#"
   xmlns:rdf="http://www.w3.org/1999/02/22-rdf-syntax-ns#"
   xmlns:svg="http://www.w3.org/2000/svg"
   xmlns="http://www.w3.org/2000/svg"
   viewBox="0 0 600 450.00113"
   height="450.00113"
   width="600"
   xml:space="preserve"
   version="1.1"
   id="svg2"><metadata
     id="metadata8"><rdf:RDF><cc:Work
         rdf:about=""><dc:format>image/svg+xml</dc:format><dc:type
           rdf:resource="http://purl.org/dc/dcmitype/StillImage" /><dc:title></dc:title></cc:Work></rdf:RDF></metadata><defs
     id="defs6" /><g
     transform="matrix(1.25,0,0,-1.25,0,450.00112)"
     id="g10"><g
       transform="scale(0.1,0.1)"
       id="g12"><path
         id="path16"
         style="fill:#f1f6c5;fill-opacity:1;fill-rule:evenodd;stroke:none"
         d="m 2552.2444,3109.7718 c 662.7436,0 1076.4267,-496.5073 983.7504,-1137.8309 167.1305,-67.4221 284.6168,-202.0385 330.5169,-374.2089 216.7565,-38.3461 381.3909,-227.6466 381.3909,-455.4071 0,-255.43868 -207.0605,-462.5052 -462.4991,-462.5052 -69.0122,0 -134.4784,15.14404 -193.2965,42.23411 l -2490.9062,0 C 828.11007,946.48437 682.24371,1335.3813 746.14987,1777.6244 827.06607,2337.7078 1219.695,2812.261 1691.1882,2975.4314 1313.7693,2762.4969 1015.1185,2356.0199 927.51832,1884.4967 1148.5289,2567.5624 1859.6866,3109.7718 2552.2444,3109.7718" /><path
         id="path18"
         style="fill:#dbe2a7;fill-opacity:1;fill-rule:evenodd;stroke:none"
         d="m 2337.2278,2558.7004 215.1006,0 c 214.1765,0 389.143,-174.9604 389.143,-389.143 l 0,-980.2164 -993.3865,0 0,980.2164 c 0,214.1826 174.9604,389.143 389.1429,389.143" /><path
         id="path20"
         style="fill:#f1f6c5;fill-opacity:1;fill-rule:evenodd;stroke:none"
         d="m 2337.2278,2485.8482 215.1006,0 c 173.9584,0 316.2968,-142.3323 316.2968,-316.2908 l 0,-980.2164 -847.6881,0 0,980.2164 c 0,173.9585 142.3383,316.2908 316.2907,316.2908" /><path
         id="path22"
         style="fill:#dbe2a7;fill-opacity:1;fill-rule:evenodd;stroke:none"
         d="m 2795.749,2172.8874 c -1.488,110.4603 -77.7002,203.8205 -180.0365,231.6486 l 0,-231.6486 180.0365,0 z m 0.024,-335.2868 0,240.4926 -180.0605,0 0,-240.4926 180.0605,0 0,0 z m -180.0605,-575.4074 180.0605,0 0,480.6072 -180.0605,0 0,-480.6072 z m -69.8101,910.6942 0,240.1206 -202.2185,0 0,-240.1206 202.2185,0 0,0 z m 0,-335.2868 0,240.4926 -202.2185,0 0,-240.4926 202.2185,0 0,0 z m -202.2185,-575.4074 202.2185,0 0,480.6072 -202.2185,0 0,-480.6072 z m -69.8042,910.6942 0,231.6486 c -102.3423,-27.7981 -178.5725,-121.1883 -180.0665,-231.6486 l 180.0665,0 0,0 z m 0,-335.2868 0,240.4926 -180.1025,0 0,-240.4926 180.1025,0 0,0 z m -180.1025,-575.4074 180.1025,0 0,480.6072 -180.1025,0 0,-480.6072" /><path
         id="path24"
         style="fill:#f58050;fill-opacity:1;fill-rule:evenodd;stroke:none"
         d="m 3179.8939,1787.5545 c 26.2981,-20.9521 30.6241,-59.2682 9.6721,-85.5662 -20.9581,-26.2981 -59.2682,-30.6241 -85.5662,-9.6721 -0.984,0.786 -343.7709,269.7727 -427.7531,722.0478 -6.102,33.1441 15.822,64.9742 48.9661,71.0762 33.1441,6.108 64.9802,-15.828 71.0762,-48.9661 75.6242,-407.245 382.7229,-648.2176 383.6049,-648.9196" /><path
         id="path26"
         style="fill:#f4703c;fill-opacity:1;fill-rule:evenodd;stroke:none"
         d="m 3179.8939,1787.5605 c 19.0141,-15.1561 26.5441,-39.3661 21.3361,-61.5662 -14.208,-0.648 -28.6921,3.648 -40.6921,13.2 -0.984,0.78 -343.7649,269.7727 -427.7411,722.0479 -1.578,8.61 -1.272,17.136 0.63,25.14 30.0421,1.434 57.2702,-19.512 62.8622,-49.9201 75.6182,-407.233 382.7229,-648.2056 383.6049,-648.9016" /><path
         id="path28"
         style="fill:#a94546;fill-opacity:1;fill-rule:evenodd;stroke:none"
         d="m 2722.2488,2484.8222 c 0.99,0.228 1.968,0.432 2.964,0.618 33.1441,6.108 64.9802,-15.828 71.0762,-48.9661 5.826,-31.3801 13.038,-61.7522 21.372,-91.1162 -4.344,-1.728 -8.814,-3.186 -13.368,-4.314 -52.0021,-12.9361 -97.7222,19.314 -102.1442,72.0181 -2.124,25.3141 5.67,50.7362 20.1,71.7602" /><path
         id="path30"
         style="fill:#87b6e5;fill-opacity:1;fill-rule:evenodd;stroke:none"
         d="m 3094.4777,1852.0366 c -47.4901,4.35 -78.9662,-31.584 -70.3021,-80.2622 8.664,-48.6781 54.1801,-91.6682 101.6762,-96.0122 47.4841,-4.35 78.9542,31.5841 70.2902,80.2622 -8.664,48.6781 -54.1741,91.6682 -101.6643,96.0122" /><path
         id="path32"
         style="fill:#3c649f;fill-opacity:1;fill-rule:evenodd;stroke:none"
         d="m 3120.8598,1823.6326 c -48.9481,4.476 -81.3842,-32.5621 -72.4502,-82.7402 8.928,-50.1722 55.8422,-94.4763 104.7843,-98.9583 48.9481,-4.476 81.3842,32.5621 72.4562,82.7342 -8.9281,50.1781 -55.8422,94.4762 -104.7903,98.9643" /><path
         id="path34"
         style="fill:#5b282c;fill-opacity:1;fill-rule:evenodd;stroke:none"
         d="m 3411.7945,2270.4537 -73.9202,6.762 c -59.1661,5.418 -116.8862,-38.1181 -128.2623,-96.7442 l -14.37,-74.0762 c -19.1941,-98.8983 46.7881,-187.3025 146.5984,-196.4345 l 0.018,0 c 99.8102,-9.144 197.1904,64.2961 216.3785,163.2064 l 0.168,0.84 c 19.188,98.9042 -46.7881,187.3025 -146.6104,196.4465" /><path
         id="path36"
         style="fill:#7b3d43;fill-opacity:1;fill-rule:evenodd;stroke:none"
         d="m 3440.2826,2442.2761 -51.1501,4.68 c -35.9041,3.288 -68.4362,-19.698 -78.4382,-53.0161 15.246,18.366 38.9761,29.2261 64.4041,26.8981 l 51.1502,-4.6861 c 69.0721,-6.324 120.4143,-68.0041 114.0903,-137.0823 l -0.8521,-9.246 c -1.104,-12.0781 -3.912,-23.6101 -8.142,-34.3861 12.1621,17.358 20.1121,37.9801 22.1761,60.5041 l 0.852,9.2521 c 6.318,69.0781 -45.0181,130.7583 -114.0903,137.0823" /><path
         id="path38"
         style="fill:#da3f4f;fill-opacity:1;fill-rule:evenodd;stroke:none"
         d="m 3580.017,2197.8295 -0.012,0 c -5.8861,-2.718 -8.4781,-9.744 -5.7661,-15.63 l 9.6421,-20.8681 c 2.706,-5.886 9.738,-8.466 15.618,-5.754 l 0.012,0 c 5.88,2.712 8.472,9.744 5.754,15.618 l -9.63,20.8801 c -2.712,5.88 -9.738,8.466 -15.618,5.754" /><path
         id="path40"
         style="fill:#fbcb46;fill-opacity:1;fill-rule:evenodd;stroke:none"
         d="m 3525.8788,2315.1598 -0.012,-0.01 c -9.762,-4.5 -14.058,-16.1701 -9.558,-25.9381 l 45.0181,-97.5722 c 4.512,-9.762 16.176,-14.0641 25.9381,-9.558 l 0.018,0 c 9.756,4.512 14.058,16.182 9.552,25.938 l -45.0241,97.5783 c -4.5,9.762 -16.1701,14.064 -25.9321,9.558" /><path
         id="path42"
         style="fill:#7b3d43;fill-opacity:1;fill-rule:evenodd;stroke:none"
         d="m 3496.2327,2462.3402 -1.332,0.132 c 46.0682,-23.9401 75.6962,-74.1782 70.6982,-128.8504 l -0.888,-9.666 c -5.67,-61.9021 -53.9581,-110.1483 -113.1423,-118.3323 6.726,-1.794 13.6741,-3.048 20.8201,-3.702 l 0.01,0 c 69.0722,-6.324 130.7523,45.0121 137.0823,114.0903 l 0.84,9.252 c 6.33,69.0722 -45.0061,130.7583 -114.0843,137.0764" /><path
         id="path44"
         style="fill:#7b3d43;fill-opacity:1;fill-rule:evenodd;stroke:none"
         d="m 3474.1527,2439.1741 -45.5401,4.176 c -36.4621,3.336 -69.0062,-23.7541 -72.3422,-60.2101 l -7.542,-82.3382 c -5.628,-61.5062 40.0801,-116.4183 101.5742,-122.0524 l 0,0 c 61.5062,-5.628 116.4243,40.0741 122.0523,101.5803 l 3.372,36.7981 c 5.6281,61.5061 -40.0741,116.4183 -101.5742,122.0463" /><path
         id="path46"
         style="fill:#70343a;fill-opacity:1;fill-rule:evenodd;stroke:none"
         d="m 3510.1228,2379.2999 c 14.316,-1.308 24.726,-15.402 23.256,-31.464 -1.47,-16.0621 -14.268,-28.0261 -28.584,-26.7181 -14.3221,1.314 -24.7261,15.402 -23.2621,31.4641 1.476,16.068 14.268,28.0321 28.5901,26.718" /><path
         id="path48"
         style="fill:#70343a;fill-opacity:1;fill-rule:evenodd;stroke:none"
         d="m 3362.4024,2356.2119 -73.9202,6.768 c -59.1721,5.418 -112.0143,-38.5561 -117.4323,-97.7402 l -9.144,-99.8403 c -9.138,-99.8222 65.0642,-188.9705 164.8744,-198.1085 l 0.018,0 c 99.8163,-9.138 188.9645,65.0522 198.1025,164.8744 l 2.376,25.9321 c 9.144,99.8222 -65.0521,188.9765 -164.8744,198.1145" /><path
         id="path50"
         style="fill:#a94546;fill-opacity:1;fill-rule:evenodd;stroke:none"
         d="m 3148.3519,2107.6253 c -2.274,18.648 10.704,32.4481 28.974,30.84 18.2761,-1.614 34.9261,-18.024 37.1941,-36.672 2.256,-18.6361 -10.71,-32.4421 -28.986,-30.8281 -18.2761,1.614 -34.9261,18.024 -37.1821,36.6601" /><path
         id="path52"
         style="fill:#f58050;fill-opacity:1;fill-rule:evenodd;stroke:none"
         d="m 3269.4202,1970.2609 117.1323,-44.9941 -59.7062,-155.4244 c -12.372,-32.2081 -48.8401,-48.4381 -81.0482,-36.0661 l -0.018,0.012 c -32.2021,12.3721 -48.4321,48.8402 -36.0601,81.0482 l 59.7002,155.4244" /><path
         id="path54"
         style="fill:#a94546;fill-opacity:1;fill-rule:evenodd;stroke:none"
         d="m 3269.4202,1970.2609 117.1263,-44.9941 -35.7241,-93.0062 c -28.4221,-8.43 -59.6822,-7.956 -89.3342,3.432 l 0,0 c -13.2541,5.088 -25.2901,12.018 -35.9281,20.388 l 43.8601,114.1803" /><path
         id="path56"
         style="fill:#87b6e5;fill-opacity:1;fill-rule:evenodd;stroke:none"
         d="m 3253.9761,1823.2846 c 49.4282,-4.5301 85.8302,-48.2702 81.3062,-97.6983 -4.524,-49.4281 -48.2701,-85.8302 -97.6982,-81.3062 -49.4221,4.53 -85.8242,48.2701 -81.3062,97.6983 4.53,49.4221 48.2701,85.8242 97.6982,81.3062" /><path
         id="path58"
         style="fill:#f58050;fill-opacity:1;fill-rule:evenodd;stroke:none"
         d="m 3322.1183,2238.5276 4.23,-0.372 c 76.3502,-6.732 133.3023,-74.7002 126.5703,-151.0444 l -8.79,-99.7442 c -6.732,-76.3502 -74.7002,-133.3024 -151.0384,-126.5703 l 0,0 c -76.3502,6.726 -133.3023,74.6881 -126.5703,151.0323 l 9.162,103.9743 c 6.5281,74.0282 72.4202,129.2523 146.4364,122.7243" /><path
         id="path60"
         style="fill:#f79163;fill-opacity:1;fill-rule:evenodd;stroke:none"
         d="m 3175.8739,1948.2829 c -7.83,19.596 -11.322,41.2141 -9.354,63.5521 l 9.162,103.9803 c 6.1861,70.1702 65.7302,123.4263 134.9704,123.2223 7.938,-19.6921 11.49,-41.4421 9.516,-63.9362 l -8.796,-99.7562 c -6.264,-71.1182 -65.6822,-125.3943 -135.4984,-127.0623" /><path
         id="path62"
         style="fill:#e32f51;fill-opacity:1;fill-rule:evenodd;stroke:none"
         d="m 3315.6203,2006.183 -51.8281,4.572 c -8.9161,0.786 -15.9421,-5.946 -15.6121,-14.958 l 2.046,-56.4902 c 0.828,-22.764 19.9141,-42.9961 42.4261,-44.9821 l 1.218,-0.102 c 22.5181,-1.986 40.2481,15.0001 39.4261,37.7641 l -2.1,57.6782 c -0.294,8.364 -7.308,15.786 -15.576,16.518" /><path
         id="path64"
         style="fill:#ffffff;fill-opacity:1;fill-rule:evenodd;stroke:none"
         d="m 3318.6083,1998.125 -51.8341,4.566 c -4.134,0.366 -7.8601,-0.882 -10.6321,-3.234 7.7341,-12 20.6641,-20.6581 34.9861,-21.9181 l 1.212,-0.108 c 15.0181,-1.326 27.9121,5.8141 34.5841,17.4661 -2.43,1.782 -5.286,2.958 -8.316,3.228" /><path
         id="path66"
         style="fill:#f14456;fill-opacity:1;fill-rule:evenodd;stroke:none"
         d="m 3276.9862,1909.4508 c 4.29,-2.238 8.982,-3.696 13.866,-4.122 l 1.026,-0.09 c 18.7141,-1.65 33.5221,12.234 33.3301,31.014 -4.284,2.238 -8.982,3.69 -13.866,4.1221 l -1.02,0.09 c -18.7141,1.65 -33.5281,-12.2401 -33.3361,-31.0141" /><path
         id="path68"
         style="fill:#70343a;fill-opacity:1;fill-rule:evenodd;stroke:none"
         d="m 3258.1641,2093.2492 0.906,10.2481 c 0.918,10.41 -6.846,19.536 -17.268,20.304 l -3.72,0.276 c -9.996,0.726 -18.9241,-6.48 -20.4541,-16.242 l -22.488,-2.082 21.426,-9.4501 c 2.802,8.0461 10.8001,13.6021 19.6321,12.9541 l 4.866,-0.354 c 8.82,-0.648 15.756,-7.308 17.1,-15.6541" /><path
         id="path70"
         style="fill:#70343a;fill-opacity:1;fill-rule:evenodd;stroke:none"
         d="m 3350.5044,2088.7972 0.9,10.248 c 0.918,10.4101 10.122,17.5561 20.454,15.8821 l 3.69,-0.594 c 9.9121,-1.602 17.4001,-10.74 17.1961,-20.6581 l 21.66,-7.272 -22.638,-4.272 c -1.338,8.526 -8.196,15.834 -16.9561,17.25 l -4.83,0.7741 c -8.754,1.422 -16.698,-3.4981 -19.476,-11.3581" /><path
         id="path72"
         style="fill:#f58050;fill-opacity:1;fill-rule:evenodd;stroke:none"
         d="m 3450.2246,2113.4513 c 18.6361,2.268 32.4421,-10.704 30.8341,-28.9741 -1.614,-18.276 -18.03,-34.9261 -36.6661,-37.1941 -18.642,-2.256 -32.4421,10.716 -30.8341,28.9861 1.608,18.276 18.0241,34.9261 36.6661,37.1821" /><path
         id="path74"
         style="fill:#4772b1;fill-opacity:1;fill-rule:evenodd;stroke:none"
         d="m 3061.2917,1701.1663 c 28.446,79.2062 115.7222,120.3543 194.9224,91.9082 79.2002,-28.4461 120.3483,-115.7283 91.8963,-194.9345 -0.18,-0.522 -54.4082,-95.4122 -57.1922,-223.9866 -1.008,-46.2961 6.96,-99.2582 23.0401,-150.2823 l -272.0887,0 c -3.27,30.462 -6.828,60.1981 -12.372,88.4702 -51.0422,260.5386 31.4941,388.003 31.7941,388.825" /><path
         id="path76"
         style="fill:#4772b1;fill-opacity:1;fill-rule:evenodd;stroke:none"
         d="m 3137.8938,1730.5783 c 55.8242,-19.026 74.5742,-75.9422 41.8741,-127.1043 -32.694,-51.1681 -104.4662,-77.2202 -160.2904,-58.1941 -55.8301,19.038 -74.5801,75.9422 -41.8741,127.1103 32.7001,51.1621 104.4663,77.2202 160.2904,58.1881" /><path
         id="path78"
         style="fill:#f4703c;fill-opacity:1;fill-rule:evenodd;stroke:none"
         d="m 2203.6135,1887.9767 c -26.8201,0 -52.0801,-21.744 -56.4001,-48.5701 -4.332,-26.8141 13.914,-48.5641 40.7341,-48.5641 26.826,0 52.0741,21.75 56.4001,48.5641 4.326,26.8261 -13.908,48.5701 -40.7341,48.5701" /><path
         id="path80"
         style="fill:#4772b1;fill-opacity:1;fill-rule:evenodd;stroke:none"
         d="m 1833.8206,1790.4645 -37.1701,-1.998 c 0,0 -36.1981,-43.0981 -166.1284,-49.9922 -0.978,-0.054 -1.878,-0.18 -2.766,-0.324 -32.6641,12.7441 -69.0542,17.0041 -105.9183,10.4881 l 0,0 c -39.9421,-7.056 -72.7862,-25.5841 -98.1542,-51.6602 -1.476,-0.144 -3.018,-0.39 -4.7101,-0.906 -124.4403,-38.0461 -173.2084,-9.978 -173.2084,-9.978 l -35.6041,-10.86 c 107.2863,-82.7102 16.5421,-200.2565 16.5421,-200.2565 121.1703,27.0541 136.4403,-68.6042 138.2823,-98.3403 l 7.818,-296.0227 454.6632,77.0702 -51.6902,292.5307 -0.024,0.09 -2.358,13.3561 c -4.062,33.264 -2.592,117.8103 113.5263,133.0023 0,0 -125.5383,79.3322 -53.1001,193.8005" /><path
         id="path82"
         style="fill:#87b6e5;fill-opacity:1;fill-rule:evenodd;stroke:none"
         d="m 1848.6946,1812.9465 c -59.7181,-10.56 -99.5822,-67.5301 -89.0282,-127.2543 10.554,-59.7301 67.5302,-99.5882 127.2543,-89.0282 59.7182,10.548 99.5823,67.5242 89.0282,127.2483 -10.548,59.7242 -67.5241,99.5823 -127.2543,89.0342" /><path
         id="path84"
         style="fill:#f4703c;fill-opacity:1;fill-rule:evenodd;stroke:none"
         d="m 2146.5114,2427.6541 c -18.2101,38.5981 -64.2782,55.1401 -102.8763,36.9241 -38.5981,-18.2101 -55.1401,-64.2722 -36.9301,-102.8703 0.51,-1.092 184.5425,-378.0429 -165.1864,-578.2334 -37.0561,-21.1681 -49.9441,-68.3822 -28.7701,-105.4383 21.1681,-37.0561 68.3762,-49.9381 105.4323,-28.7701 475.5492,272.2027 229.0206,776.936 228.3306,778.388" /><path
         id="path86"
         style="fill:#f58050;fill-opacity:1;fill-rule:evenodd;stroke:none"
         d="m 2051.9151,2467.9142 c -2.79,-0.942 -5.55,-2.052 -8.28,-3.342 -38.5981,-18.2041 -55.1341,-64.2662 -36.9361,-102.8643 0.528,-1.092 184.5485,-378.0549 -165.1804,-578.2334 -37.0621,-21.1621 -49.9441,-68.3762 -28.7821,-105.4443 3.966,-6.93 8.8321,-13.02 14.3821,-18.1921 4.644,1.5721 9.204,3.6061 13.626,6.1321 475.5492,272.2086 229.0266,776.9419 228.3306,778.3939 -4.308,9.15 -10.2001,17.0401 -17.1601,23.5501" /><path
         id="path88"
         style="fill:#a94546;fill-opacity:1;fill-rule:evenodd;stroke:none"
         d="m 2039.1771,2462.2922 c -35.3821,-19.5421 -49.9621,-63.5042 -32.4721,-100.5843 0.18,-0.372 21.3781,-43.8601 35.7901,-108.9663 l 2.04,0.336 c 61.7462,10.9261 94.8782,68.3942 73.9862,128.3884 -12.9,37.038 -43.3681,66.3781 -79.3442,80.8262" /><path
         id="path90"
         style="fill:#f57b48;fill-opacity:1;fill-rule:evenodd;stroke:none"
         d="m 2824.4471,1470.5017 c -51.2402,19.494 -109.7943,-6.864 -130.7644,-58.8662 -20.964,-52.0021 3.576,-109.9742 54.8162,-129.4623 1.254,-0.486 432.8471,-167.8084 979.1004,-124.9263 55.2122,4.29 97.8303,52.5661 95.2083,107.8443 -2.628,55.2721 -49.5182,96.6062 -104.7183,92.3222 -500.6113,-39.3001 -892.5022,112.6503 -893.6422,113.0883" /><path
         id="path92"
         style="fill:#f4703c;fill-opacity:1;fill-rule:evenodd;stroke:none"
         d="m 2824.4471,1470.5017 c -51.2402,19.494 -109.7943,-6.864 -130.7644,-58.8662 -20.964,-52.0021 3.576,-109.9742 54.8162,-129.4623 1.11,-0.426 334.3688,-129.6003 785.7079,-131.8983 -31.782,57.9361 -105.3542,104.3882 -236.3766,115.2183 -256.0206,21.186 -298.6147,111.7742 -304.2907,154.1523 -106.3263,26.5381 -168.6364,50.6822 -169.0924,50.8562" /><path
         id="path94"
         style="fill:#a94546;fill-opacity:1;fill-rule:evenodd;stroke:none"
         d="m 3546.6029,1150.2449 c 58.5601,0 119.0283,2.142 180.9964,7.002 46.7821,3.63 84.5222,38.8741 93.3543,83.1782 -31.9921,54.2581 -92.0103,92.2862 -154.7704,92.2862 -83.9942,0 -141.0964,-68.0941 -127.5304,-152.0883 1.6801,-10.4101 4.3801,-20.5621 7.9501,-30.3781" /><path
         id="path96"
         style="fill:#752838;fill-opacity:1;fill-rule:evenodd;stroke:none"
         d="m 1600.624,2146.9554 0,0 c -28.9021,-0.594 -52.0741,-24.7141 -51.4861,-53.6162 l 2.436,-120.1623 c 0.588,-28.896 24.72,-52.0681 53.6161,-51.4801 l 0,0 c 28.9021,0.588 52.0621,24.7081 51.4741,53.6161 l -2.442,120.1623 c -0.576,28.8961 -24.702,52.0682 -53.5981,51.4802" /><path
         id="path98"
         style="fill:#f79163;fill-opacity:1;fill-rule:evenodd;stroke:none"
         d="m 2082.5632,1400.8415 c 51.2401,19.5001 109.7943,-6.858 130.7703,-58.8601 20.9701,-52.0082 -3.582,-109.9803 -54.8161,-129.4744 -1.254,-0.48 -432.8471,-167.8024 -979.1065,-124.9143 -55.2061,4.278 -97.8302,52.5662 -95.1962,107.8383 2.616,55.2721 49.5121,96.6062 104.7183,92.3222 500.5992,-39.2941 892.4842,112.6563 893.6302,113.0883" /><path
         id="path100"
         style="fill:#f4703c;fill-opacity:1;fill-rule:evenodd;stroke:none"
         d="m 2082.5692,1400.8415 c 51.2341,19.5001 109.7943,-6.858 130.7643,-58.8661 20.9701,-52.0022 -3.582,-109.9743 -54.8161,-129.4684 -1.104,-0.414 -334.3688,-129.6003 -785.714,-131.8923 31.7881,57.9361 105.3603,104.3883 236.3886,115.2243 256.0087,21.174 298.6028,111.7743 304.2728,154.1464 106.3322,26.544 168.6424,50.6881 169.1044,50.8561" /><path
         id="path102"
         style="fill:#a94546;fill-opacity:1;fill-rule:evenodd;stroke:none"
         d="m 1360.4074,1080.5847 c -58.5541,0.01 -119.0283,2.148 -180.9965,7.008 -46.7821,3.63 -84.5282,38.8621 -93.3542,83.1662 31.9921,54.2702 92.0102,92.2983 154.7704,92.2983 83.9942,0 141.0964,-68.0942 127.5303,-152.0944 -1.68,-10.404 -4.374,-20.5621 -7.95,-30.3781" /><path
         id="path104"
         style="fill:#87b6e5;fill-opacity:1;fill-rule:evenodd;stroke:none"
         d="m 1521.8378,1748.6384 0,0 c 36.8461,6.51 73.2062,2.262 105.8463,-10.4521 l 0.588,-3.054 c 10.236,-57.8941 -28.4101,-113.1302 -86.3162,-123.3603 -57.2282,-10.116 -111.8403,27.5161 -122.9824,84.2942 27.4081,26.5441 62.6882,45.4742 102.8643,52.5722" /><path
         id="path106"
         style="fill:#3c649f;fill-opacity:1;fill-rule:evenodd;stroke:none"
         d="m 2343.3779,1391.3735 -0.01,0.01 c -22.0801,67.5961 -95.4363,104.8202 -163.0264,82.7402 l -236.1426,-77.1542 80.3042,-245.7726 236.1366,77.1542 c 67.5901,22.08 104.8142,95.4422 82.7342,163.0264" /><path
         id="path108"
         style="fill:#4772b1;fill-opacity:1;fill-rule:evenodd;stroke:none"
         d="m 2348.6639,1484.2957 390.1209,0 c 115.7043,0 210.3726,-94.6622 210.3726,-210.3725 l 0,-210.3845 -810.8661,0 0,210.3845 c 0,115.7103 94.6563,210.3725 210.3726,210.3725" /><path
         id="path110"
         style="fill:#4772b1;fill-opacity:1;fill-rule:evenodd;stroke:none"
         d="m 2640.0186,1439.5416 0.01,0.012 c 22.0801,67.5902 95.4362,104.8143 163.0264,82.7222 l 236.1426,-77.1482 -80.2982,-245.7726 -236.1426,77.1542 c -67.5902,22.086 -104.8143,95.4422 -82.7342,163.0324" /><path
         id="path112"
         style="fill:#87b6e5;fill-opacity:1;fill-rule:evenodd;stroke:none"
         d="m 2324.2318,1484.2957 339.4029,0 c 0,-93.7202 -75.9782,-169.6984 -169.6985,-169.6984 -93.7202,0 -169.7044,75.9782 -169.7044,169.6984" /><path
         id="path114"
         style="fill:#752838;fill-opacity:1;fill-rule:evenodd;stroke:none"
         d="m 1364.2534,2276.1717 0.102,-4.92 c 0.6,-29.8381 25.5121,-53.7602 55.3501,-53.1542 l 0.01,0 c 29.8441,0.606 53.7722,25.5181 53.1662,55.3562 l -0.108,4.92 c -0.6,29.8441 -25.5061,53.7661 -55.3562,53.1541 l -0.012,0 c -29.838,-0.6 -53.7541,-25.518 -53.1481,-55.3561" /><path
         id="path116"
         style="fill:#752838;fill-opacity:1;fill-rule:evenodd;stroke:none"
         d="m 1547.0439,2229.0536 0.51,-25.2541 c 0.222,-10.734 9.174,-19.326 19.908,-19.11 l 0.012,0 c 10.728,0.216 19.3201,9.168 19.1041,19.908 l -0.51,25.2481 c -0.222,10.728 -9.1741,19.326 -19.9021,19.104 l -0.01,0 c -10.734,-0.21 -19.332,-9.162 -19.116,-19.896" /><path
         id="path118"
         style="fill:#752838;fill-opacity:1;fill-rule:evenodd;stroke:none"
         d="m 1597.828,2218.7455 -25.2481,-0.51 c -10.734,-0.222 -19.332,-9.168 -19.116,-19.896 l 0,-0.012 c 0.222,-10.734 9.174,-19.3321 19.902,-19.1101 l 25.2601,0.51 c 10.728,0.222 19.326,9.1681 19.104,19.9081 l 0,0.01 c -0.222,10.728 -9.174,19.326 -19.902,19.104" /><path
         id="path120"
         style="fill:#5c212d;fill-opacity:1;fill-rule:evenodd;stroke:none"
         d="m 1409.6915,2202.8635 -168.9604,-3.42 c -37.7581,-0.774 -68.0162,-32.2741 -67.2422,-70.0262 l 0,-0.012 c 0.768,-37.7521 32.2741,-68.0041 70.0262,-67.2301 l 168.9664,3.42 c 37.7641,0.768 68.0042,32.274 67.2422,70.0261 l 0,0.012 c -0.768,37.7521 -32.2681,68.0042 -70.0322,67.2302" /><path
         id="path122"
         style="fill:#f58050;fill-opacity:1;fill-rule:evenodd;stroke:none"
         d="m 1598.374,1914.8028 -155.7784,-3.162 -42.8101,-0.864 1.902,-93.5283 5.154,0.102 c 20.7121,0.426 38.0041,-16.176 38.4181,-36.894 l 1.314,-64.7462 0.078,-3.786 0.09,0.01 c 2.808,-40.0321 36.8581,-71.5262 77.4062,-70.6982 l 3.714,0.072 c 40.5541,0.822 73.3022,33.6721 74.4722,73.7822 l 0.096,0 -0.078,3.786 -1.536,76.0382 -0.54,26.3701 -1.902,93.5222" /><path
         id="path124"
         style="fill:#a94546;fill-opacity:1;fill-rule:evenodd;stroke:none"
         d="m 1531.6058,1913.4528 -89.0102,-1.806 -42.8041,-0.87 1.896,-93.5223 5.142,0.096 c 20.7241,0.426 38.0161,-16.176 38.4301,-36.894 l 0.258,-12.6061 c 47.5981,32.7241 80.3642,85.4882 86.0882,145.6024" /><path
         id="path126"
         style="fill:#f58050;fill-opacity:1;fill-rule:evenodd;stroke:none"
         d="m 1400.8475,1817.2305 105.9063,2.154 c 51.4321,1.0441 92.6642,43.9802 91.6202,95.4243 l -5.298,261.1506 -297.2168,-6.03 c -55.8961,-1.134 -100.6982,-47.8021 -99.5642,-103.6922 l 1.086,-53.6282 c 2.22,-109.6802 93.7922,-197.6045 203.4665,-195.3785" /><path
         id="path128"
         style="fill:#f79163;fill-opacity:1;fill-rule:evenodd;stroke:none"
         d="m 1295.8532,2169.9294 c -55.8901,-1.134 -100.6922,-47.8021 -99.5582,-103.6922 l 1.092,-53.6282 c 2.226,-109.6802 93.7862,-197.6045 203.4605,-195.3785 l 44.1181,0.9 c -88.8602,21.8821 -156.0784,101.5443 -158.0224,197.1305 l -1.128,55.7342 c -0.912,44.8981 26.7001,84.0482 66.1022,100.0742 l -56.0642,-1.14" /><path
         id="path130"
         style="fill:#a94546;fill-opacity:1;fill-rule:evenodd;stroke:none"
         d="m 1530.6818,2049.2451 c -24.192,-0.486 -43.4101,-20.496 -42.9181,-44.6941 0.486,-24.198 20.5081,-43.4161 44.7001,-42.9241 24.1921,0.492 43.4101,20.5021 42.9241,44.7001 -0.492,24.1981 -20.514,43.4161 -44.7061,42.9181" /><path
         id="path132"
         style="fill:#e32f51;fill-opacity:1;fill-rule:evenodd;stroke:none"
         d="m 1383.8735,1848.4906 30.96,0.63 c 15.0361,0.306 24.3961,12.7981 20.8081,27.7681 l -19.0441,79.4462 c -1.608,6.696 -8.406,12.048 -15.132,11.91 l -74.6702,-1.512 c -16.344,-0.33 -26.514,-13.908 -22.614,-30.1681 l 7.482,-31.224 c 7.656,-31.9201 40.1461,-57.4922 72.2102,-56.8502" /><path
         id="path134"
         style="fill:#ffffff;fill-opacity:1;fill-rule:evenodd;stroke:none"
         d="m 1420.1436,1941.5089 -3.5461,14.826 c -1.608,6.69 -8.406,12.048 -15.132,11.91 l -74.6702,-1.512 c -1.572,-0.036 -3.084,-0.192 -4.524,-0.456 14.268,-16.908 35.7601,-28.0621 57.0781,-27.6301 l 30.9601,0.624 c 3.654,0.078 6.96,0.8701 9.8341,2.2381" /><path
         id="path136"
         style="fill:#f14456;fill-opacity:1;fill-rule:evenodd;stroke:none"
         d="m 1375.8454,1861.6787 28.8961,0.588 c 14.016,0.288 22.7521,11.934 19.4101,25.902 l -5.5501,23.1481 -27.798,-0.57 c -25.6201,-0.516 -42.9481,-18.8341 -42.9181,-42.7921 8.85,-4.176 18.432,-6.468 27.96,-6.276" /><path
         id="path138"
         style="fill:#a94546;fill-opacity:1;fill-rule:evenodd;stroke:none"
         d="m 1243.9231,2061.6232 -10.944,-0.222 c -5.316,-0.114 -9.564,-4.5421 -9.456,-9.8581 l 0.336,-16.548 c 1.368,3.654 4.95,6.318 9.18,6.402 l 11.286,0.228 c 9.45,0.192 17.6221,-5.7 20.5381,-13.932 0.21,0.864 0.312,1.752 0.294,2.676 l -0.228,11.082 c -0.228,11.328 -9.6781,20.3941 -21.0061,20.1721" /><path
         id="path140"
         style="fill:#752838;fill-opacity:1;fill-rule:evenodd;stroke:none"
         d="m 1491.9577,2262.9837 -236.8266,-4.8061 c -37.7461,-0.768 -67.9981,-32.274 -67.2301,-70.0261 l 0,-0.01 c 0.768,-37.7521 32.2681,-68.0042 70.0141,-67.2362 l 129.9184,2.634 c 33.2401,0.672 61.0021,-25.9681 61.6741,-59.2381 l 0.066,-3.174 c 0.408,-20.2321 17.2861,-36.4381 37.5121,-36.0241 l 0.01,0 c 20.2261,0.408 36.4321,17.286 36.0241,37.5121 l -1.404,69.2521 c 24.1621,11.0461 40.8361,35.7241 40.2601,63.8642 l 0,0.01 c -0.768,37.7521 -32.2681,68.0042 -70.0142,67.2422" /><path
         id="path142"
         style="fill:#752838;fill-opacity:1;fill-rule:evenodd;stroke:none"
         d="m 1569.3039,2190.6835 0,0 c -28.896,-0.588 -52.0621,-24.7081 -51.4801,-53.6102 l 2.97,-146.2623 c 0.588,-28.9081 24.7141,-52.0622 53.6161,-51.4742 l 0,0 c 28.8961,0.588 52.0562,24.7021 51.4682,53.6102 l -2.964,146.2563 c -0.582,28.9021 -24.7081,52.0682 -53.6102,51.4802" /><path
         id="path144"
         style="fill:#883448;fill-opacity:1;fill-rule:evenodd;stroke:none"
         d="m 1569.3039,2190.6835 0,0 c -28.896,-0.588 -52.0621,-24.7021 -51.4801,-53.6102 l 0.402,-19.716 c 0.588,-28.9021 24.7081,-52.0621 53.6101,-51.4801 l 0,0 c 28.8961,0.594 52.0682,24.714 51.4802,53.6101 l -0.402,19.716 c -0.582,28.9021 -24.7081,52.0682 -53.6102,51.4802" /><path
         id="path146"
         style="fill:#752838;fill-opacity:1;fill-rule:evenodd;stroke:none"
         d="m 1213.209,2290.5417 -20.994,-70.2781 c -14.3401,-48.0062 16.968,-86.4003 69.5822,-85.3323 l 0,0 c 52.6081,1.062 107.3702,41.2081 121.7043,89.2143 l 20.988,70.2781 c 14.346,48.0062 -16.962,86.4003 -69.5642,85.3382 l -0.012,0 c -52.6081,-1.074 -107.3702,-41.2081 -121.7043,-89.2202" /><path
         id="path148"
         style="fill:#883448;fill-opacity:1;fill-rule:evenodd;stroke:none"
         d="m 1248.5791,2306.9458 -25.848,-86.5502 c -6.5821,-22.0141 7.782,-39.6301 31.914,-39.1441 l 0.01,0 c 24.1321,0.498 49.2542,18.906 55.8302,40.9261 l 25.854,86.5562 c 6.5761,22.02 -7.782,39.6301 -31.92,39.1381 l -0.01,0 c -24.1321,-0.486 -49.2542,-18.9061 -55.8302,-40.9261" /><path
         id="path150"
         style="fill:#f58050;fill-opacity:1;fill-rule:evenodd;stroke:none"
         d="m 1519.3718,2060.7232 c -24.1921,-0.498 -43.4101,-20.5081 -42.9241,-44.7002 0.492,-24.198 20.508,-43.4161 44.7061,-42.9301 24.1921,0.492 43.4101,20.5141 42.9241,44.7061 -0.492,24.1921 -20.514,43.4102 -44.7061,42.9242" /><path
         id="path152"
         style="fill:#a94546;fill-opacity:1;fill-rule:evenodd;stroke:none"
         d="m 1531.7798,2036.6631 -0.01,0.01 c -2.406,2.316 -6.288,2.244 -8.604,-0.174 l -14.796,-15.408 -0.102,-0.114 -0.012,0 c -2.316,-2.4181 -2.238,-6.2941 0.18,-8.6101 l 0,-0.01 0.114,-0.108 15.402,-14.796 c 2.418,-2.316 6.294,-2.238 8.616,0.174 l 0.01,0.012 c 2.316,2.406 2.238,6.282 -0.18,8.598 l -11.13,10.692 10.692,11.1301 c 2.316,2.418 2.238,6.288 -0.18,8.604" /><path
         id="path154"
         style="fill:#a94546;fill-opacity:1;fill-rule:evenodd;stroke:none"
         d="m 1381.7735,2064.4192 -10.9321,-0.222 c -5.316,-0.108 -9.576,-4.5421 -9.468,-9.8521 l 0.336,-16.554 c 1.368,3.654 4.944,6.312 9.18,6.396 l 11.2861,0.234 c 9.45,0.192 17.628,-5.694 20.538,-13.932 0.204,0.864 0.312,1.758 0.288,2.682 l -0.228,11.076 c -0.222,11.322 -9.678,20.4001 -21,20.1721" /><path
         id="path156"
         style="fill:#883448;fill-opacity:1;fill-rule:evenodd;stroke:none"
         d="m 1342.3894,2192.1595 0,0 c 0.594,-28.9021 24.714,-52.0741 53.6161,-51.4861 l 15.258,0.312 c 28.9021,0.588 52.0682,24.708 51.4802,53.6101 l 0,0 c -0.588,28.9021 -24.7081,52.0681 -53.6102,51.4801 l -15.264,-0.318 c -28.8961,-0.576 -52.0561,-24.702 -51.4801,-53.5981" /><path
         id="path158"
         style="fill:#883448;fill-opacity:1;fill-rule:evenodd;stroke:none"
         d="m 1319.0133,2149.7874 0,-0.01 c 0.204,-10.0981 8.628,-18.1861 18.72,-17.9821 l 5.3401,0.108 c 10.098,0.204 18.18,8.6281 17.976,18.7201 l 0,0.012 c -0.204,10.098 -8.622,18.18 -18.72,17.976 l -5.3401,-0.108 c -10.098,-0.204 -18.18,-8.622 -17.976,-18.72" /><path
         id="path160"
         style="fill:#883448;fill-opacity:1;fill-rule:evenodd;stroke:none"
         d="m 1470.9517,2224.2356 0,-0.012 c 0.168,-8.6041 7.338,-15.4921 15.942,-15.3121 l 4.56,0.09 c 8.6041,0.18 15.4801,7.35 15.3121,15.9481 l 0,0.012 c -0.174,8.604 -7.3501,15.492 -15.9541,15.312 l -4.554,-0.09 c -8.598,-0.18 -15.486,-7.35 -15.306,-15.948" /><path
         id="path162"
         style="fill:#fab73a;fill-opacity:1;fill-rule:evenodd;stroke:none"
         d="m 2587.7465,1873.2287 -0.01,0 c -32.0461,0 -58.2482,-26.2021 -58.2482,-58.2422 l 0,-84.1562 c 0,-32.0341 26.2021,-58.2421 58.2482,-58.2421 l 0.01,0 c 32.034,0 58.2361,26.208 58.2361,58.2421 l 0,84.1562 c 0,32.0401 -26.2021,58.2422 -58.2361,58.2422" /><path
         id="path164"
         style="fill:#fab73a;fill-opacity:1;fill-rule:evenodd;stroke:none"
         d="m 2531.9103,2074.6972 0,-42.0901 c 0,-17.8861 14.6341,-32.5201 32.5201,-32.5201 l 0,0 c 17.8861,0 32.5201,14.634 32.5201,32.5201 l 0,42.0901 c 0,17.886 -14.634,32.5201 -32.5201,32.5201 l 0,0 c -17.886,0 -32.5201,-14.6341 -32.5201,-32.5201" /><path
         id="path166"
         style="fill:#fab73a;fill-opacity:1;fill-rule:evenodd;stroke:none"
         d="m 2616.1805,2055.8151 -42.0841,0 c -17.892,0 -32.526,-14.634 -32.526,-32.52 l 0,0 c 0,-17.8861 14.634,-32.5201 32.526,-32.5201 l 42.0841,0 c 17.8861,0 32.5201,14.634 32.5201,32.5201 l 0,0 c 0,17.886 -14.634,32.52 -32.5201,32.52" /><path
         id="path168"
         style="fill:#fab73a;fill-opacity:1;fill-rule:evenodd;stroke:none"
         d="m 2366.6339,2019.695 -187.3025,0 c -41.8501,0 -76.0921,-34.23 -76.0921,-76.0801 l 0,0 c 0,-41.8441 34.242,-76.0802 76.0921,-76.0802 l 187.3025,0 c 41.8501,0 76.0862,34.2361 76.0862,76.0802 l 0,0 c 0,41.8501 -34.2361,76.0801 -76.0862,76.0801" /><path
         id="path170"
         style="fill:#f57b48;fill-opacity:1;fill-rule:evenodd;stroke:none"
         d="m 2610.1565,1712.6323 -285.5887,0 0,-103.6743 5.706,0 c 22.9681,0 41.7481,-18.78 41.7481,-41.7481 l 0,-47.4361 0.01,-51.2761 0.534,0 c 13.0141,-130.2964 224.0466,-130.2964 237.0606,0 l 0.534,0 0,244.1346" /><path
         id="path172"
         style="fill:#f4703c;fill-opacity:1;fill-rule:evenodd;stroke:none"
         d="m 2610.1565,1502.2298 0,190.6384 -117.6663,-0.01 0,-53.4361 c 0,-87.9062 47.3761,-123.3123 117.6663,-137.1963" /><path
         id="path174"
         style="fill:#a94546;fill-opacity:1;fill-rule:evenodd;stroke:none"
         d="m 2470.6982,1712.6323 -146.1304,0 0,-103.6743 5.706,0 c 22.9681,0 41.7541,-18.792 41.7541,-41.7481 l 0,-13.986 c 53.4782,35.1961 90.9723,92.9282 98.6703,159.4084" /><path
         id="path176"
         style="fill:#f57b48;fill-opacity:1;fill-rule:evenodd;stroke:none"
         d="m 2389.086,1605.97 117.3903,0 c 57.0181,0 103.6802,47.0101 103.6802,104.4663 l 0,291.6907 -329.4788,0 c -61.9622,0 -112.6623,-51.0901 -112.6623,-113.5143 l 0,-147.8643 c 0,-122.5024 99.4803,-134.7784 221.0706,-134.7784" /><path
         id="path178"
         style="fill:#f79163;fill-opacity:1;fill-rule:evenodd;stroke:none"
         d="m 2317.1098,2002.127 -36.4321,0 c -61.9622,0 -112.6623,-51.0841 -112.6623,-113.5143 l 0,-147.8643 c 0,-109.1523 78.9902,-130.7944 182.2145,-134.2084 -61.7222,14.2741 -102.8883,48.9601 -102.8883,131.3283 l 0,154.5904 c 0,49.2782 28.9201,91.8063 69.7682,109.6683" /><path
         id="path180"
         style="fill:#a94546;fill-opacity:1;fill-rule:evenodd;stroke:none"
         d="m 2576.8924,1854.2086 c -26.826,0 -48.5761,-21.744 -48.5761,-48.5641 0,-26.8201 21.7501,-48.5701 48.5761,-48.5701 26.8201,0 48.5702,21.75 48.5702,48.5701 0,26.8201 -21.7501,48.5641 -48.5702,48.5641" /><path
         id="path182"
         style="fill:#fcd561;fill-opacity:1;fill-rule:evenodd;stroke:none"
         d="m 2521.3563,2100.8333 -357.4869,0 c -41.8321,0 -76.0742,-34.2421 -76.0742,-76.0742 l 0,-0.018 c 0,-41.8261 34.2241,-76.0742 76.0742,-76.0742 l 238.9746,0 c 36.8521,0 67.0022,-30.1501 67.0022,-67.0262 l 0,-3.522 c 0,-22.4161 18.342,-40.7641 40.7641,-40.7641 l 0,0 c 22.428,0 40.7701,18.342 40.7701,40.7641 l 0,76.7642 c 27.012,11.7 46.0441,38.6641 46.0441,69.8582 l 0,0.018 c 0,41.8441 -34.2481,76.0742 -76.0682,76.0742" /><path
         id="path184"
         style="fill:#fab73a;fill-opacity:1;fill-rule:evenodd;stroke:none"
         d="m 2584.1465,2018.981 -0.01,0 c -32.0461,0 -58.2482,-26.208 -58.2482,-58.2421 l 0,-100.2842 c 0,-32.0401 26.2021,-58.2422 58.2482,-58.2422 l 0.01,0 c 32.034,0 58.2421,26.2021 58.2421,58.2422 l 0,100.2842 c 0,32.0341 -26.2081,58.2421 -58.2421,58.2421" /><path
         id="path186"
         style="fill:#fab73a;fill-opacity:1;fill-rule:evenodd;stroke:none"
         d="m 2421.1681,2163.2934 -173.8685,0 c -41.8561,0 -76.0862,-34.2361 -76.0862,-76.0802 l 0,0 c 0,-41.8501 34.2301,-76.0862 76.0862,-76.0862 l 173.8685,0 c 41.8561,0 76.0921,34.2361 76.0921,76.0862 l 0,0 c 0,41.8441 -34.236,76.0802 -76.0921,76.0802" /><path
         id="path188"
         style="fill:#fcd561;fill-opacity:1;fill-rule:evenodd;stroke:none"
         d="m 2296.1757,2163.2934 -46.6501,0 c -43.0921,0 -78.3122,-35.2381 -78.3122,-78.3122 l 0,-0.018 c 0,-43.0801 35.2201,-78.3122 78.3122,-78.3122 l 46.6501,0 c 43.0741,0 78.3062,35.2321 78.3062,78.3122 l 0,0.018 c 0,43.0741 -35.2321,78.3122 -78.3062,78.3122" /><path
         id="path190"
         style="fill:#fab73a;fill-opacity:1;fill-rule:evenodd;stroke:none"
         d="m 2294.2557,1960.0069 0,-0.01 c 0,-41.0701 33.5881,-74.6582 74.6582,-74.6582 l 82.1942,0 c 41.0701,0 74.6582,33.5881 74.6582,74.6582 l 0,0.01 c 0,41.0581 -33.5881,74.6582 -74.6582,74.6582 l -82.1942,0 c -41.0701,0 -74.6582,-33.6001 -74.6582,-74.6582" /><path
         id="path192"
         style="fill:#fcd561;fill-opacity:1;fill-rule:evenodd;stroke:none"
         d="m 2345.8919,1960.0069 0,0 c 0,-27.2041 22.248,-49.4521 49.4461,-49.4521 l 29.3461,0 c 27.198,0 49.4401,22.248 49.4401,49.4521 l 0,0 c 0,27.1921 -22.2421,49.4341 -49.4401,49.4341 l -29.3461,0 c -27.1981,0 -49.4461,-22.242 -49.4461,-49.4341" /><path
         id="path194"
         style="fill:#fcd561;fill-opacity:1;fill-rule:evenodd;stroke:none"
         d="m 2487.5642,1960.0069 0,0 c 0,-27.2041 22.2421,-49.4521 49.4401,-49.4521 l 10.3201,0 c 27.198,0 49.4461,22.248 49.4461,49.4521 l 0,0 c 0,27.1921 -22.2481,49.4341 -49.4461,49.4341 l -10.3201,0 c -27.198,0 -49.4401,-22.242 -49.4401,-49.4341" /><path
         id="path196"
         style="fill:#fab73a;fill-opacity:1;fill-rule:evenodd;stroke:none"
         d="m 2615.8325,1945.4749 -0.01,0 c -32.046,0 -58.2481,-26.2021 -58.2481,-58.2422 l 0,-84.1622 c 0,-32.0341 26.2021,-58.2361 58.2481,-58.2361 l 0.01,0 c 32.0341,0 58.2422,26.202 58.2422,58.2361 l 0,84.1622 c 0,32.0401 -26.2081,58.2422 -58.2422,58.2422" /><path
         id="path198"
         style="fill:#f57b48;fill-opacity:1;fill-rule:evenodd;stroke:none"
         d="m 2571.5464,1871.6747 c -26.82,0 -52.0801,-21.7501 -56.4001,-48.5761 -4.332,-26.8201 13.908,-48.5642 40.7341,-48.5642 26.8201,0 52.0741,21.7441 56.4001,48.5642 4.326,26.826 -13.914,48.5761 -40.7341,48.5761" /><path
         id="path200"
         style="fill:#a94546;fill-opacity:1;fill-rule:evenodd;stroke:none"
         d="m 2580.4085,1844.7346 0,0 c -2.2021,2.628 -6.4921,2.628 -9.5401,0 l -19.446,-16.74 -0.144,-0.12 0,-0.01 c -3.054,-2.622 -3.744,-6.918 -1.542,-9.5401 l 0.01,-0.01 0.102,-0.12 14.034,-16.74 c 2.208,-2.628 6.498,-2.628 9.546,0 l 0.01,0 c 3.048,2.634 3.744,6.918 1.536,9.54 l -10.14,12.0961 14.046,12.096 c 3.0481,2.622 3.7381,6.918 1.5361,9.54" /><path
         id="path202"
         style="fill:#f79163;fill-opacity:1;fill-rule:evenodd;stroke:none"
         d="m 2417.358,1836.6286 c 16.2661,6.552 33.0841,2.85 37.5781,-8.274 4.482,-11.1361 -5.07,-25.4821 -21.33,-32.0341 -16.2661,-6.558 -33.0901,-2.85 -37.5721,8.274 -4.494,11.136 5.058,25.4761 21.324,32.0341" /><path
         id="path204"
         style="fill:#87b6e5;fill-opacity:1;fill-rule:evenodd;stroke:none"
         d="m 1188.483,1691.2482 c 59.7181,10.5541 116.7003,-29.304 127.2483,-89.0342 10.56,-59.7241 -29.3041,-116.6943 -89.0282,-127.2423 -59.7302,-10.56 -116.6943,29.2981 -127.2544,89.0282 -10.554,59.7242 29.3101,116.6943 89.0343,127.2483" /><path
         id="path206"
         style="fill:#f58050;fill-opacity:1;fill-rule:evenodd;stroke:none"
         d="m 692.96573,2163.0714 c 3.87601,42.5101 41.48411,73.8242 83.98821,69.9482 42.51011,-3.876 73.83019,-41.4841 69.95418,-83.9942 -0.114,-1.194 -43.80611,-418.3931 353.35288,-486.6012 42.0661,-7.1761 70.3502,-47.1182 63.1622,-89.1843 -7.1821,-42.0661 -47.1182,-70.3501 -89.1843,-63.1741 -540.04331,92.7542 -481.42317,651.4096 -481.27317,653.0056" /><path
         id="path208"
         style="fill:#f4703c;fill-opacity:1;fill-rule:evenodd;stroke:none"
         d="m 779.25195,2232.7736 c 41.3281,-5.004 71.46018,-42.0061 67.65617,-83.7482 -0.12,-1.194 -43.80611,-418.3871 353.34688,-486.5952 33.9121,-5.7901 58.8601,-32.8681 63.5042,-65.1722 l -2.028,0.318 c -483.34925,83.0102 -487.12926,539.1853 -482.47925,635.1976" /><path
         id="path210"
         style="fill:#a94546;fill-opacity:1;fill-rule:evenodd;stroke:none"
         d="m 781.92195,2232.3956 c 39.9481,-6.228 68.70618,-42.5341 64.98617,-83.3702 -0.042,-0.402 -5.05202,-48.5281 3.72001,-114.6243 l -2.03401,-0.378 c -61.74615,-10.908 -112.57228,31.7281 -113.50228,95.2502 -0.576,39.2161 18.00004,77.2202 46.83011,103.1223" /><path
         id="path212"
         style="fill:#ffffff;fill-opacity:1;fill-rule:evenodd;stroke:none"
         d="m 2265.2217,1324.7733 30.498,0 c 1.83,0 3.318,-1.488 3.318,-3.318 l 0,-29.8081 c 0,-10.212 -8.346,-18.564 -18.558,-18.564 l -0.018,0 c -10.212,0 -18.558,8.352 -18.558,18.564 l 0,29.8081 c 0,1.83 1.488,3.318 3.318,3.318" /><path
         id="path214"
         style="fill:#ffffff;fill-opacity:1;fill-rule:evenodd;stroke:none"
         d="m 2280.4797,1337.5233 c -21.3121,0 -38.5981,-17.286 -38.5981,-38.5921 0,-21.312 17.286,-38.598 38.5981,-38.598 21.3061,0 38.5921,17.286 38.5921,38.598 0,21.3061 -17.286,38.5921 -38.5921,38.5921 z m 0,16.7581 c 30.5701,0 55.3501,-24.7801 55.3501,-55.3502 0,-30.576 -24.78,-55.3561 -55.3501,-55.3561 -30.5761,0 -55.3621,24.7801 -55.3621,55.3561 0,30.5701 24.786,55.3502 55.3621,55.3502 l 0,0" /><path
         id="path216"
         style="fill:#ffffff;fill-opacity:1;fill-rule:evenodd;stroke:none"
         d="m 1445.7876,1512.4778 27.4081,4.842 c 1.638,0.288 3.216,-0.816 3.51,-2.454 l 4.734,-26.7841 c 1.62,-9.18 -4.56,-18.012 -13.734,-19.632 l -0.012,0 c -9.1801,-1.626 -18.0001,4.554 -19.6261,13.734 l -4.734,26.7901 c -0.288,1.632 0.816,3.216 2.454,3.504" /><path
         id="path218"
         style="fill:#ffffff;fill-opacity:1;fill-rule:evenodd;stroke:none"
         d="m 1457.4696,1526.3558 c -19.146,-3.384 -31.938,-21.66 -28.554,-40.8061 3.384,-19.146 21.66,-31.9381 40.8061,-28.5541 19.152,3.3841 31.9321,21.6601 28.554,40.8061 -3.378,19.1521 -21.66,31.9381 -40.8061,28.5541 z m -2.664,15.0661 c 27.4741,4.854 53.6822,-13.4821 58.5362,-40.9561 4.854,-27.4741 -13.4761,-53.6822 -40.9501,-58.5362 -27.4801,-4.854 -53.6822,13.482 -58.5362,40.9561 -4.854,27.4741 13.4761,53.6821 40.9501,58.5362 l 0,0" /><path
         id="path220"
         style="fill:#87b6e5;fill-opacity:1;fill-rule:evenodd;stroke:none"
         d="m 1929.9348,1419.0035 0.012,0.012 c 17.3281,5.3221 35.8501,-4.5 41.1721,-21.828 l 69.2282,-225.3486 c 5.322,-17.328 -4.494,-35.8561 -21.8221,-41.1781 l -0.01,0 c -17.328,-5.328 -35.85,4.5 -41.1781,21.8221 l -69.2221,225.3425 c -5.328,17.3341 4.488,35.8561 21.816,41.1781" /><path
         id="path222"
         style="fill:#87b6e5;fill-opacity:1;fill-rule:evenodd;stroke:none"
         d="m 3046.6936,1465.7617 0,-0.01 c 17.1661,-5.8141 26.4541,-24.6121 20.6341,-41.7841 l -75.6602,-223.2666 c -5.814,-17.172 -24.6181,-26.4601 -41.7901,-20.64 l 0,0 c -17.1661,5.82 -26.4481,24.618 -20.6341,41.7901 l 75.6602,223.2725 c 5.814,17.1721 24.6181,26.4541 41.7901,20.6341" /><path
         id="path224"
         style="fill:#ff7f2a;fill-opacity:1;fill-rule:evenodd;stroke:none"
         d="m 1037.2106,1174.5509 2730.4448,79.8242 54.7262,-511.99324 c 4.32,-40.45811 -25.3141,-74.53219 -65.8622,-75.71419 L 1173.5189,591.15868 c -40.5601,-1.18861 -77.2562,30.94088 -81.5882,71.40498 l -54.7201,511.98724" /><path
         id="path226"
         style="fill:#ff9955;fill-opacity:1;fill-rule:evenodd;stroke:none"
         d="m 1037.2106,1174.5509 2730.4448,79.8242 11.472,-107.3222 C 3511.5808,949.41837 2692.9927,805.56801 1724.5243,805.56801 c -226.6986,0 -445.1471,7.90802 -650.2816,22.51206 l -37.0321,346.47083" /><path
         id="path228"
         style="fill:#f57b48;fill-opacity:1;fill-rule:evenodd;stroke:none"
         d="m 1167.3209,1297.9112 c 83.9942,0 141.0844,-68.1001 127.5183,-152.0943 -13.566,-84.0002 -92.6642,-152.09442 -176.6524,-152.09442 -84.0002,0 -141.09636,68.09422 -127.52432,152.09442 13.56002,83.9942 92.65822,152.0943 176.65842,152.0943" /><path
         id="path230"
         style="fill:#f57b48;fill-opacity:1;fill-rule:evenodd;stroke:none"
         d="m 3739.7013,1367.5654 c -84.0002,0 -141.0963,-68.0942 -127.5243,-152.0884 13.5601,-83.9942 92.6583,-152.0943 176.6525,-152.0943 83.9942,0 141.0903,68.1001 127.5243,152.0943 -13.572,83.9942 -92.6642,152.0884 -176.6525,152.0884" /><path
         id="path232"
         style="fill:#e32f51;fill-opacity:1;fill-rule:evenodd;stroke:none"
         d="m 2377.4579,1647.3281 29.9881,0.612 c 14.5741,0.294 23.6401,12.3961 20.1661,26.8921 l -18.4561,76.9622 c -1.548,6.48 -8.142,11.67 -14.658,11.538 l -72.3242,-1.47 c -15.828,-0.318 -25.6801,-13.47 -21.9,-29.2321 l 7.248,-30.234 c 7.41,-30.9121 38.8861,-55.6982 69.9361,-55.0682" /><path
         id="path234"
         style="fill:#f14456;fill-opacity:1;fill-rule:evenodd;stroke:none"
         d="m 2370.4619,1659.9941 27.1441,0.5521 c 13.17,0.27 21.378,11.226 18.234,24.342 l -3.144,13.14 -23.652,0.48 c -20.2441,0.414 -40.6861,-11.106 -53.0342,-28.038 10.4101,-6.768 22.4641,-10.7161 34.4521,-10.4761" /><path
         id="path236"
         style="fill:#ffffff;fill-opacity:1;fill-rule:evenodd;stroke:none"
         d="m 2392.536,1763.2904 -70.3622,-1.434 c -8.412,-0.168 -15.144,-3.96 -19.026,-9.852 11.616,-7.68 25.128,-12.1621 38.5681,-11.898 l 29.988,0.612 c 13.0801,0.27 21.7321,10.062 20.8321,22.572" /><path
         id="path238"
         style="fill:#f89e75;fill-opacity:1;fill-rule:evenodd;stroke:none"
         d="m 2225.6276,1831.9126 c 16.134,-6.864 25.41,-21.3781 20.712,-32.4241 -4.698,-11.04 -21.582,-14.43 -37.7161,-7.56 -16.146,6.858 -25.422,21.378 -20.724,32.4181 4.698,11.046 21.588,14.43 37.7281,7.566" /><path
         id="path240"
         style="fill:#a94546;fill-opacity:1;fill-rule:evenodd;stroke:none"
         d="m 2239.5116,1863.6047 12.126,0 c 5.886,0 10.6981,-4.8121 10.6981,-10.6981 l 0,-18.354 c -1.596,4.014 -5.6281,6.888 -10.3081,6.888 l -12.516,0 c -10.476,0 -19.404,-6.702 -22.4461,-15.906 -0.246,0.96 -0.384,1.95 -0.384,2.97 l 0,12.282 c 0,12.552 10.2721,22.8181 22.8301,22.8181" /><path
         id="path242"
         style="fill:#a94546;fill-opacity:1;fill-rule:evenodd;stroke:none"
         d="m 2396.868,1863.6047 -12.126,0 c -5.8861,0 -10.6981,-4.8121 -10.6981,-10.6981 l 0,-18.354 c 1.59,4.014 5.622,6.888 10.3081,6.888 l 12.516,0 c 10.476,0 19.398,-6.702 22.44,-15.906 0.252,0.96 0.384,1.95 0.384,2.97 l 0,12.282 c 0,12.552 -10.266,22.8181 -22.824,22.8181" /><path
         id="path244"
         style="fill:#fcd561;fill-opacity:1;fill-rule:evenodd;stroke:none"
         d="m 2594.0285,1891.9307 0,-0.01 c 0,-17.772 14.538,-32.3221 32.3221,-32.3221 l 6.75,0 c 17.784,0 32.3221,14.5501 32.3221,32.3221 l 0,0.01 c 0,17.7901 -14.5381,32.3341 -32.3221,32.3341 l -6.75,0 c -17.7841,0 -32.3221,-14.544 -32.3221,-32.3341" /><path
         id="path246"
         style="fill:#f79163;fill-opacity:1;fill-rule:evenodd;stroke:none"
         d="m 847.49612,1748.6624 c 10.54803,10.536 32.45408,5.724 48.93612,-10.7581 16.48204,-16.482 21.29405,-38.3881 10.75203,-48.9301 -10.54203,-10.548 -32.44808,-5.73 -48.93012,10.758 -16.48205,16.4821 -21.30006,38.3821 -10.75803,48.9302" /><path
         id="path248"
         style="fill:#fcd561;fill-opacity:1;fill-rule:evenodd;stroke:none"
         d="m 2092.1152,2086.4572 c -29.79,-23.604 -38.7781,-66.3421 -19.362,-100.2782 l 0.012,-0.012 c 21.39,-37.3921 69.4742,-50.4722 106.8722,-29.0821 l 40.4762,23.1661 1.41,0.834 c -42.8162,-23.5621 -97.2483,-8.4001 -121.6084,34.17 l -0.01,0.012 c -12.828,22.4221 -14.868,48.1862 -7.794,71.1902" /><path
         id="path250"
         style="fill:#3c649f;fill-opacity:1;fill-rule:evenodd;stroke:none"
         d="m 3293.9722,1632.2621 c 6.1501,-13.4041 8.9881,-28.5601 7.5481,-44.3041 -4.4041,-48.0302 -46.9082,-83.4062 -94.9383,-79.0142 -43.6441,3.996 -76.8242,39.4441 -79.2422,81.9122 12.612,-27.5041 39.1801,-47.6761 71.4662,-50.6401 48.0301,-4.3921 90.5462,30.984 94.9382,79.0141 0.408,4.4041 0.468,8.7541 0.228,13.0321" /><path
         id="path252"
         style="fill:#ffffff;fill-opacity:1;fill-rule:evenodd;stroke:none"
         d="m 3090.0557,1714.0303 19.1821,-3.894 c 1.146,-0.234 1.566,-1.296 0.942,-2.358 l -11.7301,-19.8781 c -3.522,-5.964 -11.646,-9.786 -18.072,-8.484 l 0,0 c -6.426,1.308 -8.796,7.254 -5.274,13.218 l 11.724,19.8781 c 0.624,1.068 2.082,1.752 3.228,1.518" /><path
         id="path254"
         style="fill:#ffffff;fill-opacity:1;fill-rule:evenodd;stroke:none"
         d="m 3104.3958,1720.1383 c -13.3921,2.718 -30.7021,-5.994 -38.6461,-19.464 -7.9501,-13.4701 -3.522,-26.5981 9.876,-29.3101 13.392,-2.724 30.7081,5.994 38.6521,19.464 7.944,13.4641 3.522,26.5981 -9.882,29.3101 z m 6.252,10.602 c 19.23,-3.906 25.572,-22.728 14.166,-42.0541 -11.394,-19.326 -36.2161,-31.8241 -55.4401,-27.924 -19.2241,3.9 -25.5661,22.722 -14.1661,42.0481 11.4001,19.326 36.2221,31.824 55.4402,27.93 l 0,0" /><path
         id="path256"
         style="fill:#fbcb46;fill-opacity:1;fill-rule:evenodd;stroke:none"
         d="m 3452.6666,2473.8362 -0.012,-0.01 c -9.762,-4.5 -14.064,-16.1701 -9.558,-25.9381 l 45.0241,-97.5782 c 4.5,-9.756 16.1701,-14.0581 25.9321,-9.552 l 0.01,0 c 9.768,4.512 14.07,16.182 9.564,25.938 l -45.0241,97.5783 c -4.5,9.762 -16.17,14.058 -25.9321,9.558" /><path
         id="path258"
         style="fill:#464648;fill-opacity:1;fill-rule:evenodd;stroke:none"
         d="m 3442.1186,2496.6902 -0.018,0 c -4.542,-2.094 -6.54,-7.518 -4.44,-12.06 l 13.356,-28.9561 c 2.1,-4.542 7.524,-6.534 12.0661,-4.44 l 0.01,0.01 c 4.548,2.094 6.54,7.506 4.44,12.0601 l -13.3561,28.956 c -2.094,4.542 -7.512,6.534 -12.054,4.434" /><path
         id="path260"
         style="fill:#a94546;fill-opacity:1;fill-rule:evenodd;stroke:none"
         d="m 3464.9427,2092.5352 0,0.01 c -1.242,1.896 -3.81,2.442 -5.7181,1.206 l -12.156,-7.92 -0.084,-0.054 -0.01,0 c -1.908,-1.242 -2.442,-3.816 -1.2,-5.718 l 0,0 0.054,-0.09 7.914,-12.156 c 1.242,-1.896 3.816,-2.448 5.718,-1.206 l 0,0 c 1.9081,1.242 2.4541,3.81 1.2121,5.718 l -5.7181,8.784 8.7781,5.712 c 1.908,1.248 2.448,3.81 1.206,5.718" /><path
         id="path262"
         style="fill:#70343a;fill-opacity:1;fill-rule:evenodd;stroke:none"
         d="m 3229.5681,2261.8077 c 73.7162,-0.228 143.9283,-43.9682 173.8504,-116.0163 l 5.322,-12.8161 c 20.2681,-48.8041 18.2701,-101.5322 -1.242,-146.7723 38.2621,51.5701 49.4101,121.4763 23.1241,184.7704 l -5.322,12.8161 c -30.1861,72.6841 -101.3883,116.5503 -175.8125,116.0042 l 10.5301,-25.338 -30.4501,-12.648" /><path
         id="path264"
         style="fill:#70343a;fill-opacity:1;fill-rule:evenodd;stroke:none"
         d="m 3396.2005,2307.3778 c 52.7521,1.392 103.9143,-28.4221 126.8463,-79.3502 l 4.074,-9.0541 c 15.5341,-34.488 15.2161,-72.2701 2.214,-105.0482 26.2861,37.7101 32.7901,87.9722 12.6481,132.7023 l -4.0801,9.054 c -23.13,51.3782 -75.0061,81.2642 -128.2503,79.3082 l 8.064,-17.916 -21.516,-9.696" /><path
         id="path266"
         style="fill:#70343a;fill-opacity:1;fill-rule:evenodd;stroke:none"
         d="m 3530.7148,2377.6439 c 16.4641,-6.792 27.3061,-25.35 25.4161,-46.0201 -2.28,-24.81 -22.0321,-43.2961 -44.1541,-41.2681 -9.402,0.864 -17.7001,5.286 -23.9821,12.0061 3.3,-1.362 6.816,-2.244 10.512,-2.5861 22.1101,-2.022 41.8682,16.4641 44.1422,41.2742 1.302,14.256 -3.4561,27.51 -11.9341,36.594" /><path
         id="path268"
         style="fill:#70343a;fill-opacity:1;fill-rule:evenodd;stroke:none"
         d="m 3366.2004,2228.6456 c -69.4022,24.846 -150.3004,7.596 -202.9385,-49.9862 l -9.366,-10.242 c -35.6581,-39.0001 -51.7081,-89.2682 -48.7441,-138.4443 -18.4441,61.5121 -5.1601,131.0403 41.0881,181.6204 l 9.36,10.2421 c 53.1061,58.0921 134.9763,75.1261 204.7865,49.3081 l -18.522,-20.2501 24.336,-22.248" /><path
         id="path270"
         style="fill:#4772b1;fill-opacity:1;fill-rule:evenodd;stroke:none"
         d="m 3399.7045,1785.4785 c 48.9481,-4.482 74.1182,-46.7942 56.2261,-94.5063 -17.892,-47.7241 -72.0721,-82.7762 -121.0203,-78.2882 -48.9421,4.476 -74.1181,46.7941 -56.2261,94.5063 17.886,47.7241 72.0722,82.7702 121.0203,78.2882" /><path
         id="path272"
         style="fill:#87b6e5;fill-opacity:1;fill-rule:evenodd;stroke:none"
         d="m 3449.8586,1809.5865 c 47.4841,-4.344 71.9102,-45.3961 54.5522,-91.6922 -17.3641,-46.3021 -69.9302,-80.3102 -117.4203,-75.9602 -47.4902,4.35 -71.9042,45.4081 -54.5462,91.7042 17.3581,46.2961 69.9242,80.2982 117.4143,75.9482" /><path
         id="path274"
         style="fill:#f4703c;fill-opacity:1;fill-rule:evenodd;stroke:none"
         d="m 3447.0926,1672.0422 c -29.6701,-15.8281 -66.5581,-4.614 -82.3922,25.05 -15.828,29.6701 -4.608,66.5582 25.0561,82.3922 0.99,0.5281 346.7408,181.7285 495.0552,568.4655 12.018,31.488 47.3041,47.2681 78.7922,35.2501 31.4821,-12.0181 47.2681,-47.3042 35.2501,-78.7862 -164.7184,-429.5051 -550.6454,-631.7776 -551.7614,-632.3716" /><path
         id="path276"
         style="fill:#f58050;fill-opacity:1;fill-rule:evenodd;stroke:none"
         d="m 3359.4624,1710.5563 c -6.882,26.598 4.986,55.4341 30.3001,68.9161 0.984,0.5401 346.7348,181.7405 495.0492,568.4775 11.196,29.352 42.6361,45.0661 72.3422,37.3081 3.09,-11.8681 2.646,-24.7801 -2.064,-37.1041 -164.7064,-429.4991 -550.6514,-631.7716 -551.7494,-632.3656 -14.01,-7.47 -29.6281,-8.91 -43.8781,-5.232" /><path
         id="path278"
         style="fill:#a94546;fill-opacity:1;fill-rule:evenodd;stroke:none"
         d="m 3829.4256,2227.7516 c 20.364,37.6021 39.0721,77.6582 55.3861,120.1983 10.188,26.676 37.0681,42.0781 64.1882,38.8501 7.74,-11.4241 12.738,-25.3321 14.058,-41.0641 4.422,-52.6982 -34.1521,-105.9123 -86.1362,-118.8423 -16.896,-4.2 -33.1321,-3.624 -47.4961,0.858" /><path
         id="path280"
         style="fill:#f79163;fill-opacity:1;fill-rule:evenodd;stroke:none"
         d="m 1128.8848,1280.6372 c 49.2661,0 77.0822,-39.9361 62.1302,-89.2022 -14.9521,-49.2661 -67.0202,-89.2082 -116.2863,-89.2082 -49.2661,0 -77.08221,39.9421 -62.1242,89.2082 14.9521,49.2661 67.0142,89.2022 116.2803,89.2022" /><path
         id="path282"
         style="fill:#854249;fill-opacity:1;fill-rule:evenodd;stroke:none"
         d="m 2722.9148,2811.055 0.012,0 c 10.968,1.89 21.4801,-5.538 23.3641,-16.5 l 91.0562,-528.8653 c 1.884,-10.9621 -5.538,-21.4801 -16.506,-23.3641 l -0.01,-0.012 c -10.9681,-1.884 -21.4741,5.544 -23.3641,16.512 l -91.0502,528.8714 c -1.896,10.956 5.532,21.474 16.494,23.358" /><path
         id="path284"
         style="fill:#f58050;fill-opacity:1;fill-rule:evenodd;stroke:none"
         d="m 2670.1507,2445.1861 c 4.416,-52.7101 50.1421,-84.9542 102.1322,-72.0242 51.9962,12.9301 90.5643,66.1442 86.1422,118.8423 -4.416,52.7042 -50.1421,84.9542 -102.1322,72.0242 -51.9901,-12.93 -90.5642,-66.1382 -86.1422,-118.8423" /><path
         id="path286"
         style="fill:#854249;fill-opacity:1;fill-rule:evenodd;stroke:none"
         d="m 4028.7221,2691.5047 0,0 c -10.4461,3.846 -22.1341,-1.548 -25.9801,-11.988 l -185.5745,-503.5393 c -3.852,-10.434 1.542,-22.122 11.9821,-25.974 l 0.01,-0.01 c 10.44,-3.84 22.122,1.554 25.974,11.994 l 185.5745,503.5393 c 3.846,10.428 -1.542,22.122 -11.982,25.974" /><path
         id="path288"
         style="fill:#f58050;fill-opacity:1;fill-rule:evenodd;stroke:none"
         d="m 3822.8916,2321.5858 c 4.422,-52.7041 50.1481,-84.9422 102.1382,-72.0182 51.9961,12.9301 90.5582,66.1382 86.1422,118.8423 -4.41,52.7102 -50.1421,84.9542 -102.1382,72.0242 -51.9842,-12.93 -90.5583,-66.1442 -86.1422,-118.8483" /><path
         id="path290"
         style="fill:#f8a44b;fill-opacity:1;fill-rule:evenodd;stroke:none"
         d="m 2662.8667,2913.7573 c 43.1281,7.56 87.2942,12.9 130.8183,17.442 109.9923,11.4781 221.1425,16.7281 331.7168,16.4641 328.2128,-0.756 666.1697,-50.8442 971.7624,-173.5145 7.8061,-3.132 11.7001,-11.928 8.7721,-19.812 L 3999.862,2468.2082 c -1.524,-4.092 -4.314,-7.062 -8.31,-8.8201 -3.996,-1.752 -8.082,-1.806 -12.1201,-0.156 -266.7606,108.8703 -563.6114,152.3284 -850.6761,152.8624 -97.6862,0.18 -195.8825,-4.524 -293.0527,-14.712 -38.2261,-4.008 -76.8302,-8.736 -114.7263,-15.318 -8.412,-1.458 -16.47,4.212 -17.946,12.618 l -52.7942,301.0987 c -0.744,4.218 0.126,8.1061 2.586,11.6101 2.46,3.498 5.826,5.634 10.0441,6.366" /><path
         id="path292"
         style="fill:#fbcb46;fill-opacity:1;fill-rule:evenodd;stroke:none"
         d="m 2662.8667,2913.7573 c 43.1281,7.56 87.2942,12.9 130.8183,17.442 109.9923,11.4781 221.1425,16.7281 331.7168,16.4641 112.5423,-0.264 226.2366,-6.318 339.3729,-19.1221 180.7624,-65.7181 291.6067,-149.0104 284.1967,-230.0106 -4.776,-52.1701 -58.0022,-96.3542 -145.9324,-129.7023 -156.6544,29.7841 -316.9388,42.9721 -474.2832,43.2661 -97.6862,0.18 -195.8825,-4.524 -293.0527,-14.712 -38.2261,-4.008 -76.8302,-8.736 -114.7263,-15.318 -8.412,-1.458 -16.47,4.212 -17.946,12.618 l -52.7942,301.0987 c -0.744,4.218 0.126,8.1061 2.586,11.6101 2.46,3.498 5.826,5.634 10.0441,6.366" /><path
         id="path294"
         style="fill:#854249;fill-opacity:1;fill-rule:evenodd;stroke:none"
         d="m 1955.4529,2809.411 0.01,0 c 10.962,1.89 21.474,-5.538 23.358,-16.5 l 91.0623,-528.8653 c 1.884,-10.9681 -5.538,-21.4801 -16.5061,-23.3641 l -0.01,0 c -10.962,-1.896 -21.474,5.532 -23.37,16.5 l -91.0503,528.8714 c -1.89,10.956 5.5381,21.474 16.5061,23.358" /><path
         id="path296"
         style="fill:#f58050;fill-opacity:1;fill-rule:evenodd;stroke:none"
         d="m 1995.347,2513.7303 c -61.7522,-10.914 -94.8842,-68.3942 -73.9982,-128.3823 20.8861,-59.9882 87.8822,-99.7803 149.6344,-88.8663 61.7521,10.9141 94.8842,68.3942 73.9982,128.3824 -20.8921,59.9941 -87.8823,99.7802 -149.6344,88.8662" /><path
         id="path298"
         style="fill:#854249;fill-opacity:1;fill-rule:evenodd;stroke:none"
         d="m 643.97561,2516.6163 0,0.012 c 9.78002,5.322 22.12806,1.68 27.43807,-8.094 l 256.61464,-471.3192 c 5.32201,-9.774 1.68,-22.1161 -8.09402,-27.4381 l -0.006,-0.01 c -9.76802,-5.316 -22.11606,-1.674 -27.43807,8.1 l -256.60864,471.3132 c -5.32201,9.768 -1.68,22.1221 8.09402,27.4321" /><path
         id="path300"
         style="fill:#f58050;fill-opacity:1;fill-rule:evenodd;stroke:none"
         d="m 805.47801,2295.7437 c 61.75216,10.9021 112.57229,-31.734 113.51429,-95.2562 0.936,-63.5162 -48.36612,-123.8523 -110.11828,-134.7603 -61.75215,-10.9141 -112.57828,31.728 -113.51428,95.2502 -0.93,63.5102 48.36612,123.8523 110.11827,134.7663" /><path
         id="path302"
         style="fill:#87b6e5;fill-opacity:1;fill-rule:evenodd;stroke:none"
         d="M 952.23238,2633.2146 724.89781,2352.1319 c -3.55201,-4.386 -8.60402,-6.546 -14.23803,-6.09 -5.61602,0.462 -10.25403,3.414 -13.03804,8.328 l -130.55012,230.0106 c -2.78401,4.914 -2.94841,10.404 -0.459,15.468 2.4864,5.076 6.92761,8.298 12.52263,9.096 l 357.88709,51.0722 c 6.87602,0.978 13.30804,-2.1721 16.74004,-8.2201 3.42001,-6.036 2.83201,-13.182 -1.53,-18.582" /><path
         id="path304"
         style="fill:#66b431;fill-opacity:1;fill-rule:evenodd;stroke:none"
         d="m 1639.6361,2695.8967 353.2869,-76.6562 c 5.52,-1.2 10.806,0.282 14.91,4.1641 4.098,3.888 5.856,9.096 4.944,14.67 l -42.3481,261.0606 c -0.9,5.5801 -4.212,9.9601 -9.324,12.3481 -5.118,2.394 -10.602,2.124 -15.462,-0.756 l -310.9388,-184.4105 c -5.976,-3.54 -9.012,-10.032 -7.896,-16.884 1.11,-6.858 6.042,-12.0541 12.828,-13.5361" /><path
         id="path306"
         style="fill:#ffffff;fill-opacity:1;fill-rule:evenodd;stroke:none"
         d="m 716.76779,2555.3884 32.18408,15.942 c 1.92601,0.954 4.27201,0.162 5.22602,-1.776 l 15.57603,-31.4401 c 5.34002,-10.782 0.88801,-23.946 -9.88202,-29.286 l -0.012,-0.01 c -10.77603,-5.334 -23.94606,-0.882 -29.28607,9.888 l -15.57004,31.4461 c -0.954,1.932 -0.162,4.278 1.764,5.232" /><path
         id="path308"
         style="fill:#ffffff;fill-opacity:1;fill-rule:evenodd;stroke:none"
         d="m 726.19982,2576.8144 c -22.47606,-11.136 -31.68008,-38.4001 -20.55006,-60.8821 11.13603,-22.4761 38.3941,-31.6861 60.87616,-20.5501 22.48805,11.1301 31.69208,38.3941 20.55605,60.8702 -11.13003,22.488 -38.3941,31.6921 -60.88215,20.562 z m -8.74803,17.6881 c 32.25008,15.972 71.34618,2.772 87.31822,-29.4901 15.97204,-32.2501 2.77201,-71.3462 -29.48407,-87.3242 -32.25608,-15.972 -71.34618,-2.766 -87.32422,29.4901 -15.97204,32.256 -2.77201,71.3521 29.49007,87.3242 l 0,0" /><path
         id="path310"
         style="fill:#ffffff;fill-opacity:1;fill-rule:evenodd;stroke:none"
         d="m 1853.0146,2781.985 35.8921,-0.714 c 2.154,-0.042 3.87,-1.8301 3.828,-3.9841 l -0.702,-35.088 c -0.234,-12.0181 -10.26,-21.6481 -22.284,-21.4081 l -0.012,0 c -12.0181,0.234 -21.6481,10.266 -21.4081,22.2841 l 0.696,35.082 c 0.042,2.1541 1.824,3.8701 3.99,3.8281" /><path
         id="path312"
         style="fill:#ffffff;fill-opacity:1;fill-rule:evenodd;stroke:none"
         d="m 1871.2607,2796.631 c -25.0801,0.504 -45.8281,-19.4341 -46.3261,-44.5141 -0.504,-25.0861 19.434,-45.8341 44.5201,-46.3381 25.08,-0.492 45.8281,19.44 46.3201,44.5201 0.51,25.086 -19.4281,45.8401 -44.5141,46.3321 z m 0.396,19.74 c 35.9881,-0.714 64.5721,-30.474 63.8581,-66.4561 -0.714,-35.9881 -30.474,-64.5842 -66.4561,-63.8582 -35.9881,0.714 -64.5782,30.4621 -63.8582,66.4502 0.714,35.9881 30.4741,64.5781 66.4562,63.8641 l 0,0" /><path
         id="path316"
         style="fill:#ffffff;fill-opacity:1;fill-rule:evenodd;stroke:none"
         d="m 3403.5625,891.68023 66.4682,1.962 -1.458,191.52647 -76.4042,-2.262 11.394,-191.22647 z m 35.6041,-78.8582 c 21.0121,0.624 37.0321,14.86204 36.4081,35.87409 -0.636,21.39606 -17.4661,34.65609 -38.4841,34.03809 -21.0121,-0.624 -37.0321,-14.85604 -36.3961,-36.25809 0.618,-21.01206 17.454,-34.27809 38.4721,-33.65409 l 0,0 z m -104.5143,262.64467 c -62.6641,-1.854 -105.0602,-3.114 -166.9504,-4.938 2.622,-88.63225 5.274,-178.02647 7.926,-267.42069 61.8842,1.824 107.7303,3.18601 170.3765,5.04601 -0.594,20.23805 -1.206,40.8721 -1.794,60.73815 -40.1101,-1.188 -63.0362,-1.866 -102.3903,-3.02401 -0.474,16.04404 -0.918,31.32008 -1.386,46.98012 l 90.9242,2.69401 c -0.6,20.25005 -1.2,40.5001 -1.806,60.73815 l -90.9182,-2.68201 -1.122,37.81207 c 39.3541,1.17 59.2141,1.758 98.9462,2.934 -0.618,20.6281 -1.218,41.2561 -1.806,61.1222 l 0,0 z m -362.5689,-126.20433 -108.1142,113.04033 -25.2181,-0.75 7.938,-268.18272 c 23.3101,0.68401 46.6141,1.38001 69.9122,2.07001 l -3.522,119.1963 58.3021,-57.92415 7.644,0.216 55.1522,61.28416 3.528,-119.1903 c 23.3041,0.69 46.6081,1.386 69.9122,2.07 l -7.9381,268.1827 -24.456,-0.72 -103.1403,-119.29233 0,0 z M 2587.5485,919.1363 c -2.856,96.2702 131.2323,100.2482 134.0883,3.96601 2.868,-97.02624 -131.2203,-100.99225 -134.0883,-3.96601 l 0,0 z m 204.0005,6.04201 c -5.472,184.90849 -279.7687,176.77849 -274.2907,-8.12402 5.484,-185.27446 279.7807,-177.16244 274.2907,8.12402 l 0,0 z m -574.2075,-16.61404 c 3.0781,-90.91223 73.2002,-134.71834 141.1864,-132.33033 56.9221,1.68 116.0223,33.26408 123.7203,109.20627 -23.3041,-0.696 -44.3101,-1.32 -67.2362,-1.992 -6.408,-28.87207 -29.292,-44.07611 -58.3261,-44.94611 -40.5001,-0.81001 -67.5002,32.80208 -68.6582,72.15018 -1.32,44.31611 24.1561,75.27618 64.2602,76.46419 28.6501,0.852 49.2721,-10.77603 59.6161,-37.6201 23.3101,0.69601 43.9321,1.30801 67.2422,1.99201 -12.432,71.13622 -73.3022,99.54622 -128.7003,97.89622 -68.0042,-2.01 -135.4144,-49.8901 -133.1044,-140.82033 l 0,0 z m -131.9283,129.91833 c -23.304,-0.696 -45.8461,-1.362 -68.7722,-2.04 l 7.9141,-267.41468 c 54.2581,1.60201 110.7962,3.27601 165.8104,4.90801 -0.672,22.92006 -1.14,38.5801 -1.824,61.50616 l -97.0263,-2.86801 c -3.384,113.83829 -2.016,67.61417 -6.102,205.90852 l 0,0 z m -130.6563,-3.87 c -62.6522,-1.86 -105.0543,-3.108 -166.9504,-4.938 2.628,-88.63225 5.28,-178.03247 7.92,-267.42069 61.8961,1.824 107.7363,3.186 170.3884,5.04601 -0.594,20.23805 -1.212,40.8721 -1.794,60.73815 -40.1161,-1.194 -63.0361,-1.866 -102.3842,-3.03601 -0.48,16.05004 -0.93,31.33208 -1.392,46.99212 l 90.9122,2.69401 c -0.594,20.24405 -1.194,40.5001 -1.788,60.73815 l -90.9303,-2.69401 -1.116,37.8241 c 39.3541,1.17 59.2142,1.752 98.9463,2.934 -0.618,20.62806 -1.224,41.26207 -1.812,61.12217 l 0,0 z m -396.421,-15.9361 -40.4941,-143.44231 -1.146,-0.036 -13.182,45.10811 -37.3621,99.8343 -69.1562,-2.0401 0.312,-10.32 101.6642,-256.99262 37.8301,1.122 38.9701,130.01432 1.146,0.036 46.5962,-127.48831 39.3481,1.164 85.1462,262.53061 -0.306,10.3141 -67.9982,-2.016 -31.0201,-101.86229 -10.494,-45.80411 -1.152,-0.036 -49.6681,140.7603 c -10.6921,-0.312 -18.3421,-0.534 -29.0341,-0.846 l 0,0" /><path
         id="path318"
         style="fill:#ffffff;fill-opacity:1;fill-rule:evenodd;stroke:none"
         d="m 2469.7262,2916.3313 0,0.018 c 4.068,15.186 19.812,24.2641 34.9981,20.196 l 81.6062,-21.864 c 15.18,-4.068 24.276,-19.8061 20.202,-34.9921 l 0,-0.012 c -4.068,-15.174 -19.812,-24.2701 -34.9921,-20.2021 l -81.6122,21.8701 c -15.18,4.068 -24.27,19.8121 -20.202,34.9861" /><path
         id="path320"
         style="fill:#ffffff;fill-opacity:1;fill-rule:evenodd;stroke:none"
         d="m 2368.9139,2943.3494 0,0.012 c 4.062,15.186 19.8121,24.264 34.9921,20.196 l 13.2,-3.534 c 15.1801,-4.068 24.2701,-19.806 20.2021,-34.9861 l 0,-0.012 c -4.074,-15.174 -19.8121,-24.276 -34.9981,-20.202 l -13.194,3.534 c -15.1801,4.074 -24.2701,19.818 -20.2021,34.9921" /><path
         id="path322"
         style="fill:#ffffff;fill-opacity:1;fill-rule:evenodd;stroke:none"
         d="m 2568.8584,2552.2024 0,-0.01 c 4.644,-8.73 15.5701,-12.072 24.3001,-7.44 l 46.9141,24.942 c 8.724,4.638 12.072,15.5581 7.428,24.2941 l 0,0.01 c -4.644,8.73 -15.564,12.078 -24.294,7.434 l -46.9142,-24.9361 c -8.73,-4.638 -12.072,-15.564 -7.434,-24.294" /><path
         id="path324"
         style="fill:#ffffff;fill-opacity:1;fill-rule:evenodd;stroke:none"
         d="m 2510.9043,2521.3983 0.012,0 c 4.632,-8.736 15.558,-12.078 24.288,-7.44 l 7.5901,4.038 c 8.73,4.638 12.072,15.57 7.434,24.3001 l -0.01,0 c -4.632,8.73 -15.5641,12.072 -24.2941,7.434 l -7.584,-4.032 c -8.736,-4.644 -12.078,-15.5641 -7.44,-24.3001" /><path
         id="path326"
         style="fill:#ffffff;fill-opacity:1;fill-rule:evenodd;stroke:none"
         d="m 2505.5583,2725.3448 0,-0.012 c 1.17,-9.816 10.152,-16.878 19.968,-15.702 l 52.7521,6.306 c 9.8161,1.176 16.8721,10.158 15.7081,19.968 l 0,0.012 c -1.182,9.8221 -10.158,16.8781 -19.9801,15.7021 l -52.7461,-6.306 c -9.822,-1.176 -16.884,-10.1581 -15.702,-19.9681" /><path
         id="path328"
         style="fill:#ffffff;fill-opacity:1;fill-rule:evenodd;stroke:none"
         d="m 2440.3861,2717.5448 0,-0.01 c 1.176,-9.822 10.158,-16.878 19.9801,-15.702 l 8.532,1.02 c 9.81,1.17 16.872,10.152 15.702,19.968 l 0,0.01 c -1.176,9.816 -10.152,16.884 -19.974,15.708 l -8.5321,-1.02 c -9.816,-1.182 -16.884,-10.158 -15.708,-19.974" /><path
         id="path330"
         style="fill:#fbcb46;fill-opacity:1;fill-rule:evenodd;stroke:none"
         d="m 3403.0765,3122.0778 c -9.132,9.252 -25.1881,11.112 -35.8561,4.164 -10.674,-6.954 -11.922,-20.088 -2.784,-29.3341 9.132,-9.24 25.1941,-11.106 35.8621,-4.158 10.674,6.954 11.922,20.0821 2.778,29.3281 z m -81.1622,-52.8541 c -17.358,17.562 -47.8681,21.108 -68.1542,7.896 -20.274,-13.2 -22.638,-38.1541 -5.28,-55.7281 17.3581,-17.5681 47.8741,-21.1081 68.1482,-7.9021 20.28,13.2061 22.65,38.1541 5.286,55.7342 l 0,0" /><path
         id="path332"
         style="fill:#fbcb46;fill-opacity:1;fill-rule:evenodd;stroke:none"
         d="m 4276.6007,2598.3665 c -9.78,9.9 -26.9821,11.892 -38.4061,4.446 -11.43,-7.44 -12.762,-21.498 -2.982,-31.3981 9.786,-9.906 26.9881,-11.898 38.4061,-4.458 11.436,7.44 12.762,21.4981 2.982,31.4101 z m -86.9222,-56.6101 c -18.5941,18.816 -51.2702,22.608 -72.9842,8.466 -21.7141,-14.1421 -24.2401,-40.8601 -5.652,-59.6822 18.588,-18.816 51.2641,-22.608 72.9782,-8.466 21.72,14.142 24.246,40.8601 5.658,59.6822 l 0,0" /><path
         id="path334"
         style="fill:#f03764;fill-opacity:1;fill-rule:evenodd;stroke:none"
         d="m 3706.6833,1593.886 c -12.2101,12.36 -33.6721,14.856 -47.9402,5.568 -14.262,-9.294 -15.924,-26.8441 -3.714,-39.2041 12.2101,-12.36 33.6721,-14.856 47.9402,-5.562 14.262,9.288 15.924,26.8441 3.714,39.1981 z m -108.4863,-70.6502 c -23.2081,23.4841 -63.9962,28.2181 -91.0982,10.566 -27.1021,-17.652 -30.2641,-51.0001 -7.062,-74.4902 23.202,-23.49 63.9901,-28.218 91.0922,-10.572 27.108,17.6521 30.2701,51.0061 7.068,74.4962 l 0,0" /><path
         id="path336"
         style="fill:#87b6e5;fill-opacity:1;fill-rule:evenodd;stroke:none"
         d="m 1014.6445,2845.6871 c 11.0461,11.184 30.4621,13.434 43.3681,5.028 12.9061,-8.4 14.4181,-24.282 3.3661,-35.4661 -11.0461,-11.184 -30.4741,-13.434 -43.3742,-5.034 -12.906,8.406 -14.412,24.2881 -3.36,35.4721 z m 98.1543,-63.9241 c 20.994,21.246 57.8941,25.53 82.4102,9.564 24.528,-15.9781 27.3841,-46.1401 6.396,-67.3922 -21,-21.258 -57.8941,-25.5361 -82.4222,-9.564 -24.5161,15.966 -27.3781,46.1401 -6.384,67.3922 l 0,0" /><path
         id="path338"
         style="fill:#f03764;fill-opacity:1;fill-rule:evenodd;stroke:none"
         d="m 4245.2866,1044.3686 c -6.498,23.2021 -30.8521,40.6441 -54.3961,38.9701 -23.5381,-1.68 -37.3621,-21.846 -30.8521,-45.0421 6.498,-23.2021 30.8521,-40.64411 54.3961,-38.9701 23.5381,1.68 37.3621,21.8521 30.8521,45.0421 z m -179.0644,-12.762 c -12.3481,44.0821 -58.6322,77.2322 -103.3623,74.0462 -44.7421,-3.192 -70.9862,-41.5081 -58.6381,-85.5962 12.36,-44.07616 58.6381,-77.22624 103.3742,-74.04023 44.7301,3.186 70.9862,41.5141 58.6262,85.59023 l 0,0" /><path
         id="path340"
         style="fill:#f03764;fill-opacity:1;fill-rule:evenodd;stroke:none"
         d="m 980.26445,1193.523 -198.5045,103.8182 c 0,0 131.62833,10.7641 118.6023,12.5701 -13.02003,1.788 -308.07617,201.0065 -308.07617,201.0065 l 188.03387,-10.77 -124.39831,96.9182 248.78462,-118.4523 -128.72432,-25.1341 205.38051,-154.3444 -90.48022,-19.554 89.38222,-86.0582" /><path
         id="path342"
         style="fill:#87b6e5;fill-opacity:1;fill-rule:evenodd;stroke:none"
         d="m 4134.6283,1998.599 206.4366,-302.8088 c 14.004,-20.538 8.652,-48.7861 -11.8861,-62.7901 l -49.2001,-33.5461 c -20.5441,-14.004 -48.7921,-8.652 -62.7962,11.88 l -206.4305,302.8148 c -14.004,20.538 -8.652,48.7921 11.8861,62.7901 l 49.2061,33.5461 c 20.538,14.0041 48.7861,8.652 62.7841,-11.886" /><path
         id="path344"
         style="fill:#4772b1;fill-opacity:1;fill-rule:evenodd;stroke:none"
         d="m 4340.9089,1696.0122 103.1342,-151.2783 c 10.938,-16.0501 10.068,-36.8041 -0.63,-51.7922 l -11.22,16.4641 c -8.454,12.396 -25.5181,15.63 -37.9201,7.176 l -29.7181,-20.2621 c -12.402,-8.454 -15.624,-25.518 -7.17,-37.9201 l 11.22,-16.452 c -17.868,-4.488 -37.5061,2.286 -48.4441,18.3361 l -103.1343,151.2783 c -13.998,20.5381 -8.646,48.7982 11.8921,62.8022 l 49.1881,33.5341 c 20.544,14.004 48.7981,8.652 62.8022,-11.8861" /><path
         id="path346"
         style="fill:#ffffff;fill-opacity:1;fill-rule:evenodd;stroke:none"
         d="m 4368.4969,1442.1036 -114.9183,168.5584 c -8.454,12.4021 -5.22,29.4661 7.1821,37.9201 l 29.712,20.2561 c 12.4021,8.454 29.4661,5.226 37.9201,-7.176 l 114.9123,-168.5585 c -8.454,12.4021 -25.5241,15.6301 -37.9201,7.1761 l -29.7181,-20.2561 c -12.396,-8.454 -15.624,-25.5181 -7.17,-37.9201" /><path
         id="path348"
         style="fill:#fbced7;fill-opacity:1;fill-rule:evenodd;stroke:none"
         d="m 4316.1108,1642.5941 78.7622,-115.5303 c 2.58,-3.786 1.596,-8.988 -2.184,-11.562 l -0.012,-0.012 c -3.786,-2.58 -8.976,-1.596 -11.556,2.19 l -78.7622,115.5363 c -2.5801,3.78 -1.602,8.976 2.184,11.556 l 0.012,0.012 c 3.786,2.574 8.976,1.596 11.556,-2.19" /><path
         id="path350"
         style="fill:#fbced7;fill-opacity:1;fill-rule:evenodd;stroke:none"
         d="m 4289.5787,1624.5041 78.7622,-115.5303 c 2.58,-3.786 1.596,-8.9821 -2.19,-11.5621 l -0.01,-0.01 c -3.786,-2.58 -8.988,-1.596 -11.568,2.184 l -78.7562,115.5303 c -2.58,3.786 -1.596,8.9881 2.19,11.5681 l 0.012,0.01 c 3.774,2.58 8.976,1.596 11.556,-2.19" /><path
         id="path352"
         style="fill:#4772b1;fill-opacity:1;fill-rule:evenodd;stroke:none"
         d="m 4115.2003,1944.8029 6.684,-9.7981 c 2.748,-4.032 1.704,-9.57 -2.334,-12.318 l -35.0641,-23.9041 c -4.032,-2.748 -9.564,-1.698 -12.318,2.3341 l -6.678,9.798 c -2.754,4.044 -1.704,9.57 2.328,12.318 l 35.0641,23.9041 c 4.038,2.76 9.57,1.71 12.318,-2.334" /><path
         id="path354"
         style="fill:#4772b1;fill-opacity:1;fill-rule:evenodd;stroke:none"
         d="m 4156.8404,1883.7287 48.8341,-71.6342 c 9.318,-13.662 5.76,-32.4781 -7.902,-41.7961 l -0.012,-0.012 c -13.68,-9.312 -32.4781,-5.742 -41.7961,7.92 l -48.8281,71.6282 c -9.3241,13.6621 -5.778,32.4721 7.902,41.8021 l 0.012,0.01 c 13.668,9.3181 32.4781,5.748 41.7901,-7.914" /><path
         id="path356"
         style="fill:#4772b1;fill-opacity:1;fill-rule:evenodd;stroke:none"
         d="m 4239.1006,1763.0624 0,0 c 2.298,-3.366 1.428,-7.986 -1.938,-10.284 l -37.4881,-25.5541 c -3.366,-2.298 -7.992,-1.422 -10.284,1.95 l 0,0 c -2.298,3.366 -1.416,7.98 1.95,10.278 l 37.4821,25.5541 c 3.372,2.292 7.986,1.422 10.278,-1.944" /><path
         id="path358"
         style="fill:#fbcb46;fill-opacity:1;fill-rule:evenodd;stroke:none"
         d="m 3925.4018,1832.9566 323.1488,-323.1368 c 21.9241,-21.9241 21.9241,-57.7862 0,-79.7102 l -52.5001,-52.4882 c -21.9241,-21.936 -57.7802,-21.936 -79.7102,0 l -323.1368,323.1369 c -21.9301,21.924 -21.9301,57.7741 0,79.7102 l 52.4941,52.4881 c 21.9301,21.93 57.7802,21.93 79.7042,0" /><path
         id="path360"
         style="fill:#f78e4f;fill-opacity:1;fill-rule:evenodd;stroke:none"
         d="m 4248.3166,1510.0538 161.4364,-161.4484 c 17.1301,-17.1181 20.8801,-42.7621 11.2441,-63.6062 l -17.5621,17.5681 c -13.236,13.236 -34.8961,13.236 -48.1261,0 l -31.7161,-31.7161 c -13.236,-13.2301 -13.23,-34.8841 0,-48.1141 l 17.5681,-17.5681 c -20.8441,-9.636 -46.4762,-5.892 -63.6062,11.238 l -161.4424,161.4364 c -21.9241,21.9241 -21.9181,57.7922 0,79.7102 l 52.4941,52.4942 c 21.9241,21.918 57.7862,21.924 79.7102,0.01" /><path
         id="path362"
         style="fill:#ffffff;fill-opacity:1;fill-rule:evenodd;stroke:none"
         d="m 4340.9929,1205.337 -179.8865,179.8865 c -13.236,13.236 -13.236,34.8901 -0.01,48.1261 l 31.7101,31.7101 c 13.242,13.236 34.8961,13.236 48.1261,-0.01 l 179.8865,-179.8805 c -13.2361,13.23 -34.8841,13.242 -48.1262,0 l -31.71,-31.7101 c -13.2301,-13.236 -13.2301,-34.8901 0.01,-48.1261" /><path
         id="path364"
         style="fill:#fbced7;fill-opacity:1;fill-rule:evenodd;stroke:none"
         d="m 4230.3226,1438.8396 123.2943,-123.2823 c 4.038,-4.044 4.038,-10.644 0,-14.688 l 0,0 c -4.044,-4.0381 -10.644,-4.0381 -14.6881,0 l -123.2883,123.2883 c -4.038,4.038 -4.044,10.644 0,14.682 l 0,0 c 4.038,4.044 10.6441,4.044 14.6821,0" /><path
         id="path366"
         style="fill:#fbced7;fill-opacity:1;fill-rule:evenodd;stroke:none"
         d="m 4202.0025,1410.5255 123.2943,-123.2883 c 4.038,-4.038 4.038,-10.644 0,-14.682 l 0,0 c -4.038,-4.044 -10.644,-4.044 -14.682,0 l -123.2943,123.2823 c -4.032,4.038 -4.032,10.644 0,14.688 l 0,0 c 4.038,4.038 10.644,4.038 14.682,0" /><path
         id="path368"
         style="fill:#f78e4f;fill-opacity:1;fill-rule:evenodd;stroke:none"
         d="m 3914.0738,1762.5464 10.446,-10.446 c 4.302,-4.302 4.302,-11.34 0,-15.6481 l -37.4101,-37.4041 c -4.302,-4.308 -11.34,-4.308 -15.648,0 l -10.446,10.4461 c -4.3021,4.308 -4.3021,11.34 0,15.648 l 37.41,37.4041 c 4.3021,4.308 11.3401,4.308 15.6481,0" /><path
         id="path370"
         style="fill:#f78e4f;fill-opacity:1;fill-rule:evenodd;stroke:none"
         d="m 3979.2519,1697.3682 76.4402,-76.4401 c 14.5861,-14.5861 14.5981,-38.4601 0,-53.0522 l 0,0 c -14.592,-14.598 -38.4661,-14.592 -53.0521,-0.01 l -76.4402,76.4402 c -14.586,14.586 -14.592,38.4601 0,53.0581 l 0,0 c 14.5981,14.5921 38.4661,14.5861 53.0521,0" /><path
         id="path372"
         style="fill:#f78e4f;fill-opacity:1;fill-rule:evenodd;stroke:none"
         d="m 4108.0303,1568.5899 0,0 c 3.588,-3.594 3.588,-9.456 0,-13.044 l -40.0021,-40.0081 c -3.6,-3.594 -9.4681,-3.594 -13.0561,0 l 0,0 c -3.588,3.594 -3.588,9.456 0.01,13.056 l 40.0021,40.0021 c 3.588,3.588 9.4561,3.588 13.0501,-0.01" /><path
         id="path374"
         style="fill:#94d48a;fill-opacity:1;fill-rule:evenodd;stroke:none"
         d="m 2675.7967,795.82399 -693.3257,0 c -47.0282,0 -85.5063,-38.4841 -85.5063,-85.51221 l 0,-112.63289 c 0,-47.03471 38.4781,-85.51221 85.5063,-85.51221 l 693.3257,0 c 47.0341,0 85.5122,38.4775 85.5122,85.51221 l 0,112.63289 c 0,47.02811 -38.4781,85.51221 -85.5122,85.51221" /><path
         id="path376"
         style="fill:#a8de9a;fill-opacity:1;fill-rule:evenodd;stroke:none"
         d="m 1982.969,795.82399 -346.3869,0 c -36.7501,0 -68.2682,-23.47806 -80.2922,-56.18414 l 37.6861,0 c 28.3981,0 51.6241,-23.22606 51.6241,-51.61813 l 0,-68.04617 c 0,-28.39747 -23.226,-51.62413 -51.6241,-51.62413 l -37.6861,0 c 12.024,-32.70008 43.5421,-56.18474 80.2922,-56.18474 l 346.3869,0 c 47.0281,0 85.5062,38.4775 85.5062,85.51221 l 0,112.62689 c 0,47.04611 -38.4781,85.51821 -85.5062,85.51821" /><path
         id="path378"
         style="fill:#ffffff;fill-opacity:1;fill-rule:evenodd;stroke:none"
         d="m 1556.6499,568.35142 385.963,0 c 28.398,0 51.6301,23.22666 51.6301,51.62413 l 0,68.04617 c 0,28.39207 -23.2321,51.61813 -51.6301,51.61813 l -385.963,0 c 28.3981,0 51.6301,-23.22606 51.6301,-51.61813 l 0,-68.04617 c 0,-28.39747 -23.232,-51.62413 -51.6301,-51.62413" /><path
         id="path380"
         style="fill:#fbced7;fill-opacity:1;fill-rule:evenodd;stroke:none"
         d="m 1925.8848,700.12975 -264.5406,0 c -8.6641,0 -15.7441,-7.08002 -15.7441,-15.74404 l 0,-0.012 c 0,-8.66402 7.08,-15.74404 15.7441,-15.74404 l 264.5406,0 c 8.664,0 15.7441,7.08002 15.7441,15.74404 l 0,0.012 c 0,8.66402 -7.0801,15.74404 -15.7441,15.74404" /><path
         id="path382"
         style="fill:#fbced7;fill-opacity:1;fill-rule:evenodd;stroke:none"
         d="m 1925.8848,639.3676 -264.5406,0 c -8.6641,0 -15.7441,-7.07402 -15.7441,-15.74404 l 0,-0.006 c 0,-8.67002 7.08,-15.75004 15.7441,-15.75004 l 264.5406,0 c 8.664,0 15.7441,7.08002 15.7441,15.75004 l 0,0.006 c 0,8.67002 -7.0801,15.74404 -15.7441,15.74404" /><path
         id="path384"
         style="fill:#a8de9a;fill-opacity:1;fill-rule:evenodd;stroke:none"
         d="m 2612.4185,708.12177 -22.41,0 c -9.24,0 -16.7881,-7.54202 -16.7881,-16.78204 l 0,-80.2622 c 0,-9.24003 7.5481,-16.77604 16.7881,-16.77604 l 22.41,0 c 9.2401,0 16.7881,7.53601 16.7881,16.77604 l 0,80.2622 c 0,9.24002 -7.548,16.78204 -16.7881,16.78204" /><path
         id="path386"
         style="fill:#a8de9a;fill-opacity:1;fill-rule:evenodd;stroke:none"
         d="m 2472.5702,708.12177 -164.0164,0 c -31.2901,0 -56.9102,-25.60206 -56.9102,-56.91014 l 0,0 c 0,-31.31408 25.6201,-56.91014 56.9102,-56.91014 l 164.0164,0 c 31.2961,0 56.9101,25.59606 56.9101,56.91014 l 0,0 c 0,31.30808 -25.614,56.91014 -56.9101,56.91014" /><path
         id="path388"
         style="fill:#a8de9a;fill-opacity:1;fill-rule:evenodd;stroke:none"
         d="m 2196.2755,708.12177 -0.01,0 c -7.704,0 -13.998,-6.28802 -13.998,-13.99203 l 0,-85.84222 c 0,-7.70402 6.294,-13.98603 13.998,-13.98603 l 0.01,0 c 7.704,0 13.998,6.28201 13.998,13.98603 l 0,85.84222 c 0,7.70401 -6.294,13.99203 -13.998,13.99203" /><path
         id="path390"
         style="fill:#fbcb46;fill-opacity:1;fill-rule:evenodd;stroke:none"
         d="m 2477.2502,713.29978 495.3912,0 c 33.6061,0 61.0982,-27.49207 61.0982,-61.09815 l 0,-80.489 c 0,-33.60008 -27.4921,-61.08795 -61.0982,-61.08795 l -495.3912,0 c -33.6001,0 -61.0982,27.48787 -61.0982,61.08795 l 0,80.489 c 0,33.60608 27.4981,61.09815 61.0982,61.09815" /><path
         id="path392"
         style="fill:#f78e4f;fill-opacity:1;fill-rule:evenodd;stroke:none"
         d="m 2972.2874,713.30578 247.5006,0 c 26.2501,0 48.7742,-16.78204 57.3662,-40.1461 l -26.9221,0 c -20.292,0 -36.8941,-16.59604 -36.8941,-36.88809 l 0,-48.61692 c 0,-20.29205 16.6021,-36.88389 36.8941,-36.88389 l 26.9221,0 c -8.592,-23.36946 -31.1161,-40.1461 -57.3662,-40.1461 l -247.5006,0 c -33.6121,0 -61.0981,27.49927 -61.0981,61.10415 l 0,80.4728 c 0,33.60608 27.486,61.10415 61.0981,61.10415" /><path
         id="path394"
         style="fill:#ffffff;fill-opacity:1;fill-rule:evenodd;stroke:none"
         d="m 3276.8902,550.77078 -275.7667,0 c -20.286,0 -36.8941,16.59184 -36.8941,36.88389 l 0,48.61692 c 0,20.29205 16.6081,36.88809 36.8941,36.88809 l 275.7667,0 c -20.2861,0 -36.8821,-16.59604 -36.8821,-36.88809 l 0,-48.61692 c 0,-20.29205 16.596,-36.88389 36.8821,-36.88389" /><path
         id="path396"
         style="fill:#fbced7;fill-opacity:1;fill-rule:evenodd;stroke:none"
         d="m 3013.0815,644.92361 189.0065,0 c 6.192,0 11.25,-5.05801 11.25,-11.25003 l 0,0 c 0,-6.19201 -5.058,-11.25602 -11.25,-11.25602 l -189.0065,0 c -6.198,0 -11.256,5.06401 -11.256,11.25602 l 0,0 c 0,6.19202 5.058,11.25003 11.256,11.25003" /><path
         id="path398"
         style="fill:#fbced7;fill-opacity:1;fill-rule:evenodd;stroke:none"
         d="m 3013.0815,601.5135 189.0065,0 c 6.192,0 11.25,-5.05801 11.25,-11.25482 l 0,0 c 0,-6.19262 -5.058,-11.25003 -11.25,-11.25003 l -189.0065,0 c -6.198,0 -11.256,5.05741 -11.256,11.25003 l 0,0 c 0,6.19681 5.058,11.25482 11.256,11.25482" /><path
         id="path400"
         style="fill:#f78e4f;fill-opacity:1;fill-rule:evenodd;stroke:none"
         d="m 2522.5383,650.63563 16.02,0 c 6.6001,0 11.9821,-5.39402 11.9821,-11.98803 l 0,-57.34695 c 0,-6.60001 -5.382,-11.99523 -11.9821,-11.99523 l -16.02,0 c -6.6,0 -11.994,5.39522 -11.994,11.99523 l 0,57.34695 c 0,6.59401 5.394,11.98803 11.994,11.98803" /><path
         id="path402"
         style="fill:#f78e4f;fill-opacity:1;fill-rule:evenodd;stroke:none"
         d="m 2622.4626,650.63563 117.1922,0 c 22.3621,0 40.6622,-18.29405 40.6622,-40.66211 l 0,0 c 0,-22.37285 -18.3001,-40.6681 -40.6622,-40.6681 l -117.1922,0 c -22.3561,0 -40.6681,18.29525 -40.6681,40.6681 l 0,0 c 0,22.36806 18.312,40.66211 40.6681,40.66211" /><path
         id="path404"
         style="fill:#f78e4f;fill-opacity:1;fill-rule:evenodd;stroke:none"
         d="m 2819.875,650.63563 0.012,0 c 5.5021,0 9.9961,-4.49401 9.9961,-9.99603 l 0,-61.33815 c 0,-5.49602 -4.494,-9.99603 -9.9961,-9.99603 l -0.012,0 c -5.508,0 -9.996,4.50001 -9.996,9.99603 l 0,61.33815 c 0,5.50202 4.488,9.99603 9.996,9.99603" /><path
         id="path406"
         style="fill:#5483c4;fill-opacity:1;fill-rule:evenodd;stroke:none"
         d="m 2833.9931,1499.4757 c 63.0961,-16.332 109.5183,-47.8621 103.6742,-70.4281 -5.838,-22.5661 -61.7221,-27.6061 -124.8183,-11.2801 -63.1021,16.3261 -109.5182,47.8622 -103.6802,70.4282 5.838,22.5601 61.7281,27.6061 124.8243,11.28" /><path
         id="path408"
         style="fill:#f03764;fill-opacity:1;fill-rule:evenodd;stroke:none"
         d="m 3958.8699,1975.3549 198.5045,103.8183 c 0,0 -131.6283,10.764 -118.6023,12.564 13.014,1.794 308.0768,201.0185 308.0768,201.0185 l -188.0285,-10.776 124.3923,96.9182 -248.7906,-118.4522 128.7303,-25.1281 -205.3805,-154.3504 90.4802,-19.554 -89.3822,-86.0583" /><path
         id="path410"
         style="fill:#fbcb46;fill-opacity:1;fill-rule:evenodd;stroke:none"
         d="m 2303.6998,2763.0309 -152.0164,164.5324 c 0,0 127.5723,-34.1341 115.9143,-28.0621 -11.6521,6.0721 -222.5166,292.9268 -222.5166,292.9268 l 173.4544,-73.3862 -84.5462,133.1043 194.4425,-195.2285 -129.6783,19.6381 141.5104,-214.4345 -91.7883,12.018 55.2242,-111.1083" /><path
         id="path412"
         style="fill:#87b6e5;fill-opacity:1;fill-rule:evenodd;stroke:none"
         d="m 608.88152,997.82649 c 8.43002,13.27201 26.92207,19.59601 41.31611,14.12401 14.39403,-5.472 19.23604,-20.67602 10.81202,-33.94805 -8.41802,-13.27204 -26.91006,-19.59005 -41.3101,-14.12404 -14.39404,5.47201 -19.23605,20.67605 -10.81803,33.94808 z m 109.48828,-41.6281 c 16.00804,25.22406 51.15012,37.24209 78.51019,26.84407 27.35407,-10.40403 36.55209,-39.2821 20.55005,-64.50016 -16.00204,-25.22407 -51.15012,-37.2421 -78.51019,-26.83807 -27.34807,10.39803 -36.55209,39.2761 -20.55005,64.49416 l 0,0" /><path
         id="path316-3"
         style="fill:#ffffff;fill-opacity:1;fill-rule:evenodd;stroke:none"
         d="m 3856.7039,2672.9278 33.0026,-2.8783 10.37,94.8534 -37.9364,3.3054 -5.4362,-95.2805 z m 13.0504,-41.0815 c 10.4331,-0.9081 19.1844,5.2093 20.0925,15.6424 0.9244,10.6238 -6.6353,18.1596 -17.0711,19.071 -10.433,0.908 -19.1841,-5.2064 -20.1088,-15.8331 -0.911,-10.4328 6.6513,-17.9719 17.0874,-18.8803 l 0,0 z m -36.5046,136.0113 c -31.1141,2.7116 -52.165,4.5434 -82.8944,7.225 -3.8354,-44.0078 -7.7001,-88.3945 -11.5648,-132.781 30.7265,-2.6813 53.4904,-4.6624 84.596,-7.3699 0.8781,10.0483 1.7702,20.2937 2.6297,30.1576 -19.9156,1.735 -31.2989,2.7271 -50.8387,4.4332 0.6948,7.9662 1.3596,15.5506 2.0349,23.3265 l 45.1461,-3.9325 c 0.8758,10.0546 1.7516,20.1092 2.6238,30.1583 l -45.1425,3.938 1.6346,18.7748 c 19.5404,-1.7001 29.4015,-2.5592 49.1293,-4.2783 0.8888,10.2427 1.7865,20.4844 2.646,30.3483 l 0,0 z m -186.7107,-41.4502 -46.9496,62.1943 -12.5215,1.0894 -11.603,-133.1588 c 11.5737,-1.0115 23.145,-2.0166 34.713,-3.0245 l 5.1601,59.1833 25.4939,-32.0377 3.7949,-0.3358 30.8387,27.1301 -5.1567,-59.1807 c 11.571,-1.0082 23.1423,-2.0133 34.713,-3.0245 l 11.603,133.1588 -12.1428,1.06 -57.943,-53.0539 0,0 z m -192.0158,7.3622 c 4.1619,47.8008 70.7404,42.0039 66.5777,-5.8027 -4.1997,-48.1755 -70.7775,-42.3727 -66.5777,5.8027 l 0,0 z m 101.291,-8.8242 c 8.0007,91.8112 -128.1945,103.6732 -136.1918,11.8647 -8.0159,-91.993 128.1782,-103.8639 136.1918,-11.8647 l 0,0 z m -285.0848,25.0322 c -3.7418,-45.1624 28.4184,-70.8989 62.1968,-73.6544 28.2629,-2.4652 59.3352,9.7404 67.5421,46.8714 -11.5713,1.0052 -22.0015,1.9129 -33.3843,2.908 -4.8428,-13.915 -17.0465,-20.1128 -31.4632,-18.8619 -20.0867,1.9446 -31.5,20.1397 -29.7943,39.6766 1.9132,22.0044 16.3119,35.8483 36.2246,34.1137 14.2256,-1.2376 23.7561,-8.1855 27.3199,-22.0671 11.5743,-1.0056 21.8137,-1.897 33.3873,-2.9085 -2.0319,35.9187 -30.5056,53.5014 -58.0127,55.8931 -33.7654,2.9436 -69.8933,-16.8441 -74.0162,-61.9709 l 0,0 z m -57.7555,71.9249 c -11.5714,1.0051 -22.7639,1.9809 -34.1472,2.9731 l -11.5704,-132.7773 c 26.9402,-2.3495 55.0127,-4.7953 82.3286,-7.1737 0.9949,11.3799 1.6702,19.1558 2.6594,30.5394 l -48.1754,4.1998 c 4.918,56.5241 2.9179,33.5728 8.905,102.2387 l 0,0 z m -64.874,5.6514 c -31.1085,2.708 -52.1618,4.5459 -82.8944,7.2249 -3.8325,-44.0081 -7.6975,-88.3976 -11.5678,-132.7806 30.7324,-2.682 53.4933,-4.6627 84.6019,-7.3706 0.8781,10.0484 1.7672,20.294 2.6297,30.1577 -19.919,1.7323 -31.2989,2.7271 -50.8364,4.4269 0.6919,7.9695 1.3543,15.5572 2.0325,23.3327 l 45.1402,-3.9318 c 0.8784,10.0514 1.7546,20.1089 2.6327,30.1573 l -45.1491,3.9329 1.6382,18.7803 c 19.5406,-1.7001 29.4012,-2.5623 49.1295,-4.2783 0.8887,10.2427 1.7838,20.4877 2.643,30.3486 l 0,0 z m -197.0753,15.0719 -28.3438,-68.6314 -0.5691,0.049 -3.9104,23.0833 -12.7055,51.5625 -34.3372,2.9954 -0.4433,-5.1244 35.4216,-133.0497 18.7837,-1.6356 26.812,62.0754 0.5691,-0.049 15.6732,-65.7807 19.5372,-1.7027 57.3345,124.9715 0.4458,5.1211 -33.7628,2.9404 -21.2479,-48.606 -7.8451,-22.0565 -0.5721,0.049 -16.4246,72.5258 c -5.3086,0.4647 -9.1067,0.7979 -14.4153,1.2627 l 0,0" /></g></g></svg>