<?xml version="1.0" encoding="UTF-8" standalone="no"?>
<!-- Created with Inkscape (http://www.inkscape.org/) -->
<svg id="svg4342" xmlns:rdf="http://www.w3.org/1999/02/22-rdf-syntax-ns#" xmlns="http://www.w3.org/2000/svg" height="59.761mm" width="55.277mm" version="1.1" xmlns:cc="http://creativecommons.org/ns#" xmlns:dc="http://purl.org/dc/elements/1.1/" viewBox="0 0 195.86375 211.75">
 <metadata id="metadata4347">
  <rdf:RDF>
   <cc:Work rdf:about="">
    <dc:format>image/svg+xml</dc:format>
    <dc:type rdf:resource="http://purl.org/dc/dcmitype/StillImage"/>
    <dc:title/>
   </cc:Work>
  </rdf:RDF>
 </metadata>
 <g id="layer1" fill-opacity=".94118" transform="translate(-124.93 -300.77)" fill="#55555f">
  <path id="path34" d="m133.68 491.44v-152.74c0-6.8 5.5325-12.338 12.331-12.338h153.7c6.8 0 12.331 5.5375 12.331 12.338v152.74c0 6.8-5.5312 12.331-12.331 12.331h-153.7c-6.7988 0-12.331-5.5312-12.331-12.331zm166.03 21.081c11.625 0 21.081-9.4575 21.081-21.081v-152.74c0-11.625-9.4562-21.088-21.081-21.088h-153.7c-11.625 0-21.081 9.4625-21.081 21.088v152.74c0 11.624 9.4562 21.081 21.081 21.081h153.7"/>
  <path id="path36" d="m186.18 339.77v-34.625c0-2.4125-1.9588-4.375-4.375-4.375s-4.375 1.9625-4.375 4.375v34.625c0 2.425 1.9588 4.375 4.375 4.375s4.375-1.95 4.375-4.375"/>
  <path id="path38" d="m269.24 339.77v-34.625c0-2.4125-1.9588-4.375-4.375-4.375-2.415 0-4.375 1.9625-4.375 4.375v34.625c0 2.425 1.96 4.375 4.375 4.375 2.4162 0 4.375-1.95 4.375-4.375"/>
  <path id="path40" d="m129.3 368.85h186.16v-8.75h-186.16v8.75z"/>
  <path id="path42" d="m168.87 399.44c0-2.8625-2.3325-5.2-5.2-5.2-2.8688 0-5.2012 2.3375-5.2012 5.2s2.3325 5.2 5.2012 5.2c2.8675 0 5.2-2.3375 5.2-5.2"/>
  <path id="path44" d="m208.18 399.44c0-2.8625-2.3338-5.2-5.2012-5.2-2.8688 0-5.2012 2.3375-5.2012 5.2s2.3325 5.2 5.2012 5.2c2.8675 0 5.2012-2.3375 5.2012-5.2"/>
  <path id="path46" d="m247.49 399.44c0-2.8625-2.3338-5.2-5.2-5.2-2.8688 0-5.2025 2.3375-5.2025 5.2s2.3338 5.2 5.2025 5.2c2.8662 0 5.2-2.3375 5.2-5.2"/>
  <path id="path48" d="m286.81 399.44c0-2.8625-2.3325-5.2-5.2-5.2-2.8688 0-5.2012 2.3375-5.2012 5.2s2.3325 5.2 5.2012 5.2c2.8675 0 5.2-2.3375 5.2-5.2"/>
  <path id="path50" d="m168.87 435.53c0-2.8675-2.3325-5.2012-5.2-5.2012-2.8688 0-5.2012 2.3338-5.2012 5.2012 0 2.8675 2.3325 5.2012 5.2012 5.2012 2.8675 0 5.2-2.3338 5.2-5.2012"/>
  <path id="path52" d="m208.18 435.53c0-2.8675-2.3338-5.2012-5.2012-5.2012-2.8688 0-5.2012 2.3338-5.2012 5.2012 0 2.8675 2.3325 5.2012 5.2012 5.2012 2.8675 0 5.2012-2.3338 5.2012-5.2012"/>
  <path id="path54" d="m247.49 435.53c0-2.8675-2.3338-5.2012-5.2-5.2012-2.8688 0-5.2025 2.3338-5.2025 5.2012 0 2.8675 2.3338 5.2012 5.2025 5.2012 2.8662 0 5.2-2.3338 5.2-5.2012"/>
  <path id="path56" d="m286.81 435.53c0-2.8675-2.3325-5.2012-5.2-5.2012-2.8688 0-5.2012 2.3338-5.2012 5.2012 0 2.8675 2.3325 5.2012 5.2012 5.2012 2.8675 0 5.2-2.3338 5.2-5.2012"/>
  <path id="path58" d="m168.87 471.63c0-2.8675-2.3325-5.2012-5.2-5.2012-2.8688 0-5.2012 2.3338-5.2012 5.2012 0 2.8675 2.3325 5.2012 5.2012 5.2012 2.8675 0 5.2-2.3338 5.2-5.2012"/>
  <path id="path60" d="m208.18 471.63c0-2.8675-2.3338-5.2012-5.2012-5.2012-2.8688 0-5.2012 2.3338-5.2012 5.2012 0 2.8675 2.3325 5.2012 5.2012 5.2012 2.8675 0 5.2012-2.3338 5.2012-5.2012"/>
  <path id="path62" d="m247.49 471.63c0-2.8675-2.3338-5.2012-5.2-5.2012-2.8688 0-5.2025 2.3338-5.2025 5.2012 0 2.8675 2.3338 5.2012 5.2025 5.2012 2.8662 0 5.2-2.3338 5.2-5.2012"/>
 </g>
</svg>
