
<svg width="18px" height="18px" viewBox="1250 299 18 18" version="1.1" xmlns="http://www.w3.org/2000/svg" xmlns:xlink="http://www.w3.org/1999/xlink">
    <!-- Generator: Sketch 39.1 (31720) - http://www.bohemiancoding.com/sketch -->
    <desc>Created with Sketch.</desc>
    <defs></defs>
    <path d="M1265.74873,306.875491 C1265.12657,306.875491 1264.53366,306.377085 1264.29627,305.804425 C1264.06,305.232889 1264.12751,304.461091 1264.56628,304.021188 L1265.36171,303.226889 C1265.80161,302.786986 1265.80161,302.074817 1265.36283,301.634914 C1264.92293,301.195012 1264.21076,301.195012 1263.77086,301.634914 C1263.77086,301.634914 1263.41534,301.990437 1262.97543,302.430339 C1262.53553,302.870241 1261.76486,302.937746 1261.19332,302.701481 C1260.62291,302.465216 1260.12338,301.872304 1260.12338,301.25014 L1260.12338,300.12507 C1260.12338,299.502906 1259.62048,299 1258.99831,299 C1258.37615,299 1257.87324,299.502906 1257.87324,300.12507 L1257.87324,301.25014 C1257.87324,301.872304 1257.37596,302.465216 1256.80442,302.702606 C1256.23289,302.939996 1255.46334,302.871367 1255.02344,302.432589 L1254.22576,301.637165 C1253.78586,301.197262 1253.07369,301.198387 1252.63604,301.637165 C1252.19614,302.075942 1252.19614,302.788111 1252.63491,303.228014 L1253.43259,304.024564 C1253.87137,304.463341 1253.949,305.238514 1253.75548,305.820176 C1253.56422,306.402962 1252.97919,306.893493 1252.35927,306.886742 L1251.12507,306.875491 C1250.50403,306.875491 1250,307.380648 1250,308.000562 C1250,308.622725 1250.50403,309.125632 1251.12507,309.125632 L1252.25127,309.125632 C1252.8723,309.125632 1253.47422,309.618413 1253.74873,310.166322 C1254.02438,310.713106 1253.96025,311.470278 1253.51584,311.90568 L1252.63491,312.771984 C1252.19501,313.211887 1252.19614,313.925181 1252.63491,314.362834 C1253.07482,314.802736 1253.78699,314.802736 1254.22576,314.363959 L1255.02231,313.567409 C1255.46222,313.127506 1256.23176,313.060002 1256.80442,313.297392 C1257.37596,313.534782 1257.87324,314.127694 1257.87324,314.749858 L1257.87324,315.876053 C1257.87324,316.497092 1258.37727,317.001123 1258.99831,316.999998 C1259.62048,316.999998 1260.12338,316.497092 1260.12338,315.876053 L1260.12338,314.749858 C1260.12338,314.127694 1260.62291,313.534782 1261.19332,313.299642 C1261.76486,313.062252 1262.53553,313.130882 1262.97543,313.569659 L1263.77086,314.365084 C1264.21076,314.804986 1264.92293,314.804986 1265.36058,314.365084 C1265.80049,313.925181 1265.80161,313.213012 1265.36283,312.774234 L1264.56628,311.977685 C1264.12638,311.537782 1264.05888,310.767109 1264.29627,310.195574 C1264.53366,309.624038 1265.12657,309.125632 1265.74873,309.125632 L1266.8738,309.125632 C1267.49597,309.125632 1267.99887,308.622725 1267.99887,308.000562 C1267.99887,307.378398 1267.49597,306.875491 1266.8738,306.875491 L1265.74873,306.875491 L1265.74873,306.875491 Z M1258.99831,311.375772 C1257.13745,311.375772 1255.6231,309.861428 1255.6231,308.000562 C1255.6231,306.139695 1257.13745,304.625351 1258.99831,304.625351 C1260.85918,304.625351 1262.37352,306.139695 1262.37352,308.000562 C1262.37352,309.861428 1260.85918,311.375772 1258.99831,311.375772 L1258.99831,311.375772 Z" id="Settings_1_x2C__Gear_1" stroke="none" fill="#3F515D" fill-rule="evenodd"></path>
</svg>
