<?xml version="1.0" encoding="UTF-8" standalone="no"?>
<svg
   xmlns:dc="http://purl.org/dc/elements/1.1/"
   xmlns:cc="http://creativecommons.org/ns#"
   xmlns:rdf="http://www.w3.org/1999/02/22-rdf-syntax-ns#"
   xmlns:svg="http://www.w3.org/2000/svg"
   xmlns="http://www.w3.org/2000/svg"
   viewBox="0 0 700 700"
   height="50"
   width="50"
   xml:space="preserve"
   version="1.1"
   id="svg2"><metadata
     id="metadata8"><rdf:RDF><cc:Work
         rdf:about=""><dc:format>image/svg+xml</dc:format><dc:type
           rdf:resource="http://purl.org/dc/dcmitype/StillImage" /><dc:title></dc:title></cc:Work></rdf:RDF></metadata><defs
     id="defs6"><clipPath
       id="clipPath56"
       clipPathUnits="userSpaceOnUse"><path
         id="path58"
         d="m 4030.02,11182.5 -10.64,0 -189.99,267.4 -189.97,-267.4 -189.99,267.4 -189.98,-267.4 -189.98,267.4 -189.97,-267.4 -190,267.4 0,114.6 0.58,0 1327.56,0 c 0,0 0.74,3.8 2.12,11 l 10.26,0 0,-393" /></clipPath><clipPath
       id="clipPath158"
       clipPathUnits="userSpaceOnUse"><path
         id="path160"
         d="m 7799.89,12481.8 c 0,0.1 0,0.1 0,0.1 0,0 0,0 0,-0.1 m 0.52,0.9 c 0.07,0.1 0.07,0.2 0.14,0.3 -0.07,-0.1 -0.07,-0.2 -0.14,-0.3 m 0.51,1 c 0.07,0.1 0.15,0.3 0.22,0.4 -0.07,-0.1 -0.15,-0.3 -0.22,-0.4 m 0.59,1 c 0.07,0.2 0.22,0.3 0.29,0.5 -0.07,-0.2 -0.22,-0.3 -0.29,-0.5 m 0.58,1 c 0.07,0.2 0.22,0.4 0.3,0.6 -0.08,-0.2 -0.23,-0.4 -0.3,-0.6 m 0.59,1.1 c 0.15,0.2 0.22,0.4 0.37,0.6 -0.15,-0.2 -0.22,-0.4 -0.37,-0.6 m 0.59,1 c 0.14,0.3 0.22,0.5 0.36,0.7 -0.14,-0.2 -0.22,-0.4 -0.36,-0.7 m 0.59,1.1 c 0.14,0.2 0.29,0.5 0.43,0.8 -0.14,-0.3 -0.29,-0.6 -0.43,-0.8 m 0.58,1.1 c 0.15,0.2 0.29,0.5 0.44,0.8 -0.15,-0.3 -0.29,-0.6 -0.44,-0.8 m 0.59,1 c 0.14,0.3 0.36,0.7 0.51,1 -0.22,-0.4 -0.37,-0.7 -0.51,-1 m 0.58,1.1 c 7.85,14.4 15.19,29.2 21.94,44.4 -27.14,21.2 -44.67,54.1 -44.67,91.2 0,0 0,0.1 0,0.2 0.07,-37.1 17.6,-70 44.74,-91.1 -6.75,-15.3 -14.08,-30.2 -22.01,-44.7" /></clipPath><clipPath
       clipPathUnits="userSpaceOnUse"
       id="clipPath5187"><path
         d="m 4030.02,11182.5 -10.64,0 -189.99,267.4 -189.97,-267.4 -189.99,267.4 -189.98,-267.4 -189.98,267.4 -189.97,-267.4 -190,267.4 0,114.6 0.58,0 1327.56,0 c 0,0 0.74,3.8 2.12,11 l 10.26,0 0,-393"
         id="path5189" /></clipPath><clipPath
       clipPathUnits="userSpaceOnUse"
       id="clipPath5289"><path
         d="m 7799.89,12481.8 c 0,0.1 0,0.1 0,0.1 0,0 0,0 0,-0.1 m 0.52,0.9 c 0.07,0.1 0.07,0.2 0.14,0.3 -0.07,-0.1 -0.07,-0.2 -0.14,-0.3 m 0.51,1 c 0.07,0.1 0.15,0.3 0.22,0.4 -0.07,-0.1 -0.15,-0.3 -0.22,-0.4 m 0.59,1 c 0.07,0.2 0.22,0.3 0.29,0.5 -0.07,-0.2 -0.22,-0.3 -0.29,-0.5 m 0.58,1 c 0.07,0.2 0.22,0.4 0.3,0.6 -0.08,-0.2 -0.23,-0.4 -0.3,-0.6 m 0.59,1.1 c 0.15,0.2 0.22,0.4 0.37,0.6 -0.15,-0.2 -0.22,-0.4 -0.37,-0.6 m 0.59,1 c 0.14,0.3 0.22,0.5 0.36,0.7 -0.14,-0.2 -0.22,-0.4 -0.36,-0.7 m 0.59,1.1 c 0.14,0.2 0.29,0.5 0.43,0.8 -0.14,-0.3 -0.29,-0.6 -0.43,-0.8 m 0.58,1.1 c 0.15,0.2 0.29,0.5 0.44,0.8 -0.15,-0.3 -0.29,-0.6 -0.44,-0.8 m 0.59,1 c 0.14,0.3 0.36,0.7 0.51,1 -0.22,-0.4 -0.37,-0.7 -0.51,-1 m 0.58,1.1 c 7.85,14.4 15.19,29.2 21.94,44.4 -27.14,21.2 -44.67,54.1 -44.67,91.2 0,0 0,0.1 0,0.2 0.07,-37.1 17.6,-70 44.74,-91.1 -6.75,-15.3 -14.08,-30.2 -22.01,-44.7"
         id="path5291" /></clipPath></defs><g
     transform="matrix(1.25,0,0,-1.25,-1369.9977,4130.7281)"
     id="g10"><g
       id="g5141"
       transform="translate(-1291.706,1666.8144)" /><g
       transform="matrix(1.09375,0,0,-1.09375,1104.6723,3286.4768)"
       id="g4881"><circle
         style="fill:#e84f4f"
         cx="248.06938"
         cy="239.44626"
         id="circle4831"
         r="256" /><g
         id="g4845" /><g
         id="g4847" /><g
         id="g4849" /><g
         id="g4851" /><g
         id="g4853" /><g
         id="g4855" /><g
         id="g4857" /><g
         id="g4859" /><g
         id="g4861" /><g
         id="g4863" /><g
         id="g4865" /><g
         id="g4867" /><g
         id="g4869" /><g
         id="g4871" /><g
         id="g4873" /></g><path
       id="path5637"
       style="fill:#c83737;fill-opacity:1;fill-rule:nonzero;stroke:none"
       d="m 1592.8714,3084.0833 -3.4691,3.7647 c -2.5007,1.9701 -5.5691,3.1192 -8.8913,3.1192 -8.4196,0 -15.2397,-7.3983 -15.2397,-16.5304 0,-2.1794 0.3922,-4.2494 1.0954,-6.1507 l -51.8331,-21.9774 -68.168,73.9465 -50.2523,5.5363 -0.064,0.1485 -20.3245,49.9976 -20.3605,-50.0571 -0.037,-0.089 -50.2547,-5.5363 37.4723,-36.3501 0.1817,-0.1877 -1.2696,-6.3491 -53.165,-52.8603 -82.2003,34.8634 -22.799,24.7322 c -0.9485,1.4368 -2.1174,2.7033 -3.4417,3.7336 -2.502,1.9714 -5.5878,3.13 -8.92,3.13 -8.4184,0 -15.2389,-7.3983 -15.2389,-16.5304 0,-4.5654 1.7076,-8.696 4.4651,-11.6882 l 30.8057,-33.4173 45.7885,-102.7687 0,-54.1174 1.2324,-1.3368 126.7978,-125.7002 28.3625,0.022 c 161.2752,0.1244 260.4578,158.7499 262.1198,258.5784 l 0.5665,34.0331 -62.9604,46.0418" /><g
       transform="matrix(0.12447607,0,0,0.13503015,-155.64377,-459.70422)"
       id="g12"><g
         transform="translate(-6329.4285,10197.413)"
         id="g4905"><path
           d="m 17517.69,14477.644 2232.87,0 0,431.59 -2232.87,0 0,-431.59 z"
           style="fill:#fecc49;fill-opacity:1;fill-rule:nonzero;stroke:none"
           id="path508" /><path
           d="m 17642.36,14671.874 c 0,42.1 34.21,76.28 76.28,76.28 42.19,0 76.29,-34.18 76.29,-76.28 0,-42.18 -34.1,-76.29 -76.29,-76.29 -42.07,0 -76.28,34.11 -76.28,76.29 m 305.16,0 c 0,42.1 34.22,76.28 76.38,76.28 42.09,0 76.2,-34.18 76.2,-76.28 0,-42.18 -34.11,-76.29 -76.2,-76.29 -42.16,0 -76.38,34.11 -76.38,76.29 m 305.15,0 c 0,42.1 34.24,76.28 76.3,76.28 42.19,0 76.29,-34.18 76.29,-76.28 0,-42.18 -34.1,-76.29 -76.29,-76.29 -42.06,0 -76.3,34.11 -76.3,76.29 m 305.17,0 c 0,42.1 34.24,76.28 76.28,76.28 42.2,0 76.29,-34.18 76.29,-76.28 0,-42.18 -34.09,-76.29 -76.29,-76.29 -42.04,0 -76.28,34.11 -76.28,76.29 m 305.16,0 c 0,42.1 34.23,76.28 76.3,76.28 42.19,0 76.28,-34.18 76.28,-76.28 0,-42.18 -34.09,-76.29 -76.28,-76.29 -42.07,0 -76.3,34.11 -76.3,76.29 m 305.16,0 c 0,42.1 34.23,76.28 76.3,76.28 42.2,0 76.29,-34.18 76.29,-76.28 0,-42.18 -34.09,-76.29 -76.29,-76.29 -42.07,0 -76.3,34.11 -76.3,76.29 m 305.18,0 c 0,42.1 34.21,76.28 76.28,76.28 42.18,0 76.3,-34.18 76.3,-76.28 0,-42.18 -34.12,-76.29 -76.3,-76.29 -42.07,0 -76.28,34.11 -76.28,76.29"
           style="fill:#fab22e;fill-opacity:1;fill-rule:nonzero;stroke:none"
           id="path510" /><path
           d="m 19336.51,15613.684 -702.39,643.65 -702.36,-643.65 -942.82,368.58 528.75,-1093.94 2232.87,0 528.78,1093.94 -942.83,-368.58"
           style="fill:#fecc49;fill-opacity:1;fill-rule:nonzero;stroke:none"
           id="path512" /><path
           d="m 17111.38,15983.444 c 0,-67.63 -54.82,-122.42 -122.44,-122.42 -67.63,0 -122.444,54.79 -122.444,122.42 0,67.63 54.814,122.42 122.444,122.42 67.62,0 122.44,-54.79 122.44,-122.42"
           style="fill:#fecc49;fill-opacity:1;fill-rule:nonzero;stroke:none"
           id="path514" /><path
           d="m 20401.78,15983.444 c 0,-67.63 -54.82,-122.42 -122.44,-122.42 -67.63,0 -122.45,54.79 -122.45,122.42 0,67.63 54.82,122.42 122.45,122.42 67.62,0 122.44,-54.79 122.44,-122.42"
           style="fill:#fecc49;fill-opacity:1;fill-rule:nonzero;stroke:none"
           id="path516" /><path
           d="m 18899.16,16052.174 302.52,270.51 -403.75,41.08 -0.47,1.1 -163.34,370.2 -163.52,-370.64 -0.28,-0.66 -403.74,-41.08 301.02,-269.19 1.48,-1.32 -85.73,-396.68 350.77,204.13 350.78,-204.13 -85.38,395.07 -0.36,1.61"
           style="fill:#fede55;fill-opacity:1;fill-rule:nonzero;stroke:none"
           id="path518" /><path
           d="m 18470.6,16364.424 -0.28,-0.66 -403.74,-41.08 567.54,-184.47 -163.52,226.21"
           style="fill:#fdc23e;fill-opacity:1;fill-rule:nonzero;stroke:none"
           id="path520" /><path
           d="m 18367.6,16053.494 1.48,-1.32 -85.73,-396.68 350.77,482.72 -266.52,-84.72"
           style="fill:#fdc23e;fill-opacity:1;fill-rule:nonzero;stroke:none"
           id="path522" /><path
           d="m 18797.46,16364.864 -163.34,370.2 0,-596.85 163.34,226.65"
           style="fill:#fdc23e;fill-opacity:1;fill-rule:nonzero;stroke:none"
           id="path524" /><path
           d="m 19201.68,16322.684 -567.56,-184.47 265.4,-87.65 -0.36,1.61 302.52,270.51"
           style="fill:#fdc23e;fill-opacity:1;fill-rule:nonzero;stroke:none"
           id="path526" /><path
           d="m 18634.12,15859.624 350.78,-204.13 -350.78,482.72 0,-278.59"
           style="fill:#fdc23e;fill-opacity:1;fill-rule:nonzero;stroke:none"
           id="path528" /><path
           d="m 18717.49,15167.944 95.13,85.08 -126.98,12.91 -0.15,0.29 -51.37,116.48 -51.41,-116.62 -0.09,-0.15 -126.98,-12.91 94.66,-84.65 0.47,-0.43 -26.95,-124.77 110.3,64.18 110.32,-64.18 -26.85,124.25 -0.1,0.52"
           style="fill:#fab22e;fill-opacity:1;fill-rule:nonzero;stroke:none"
           id="path530" /><path
           d="m 19281.41,15179.744 70.21,62.79 -93.71,9.53 -0.11,0.23 -37.91,85.89 -37.96,-85.97 -0.06,-0.15 -93.7,-9.53 69.86,-62.49 0.35,-0.3 -19.9,-92.05 81.41,47.31 81.42,-47.31 -19.81,91.61 -0.09,0.44"
           style="fill:#fab22e;fill-opacity:1;fill-rule:nonzero;stroke:none"
           id="path532" /><path
           d="m 18109.87,15179.744 70.22,62.79 -93.71,9.53 -0.1,0.23 -37.92,85.89 -37.95,-85.97 -0.07,-0.15 -93.7,-9.53 69.87,-62.49 0.34,-0.3 -19.89,-92.05 81.4,47.31 81.42,-47.31 -19.82,91.61 -0.09,0.44"
           style="fill:#fab22e;fill-opacity:1;fill-rule:nonzero;stroke:none"
           id="path534" /><path
           d="m 20136.89,15926.594 28.77,11.22 0,0 -6.22,-2.41 -22.55,-8.81 m 20,56.48 c 0,0.08 0,0.22 0,0.37 l 0,0 c 0,-0.15 0,-0.29 0,-0.37"
           style="fill:#16354b;fill-opacity:1;fill-rule:nonzero;stroke:none"
           id="path536" /><path
           d="m 19964.54,15330.994 261.94,541.98 c 0,0 0,0 0.01,0 l -261.95,-541.98 m -628.03,282.69 0,0 800.38,312.91 22.55,8.81 -822.93,-321.72 m 942.4,247.34 c -0.03,0 -0.07,0 -0.1,0 0.04,0 0.06,0 0.1,0 m -0.46,0 c -0.01,0 -0.02,0 -0.02,0 0,0 0.01,0 0.02,0 m -1369.11,144.13 0,0 -9.82,45.41 9.82,-45.41"
           style="fill:#0c1f30;fill-opacity:1;fill-rule:nonzero;stroke:none"
           id="path538" /><path
           d="m 19750.56,14477.644 -1116.44,0 0,117.94 c 42.2,0 76.29,34.11 76.29,76.29 0,42.1 -34.09,76.28 -76.29,76.28 l 0,140.17 1116.44,0 -0.01,0 0,-410.68 m -200.93,270.51 c -42.07,0 -76.28,-34.18 -76.28,-76.28 0,-42.18 34.21,-76.29 76.28,-76.29 42.18,0 76.3,34.11 76.3,76.29 0,42.1 -34.12,76.28 -76.3,76.28 m -305.16,0 c -42.07,0 -76.3,-34.18 -76.3,-76.28 0,-42.18 34.23,-76.29 76.3,-76.29 42.2,0 76.29,34.11 76.29,76.29 0,42.1 -34.09,76.28 -76.29,76.28 m -305.16,0 c -42.07,0 -76.3,-34.18 -76.3,-76.28 0,-42.18 34.23,-76.29 76.3,-76.29 42.19,0 76.28,34.11 76.28,76.29 0,42.1 -34.09,76.28 -76.28,76.28"
           style="fill:#fdb329;fill-opacity:1;fill-rule:nonzero;stroke:none"
           id="path540" /><path
           d="m 19549.62,14595.584 c -42.07,0 -76.28,34.11 -76.28,76.29 0,42.1 34.21,76.28 76.28,76.28 42.18,0 76.3,-34.18 76.3,-76.28 0,-42.18 -34.12,-76.29 -76.3,-76.29 m -305.16,0 c -42.07,0 -76.3,34.11 -76.3,76.29 0,42.1 34.23,76.28 76.3,76.28 42.2,0 76.29,-34.18 76.29,-76.28 0,-42.18 -34.09,-76.29 -76.29,-76.29 m -305.16,0 c -42.07,0 -76.3,34.11 -76.3,76.29 0,42.1 34.23,76.28 76.3,76.28 42.19,0 76.28,-34.18 76.28,-76.28 0,-42.18 -34.09,-76.29 -76.28,-76.29 m -305.18,0 0,152.57 c 42.2,0 76.29,-34.18 76.29,-76.28 0,-42.18 -34.09,-76.29 -76.29,-76.29"
           style="fill:#f79217;fill-opacity:1;fill-rule:nonzero;stroke:none"
           id="path542" /><path
           d="m 19750.56,14888.324 -1116.44,0 0,219.03 110.32,-64.18 -26.85,124.25 -0.1,0.52 95.13,85.08 -126.98,12.91 -0.15,0.29 -51.37,116.48 0,476.92 350.78,-204.13 -75.56,349.66 0.01,0 427.14,-391.47 0.02,0 822.93,321.72 6.22,2.41 c 11.43,-28.45 33.27,-51.63 60.82,-64.84 l -261.94,-541.98 -213.99,-442.67 m -530.66,246.68 81.42,-47.31 -19.81,91.61 -0.09,0.44 70.21,62.79 -93.71,9.53 -0.11,0.23 -37.91,85.89 -37.96,-85.97 -0.06,-0.15 -93.7,-9.53 69.86,-62.49 0.35,-0.3 -19.9,-92.05 81.41,47.31"
           style="fill:#fdb329;fill-opacity:1;fill-rule:nonzero;stroke:none"
           id="path544" /><path
           d="m 20279.34,15861.024 0,0 c -0.15,0 -0.29,0 -0.43,0 -0.04,0 -0.06,0 -0.1,0 -0.12,0 -0.24,0 -0.36,0 -0.01,0 -0.02,0 -0.02,0 -18.61,0.15 -36.15,4.54 -51.88,12.1 l -0.06,-0.15 c -0.01,0 -0.01,0 -0.01,0 -27.55,13.21 -49.39,36.39 -60.82,64.84 l 0,0 0.08,0.08 c -5.61,13.94 -8.8,29.19 -8.85,45.18 0,0.08 0,0.22 0,0.37 0,67.63 54.82,122.42 122.45,122.42 67.59,0 122.44,-54.79 122.44,-122.42 0,-0.37 0,-0.81 -0.01,-1.18 -0.64,-67.11 -55.23,-121.24 -122.43,-121.24 l 0,0"
           style="fill:#fdb329;fill-opacity:1;fill-rule:nonzero;stroke:none"
           id="path546" /><path
           d="m 18984.9,15655.494 0,0 -350.78,482.72 265.4,-87.65 9.82,-45.41 75.56,-349.66 m -350.78,482.72 0,0 163.34,226.65 0.47,-1.1 403.75,-41.08 -567.56,-184.47"
           style="fill:#fdcd33;fill-opacity:1;fill-rule:nonzero;stroke:none"
           id="path548" /><path
           d="m 18634.12,16138.214 0,596.85 163.34,-370.2 -163.34,-226.65"
           style="fill:#fca622;fill-opacity:1;fill-rule:nonzero;stroke:none"
           id="path550" /><path
           d="m 18899.52,16050.564 -265.4,87.65 567.56,184.47 -302.52,-270.51 0.36,-1.61"
           style="fill:#fca622;fill-opacity:1;fill-rule:nonzero;stroke:none"
           id="path552" /><path
           d="m 18984.9,15655.494 -350.78,204.13 0,278.59 350.78,-482.72"
           style="fill:#fca622;fill-opacity:1;fill-rule:nonzero;stroke:none"
           id="path554" /><path
           d="m 18744.44,15043.174 -110.32,64.18 0,275.35 51.37,-116.48 0.15,-0.29 126.98,-12.91 -95.13,-85.08 0.1,-0.52 26.85,-124.25"
           style="fill:#f79217;fill-opacity:1;fill-rule:nonzero;stroke:none"
           id="path556" /><path
           d="m 19301.31,15087.694 -81.42,47.31 -81.41,-47.31 19.9,92.05 -0.35,0.3 -69.86,62.49 93.7,9.53 0.06,0.15 37.96,85.97 37.91,-85.89 0.11,-0.23 93.71,-9.53 -70.21,-62.79 0.09,-0.44 19.81,-91.61"
           style="fill:#f79217;fill-opacity:1;fill-rule:nonzero;stroke:none"
           id="path558" /></g></g></g></svg>
