
<svg width="17px" height="28px" viewBox="0 0 17 28" version="1.1" xmlns="http://www.w3.org/2000/svg" xmlns:xlink="http://www.w3.org/1999/xlink">
    <!-- Generator: Sketch 39.1 (31720) - http://www.bohemiancoding.com/sketch -->
    <desc>Created with Sketch.</desc>
    <defs></defs>
    <g id="Group-13" stroke="none" stroke-width="1" fill="none" fill-rule="evenodd">
        <path d="M15.3962264,18.4634731 C15.3962264,22.3113772 12.3169811,25.4155689 8.5,25.4155689 C4.68301887,25.4155689 1.60377358,22.3113772 1.60377358,18.4634731 L1.60377358,8.56886228 C1.60377358,4.72095808 4.68301887,1.61676647 8.5,1.61676647 C12.3169811,1.61676647 15.3962264,4.72095808 15.3962264,8.56886228 L15.3962264,18.4634731 Z M8.5,0 C3.81698113,0 0,3.84790419 0,8.56886228 L0,18.4311377 C0,23.1520958 3.81698113,27 8.5,27 C13.1830189,27 17,23.1520958 17,18.4311377 L17,8.56886228 C17,3.84790419 13.1830189,0 8.5,0 L8.5,0 Z" id="Fill-1" fill="#FFFFFF"></path>
        <path d="M9,6 C8.44,6 8,6.33742331 8,6.76687117 L8,10.2331288 C8,10.6625767 8.44,11 9,11 C9.56,11 10,10.6625767 10,10.2331288 L10,6.76687117 C10,6.33742331 9.52,6 9,6" id="Fill-3" fill="#FFFFFF"></path>
    </g>
</svg>