<?xml version="1.0" encoding="UTF-8" standalone="no"?>
<svg
   xmlns:dc="http://purl.org/dc/elements/1.1/"
   xmlns:cc="http://creativecommons.org/ns#"
   xmlns:rdf="http://www.w3.org/1999/02/22-rdf-syntax-ns#"
   xmlns:svg="http://www.w3.org/2000/svg"
   xmlns="http://www.w3.org/2000/svg"
   viewBox="504 1420 80 80"
   version="1.1"
   width="80"
   height="80"
   id="svg2">
  <defs
     id="defs13" />
  <metadata
     id="metadata16">
    <rdf:RDF>
      <cc:Work
         rdf:about="">
        <dc:format>image/svg+xml</dc:format>
        <dc:type
           rdf:resource="http://purl.org/dc/dcmitype/StillImage" />
        <dc:title></dc:title>
      </cc:Work>
    </rdf:RDF>
  </metadata>
  <!-- Generator: Sketch 39.1 (31720) - http://www.bohemiancoding.com/sketch -->
  <desc
     id="desc4">Created with Sketch.</desc>
  <g
     style="fill:none;fill-rule:evenodd"
     transform="matrix(0.58914729,0,0,0.58914729,506,1422)"
     id="Group-6">
    <circle
       style="stroke:#a6a6a6;stroke-width:6.78947353"
       r="64.5"
       cx="64.5"
       cy="64.5"
       id="Oval-2" />
  </g>
  <g
     id="layer1"
     transform="translate(166.65534,1044.8175)">
    <g
       id="g4888"
       transform="matrix(0.34613754,0,0,0.34613754,288.37432,298.88564)">
      <path
         id="path80"
         style="fill:#a7a7a7;fill-opacity:1;fill-rule:nonzero;stroke:none"
         d="m 283.72057,288.13338 c 0,-8.28585 -6.71601,-15.00185 -15.00012,-15.00185 l -23.36393,0 c -8.28585,0 -15.00185,6.716 -15.00185,15.00185 l 0,56.27513 c 0,0 -4.82042,0 -10.76536,0 -5.94495,0 -6.61204,5.28131 -1.4936,11.79459 l 29.67101,37.75067 c 5.12018,6.51154 13.42162,6.51154 18.54179,0 l 29.66928,-37.75067 c 5.12191,-6.51328 4.45135,-11.79459 -1.49186,-11.79459 l -10.76536,0 0,-56.27513" />
    </g>
  </g>
</svg>
