<?xml version="1.0" encoding="UTF-8" standalone="no"?>
<!-- Generator: Adobe Illustrator 19.0.0, SVG Export Plug-In . SVG Version: 6.00 Build 0)  -->

<svg
   xmlns:dc="http://purl.org/dc/elements/1.1/"
   xmlns:cc="http://creativecommons.org/ns#"
   xmlns:rdf="http://www.w3.org/1999/02/22-rdf-syntax-ns#"
   xmlns:svg="http://www.w3.org/2000/svg"
   xmlns="http://www.w3.org/2000/svg"
   xmlns:sodipodi="http://sodipodi.sourceforge.net/DTD/sodipodi-0.dtd"
   xmlns:inkscape="http://www.inkscape.org/namespaces/inkscape"
   version="1.1"
   id="Layer_1"
   x="0px"
   y="0px"
   viewBox="0 0 512.171 512.171"
   style="enable-background:new 0 0 512.171 512.171;"
   xml:space="preserve"
   width="512px"
   height="512px"
   inkscape:version="0.91 r13725"
   sodipodi:docname="waiting.svg"><metadata
     id="metadata109"><rdf:RDF><cc:Work
         rdf:about=""><dc:format>image/svg+xml</dc:format><dc:type
           rdf:resource="http://purl.org/dc/dcmitype/StillImage" /></cc:Work></rdf:RDF></metadata><defs
     id="defs107" /><sodipodi:namedview
     pagecolor="#ffffff"
     bordercolor="#666666"
     borderopacity="1"
     objecttolerance="10"
     gridtolerance="10"
     guidetolerance="10"
     inkscape:pageopacity="0"
     inkscape:pageshadow="2"
     inkscape:window-width="1855"
     inkscape:window-height="1056"
     id="namedview105"
     showgrid="false"
     inkscape:zoom="0.65186406"
     inkscape:cx="198.38008"
     inkscape:cy="306.70623"
     inkscape:window-x="65"
     inkscape:window-y="24"
     inkscape:window-maximized="1"
     inkscape:current-layer="g3438" /><g
     id="g3"
     style="fill:#ff2b52;fill-opacity:1"><g
       id="g5"
       style="fill:#ff2b52;fill-opacity:1"><path
         d="M310.87,8.597c-1.243-1.988-3.249-3.376-5.547-3.84c-32.464-6.314-65.84-6.314-98.304,0    c-2.298,0.464-4.304,1.852-5.547,3.84c-1.288,2.03-1.659,4.508-1.024,6.827l21.931,82.773c1.126,4.214,5.248,6.9,9.557,6.229    c15.89-2.475,32.067-2.475,47.957,0h1.28c3.967,0.136,7.504-2.481,8.533-6.315l22.187-82.688    C312.529,13.106,312.157,10.627,310.87,8.597z"
         fill="#FFDA44"
         id="path7"
         style="fill:#ff2b52;fill-opacity:1" /></g></g><g
     id="g9"
     style="fill:#ff2b52;fill-opacity:1"><g
       id="g11"
       style="fill:#ff2b52;fill-opacity:1"><path
         d="M206.934,102.549l-22.187-82.773c-0.628-2.278-2.173-4.194-4.267-5.291c-2.069-1.12-4.508-1.336-6.741-0.597    C142.353,24.531,113.36,41.23,88.406,63.04c-1.776,1.558-2.826,3.783-2.901,6.144c-0.151,2.278,0.617,4.522,2.133,6.229    L148.224,136c1.61,1.597,3.79,2.488,6.059,2.475c1.954,0.008,3.852-0.654,5.376-1.877c12.435-10.117,26.407-18.184,41.387-23.893    C205.395,111.421,207.981,106.961,206.934,102.549z"
         fill="#FFDA44"
         id="path13"
         style="fill:#ff2b52;fill-opacity:1" /></g></g><g
     id="g15"
     style="fill:#ff2b52;fill-opacity:1"><g
       id="g17"
       style="fill:#ff2b52;fill-opacity:1"><path
         d="M136.192,148.458L75.606,87.872c-1.673-1.662-3.958-2.558-6.315-2.475c-2.327-0.059-4.577,0.835-6.229,2.475    c-21.809,24.955-38.509,53.947-49.152,85.333c-0.739,2.233-0.522,4.673,0.597,6.741c1.097,2.093,3.012,3.638,5.291,4.267    l82.773,22.187c0.737,0.084,1.481,0.084,2.219,0c3.518-0.01,6.669-2.179,7.936-5.461c5.736-14.985,13.831-28.957,23.979-41.387    C139.292,156.234,139.075,151.524,136.192,148.458z"
         fill="#FFDA44"
         id="path19"
         style="fill:#ff2b52;fill-opacity:1" /></g></g><g
     id="g21"
     style="fill:#ff2b52;fill-opacity:1"><g
       id="g23"
       style="fill:#ff2b52;fill-opacity:1"><path
         d="M104.448,280.043c-1.264-7.93-1.892-15.949-1.877-23.979c-0.085-8.111,0.486-16.216,1.707-24.235    c0.671-4.31-2.016-8.432-6.229-9.557L15.36,200.085c-0.179-0.048-0.36-0.091-0.542-0.127c-4.622-0.923-9.116,2.076-10.039,6.698    c-6.372,32.458-6.372,65.846,0,98.304c0.823,4.037,4.414,6.91,8.533,6.827c0.737,0.084,1.481,0.084,2.219,0L98.219,289.6    C102.433,288.474,105.12,284.352,104.448,280.043z"
         fill="#FFDA44"
         id="path25"
         style="fill:#ff2b52;fill-opacity:1" /></g></g><g
     id="g27"
     style="fill:#ff2b52;fill-opacity:1"><g
       id="g29"
       style="fill:#ff2b52;fill-opacity:1"><path
         d="M136.704,352.576c-10.058-12.557-18.039-26.645-23.637-41.728c-1.556-4.076-5.937-6.321-10.155-5.205l-82.773,22.187    c-2.278,0.628-4.194,2.173-5.291,4.267c-1.12,2.069-1.336,4.508-0.597,6.741c10.643,31.386,27.343,60.379,49.152,85.333    c1.558,1.776,3.783,2.826,6.144,2.901c2.259-0.031,4.423-0.915,6.059-2.475l60.587-60.587    C139.273,360.895,139.494,355.954,136.704,352.576z"
         fill="#FFDA44"
         id="path31"
         style="fill:#ff2b52;fill-opacity:1" /></g></g><g
     id="g33"
     style="fill:#ff2b52;fill-opacity:1"><g
       id="g35"
       style="fill:#ff2b52;fill-opacity:1"><path
         d="M201.046,399.509c-14.985-5.736-28.957-13.831-41.387-23.979c-3.318-2.588-8.028-2.371-11.093,0.512l-60.587,60.587    c-1.662,1.673-2.558,3.958-2.475,6.315c-0.249,2.434,0.559,4.858,2.219,6.656c24.955,21.809,53.947,38.509,85.333,49.152    c0.906,0.13,1.825,0.13,2.731,0c1.401-0.007,2.778-0.359,4.011-1.024c2.094-1.097,3.638-3.012,4.267-5.291l22.187-82.773    C207.367,405.446,205.122,401.066,201.046,399.509z"
         fill="#FFDA44"
         id="path37"
         style="fill:#ff2b52;fill-opacity:1" /></g></g><g
     id="g39"
     style="fill:#ff2b52;fill-opacity:1"><g
       id="g41"
       style="fill:#ff2b52;fill-opacity:1"><path
         d="M311.894,496.789l-22.187-82.688c-1.126-4.214-5.248-6.901-9.557-6.229c-15.89,2.475-32.067,2.475-47.957,0    c-4.31-0.671-8.432,2.016-9.557,6.229l-22.187,82.688c-0.61,2.292-0.239,4.734,1.024,6.741c1.243,1.988,3.249,3.376,5.547,3.84    c32.458,6.372,65.846,6.372,98.304,0c2.298-0.464,4.304-1.852,5.547-3.84C312.133,501.523,312.504,499.081,311.894,496.789z"
         fill="#FFDA44"
         id="path43"
         style="fill:#ff2b52;fill-opacity:1" /></g></g><g
     id="g45"
     style="fill:#ff2b52;fill-opacity:1"><g
       id="g47"
       style="fill:#ff2b52;fill-opacity:1"><path
         d="M424.704,436.715l-60.587-60.587c-3.092-3.106-8.035-3.365-11.435-0.597c-12.429,10.148-26.401,18.243-41.387,23.979    c-4.076,1.556-6.321,5.937-5.205,10.155l21.504,82.261c0.628,2.278,2.173,4.194,4.267,5.291c1.233,0.665,2.61,1.017,4.011,1.024    c0.906,0.13,1.825,0.13,2.731,0c31.386-10.643,60.379-27.343,85.333-49.152c1.776-1.558,2.826-3.783,2.901-6.144    C426.989,440.666,426.22,438.422,424.704,436.715z"
         fill="#FFDA44"
         id="path49"
         style="fill:#ff2b52;fill-opacity:1" /></g></g><g
     id="g51"
     style="fill:#ff2b52;fill-opacity:1"><g
       id="g53"
       style="fill:#ff2b52;fill-opacity:1"><path
         d="M497.835,332.437c-1.097-2.094-3.012-3.638-5.291-4.267l-82.773-22.187c-4.218-1.116-8.598,1.129-10.155,5.205    c-5.736,14.985-13.831,28.957-23.979,41.387c-2.937,3.498-2.598,8.689,0.768,11.776l60.587,60.587    c1.635,1.559,3.799,2.443,6.059,2.475c2.361-0.075,4.586-1.125,6.144-2.901c21.809-24.955,38.509-53.947,49.152-85.333    C499.112,336.957,498.927,334.518,497.835,332.437z"
         fill="#FFDA44"
         id="path55"
         style="fill:#ff2b52;fill-opacity:1" /></g></g><g
     id="g57"
     style="fill:#ff2b52;fill-opacity:1"><g
       id="g59"
       style="fill:#ff2b52;fill-opacity:1"><path
         d="M507.222,207.168c-0.036-0.182-0.079-0.363-0.127-0.542c-1.222-4.552-5.903-7.25-10.454-6.028l-82.688,22.187    c-4.214,1.126-6.901,5.248-6.229,9.557c2.503,15.888,2.503,32.069,0,47.957c-0.671,4.31,2.016,8.432,6.229,9.557l82.688,22.187    c0.737,0.084,1.482,0.084,2.219,0c4.12,0.083,7.71-2.789,8.533-6.827c3.194-16.189,4.794-32.651,4.779-49.152    C512.114,239.643,510.457,223.267,507.222,207.168z"
         fill="#FFDA44"
         id="path61"
         style="fill:#ff2b52;fill-opacity:1" /></g></g><g
     id="g63"
     style="fill:#ff2b52;fill-opacity:1"><g
       id="g65"
       style="fill:#ff2b52;fill-opacity:1"><path
         d="M498.347,173.632c-10.643-31.386-27.343-60.379-49.152-85.333c-1.558-1.776-3.783-2.826-6.144-2.901    c-2.286-0.213-4.554,0.563-6.229,2.133l-60.587,60.587c-3.106,3.092-3.365,8.035-0.597,11.435    c10.124,12.351,18.218,26.235,23.979,41.131c1.267,3.282,4.418,5.451,7.936,5.461c0.737,0.084,1.482,0.084,2.219,0l82.688-22.187    c2.278-0.628,4.194-2.173,5.291-4.267C498.687,177.813,498.9,175.656,498.347,173.632z"
         fill="#FFDA44"
         id="path67"
         style="fill:#ff2b52;fill-opacity:1" /></g></g><g
     id="g69"
     style="fill:#ff2b52;fill-opacity:1"><g
       id="g71"
       style="fill:#ff2b52;fill-opacity:1"><path
         d="M424.619,62.954c-24.955-21.809-53.947-38.509-85.333-49.152c-2.233-0.739-4.673-0.522-6.741,0.597    c-2.094,1.097-3.638,3.012-4.267,5.291l-22.187,82.773c-1.208,4.153,0.882,8.552,4.864,10.24    c14.985,5.736,28.957,13.831,41.387,23.979c1.524,1.223,3.422,1.886,5.376,1.877c2.268,0.013,4.448-0.877,6.059-2.475    l60.587-60.587c1.662-1.673,2.558-3.958,2.475-6.315C426.966,66.894,426.166,64.648,424.619,62.954z"
         fill="#FFDA44"
         id="path73"
         style="fill:#ff2b52;fill-opacity:1" /></g></g><g
     id="g75" /><g
     id="g77" /><g
     id="g79" /><g
     id="g81" /><g
     id="g83" /><g
     id="g85" /><g
     id="g87" /><g
     id="g89" /><g
     id="g91" /><g
     id="g93" /><g
     id="g95" /><g
     id="g97" /><g
     id="g99" /><g
     id="g101" /><g
     id="g103" /><g
     id="g3482"
     transform="matrix(1.7102752,0,0,1.7102752,-729.19193,-553.40343)"><g
       id="g3438"><polygon
         id="polygon3442"
         points="155.429,201.424 166.545,87.288 132.92,87.288 144.037,201.424 "
         style="fill:#ff2b52"
         transform="translate(426.36042,305.07101)" /><path
         id="path3444"
         d="m 576.09292,517.09201 c -8.98,0 -16.251,7.272 -16.251,16.252 0,8.971 7.271,16.251 16.251,16.251 8.979,0 16.251,-7.28 16.251,-16.251 0,-8.979 -7.271,-16.252 -16.251,-16.252 z"
         inkscape:connector-curvature="0"
         style="fill:#ff2b52" /></g><g
       id="g3446" /><g
       id="g3448" /><g
       id="g3450" /><g
       id="g3452" /><g
       id="g3454" /><g
       id="g3456" /><g
       id="g3458" /><g
       id="g3460" /><g
       id="g3462" /><g
       id="g3464" /><g
       id="g3466" /><g
       id="g3468" /><g
       id="g3470" /><g
       id="g3472" /><g
       id="g3474" /></g></svg>