<?xml version="1.0" encoding="utf-8"?>
<!-- Generator: Adobe Illustrator 16.0.0, SVG Export Plug-In . SVG Version: 6.00 Build 0)  -->
<!DOCTYPE svg PUBLIC "-//W3C//DTD SVG 1.1//EN" "http://www.w3.org/Graphics/SVG/1.1/DTD/svg11.dtd">
<svg version="1.1"
	 id="Layer_1" inkscape:version="0.91 r13725" sodipodi:docname="waiting.svg" xmlns:svg="http://www.w3.org/2000/svg" xmlns:dc="http://purl.org/dc/elements/1.1/" xmlns:inkscape="http://www.inkscape.org/namespaces/inkscape" xmlns:rdf="http://www.w3.org/1999/02/22-rdf-syntax-ns#" xmlns:sodipodi="http://sodipodi.sourceforge.net/DTD/sodipodi-0.dtd" xmlns:cc="http://creativecommons.org/ns#"
	 xmlns="http://www.w3.org/2000/svg" xmlns:xlink="http://www.w3.org/1999/xlink" x="0px" y="0px" width="512px" height="512px"
	 viewBox="0 0 512 512" enable-background="new 0 0 512 512" xml:space="preserve">
<sodipodi:namedview  id="namedview105" inkscape:pageopacity="0" inkscape:pageshadow="2" inkscape:window-width="1855" inkscape:window-x="65" inkscape:current-layer="g3438" inkscape:window-y="24" inkscape:window-maximized="1" inkscape:window-height="1056" inkscape:cy="306.70623" inkscape:zoom="0.65186406" bordercolor="#666666" objecttolerance="10" gridtolerance="10" guidetolerance="10" borderopacity="1" showgrid="false" pagecolor="#ffffff" inkscape:cx="198.38008">
	</sodipodi:namedview>
<g id="g3">
	<g id="g5">
		<path id="path7" fill="#FF2B52" d="M310.766,8.594c-1.242-1.987-3.247-3.375-5.545-3.839c-32.453-6.312-65.818-6.312-98.271,0
			c-2.297,0.464-4.302,1.852-5.545,3.839c-1.288,2.029-1.659,4.506-1.024,6.825l21.924,82.745c1.125,4.213,5.246,6.898,9.554,6.227
			c15.885-2.474,32.057-2.474,47.941,0h1.279c3.966,0.136,7.501-2.48,8.53-6.313l22.18-82.66
			C312.425,13.102,312.053,10.624,310.766,8.594z"/>
	</g>
</g>
<g id="g9">
	<g id="g11">
		<path id="path13" fill="#FF2B52" d="M206.865,102.515L184.686,19.77c-0.628-2.277-2.172-4.193-4.266-5.29
			c-2.068-1.12-4.507-1.335-6.739-0.597c-31.375,10.64-60.359,27.333-85.305,49.136c-1.775,1.557-2.825,3.782-2.9,6.142
			c-0.151,2.277,0.617,4.521,2.132,6.227l60.565,60.567c1.61,1.596,3.789,2.487,6.057,2.474c1.953,0.008,3.851-0.654,5.374-1.876
			c12.431-10.113,26.398-18.178,41.374-23.885C205.326,111.384,207.912,106.925,206.865,102.515z"/>
	</g>
</g>
<g id="g15">
	<g id="g17">
		<path id="path19" fill="#FF2B52" d="M136.146,148.408L75.581,87.843c-1.672-1.662-3.957-2.557-6.313-2.474
			c-2.327-0.059-4.576,0.834-6.227,2.474c-21.802,24.946-38.496,53.929-49.136,85.304c-0.739,2.232-0.522,4.671,0.597,6.739
			c1.097,2.092,3.011,3.637,5.29,4.266l82.745,22.18c0.737,0.084,1.48,0.084,2.218,0c3.517-0.01,6.667-2.178,7.934-5.459
			c5.734-14.98,13.826-28.947,23.971-41.374C139.246,156.182,139.028,151.474,136.146,148.408z"/>
	</g>
</g>
<g id="g21">
	<g id="g23">
		<path id="path25" fill="#FF2B52" d="M104.413,279.949c-1.264-7.928-1.891-15.943-1.876-23.971
			c-0.085-8.108,0.486-16.21,1.707-24.227c0.671-4.309-2.015-8.429-6.227-9.554l-82.661-22.18c-0.179-0.048-0.36-0.091-0.542-0.127
			c-4.621-0.922-9.113,2.076-10.036,6.696c-6.37,32.447-6.37,65.824,0,98.271c0.823,4.035,4.413,6.907,8.53,6.824
			c0.737,0.084,1.48,0.084,2.218,0l82.66-22.179C102.399,288.378,105.085,284.257,104.413,279.949z"/>
	</g>
</g>
<g id="g27">
	<g id="g29">
		<path id="path31" fill="#FF2B52" d="M136.658,352.458c-10.055-12.553-18.033-26.636-23.629-41.714
			c-1.556-4.074-5.935-6.318-10.152-5.203l-82.745,22.18c-2.277,0.628-4.193,2.172-5.289,4.266c-1.12,2.068-1.336,4.506-0.597,6.738
			c10.64,31.376,27.334,60.359,49.136,85.305c1.558,1.775,3.782,2.825,6.142,2.9c2.258-0.031,4.421-0.915,6.057-2.475l60.567-60.566
			C139.227,360.774,139.447,355.835,136.658,352.458z"/>
	</g>
</g>
<g id="g33">
	<g id="g35">
		<path id="path37" fill="#FF2B52" d="M200.979,399.376c-14.98-5.734-28.947-13.827-41.374-23.972
			c-3.316-2.587-8.025-2.37-11.089,0.512L87.95,436.483c-1.662,1.672-2.557,3.956-2.474,6.313c-0.249,2.434,0.559,4.856,2.218,6.654
			c24.947,21.802,53.929,38.496,85.304,49.136c0.906,0.13,1.825,0.13,2.73,0c1.4-0.008,2.777-0.359,4.009-1.024
			c2.093-1.097,3.637-3.011,4.266-5.289l22.18-82.745C207.298,405.311,205.054,400.932,200.979,399.376z"/>
	</g>
</g>
<g id="g39">
	<g id="g41">
		<path id="path43" fill="#FF2B52" d="M311.79,496.623l-22.18-82.66c-1.126-4.213-5.246-6.898-9.554-6.228
			c-15.885,2.475-32.057,2.475-47.941,0c-4.309-0.67-8.429,2.016-9.554,6.228l-22.18,82.66c-0.609,2.291-0.239,4.732,1.024,6.739
			c1.243,1.987,3.248,3.374,5.545,3.838c32.447,6.37,65.825,6.37,98.272,0c2.297-0.464,4.302-1.851,5.545-3.838
			C312.029,501.355,312.399,498.914,311.79,496.623z"/>
	</g>
</g>
<g id="g45">
	<g id="g47">
		<path id="path49" fill="#FF2B52" d="M424.563,436.569l-60.566-60.567c-3.092-3.104-8.033-3.363-11.432-0.597
			c-12.425,10.145-26.393,18.237-41.373,23.972c-4.075,1.555-6.319,5.935-5.203,10.151l21.496,82.233
			c0.628,2.277,2.172,4.192,4.266,5.289c1.232,0.665,2.609,1.017,4.01,1.023c0.906,0.131,1.824,0.131,2.73,0
			c31.375-10.639,60.358-27.333,85.304-49.135c1.775-1.558,2.825-3.782,2.9-6.143C426.847,440.519,426.078,438.275,424.563,436.569z
			"/>
	</g>
</g>
<g id="g51">
	<g id="g53">
		<path id="path55" fill="#FF2B52" d="M497.669,332.326c-1.097-2.094-3.011-3.637-5.289-4.266l-82.745-22.18
			c-4.217-1.115-8.596,1.129-10.152,5.203c-5.734,14.98-13.826,28.947-23.971,41.373c-2.936,3.497-2.598,8.687,0.768,11.772
			l60.566,60.566c1.635,1.559,3.798,2.442,6.058,2.475c2.36-0.075,4.584-1.125,6.142-2.9c21.802-24.946,38.496-53.929,49.136-85.305
			C498.945,336.845,498.761,334.406,497.669,332.326z"/>
	</g>
</g>
<g id="g57">
	<g id="g59">
		<path id="path61" fill="#FF2B52" d="M507.053,207.099c-0.036-0.182-0.079-0.363-0.127-0.542c-1.222-4.551-5.901-7.248-10.45-6.026
			l-82.661,22.179c-4.213,1.126-6.898,5.247-6.227,9.554c2.502,15.882,2.502,32.058,0,47.94c-0.671,4.309,2.016,8.43,6.227,9.555
			l82.661,22.179c0.736,0.084,1.481,0.084,2.218,0c4.118,0.083,7.707-2.788,8.53-6.824c3.192-16.184,4.792-32.64,4.777-49.136
			C511.943,239.563,510.286,223.192,507.053,207.099z"/>
	</g>
</g>
<g id="g63">
	<g id="g65">
		<path id="path67" fill="#FF2B52" d="M498.181,173.574c-10.64-31.376-27.334-60.359-49.136-85.305
			c-1.558-1.775-3.781-2.825-6.142-2.9c-2.285-0.213-4.553,0.563-6.228,2.132l-60.566,60.566c-3.105,3.091-3.363,8.033-0.597,11.432
			c10.12,12.347,18.212,26.226,23.971,41.117c1.267,3.281,4.417,5.449,7.934,5.459c0.737,0.084,1.481,0.084,2.218,0l82.661-22.18
			c2.277-0.628,4.192-2.172,5.289-4.266C498.521,177.753,498.733,175.597,498.181,173.574z"/>
	</g>
</g>
<g id="g69">
	<g id="g71">
		<path id="path73" fill="#FF2B52" d="M424.478,62.933c-24.947-21.802-53.929-38.496-85.305-49.136
			c-2.232-0.739-4.672-0.522-6.739,0.597c-2.093,1.097-3.637,3.011-4.266,5.29l-22.18,82.745c-1.207,4.152,0.883,8.549,4.863,10.237
			c14.979,5.734,28.947,13.826,41.373,23.971c1.523,1.223,3.42,1.885,5.374,1.876c2.267,0.013,4.446-0.877,6.057-2.474
			l60.567-60.567c1.661-1.672,2.557-3.957,2.474-6.313C426.823,66.872,426.023,64.626,424.478,62.933z"/>
	</g>
</g>
<g id="g75">
</g>
<g id="g77">
</g>
<g id="g79">
</g>
<g id="g81">
</g>
<g id="g83">
</g>
<g id="g85">
</g>
<g id="g87">
</g>
<g id="g89">
</g>
<g id="g91">
</g>
<g id="g93">
</g>
<g id="g95">
</g>
<g id="g97">
</g>
<g id="g99">
</g>
<g id="g101">
</g>
<g id="g103">
</g>
<g>
	<path fill="#FF2B52" d="M283.951,367.255c0,15.499-12.57,28.061-28.07,28.061s-28.061-12.562-28.061-28.061
		c0-15.51,12.561-28.07,28.061-28.07S283.951,351.745,283.951,367.255L283.951,367.255z M283.951,367.255"/>
	<path fill="#FF2B52" d="M290.16,133c0,18.074-15.262,49.292-34.08,49.292S219.505,150.899,222.012,133
		c2.363-16.875,15.17-20.625,33.988-20.625S287.875,115,290.16,133L290.16,133z"/>
</g>
<polygon fill="#FF2B52" points="275.912,309.096 235.877,309.096 221.774,138.429 289.763,138.429 "/>
<ellipse fill="#FF2B52" cx="255.908" cy="308.634" rx="20.046" ry="20.667"/>
</svg>
