<?xml version="1.0" encoding="UTF-8" standalone="no"?>
<svg
   xmlns:dc="http://purl.org/dc/elements/1.1/"
   xmlns:cc="http://creativecommons.org/ns#"
   xmlns:rdf="http://www.w3.org/1999/02/22-rdf-syntax-ns#"
   xmlns:svg="http://www.w3.org/2000/svg"
   xmlns="http://www.w3.org/2000/svg"
   height="132.99998"
   width="132.99998"
   xml:space="preserve"
   viewBox="0 0 132.99999 132.99999"
   y="0px"
   x="0px"
   id="Layer_1"
   version="1.1"><metadata
     id="metadata49"><rdf:RDF><cc:Work
         rdf:about=""><dc:format>image/svg+xml</dc:format><dc:type
           rdf:resource="http://purl.org/dc/dcmitype/StillImage" /><dc:title></dc:title></cc:Work></rdf:RDF></metadata><defs
     id="defs47" /><g
     transform="translate(-213.47009,478.68659)"
     id="g15" /><g
     transform="translate(-213.47009,478.68659)"
     id="g17" /><g
     transform="translate(-213.47009,478.68659)"
     id="g19" /><g
     transform="translate(-213.47009,478.68659)"
     id="g21" /><g
     transform="translate(-213.47009,478.68659)"
     id="g23" /><g
     transform="translate(-213.47009,478.68659)"
     id="g25" /><g
     transform="translate(-213.47009,478.68659)"
     id="g27" /><g
     transform="translate(-213.47009,478.68659)"
     id="g29" /><g
     transform="translate(-213.47009,478.68659)"
     id="g31" /><g
     transform="translate(-213.47009,478.68659)"
     id="g33" /><g
     transform="translate(-213.47009,478.68659)"
     id="g35" /><g
     transform="translate(-213.47009,478.68659)"
     id="g37" /><g
     transform="translate(-213.47009,478.68659)"
     id="g39" /><g
     transform="translate(-213.47009,478.68659)"
     id="g41" /><g
     transform="translate(-213.47009,478.68659)"
     id="g43" /><g
     transform="translate(-506.22682,-1429.2208)"
     id="g4204"><g
       style="fill:none;fill-rule:evenodd"
       id="Group-6"
       transform="translate(506,1422)"><circle
         style="stroke:#56c8c2;stroke-width:4"
         id="Oval-2"
         cy="73.720802"
         cx="66.726822"
         r="64.5" /></g></g><g
     transform="matrix(0.17809463,0,0,0.17809463,20.941075,20.941076)"
     id="g5842"><g
       id="g5802"><path
         style="fill:#56c8c2"
         d="M 505.918,236.117 C 479.267,192.53 443.433,157.508 398.421,131.052 353.406,104.595 305.872,91.365 255.813,91.365 c -50.059,0 -97.595,13.225 -142.61,39.687 C 68.187,157.508 32.355,192.53 5.708,236.117 1.903,242.778 0,249.345 0,255.818 c 0,6.473 1.903,13.04 5.708,19.699 26.647,43.589 62.479,78.614 107.495,105.064 45.015,26.46 92.551,39.68 142.61,39.68 50.06,0 97.594,-13.176 142.608,-39.536 45.012,-26.361 80.852,-61.432 107.497,-105.208 3.806,-6.659 5.708,-13.223 5.708,-19.699 0,-6.473 -1.902,-13.04 -5.708,-19.701 z M 194.568,158.03 c 17.034,-17.034 37.447,-25.554 61.242,-25.554 3.805,0 7.043,1.336 9.709,3.999 2.662,2.664 4,5.901 4,9.707 0,3.809 -1.338,7.044 -3.994,9.704 -2.662,2.667 -5.902,3.999 -9.708,3.999 -16.368,0 -30.362,5.808 -41.971,17.416 -11.613,11.615 -17.416,25.603 -17.416,41.971 0,3.811 -1.336,7.044 -3.999,9.71 -2.667,2.668 -5.901,3.999 -9.707,3.999 -3.809,0 -7.044,-1.334 -9.71,-3.999 -2.667,-2.666 -3.999,-5.903 -3.999,-9.71 0,-23.79 8.52,-44.207 25.553,-61.242 z m 185.299,191.01 c -38.164,23.12 -79.514,34.687 -124.054,34.687 -44.539,0 -85.889,-11.56 -124.051,-34.687 C 93.6,325.913 61.861,294.84 36.547,255.818 65.478,210.897 101.737,177.3 145.324,155.035 c -11.61,19.792 -17.417,41.207 -17.417,64.236 0,35.216 12.517,65.329 37.544,90.362 25.027,25.033 55.151,37.544 90.362,37.544 35.214,0 65.329,-12.518 90.362,-37.544 25.033,-25.026 37.545,-55.146 37.545,-90.362 0,-23.029 -5.808,-44.447 -17.419,-64.236 43.585,22.265 79.846,55.865 108.776,100.783 -25.31,39.022 -57.046,70.095 -95.21,93.222 z"
         id="path5804" /></g><g
       id="g5806" /><g
       id="g5808" /><g
       id="g5810" /><g
       id="g5812" /><g
       id="g5814" /><g
       id="g5816" /><g
       id="g5818" /><g
       id="g5820" /><g
       id="g5822" /><g
       id="g5824" /><g
       id="g5826" /><g
       id="g5828" /><g
       id="g5830" /><g
       id="g5832" /><g
       id="g5834" /></g></svg>