<?xml version="1.0" encoding="iso-8859-1"?>
<!-- Generator: Adobe Illustrator 16.0.0, SVG Export Plug-In . SVG Version: 6.00 Build 0)  -->
<!DOCTYPE svg PUBLIC "-//W3C//DTD SVG 1.1//EN" "http://www.w3.org/Graphics/SVG/1.1/DTD/svg11.dtd">
<svg xmlns="http://www.w3.org/2000/svg" xmlns:xlink="http://www.w3.org/1999/xlink" version="1.1" id="Capa_1" x="0px" y="0px" width="30px" height="30px" viewBox="0 0 612 612" style="enable-background:new 0 0 612 612;" xml:space="preserve">
<g>
	<g>
		<g id="group-50svg">
			<path id="path-1_46_" d="M612,441.999c0,50.971-41.314,92.287-92.286,92.287H92.286C41.315,534.286,0,492.97,0,441.999V170     c0-50.971,41.315-92.286,92.286-92.286h427.428C570.686,77.714,612,119.029,612,170V441.999z M582.857,170     c0-34.874-28.269-63.143-63.144-63.143H92.286c-34.874,0-63.143,28.269-63.143,63.143v272c0,34.875,28.269,63.143,63.143,63.143     h427.428c34.875,0,63.144-28.268,63.144-63.143V170z" fill="#404040"/>
			<path id="path-2_46_" d="M588.424,242.856H24.995c-8.043,0-14.572-6.528-14.572-14.571s6.528-14.571,14.572-14.571h563.429     c8.043,0,14.571,6.528,14.571,14.571S596.467,242.856,588.424,242.856z" fill="#404040"/>
			<path id="path-3_45_" d="M145.957,172.564c0,15.184-12.308,27.492-27.491,27.492c-15.184,0-27.492-12.308-27.492-27.492     c0-15.183,12.308-27.491,27.492-27.491C133.649,145.073,145.957,157.381,145.957,172.564z" fill="#404040"/>
			<path id="path-4_29_" d="M244.936,172.564c0,15.184-12.308,27.492-27.492,27.492c-15.193,0-27.491-12.308-27.491-27.492     c0-15.183,12.298-27.491,27.491-27.491C232.628,145.073,244.936,157.381,244.936,172.564z" fill="#404040"/>
			<path id="path-5_17_" d="M332.908,172.564c0,15.184-12.298,27.492-27.491,27.492c-15.183,0-27.491-12.308-27.491-27.492     c0-15.183,12.308-27.491,27.491-27.491C320.61,145.073,332.908,157.381,332.908,172.564z" fill="#404040"/>
			<path id="path-6_6_" d="M520.424,339.999H92.995c-8.043,0-14.572-6.527-14.572-14.57c0-8.045,6.528-14.572,14.572-14.572h427.429     c8.043,0,14.571,6.527,14.571,14.572C534.995,333.472,528.467,339.999,520.424,339.999z" fill="#404040"/>
			<path id="path-7_5_" d="M394.138,417.714H92.995c-8.043,0-14.572-6.527-14.572-14.572c0-8.043,6.528-14.57,14.572-14.57h301.143     c8.044,0,14.571,6.527,14.571,14.57C408.709,411.187,402.182,417.714,394.138,417.714z" fill="#404040"/>
			<path id="path-8_2_" d="M471.852,485.714H92.995c-8.043,0-14.572-6.527-14.572-14.572c0-8.043,6.528-14.57,14.572-14.57h378.856     c8.044,0,14.572,6.527,14.572,14.57C486.424,479.187,479.896,485.714,471.852,485.714z" fill="#404040"/>
		</g>
	</g>
</g>
</svg>
