<?xml version="1.0" encoding="UTF-8" standalone="no"?>
<!-- Generator: Adobe Illustrator 18.1.1, SVG Export Plug-In . SVG Version: 6.00 Build 0)  -->
<svg id="Capa_1" xmlns:rdf="http://www.w3.org/1999/02/22-rdf-syntax-ns#" xmlns="http://www.w3.org/2000/svg" xml:space="preserve" viewBox="0 0 15 12.623175" height="12.5" width="15" version="1.1" y="0px" x="0px" xmlns:cc="http://creativecommons.org/ns#" xmlns:dc="http://purl.org/dc/elements/1.1/"><metadata id="metadata41"><rdf:RDF><cc:Work rdf:about=""><dc:format>image/svg+xml</dc:format><dc:type rdf:resource="http://purl.org/dc/dcmitype/StillImage"/><dc:title/></cc:Work></rdf:RDF></metadata><defs id="defs39"/><g id="g3" fill="#909fa9" transform="translate(42.687189,-3.143511)"><path id="path5" fill="#909fa9" d="M14.982,7c-0.246-3.744-3.238-6.737-6.982-6.983v-0.017h-1v0.017c-3.744,0.246-6.737,3.239-6.983,6.983h-0.017v1h0.017c0.246,3.744,3.239,6.736,6.983,6.982v0.018h1v-0.018c3.744-0.246,6.736-3.238,6.982-6.982h0.018v-1h-0.018zm-10.287-5.365c-0.483,0.642-0.884,1.447-1.176,2.365h-1.498c0.652-1.017,1.578-1.84,2.674-2.365zm-3.197,3.365h1.758c-0.134,0.632-0.219,1.303-0.246,2h-1.991c0.053-0.704,0.219-1.377,0.479-2zm-0.479,3h1.991c0.027,0.697,0.112,1.368,0.246,2h-1.758c-0.26-0.623-0.426-1.296-0.479-2zm1.002,3h1.497c0.292,0.918,0.693,1.723,1.177,2.365-1.096-0.525-2.022-1.347-2.674-2.365zm4.979,2.936c-1.028-0.275-1.913-1.379-2.45-2.936h2.45v2.936zm0-3.936h-2.731c-0.141-0.623-0.23-1.296-0.259-2h2.99v2zm0-3h-2.99c0.029-0.704,0.118-1.377,0.259-2h2.731v2zm0-3h-2.45c0.537-1.557,1.422-2.661,2.45-2.935v2.935zm5.979,0h-1.496c-0.293-0.918-0.693-1.723-1.178-2.365,1.095,0.525,2.022,1.348,2.674,2.365zm-4.979-2.935c1.027,0.274,1.913,1.378,2.45,2.935h-2.45v-2.935zm0,3.935h2.73c0.142,0.623,0.229,1.296,0.26,2h-2.99v-2zm0,3h2.99c-0.029,0.704-0.118,1.377-0.26,2h-2.73v-2zm0,5.936v-2.936h2.45c-0.537,1.557-1.423,2.661-2.45,2.936zm2.305-0.571c0.483-0.643,0.885-1.447,1.178-2.365h1.496c-0.652,1.018-1.579,1.84-2.674,2.365zm3.197-3.365h-1.758c0.134-0.632,0.219-1.303,0.246-2h1.99c-0.052,0.704-0.218,1.377-0.478,2zm-1.512-3c-0.027-0.697-0.112-1.368-0.246-2h1.758c0.26,0.623,0.426,1.296,0.479,2h-1.991z"/></g><g id="g3105" fill="#909fa9" transform="matrix(0.03081772,0,0,0.03081772,19.099152,-3.9703714)"><g id="g3065" fill="#909fa9"><path id="path3067" fill="#909fa9" d="m403.88,196.56h-9.484v-44.385c0-82.099-65.16-150.68-146.59-152.14-2.225-0.04-6.671-0.04-8.895,0-81.43,1.464-146.58,70.046-146.58,152.15v44.388h-9.485c-14.616,0-26.538,15.082-26.538,33.709v222.63c0,18.606,11.922,33.829,26.539,33.829h321.03c14.616,0,26.539-15.223,26.539-33.829v-222.64c0-18.626-11.922-33.709-26.539-33.709zm-130.44,144.8v67.271c0,7.703-6.449,14.222-14.158,14.222h-31.83c-7.71,0-14.159-6.519-14.159-14.222v-67.271c-7.477-7.36-11.83-17.537-11.83-28.795,0-21.334,16.491-39.666,37.459-40.513,2.222-0.09,6.673-0.09,8.895,0,20.968,0.847,37.459,19.179,37.459,40.513-0.002,11.258-4.355,21.435-11.832,28.795zm58.444-144.8h-177.04v-44.388c0-48.905,39.744-89.342,88.519-89.342s88.521,40.437,88.521,89.342v44.388z"/></g></g><g id="g3184" fill="#909fa9" transform="matrix(0.18719581,0,0,0.18719581,0,-1.1883191)"><g id="g3144" fill="#909fa9"><path id="path3146" fill="#909fa9" d="m48.355,17.922c3.705,2.323,6.303,6.254,6.776,10.817,1.511,0.706,3.188,1.112,4.966,1.112,6.491,0,11.752-5.261,11.752-11.751,0-6.491-5.261-11.752-11.752-11.752-6.429,0.002-11.644,5.169-11.742,11.574zm-7.699,24.062c6.491,0,11.752-5.262,11.752-11.752s-5.262-11.751-11.752-11.751-11.754,5.262-11.754,11.752,5.264,11.751,11.754,11.751zm4.985,0.801h-9.972c-8.297,0-15.047,6.751-15.047,15.048v12.195l0.031,0.191,0.84,0.263c7.918,2.474,14.797,3.299,20.459,3.299,11.059,0,17.469-3.153,17.864-3.354l0.785-0.397h0.084v-12.197c0.003-8.297-6.747-15.048-15.044-15.048zm19.443-12.132h-9.895c-0.107,3.959-1.797,7.524-4.47,10.088,7.375,2.193,12.771,9.032,12.771,17.11v3.758c9.77-0.358,15.4-3.127,15.771-3.313l0.785-0.398h0.084v-12.199c0-8.296-6.75-15.046-15.046-15.046zm-45.049-0.8c2.299,0,4.438-0.671,6.25-1.814,0.576-3.757,2.59-7.04,5.467-9.276,0.012-0.22,0.033-0.438,0.033-0.66,0-6.491-5.262-11.752-11.75-11.752-6.492,0-11.752,5.261-11.752,11.752,0,6.488,5.26,11.75,11.752,11.75zm10.554,10.888c-2.66-2.551-4.344-6.097-4.467-10.032-0.367-0.027-0.73-0.056-1.104-0.056h-9.971c-8.297,0-15.047,6.75-15.047,15.046v12.197l0.031,0.188,0.84,0.265c6.352,1.983,12.021,2.897,16.945,3.185v-3.683c0.002-8.078,5.396-14.915,12.773-17.11z"/></g></g></svg>
