
<svg width="44px" height="44px" viewBox="947 375 44 44" version="1.1" xmlns="http://www.w3.org/2000/svg" xmlns:xlink="http://www.w3.org/1999/xlink">
    <!-- Generator: Sketch 39.1 (31720) - http://www.bohemiancoding.com/sketch -->
    <desc>Created with Sketch.</desc>
    <defs></defs>
    <g id="Group-2" stroke="none" stroke-width="1" fill="none" fill-rule="evenodd" transform="translate(947.000000, 375.000000)">
        <rect id="Rectangle-8" fill="#FFFFFF" x="0" y="0" width="44" height="44" rx="5"></rect>
        <g id="Group" transform="translate(22.000000, 22.000000) scale(-1, 1) translate(-22.000000, -22.000000) translate(9.000000, 9.000000)" fill="#56C8C2">
            <path d="M23.6352941,0 C24.9412851,0 26,1.05955391 26,2.36470591 L26,23.6352941 C26,24.9412851 24.9404461,26 23.6352941,26 L2.36470591,26 C1.05871489,26 0,24.9404461 0,23.6352941 L0,2.36470591 C0,1.05871489 1.05955391,0 2.36470591,0 L23.6352941,0 L23.6352941,0 L23.6352941,0 Z M2.36363636,2.36363636 L23.6363636,2.36363636 L23.6363636,23.6363636 L2.36363636,23.6363636 L2.36363636,2.36363636 L2.36363636,2.36363636 L2.36363636,2.36363636 Z M15.2310202,21.7433202 L21.7955496,21.7955496 L21.7433202,15.2310202 L19.358174,15.2136104 L19.3807043,17.7093611 L15.5577069,13.8863636 L13.8863636,15.5577069 L17.7093611,19.3807043 L15.2136104,19.358174 L15.2310202,21.7433202 L15.2310202,21.7433202 L15.2310202,21.7433202 Z M10.7008931,4.18859312 L4.13636364,4.13636364 L4.18859312,10.7008931 L6.57373928,10.7183029 L6.55120892,8.22255221 L10.3742063,12.0455496 L12.0455496,10.3742063 L8.22255221,6.55120892 L10.7183029,6.57373928 L10.7008931,4.18859312 L10.7008931,4.18859312 L10.7008931,4.18859312 Z" id="Shape"></path>
        </g>
    </g>
</svg>