
<svg width="100px" height="63px" viewBox="1145 853 100 63" version="1.1" xmlns="http://www.w3.org/2000/svg" xmlns:xlink="http://www.w3.org/1999/xlink">
    <!-- Generator: Sketch 39.1 (31720) - http://www.bohemiancoding.com/sketch -->
    <desc>Created with Sketch.</desc>
    <defs></defs>
    <path d="M1242.938,902.982 L1236.622,902.982 L1236.622,855.021 C1236.622,853.906 1235.717,853 1234.601,853 L1155.399,853 C1154.284,853 1153.378,853.906 1153.378,855.021 L1153.378,902.982 L1147.062,902.982 C1145.924,902.982 1145,903.905 1145,905.043 L1145,907.127 C1145,907.23 1145.008,907.331 1145.022,907.433 C1145.549,910.954 1148.37,914.88 1152.181,915.355 C1152.264,915.365 1152.35,915.372 1152.433,915.372 L1236.943,915.443 L1236.946,915.443 C1241.35,915.443 1244.55,911.246 1244.987,907.358 C1244.996,907.283 1245,907.206 1245,907.128 L1245,905.044 C1245,903.905 1244.076,902.982 1242.938,902.982 L1242.938,902.982 Z M1157.42,857.042 L1232.58,857.042 L1232.58,902.981 L1204.985,902.981 C1204.852,902.981 1204.723,902.997 1204.599,903.021 L1186.16,903.021 C1186.032,902.996 1185.899,902.981 1185.764,902.981 L1157.42,902.981 L1157.42,857.042 L1157.42,857.042 Z M1236.948,911.318 L1152.586,911.247 C1151.125,910.986 1149.562,909.087 1149.152,907.104 L1184.238,907.104 C1184.94,908.35 1186.255,909.189 1187.757,909.189 L1202.99,909.189 C1204.492,909.189 1205.806,908.35 1206.51,907.104 L1240.86,907.104 C1240.538,909.137 1238.854,911.318 1236.948,911.318 L1236.948,911.318 Z M1183.84,871.709 C1183.026,870.895 1181.707,870.895 1180.893,871.709 L1172.204,880.398 C1171.39,881.212 1171.39,882.531 1172.204,883.346 L1180.893,892.034 C1181.3,892.441 1181.833,892.645 1182.367,892.645 C1182.901,892.645 1183.433,892.441 1183.841,892.034 C1184.655,891.221 1184.655,889.901 1183.841,889.087 L1176.625,881.872 L1183.841,874.656 C1184.654,873.842 1184.654,872.523 1183.84,871.709 L1183.84,871.709 Z M1204.361,892.034 C1204.767,892.441 1205.3,892.645 1205.835,892.645 C1206.368,892.645 1206.901,892.441 1207.309,892.034 L1215.997,883.346 C1216.811,882.532 1216.811,881.213 1215.997,880.398 L1207.309,871.709 C1206.495,870.895 1205.175,870.895 1204.362,871.709 C1203.548,872.523 1203.548,873.842 1204.362,874.656 L1211.577,881.872 L1204.362,889.087 C1203.547,889.901 1203.547,891.221 1204.361,892.034 L1204.361,892.034 Z M1186.793,896.486 C1187.092,896.634 1187.41,896.706 1187.724,896.706 C1188.489,896.706 1189.224,896.284 1189.59,895.554 L1202.096,870.543 C1202.611,869.513 1202.194,868.262 1201.163,867.747 C1200.134,867.234 1198.882,867.649 1198.366,868.679 L1185.861,893.69 C1185.346,894.72 1185.763,895.971 1186.793,896.486 L1186.793,896.486 Z" id="Shape" stroke="none" fill="#56C8C2" fill-rule="evenodd"></path>
</svg>
