
<svg width="93px" height="94px" viewBox="262 728 93 94" version="1.1" xmlns="http://www.w3.org/2000/svg" xmlns:xlink="http://www.w3.org/1999/xlink">
    <!-- Generator: Sketch 39.1 (31720) - http://www.bohemiancoding.com/sketch -->
    <desc>Created with Sketch.</desc>
    <defs>
        <polygon id="path-1" points="92.9269859 92.8180039 0 92.8180039 0 0.0728530333 92.9269859 0.0728530333 92.9269859 92.8180039"></polygon>
        <polygon id="path-3" points="0 92.9272016 92.9270588 92.9272016 92.9270588 0.181996086 0 0.181996086"></polygon>
    </defs>
    <g id="Page-1" stroke="none" stroke-width="1" fill="none" fill-rule="evenodd" transform="translate(262.000000, 728.000000)">
        <g id="Group-3" transform="translate(0.000000, 0.109198)">
            <mask id="mask-2" fill="white">
                <use xlink:href="#path-1"></use>
            </mask>
            <g id="Clip-2"></g>
            <path d="M89.2799271,61.3305517 L74.3634565,61.3305517 L65.9934565,61.3305517 L20.3858918,61.3305517 L20.3858918,43.6620076 L20.3858918,29.739307 L20.3858918,3.71277476 L89.2799271,3.71277476 L89.2799271,61.3305517 Z M72.5399271,89.1781368 L3.64698588,89.1781368 L3.64698588,31.5592679 L16.7388329,31.5592679 L16.7388329,41.8420468 L10.1934565,41.8420468 C9.18632118,41.8420468 8.36992706,42.6568432 8.36992706,43.6620076 L8.36992706,82.6444773 C8.36992706,83.6496417 9.18632118,84.4644382 10.1934565,84.4644382 L65.9934565,84.4644382 C67.0004094,84.4644382 67.8169859,83.6496417 67.8169859,82.6444773 L67.8169859,64.9704734 L72.5399271,64.9704734 L72.5399271,89.1781368 Z M18.5623624,64.9704734 L64.1699271,64.9704734 L64.1699271,80.8245164 L12.0169859,80.8245164 L12.0169859,45.4819685 L16.7388329,45.4819685 L16.7388329,63.1505125 C16.7388329,64.1554949 17.5552271,64.9704734 18.5623624,64.9704734 L18.5623624,64.9704734 Z M91.1034565,0.0728530333 L18.5623624,0.0728530333 C17.5552271,0.0728530333 16.7388329,0.887649511 16.7388329,1.89281389 L16.7388329,27.9193462 L1.82345647,27.9193462 C0.816321176,27.9193462 -7.29411768e-05,28.7341427 -7.29411768e-05,29.739307 L-7.29411768e-05,90.9980977 C-7.29411768e-05,92.00308 0.816321176,92.8180585 1.82345647,92.8180585 L74.3634565,92.8180585 C75.3705918,92.8180585 76.1869859,92.00308 76.1869859,90.9980977 L76.1869859,64.9704734 L91.1034565,64.9704734 C92.1104094,64.9704734 92.9269859,64.1554949 92.9269859,63.1505125 L92.9269859,1.89281389 C92.9269859,0.887649511 92.1104094,0.0728530333 91.1034565,0.0728530333 L91.1034565,0.0728530333 Z" id="Fill-1" fill="#FFFFFF" mask="url(#mask-2)"></path>
        </g>
        <mask id="mask-4" fill="white">
            <use xlink:href="#path-3"></use>
        </mask>
        <g id="Clip-5"></g>
        <path d="M28.7570588,53.0871663 L80.91,53.0871663 L80.91,17.7435264 L28.7570588,17.7435264 L28.7570588,53.0871663 Z M26.9335294,56.7270881 L82.7335294,56.7270881 C83.7406647,56.7270881 84.5570588,55.9122916 84.5570588,54.9071272 L84.5570588,15.9235656 C84.5570588,14.9184012 83.7406647,14.1036047 82.7335294,14.1036047 L26.9335294,14.1036047 C25.9263941,14.1036047 25.11,14.9184012 25.11,15.9235656 L25.11,54.9071272 C25.11,55.9122916 25.9263941,56.7270881 26.9335294,56.7270881 L26.9335294,56.7270881 Z" id="Fill-4" fill="#FFFFFF" mask="url(#mask-4)"></path>
        <path d="M64.1698906,37.7721593 L59.01842,37.7721593 C58.0114671,37.7721593 57.1948906,38.5869558 57.1948906,39.5921202 L57.1948906,44.7324176 L52.4710376,44.7324176 L52.4710376,39.5921202 C52.4710376,38.5869558 51.6544612,37.7721593 50.6475082,37.7721593 L45.4971318,37.7721593 L45.4971318,33.0573687 L50.6475082,33.0573687 C51.6544612,33.0573687 52.4710376,32.2425722 52.4710376,31.2374078 L52.4710376,26.0971104 L57.1948906,26.0971104 L57.1948906,31.2374078 C57.1948906,32.2425722 58.0114671,33.0573687 59.01842,33.0573687 L64.1698906,33.0573687 L64.1698906,37.7721593 Z M65.99342,29.417447 L60.8419494,29.417447 L60.8419494,24.2771495 C60.8419494,23.2719851 60.0253729,22.4571886 59.01842,22.4571886 L50.6475082,22.4571886 C49.6403729,22.4571886 48.8239788,23.2719851 48.8239788,24.2771495 L48.8239788,29.417447 L43.6736024,29.417447 C42.6664671,29.417447 41.8500729,30.2322434 41.8500729,31.2374078 L41.8500729,39.5921202 C41.8500729,40.5972845 42.6664671,41.412081 43.6736024,41.412081 L48.8239788,41.412081 L48.8239788,46.5523785 C48.8239788,47.5575429 49.6403729,48.3723393 50.6475082,48.3723393 L59.01842,48.3723393 C60.0253729,48.3723393 60.8419494,47.5575429 60.8419494,46.5523785 L60.8419494,41.412081 L65.99342,41.412081 C67.0003729,41.412081 67.8169494,40.5972845 67.8169494,39.5921202 L67.8169494,31.2374078 C67.8169494,30.2322434 67.0003729,29.417447 65.99342,29.417447 L65.99342,29.417447 Z" id="Fill-6" fill="#FFFFFF" mask="url(#mask-4)"></path>
    </g>
</svg>
