
<svg width="26px" height="19px" viewBox="149 477 26 19" version="1.1" xmlns="http://www.w3.org/2000/svg" xmlns:xlink="http://www.w3.org/1999/xlink">
    <!-- Generator: Sketch 39.1 (31720) - http://www.bohemiancoding.com/sketch -->
    <desc>Created with Sketch.</desc>
    <defs></defs>
    <path d="M174.415133,480.253528 L174.415133,480.253528 L160.218814,494.814397 C159.899796,495.134416 159.421268,495.347762 158.889571,495.347762 C158.357873,495.347762 157.932515,495.134416 157.560327,494.814397 L149.531697,486.600573 C149.212679,486.280554 149,485.800525 149,485.26716 C149,484.20043 149.850716,483.347046 150.860941,483.347046 C151.392638,483.347046 151.817996,483.560392 152.190184,483.880411 L158.889571,490.760822 L171.809816,477.533365 C172.128834,477.213346 172.607362,477 173.139059,477 C174.149284,477 175,477.853384 175,478.920115 C174.94683,479.45348 174.734151,479.933508 174.415133,480.253528" id="Fill-3" stroke="none" fill="#56C8C2" fill-rule="evenodd"></path>
</svg>