
<svg width="110px" height="91px" viewBox="1081 730 110 91" version="1.1" xmlns="http://www.w3.org/2000/svg" xmlns:xlink="http://www.w3.org/1999/xlink">
    <!-- Generator: Sketch 39.1 (31720) - http://www.bohemiancoding.com/sketch -->
    <desc>Created with Sketch.</desc>
    <defs></defs>
    <g id="Group-2" stroke="none" stroke-width="1" fill="none" fill-rule="evenodd" transform="translate(1081.000000, 730.000000)">
        <path d="M25.9114608,72.91275 C24.5362647,72.9770343 23.4735392,74.1439167 23.5378235,75.5191127 C23.6021078,76.8943088 24.7691936,77.9570343 26.1443897,77.89275 L26.145,77.89275 L83.4147966,77.89275 C84.7899926,77.9122794 85.9206642,76.8131397 85.9399902,75.4379436 C85.9595196,74.0627475 84.8603799,72.9322794 83.4851838,72.91275 C83.4617892,72.9125466 83.4383946,72.9125466 83.4147966,72.91275 L26.145,72.91275 C26.0670858,72.9090882 25.9891716,72.9090882 25.9114608,72.91275 L25.9114608,72.91275 Z M32.1364608,62.95275 C30.7612647,63.0170343 29.6985392,64.1839167 29.7628235,65.5591127 C29.8271078,66.9345123 30.9941936,67.9970343 32.3693897,67.93275 L32.3697966,67.93275 L77.19,67.93275 C78.5649926,67.9522794 79.6956642,66.8531397 79.7151936,65.4779436 C79.7345196,64.1027475 78.6355833,62.9722794 77.2603873,62.95275 C77.2367892,62.9525466 77.2133946,62.9525466 77.19,62.95275 L32.3697966,62.95275 C32.2920858,62.9490882 32.2141716,62.9490882 32.1364608,62.95275 L32.1364608,62.95275 Z M20.2701054,57.5837892 C21.0569779,57.839299 21.8975564,57.97275 22.7601054,57.97275 L86.7996912,57.97275 C87.6622402,57.97275 88.5028186,57.839299 89.2896912,57.5837892 L104.58,82.2891054 L104.58,85.36275 L54.78,85.36275 L4.97979657,85.36275 L4.97979657,82.2891054 L20.2701054,57.5837892 L20.2701054,57.5837892 Z M46.065,40.54275 C46.7818922,40.54275 47.31,41.0706544 47.31,41.78775 C47.31,42.5048456 46.7818922,43.03275 46.065,43.03275 C45.3479044,43.03275 44.8197966,42.5048456 44.8197966,41.78775 C44.8197966,41.0706544 45.3479044,40.54275 46.065,40.54275 L46.065,40.54275 Z M63.4947966,28.09275 C64.2118922,28.09275 64.7397966,28.6206544 64.7397966,29.33775 C64.7397966,30.0548456 64.2118922,30.58275 63.4947966,30.58275 C62.7779044,30.58275 62.25,30.0548456 62.25,29.33775 C62.25,28.6206544 62.7779044,28.09275 63.4947966,28.09275 L63.4947966,28.09275 Z M46.065,15.64275 C46.7818922,15.64275 47.31,16.1706544 47.31,16.88775 C47.31,17.6048456 46.7818922,18.13275 46.065,18.13275 C45.3479044,18.13275 44.8197966,17.6048456 44.8197966,16.88775 C44.8197966,16.1706544 45.3479044,15.64275 46.065,15.64275 L46.065,15.64275 Z M46.065,10.66275 C42.6565074,10.66275 39.8397966,13.4792574 39.8397966,16.88775 C39.8397966,20.2962426 42.6565074,23.11275 46.065,23.11275 C47.643424,23.11275 49.0835147,22.5065245 50.1889608,21.5176446 L57.6978162,27.159 C57.437424,27.8413088 57.2697966,28.5708137 57.2697966,29.33775 C57.2697966,30.0918701 57.4455613,30.8048971 57.6978162,31.4776446 L50.1501054,37.1578554 C49.0473039,36.1805711 47.6328456,35.56275 46.065,35.56275 C42.6565074,35.56275 39.8397966,38.3792574 39.8397966,41.78775 C39.8397966,45.1962426 42.6565074,48.01275 46.065,48.01275 C49.4732892,48.01275 52.29,45.1962426 52.29,41.78775 L61.1994804,35.095875 C61.9131176,35.3845441 62.6853431,35.56275 63.4947966,35.56275 C66.9032892,35.56275 69.72,32.7462426 69.72,29.33775 C69.72,25.9292574 66.9032892,23.11275 63.4947966,23.11275 C62.6981593,23.11275 61.9426152,23.2997034 61.2383358,23.579625 L52.29,16.88775 C52.29,13.4792574 49.4732892,10.66275 46.065,10.66275 L46.065,10.66275 Z M22.7601054,5.68275 L86.7996912,5.68275 C88.5085147,5.68275 89.6397966,6.84576716 89.6397966,8.17275 L89.6397966,50.50275 C89.6397966,51.8297328 88.5085147,52.99275 86.7996912,52.99275 L22.7601054,52.99275 C21.0512819,52.99275 19.92,51.8297328 19.92,50.50275 L19.92,8.17275 C19.92,6.84576716 21.0512819,5.68275 22.7601054,5.68275 L22.7601054,5.68275 Z M22.7601054,0.70275 C18.5568064,0.70275 14.94,3.98206373 14.94,8.17275 L14.94,50.50275 C14.94,52.0541176 15.4251838,53.4842402 16.2627108,54.6655662 L0.388960784,80.3050392 C0.137316176,80.7005098 0.00244117647,81.1590441 0,81.62775 L0,87.85275 C0,89.2277426 1.11480392,90.3425466 2.49,90.34275 L54.78,90.34275 L107.07,90.34275 C108.444993,90.3425466 109.559797,89.2277426 109.559797,87.85275 L109.559797,81.62775 C109.557355,81.1590441 109.42248,80.7005098 109.170836,80.3050392 L93.2970858,54.6655662 C94.1346127,53.4842402 94.6197966,52.0541176 94.6197966,50.50275 L94.6197966,8.17275 C94.6197966,3.98206373 91.0029902,0.70275 86.7996912,0.70275 L22.7601054,0.70275 Z" id="Page-1" fill="#FFFFFF"></path>
    </g>
</svg>
