
<svg width="100px" height="63px" viewBox="1084 883 100 63" version="1.1" xmlns="http://www.w3.org/2000/svg" xmlns:xlink="http://www.w3.org/1999/xlink">
    <!-- Generator: Sketch 39.1 (31720) - http://www.bohemiancoding.com/sketch -->
    <desc>Created with Sketch.</desc>
    <defs></defs>
    <path d="M1181.938,932.982 L1175.622,932.982 L1175.622,885.021 C1175.622,883.906 1174.717,883 1173.601,883 L1094.399,883 C1093.284,883 1092.378,883.906 1092.378,885.021 L1092.378,932.982 L1086.062,932.982 C1084.924,932.982 1084,933.905 1084,935.043 L1084,937.127 C1084,937.23 1084.008,937.331 1084.022,937.433 C1084.549,940.954 1087.37,944.88 1091.181,945.355 C1091.264,945.365 1091.35,945.372 1091.433,945.372 L1175.943,945.443 L1175.946,945.443 C1180.35,945.443 1183.55,941.246 1183.987,937.358 C1183.996,937.283 1184,937.206 1184,937.128 L1184,935.044 C1184,933.905 1183.076,932.982 1181.938,932.982 L1181.938,932.982 Z M1096.42,887.042 L1171.58,887.042 L1171.58,932.981 L1143.985,932.981 C1143.852,932.981 1143.723,932.997 1143.599,933.021 L1125.16,933.021 C1125.032,932.996 1124.899,932.981 1124.764,932.981 L1096.42,932.981 L1096.42,887.042 L1096.42,887.042 Z M1175.948,941.318 L1091.586,941.247 C1090.125,940.986 1088.562,939.087 1088.152,937.104 L1123.238,937.104 C1123.94,938.35 1125.255,939.189 1126.757,939.189 L1141.99,939.189 C1143.492,939.189 1144.806,938.35 1145.51,937.104 L1179.86,937.104 C1179.538,939.137 1177.854,941.318 1175.948,941.318 L1175.948,941.318 Z M1122.84,901.709 C1122.026,900.895 1120.707,900.895 1119.893,901.709 L1111.204,910.398 C1110.39,911.212 1110.39,912.531 1111.204,913.346 L1119.893,922.034 C1120.3,922.441 1120.833,922.645 1121.367,922.645 C1121.901,922.645 1122.433,922.441 1122.841,922.034 C1123.655,921.221 1123.655,919.901 1122.841,919.087 L1115.625,911.872 L1122.841,904.656 C1123.654,903.842 1123.654,902.523 1122.84,901.709 L1122.84,901.709 Z M1143.361,922.034 C1143.767,922.441 1144.3,922.645 1144.835,922.645 C1145.368,922.645 1145.901,922.441 1146.309,922.034 L1154.997,913.346 C1155.811,912.532 1155.811,911.213 1154.997,910.398 L1146.309,901.709 C1145.495,900.895 1144.175,900.895 1143.362,901.709 C1142.548,902.523 1142.548,903.842 1143.362,904.656 L1150.577,911.872 L1143.362,919.087 C1142.547,919.901 1142.547,921.221 1143.361,922.034 L1143.361,922.034 Z M1125.793,926.486 C1126.092,926.634 1126.41,926.706 1126.724,926.706 C1127.489,926.706 1128.224,926.284 1128.59,925.554 L1141.096,900.543 C1141.611,899.513 1141.194,898.262 1140.163,897.747 C1139.134,897.234 1137.882,897.649 1137.366,898.679 L1124.861,923.69 C1124.346,924.72 1124.763,925.971 1125.793,926.486 L1125.793,926.486 Z" id="Shape" stroke="none" fill="#56C8C2" fill-rule="evenodd"></path>
</svg>
