
<svg width="22px" height="22px" viewBox="250 263 22 22" version="1.1" xmlns="http://www.w3.org/2000/svg" xmlns:xlink="http://www.w3.org/1999/xlink">
    <!-- Generator: Sketch 39.1 (31720) - http://www.bohemiancoding.com/sketch -->
    <desc>Created with Sketch.</desc>
    <defs></defs>
    <g id="Group" stroke="none" stroke-width="1" fill="none" fill-rule="evenodd" transform="translate(250.800000, 263.401361)">
        <path d="M7.03388444,14.6559672 L7.4728146,11.585063 L10.0335079,13.842001 L7.03388444,14.6559672 L7.03388444,14.6559672 Z M20.518094,4.28260328 C20.5277206,4.10298698 20.4160971,3.87132146 20.3455016,3.75630197 C20.2730724,3.63826177 20.0809975,3.35082922 19.812826,3.3559412 C19.4752051,3.36221499 11.1281975,13.3226705 11.1281975,13.3226705 L9.96657968,12.2988809 C9.96955937,12.2956278 9.97322667,12.2935365 9.97597714,12.2900511 L15.1915676,6.39477938 C15.4003746,6.15869897 15.3806629,5.79226314 15.1480184,5.58058081 C14.9151448,5.36889847 14.5536863,5.38888165 14.3448794,5.6247297 L9.1295181,11.5200014 C9.1226419,11.5279018 9.11805778,11.5367315 9.11164,11.5448642 L7.85375556,10.4360299 C7.85375556,10.4360299 16.7155606,0.921710516 16.7586514,0.612203522 C16.7806552,0.454661674 16.6873683,0.218348902 16.4070489,0.08543749 C16.2117651,-0.00704282794 15.8911054,-0.000769037528 15.8491606,0.00062513812 L2.07156698,0.00062513812 C0.928973333,0.00062513812 0,0.942855513 0,2.10071839 L0,18.4023495 C0,19.5606771 0.928973333,20.5024428 2.07156698,20.5024428 L18.4506527,20.5024428 C19.5932463,20.5024428 20.5222197,19.5606771 20.5222197,18.4023495 L20.5222197,4.28283564 C20.520386,4.28283564 20.51924,4.28260328 20.518094,4.28260328 L20.518094,4.28260328 Z M19.4859778,18.4025819 C19.4859778,18.9813971 19.0211473,19.4526285 18.4501943,19.4526285 L2.07110857,19.4526285 C1.50015556,19.4526285 1.03532508,18.9813971 1.03532508,18.4025819 L1.03532508,2.10071839 C1.03532508,1.52167077 1.50015556,1.05067176 2.07110857,1.05067176 L14.6726444,1.05067176 L6.64858857,10.1165313 C6.57661778,10.1978582 6.53008889,10.2984712 6.51473206,10.4060551 L5.80992254,15.3363249 C5.78356381,15.5217503 5.85232571,15.7078727 5.99305841,15.8319543 C6.1046819,15.9304761 6.25045714,15.9792722 6.39646159,15.9699777 C6.43382222,15.9678865 6.47141206,15.9616127 6.50831429,15.9518534 L11.3234813,14.6450461 C11.428687,14.6164655 11.5228908,14.5579102 11.59532,14.4763509 L19.4859778,5.56129471 L19.4859778,18.4025819 L19.4859778,18.4025819 Z" id="Shape" fill="#CACFDB"></path>
    </g>
</svg>