
<svg width="74px" height="91px" viewBox="147 196 74 91" version="1.1" xmlns="http://www.w3.org/2000/svg" xmlns:xlink="http://www.w3.org/1999/xlink">
    <!-- Generator: Sketch 39.1 (31720) - http://www.bohemiancoding.com/sketch -->
    <desc>Created with Sketch.</desc>
    <defs>
        <polygon id="path-1" points="73.8885542 45.5000297 73.8885542 91 0 91 0 45.5000297 0 5.94771241e-05 73.8885542 5.94771241e-05 73.8885542 45.5000297"></polygon>
    </defs>
    <g id="Page-1" stroke="none" stroke-width="1" fill="none" fill-rule="evenodd" transform="translate(147.000000, 196.000000)">
        <path d="M36.3822486,21.3374708 C36.3532727,21.3432698 36.3251884,21.3517453 36.2965096,21.3584364 C36.2351402,21.3728596 36.1740679,21.3871342 36.11359,21.4055721 C36.0807506,21.4155345 36.0491,21.4283221 36.016855,21.439474 C35.9617265,21.4585067 35.9067466,21.4770933 35.8526582,21.4996946 C35.8201161,21.5132257 35.7889112,21.5294332 35.7569635,21.5441538 C35.705104,21.5680933 35.653096,21.5914381 35.6024253,21.6186489 C35.5694373,21.6363433 35.5382325,21.6567142 35.5059876,21.6757469 C35.4588831,21.7035525 35.4113329,21.7304658 35.3654173,21.7612453 C35.3267827,21.7871178 35.2903771,21.8162616 35.2529313,21.8440672 C35.2163771,21.8712779 35.1787827,21.8968531 35.1431201,21.9261456 C35.0709032,21.9856227 35.0012124,22.0483711 34.935088,22.1145394 L23.5676181,33.4895394 C22.4564293,34.6013155 22.4564293,36.3985655 23.5676181,37.5104904 C24.6788068,38.6224152 26.4748671,38.6224152 27.5860558,37.5104904 L34.1023651,30.9898645 L34.1023651,52.5625149 C34.1023651,54.13509 35.3755217,55.4062649 36.9442325,55.4062649 C38.5129434,55.4062649 39.7861,54.13509 39.7861,52.5625149 L39.7861,30.9898645 L46.3025578,37.5104904 C46.8566663,38.0651145 47.5841843,38.3437649 48.3117024,38.3437649 C49.0392205,38.3437649 49.7667386,38.0651145 50.3209956,37.5104904 C51.4321843,36.3985655 51.4321843,34.6013155 50.3209956,33.4895394 L38.9535257,22.1145394 C38.8874012,22.0483711 38.8177104,21.9856227 38.745345,21.9261456 C38.7098309,21.8968531 38.6722365,21.8712779 38.6355337,21.8440672 C38.5982365,21.8162616 38.5618309,21.7871178 38.5230478,21.7612453 C38.4772807,21.7304658 38.4297305,21.7035525 38.3824775,21.6757469 C38.3503811,21.6567142 38.3191763,21.6363433 38.2861884,21.6186489 C38.2355177,21.5914381 38.1835096,21.5680933 38.1316502,21.5441538 C38.0997024,21.5294332 38.0684976,21.5132257 38.0359554,21.4996946 C37.9818671,21.4770933 37.9267386,21.4585067 37.8717586,21.439474 C37.8393651,21.4283221 37.8078631,21.4155345 37.7748751,21.4055721 C37.7145458,21.3871342 37.6533249,21.3728596 37.592104,21.3584364 C37.5634253,21.3517453 37.535341,21.3432698 37.5063651,21.3374708 C37.4267185,21.3214119 37.3466261,21.3099626 37.2662365,21.3007436 C37.2546462,21.2994054 37.2435016,21.2970263 37.2320598,21.2958368 C37.0406703,21.276358 36.8479434,21.276358 36.6565538,21.2958368 C36.6449635,21.2970263 36.6338189,21.2994054 36.6223771,21.3007436 C36.5419876,21.3099626 36.4617466,21.3214119 36.3822486,21.3374708" id="Fill-1" fill="#FFFFFF"></path>
        <path d="M53.9954819,61.09375 L19.8930723,61.09375 C18.3243614,61.09375 17.0512048,62.3649248 17.0512048,63.9375 C17.0512048,65.5100752 18.3243614,66.78125 19.8930723,66.78125 L53.9954819,66.78125 C55.5670161,66.78125 56.8373494,65.5100752 56.8373494,63.9375 C56.8373494,62.3649248 55.5670161,61.09375 53.9954819,61.09375" id="Fill-3" fill="#FFFFFF"></path>
        <g id="Group-7">
            <mask id="mask-2" fill="white">
                <use xlink:href="#path-1"></use>
            </mask>
            <g id="Clip-6"></g>
        </g>
    </g>
</svg>
