
<svg width="68px" height="61px" viewBox="689 884 68 61" version="1.1" xmlns="http://www.w3.org/2000/svg" xmlns:xlink="http://www.w3.org/1999/xlink">
    <!-- Generator: Sketch 39.1 (31720) - http://www.bohemiancoding.com/sketch -->
    <desc>Created with Sketch.</desc>
    <defs></defs>
    <g id="noun_68342_cc" stroke="none" stroke-width="1" fill="none" fill-rule="evenodd" transform="translate(689.000000, 884.000000)">
        <g id="Group" fill="#56C8C2">
            <path d="M39.8139524,15.952381 L27.0520476,15.952381 C26.1746667,15.952381 25.4568095,15.2377143 25.4568095,14.3571429 L25.4568095,1.5952381 C25.4568095,0.714666667 26.1746667,0 27.0520476,0 L39.8139524,0 C40.6913333,0 41.4091905,0.714666667 41.4091905,1.5952381 L41.4091905,14.3571429 C41.4091905,15.2377143 40.6913333,15.952381 39.8139524,15.952381 L39.8139524,15.952381 Z M28.6472857,12.7619048 L38.2187143,12.7619048 L38.2187143,3.19047619 L28.6472857,3.19047619 L28.6472857,12.7619048 L28.6472857,12.7619048 Z" id="Shape"></path>
            <polygon id="Shape" points="6.31395238 6.38095238 25.4568095 6.38095238 25.4568095 9.57142857 6.31395238 9.57142857 6.31395238 6.38095238"></polygon>
            <polygon id="Shape" points="41.4091905 6.38095238 60.5520476 6.38095238 60.5520476 9.57142857 41.4091905 9.57142857"></polygon>
            <path d="M62.2142857,12.7619048 C59.5725714,12.7619048 57.4285714,10.6147143 57.4285714,7.97619048 C57.4285714,5.33766667 59.5725714,3.19047619 62.2142857,3.19047619 C64.849619,3.19047619 67,5.33766667 67,7.97619048 C67,10.6147143 64.856,12.7619048 62.2142857,12.7619048 L62.2142857,12.7619048 Z M62.2142857,6.38095238 C61.3369048,6.38095238 60.6190476,7.09880952 60.6190476,7.97619048 C60.6190476,8.85357143 61.3369048,9.57142857 62.2142857,9.57142857 C63.0852857,9.57142857 63.8095238,8.85357143 63.8095238,7.97619048 C63.8095238,7.09880952 63.0916667,6.38095238 62.2142857,6.38095238 L62.2142857,6.38095238 Z" id="Shape"></path>
            <path d="M4.78571429,12.7619048 C2.144,12.7619048 0,10.6147143 0,7.97619048 C0,5.33766667 2.144,3.19047619 4.78571429,3.19047619 C7.42104762,3.19047619 9.57142857,5.33766667 9.57142857,7.97619048 C9.57142857,10.6147143 7.42742857,12.7619048 4.78571429,12.7619048 L4.78571429,12.7619048 Z M4.78571429,6.38095238 C3.90833333,6.38095238 3.19047619,7.09880952 3.19047619,7.97619048 C3.19047619,8.85357143 3.90833333,9.57142857 4.78571429,9.57142857 C5.65671429,9.57142857 6.38095238,8.85357143 6.38095238,7.97619048 C6.38095238,7.09880952 5.66309524,6.38095238 4.78571429,6.38095238 L4.78571429,6.38095238 Z" id="Shape"></path>
            <path d="M64.8081429,37.2902857 C63.9307619,37.2902857 63.2129048,36.5724286 63.2129048,35.6950476 C63.2129048,22.7449048 53.9732857,11.7377619 41.2528571,9.50761905 C40.3882381,9.35766667 39.8011905,8.53133333 39.9575238,7.66033333 C40.1074762,6.78933333 40.943381,6.20866667 41.801619,6.365 C56.0598571,8.86314286 66.403381,21.1975238 66.403381,35.6918571 C66.403381,36.575619 65.6919048,37.2902857 64.8081429,37.2902857 L64.8081429,37.2902857 Z" id="Shape"></path>
            <path d="M2.05466667,37.2902857 C1.17409524,37.2902857 0.459428571,36.5724286 0.459428571,35.6950476 C0.459428571,21.2007143 10.8061429,8.8567619 25.064381,6.36819048 C25.9162381,6.20866667 26.7553333,6.78614286 26.9084762,7.65714286 C27.061619,8.52495238 26.4777619,9.35128571 25.6131429,9.50442857 C12.8863333,11.7345714 3.64990476,22.7480952 3.64990476,35.6950476 C3.64990476,36.575619 2.9352381,37.2902857 2.05466667,37.2902857 L2.05466667,37.2902857 Z" id="Shape"></path>
            <path d="M43.8020476,58.4271905 C43.677619,58.4271905 43.5468095,58.4080476 43.409619,58.3761429 C42.5545714,58.1591905 42.0377143,57.291381 42.2610476,56.4395238 L46.0704762,41.3613333 L33.4361905,22.0525714 L20.7987143,41.3613333 L24.6113333,56.4395238 C24.8219048,57.3009524 24.3114286,58.1591905 23.4595714,58.3761429 C22.5821905,58.5930952 21.7335238,58.0698571 21.5229524,57.224381 L17.5348571,41.4698095 C17.4231905,41.0327143 17.4997619,40.5764762 17.7454286,40.206381 L32.1025714,18.2718571 C32.689619,17.3721429 34.1827619,17.3721429 34.7698095,18.2718571 L49.1269524,40.206381 C49.3758095,40.5764762 49.4555714,41.0422857 49.3375238,41.4698095 L45.3494286,57.224381 C45.164381,57.9454286 44.5167143,58.4271905 43.8020476,58.4271905 L43.8020476,58.4271905 Z" id="Shape"></path>
            <path d="M33.433,49.452381 C32.555619,49.452381 31.8377619,48.7345238 31.8377619,47.8571429 L31.8377619,22.3333333 C31.8377619,21.4527619 32.555619,20.7380952 33.433,20.7380952 C34.310381,20.7380952 35.0282381,21.4527619 35.0282381,22.3333333 L35.0282381,47.8571429 C35.0282381,48.7345238 34.310381,49.452381 33.433,49.452381 L33.433,49.452381 Z" id="Shape"></path>
            <path d="M33.433,55.6355238 C30.7944762,55.6355238 28.6472857,53.4851429 28.6472857,50.8498095 C28.6472857,48.2080952 30.7944762,46.0640952 33.433,46.0640952 C36.0747143,46.0640952 38.2187143,48.2080952 38.2187143,50.8498095 C38.2187143,53.4851429 36.0747143,55.6355238 33.433,55.6355238 L33.433,55.6355238 Z M33.433,49.2545714 C32.555619,49.2545714 31.8377619,49.975619 31.8377619,50.8498095 C31.8377619,51.7271905 32.555619,52.4450476 33.433,52.4450476 C34.310381,52.4450476 35.0282381,51.7271905 35.0282381,50.8498095 C35.0282381,49.9724286 34.310381,49.2545714 33.433,49.2545714 L33.433,49.2545714 Z" id="Shape"></path>
            <path d="M47.7901429,60.6190476 L19.0758571,60.6190476 C18.1984762,60.6190476 17.480619,59.9011905 17.480619,59.0238095 C17.480619,58.1464286 18.1984762,57.4285714 19.0758571,57.4285714 L47.7901429,57.4285714 C48.6675238,57.4285714 49.385381,58.1464286 49.385381,59.0238095 C49.385381,59.9011905 48.6675238,60.6190476 47.7901429,60.6190476 L47.7901429,60.6190476 Z" id="Shape"></path>
        </g>
    </g>
</svg>
