
<svg width="133px" height="133px" viewBox="504 1420 133 133" version="1.1" xmlns="http://www.w3.org/2000/svg" xmlns:xlink="http://www.w3.org/1999/xlink">
    <!-- Generator: Sketch 39.1 (31720) - http://www.bohemiancoding.com/sketch -->
    <desc>Created with Sketch.</desc>
    <defs></defs>
    <g id="Group-6" stroke="none" stroke-width="1" fill="none" fill-rule="evenodd" transform="translate(506.000000, 1422.000000)">
        <circle id="Oval-2" stroke="#56C8C2" stroke-width="4" cx="64.5" cy="64.5" r="64.5"></circle>
        <g id="Group" transform="translate(27.000000, 25.000000)" fill="#56C8C2">
            <path d="M0,36.5 L0.3,60 C0.3,61.5 1.6,62.8 4.1,62.8 L10.4,62.8 L10.4,32.7 L3.4,33.8 C1,33.9 0,35.1 0,36.5 L0,36.5 Z" id="Shape"></path>
            <path d="M70.1,29.4 C59.5,28.3 54.5,28 43.7,26.7 L48.6,17.1 C49.9,12.4 49.1,7.3 46.4,3.3 L45.1,1.3 C44.4,0.3 42.9,0.4 42.3,1.5 C40.2,5.5 38,8.4 36.3,10.3 C32.2,15 29.3,16.2 24.9,21.1 C21.2,25.1 18.8,29 18.4,31.6 L12.5,32.5 L12.5,62.9 L22.9,62.9 L48.6,69.5 C55.4,70.9 62.2,67.4 65,61.1 C66.5,57.7 68,53.9 69.4,50.2 C71.5,44.5 72.9,39.1 73.8,34.3 C74.2,31.9 72.5,29.6 70.1,29.4 L70.1,29.4 Z" id="Shape"></path>
        </g>
    </g>
</svg>