
<svg width="29px" height="28px" viewBox="42 187 29 28" version="1.1" xmlns="http://www.w3.org/2000/svg" xmlns:xlink="http://www.w3.org/1999/xlink">
    <!-- Generator: Sketch 39.1 (31720) - http://www.bohemiancoding.com/sketch -->
    <desc>Created with Sketch.</desc>
    <defs></defs>
    <path d="M67.9100836,211.561808 L68.8931681,212.544893 L68.5330363,212.905075 L67.5499519,211.92194 L67.9100836,211.561808 Z M50.8567544,202.723667 C50.7194911,202.743516 50.5927121,202.808611 50.4966226,202.908619 L46.6031685,206.802073 C46.3538347,207.039192 46.3439102,207.433525 46.5810292,207.682859 C46.8181482,207.932193 47.2125322,207.942066 47.461866,207.704947 C47.4677189,207.699349 47.4735209,207.693649 47.4791702,207.687796 L51.3726244,203.794392 C51.6234341,203.5588 51.6358015,203.164518 51.4002603,202.913708 C51.2609611,202.765452 51.0580943,202.694504 50.8567544,202.723667 L50.8567544,202.723667 Z M64.6493031,201.944976 C66.1876501,201.944976 67.7218237,202.473621 68.9710372,203.502358 L59.6170263,212.856369 C58.582538,211.605425 58.0596446,210.089675 58.0596446,208.534635 C58.0596446,206.863656 58.7295732,205.187944 60.0160926,203.901424 C61.3102462,202.607322 62.9679925,201.944976 64.6493031,201.944976 L64.6493031,201.944976 Z M50.1559327,200.650415 L53.5335169,204.028 L47.6836147,209.78054 L44.4812105,206.325087 L50.1559327,200.650415 Z M51.7133143,190.994649 L61.9238851,201.20522 C60.9049707,201.59253 59.9489623,202.197109 59.13037,203.015702 C58.2669392,203.879081 57.6352327,204.89708 57.2517401,205.984448 L46.982793,195.725171 L51.7133143,190.994649 Z M63.2379386,190.410631 C63.2117787,190.412209 63.1858223,190.415466 63.1600696,190.420352 C63.0228062,190.440201 62.8960272,190.505245 62.7999378,190.605304 L58.9064836,194.498758 C58.6571499,194.735877 58.6472254,195.13021 58.8843444,195.379544 C59.1214634,195.628878 59.5158474,195.638751 59.7651811,195.401632 C59.771034,195.396034 59.776836,195.390333 59.7824854,195.384531 L63.6759395,191.491077 C63.9286832,191.257572 63.944257,190.863391 63.7107516,190.610648 C63.5892656,190.479135 63.4169866,190.406254 63.2379386,190.410631 L63.2379386,190.410631 Z M62.3035096,188.502839 L65.7784048,191.977734 L60.0745199,197.594029 L56.6385593,194.167789 L62.3035096,188.502839 Z M62.2353615,187.003833 C62.0958588,187.018949 61.9655171,187.080684 61.8655088,187.179064 L55.7625067,193.282066 L52.1513152,189.670875 C52.0176145,189.53921 51.8316957,189.474879 51.6451662,189.495644 C51.5056634,189.51076 51.3753218,189.572495 51.2753135,189.670875 L45.6687395,195.277449 C45.4241389,195.519454 45.4220522,195.913889 45.6640062,196.158489 C45.665584,196.160067 45.6671617,196.161645 45.6687395,196.163222 L49.2701591,199.764642 L43.1769288,205.867644 C42.937774,206.103847 42.9291728,206.487187 43.1574361,206.733925 L47.2066284,211.094594 C47.4403883,211.347083 47.8345688,211.362249 48.087058,211.12849 C48.0921475,211.123756 48.0971861,211.118972 48.1021229,211.114035 L54.4095186,204.904001 L56.9013293,207.395812 C56.8438181,207.774062 56.8137393,208.152669 56.8137393,208.534635 C56.8137393,210.590684 57.560061,212.648871 59.13037,214.219078 C59.372324,214.463678 59.7668097,214.465765 60.0114103,214.223811 C60.012988,214.222233 60.0145658,214.220656 60.0160926,214.219078 L64.6785167,209.566426 L66.4111292,211.298987 L66.2261774,211.483939 C65.9862083,211.726656 65.9862083,212.117274 66.2261774,212.359941 L68.0853145,214.228799 C68.3272685,214.473399 68.7217543,214.475537 68.9663549,214.233532 C68.9679326,214.231954 68.9695103,214.230376 68.9710372,214.228799 L70.2169425,212.982944 C70.461543,212.740939 70.4636297,212.346454 70.2216757,212.101853 C70.220098,212.100275 70.2185202,212.098698 70.2169425,212.097171 L68.3480845,210.238034 C68.1207882,210.011297 67.7583662,209.994451 67.5110173,210.199099 C67.4974793,210.211517 67.4844502,210.224496 67.4720828,210.238034 L67.287131,210.422985 L65.5545184,208.680652 L70.3337461,203.901424 C70.5783467,203.659419 70.5804334,203.264984 70.3384794,203.020384 C70.3369016,203.018806 70.3353239,203.017228 70.3337461,203.015702 C68.7676615,201.449617 66.692883,200.699071 64.6493031,200.699071 C64.1994946,200.699071 63.7486682,200.746759 63.3060868,200.825595 L60.9602934,198.479802 L67.1021792,192.425506 C67.3467797,192.183501 67.3488664,191.789016 67.1069124,191.544415 C67.1053347,191.542837 67.1037569,191.54126 67.1021792,191.539733 L62.7415105,187.179064 C62.6078098,187.047399 62.421891,186.983068 62.2353615,187.003833 L62.2353615,187.003833 Z" id="Fill-1" stroke="none" fill="#FFFFFF" fill-rule="evenodd"></path>
</svg>