<?xml version="1.0" encoding="UTF-8" standalone="no"?>
<svg
   xmlns:dc="http://purl.org/dc/elements/1.1/"
   xmlns:cc="http://creativecommons.org/ns#"
   xmlns:rdf="http://www.w3.org/1999/02/22-rdf-syntax-ns#"
   xmlns:svg="http://www.w3.org/2000/svg"
   xmlns="http://www.w3.org/2000/svg"
   id="svg2"
   version="1.1"
   viewBox="504 1420 17 15.927297"
   height="15.927297"
   width="17">
  <metadata
     id="metadata16">
    <rdf:RDF>
      <cc:Work
         rdf:about="">
        <dc:format>image/svg+xml</dc:format>
        <dc:type
           rdf:resource="http://purl.org/dc/dcmitype/StillImage" />
        <dc:title></dc:title>
      </cc:Work>
    </rdf:RDF>
  </metadata>
  <!-- Generator: Sketch 39.1 (31720) - http://www.bohemiancoding.com/sketch -->
  <desc
     id="desc4">Created with Sketch.</desc>
  <defs
     id="defs6" />
  <g
     style="fill:none;fill-rule:evenodd;stroke:none;stroke-width:1"
     transform="translate(477,1341.1209)"
     id="Group-6">
    <g
       style="fill:#56c8c2"
       transform="matrix(0.23017012,0,0,0.23017012,27,78.73907)"
       id="Group">
      <path
         id="Shape"
         d="M 0,36.5 0.3,60 c 0,1.5 1.3,2.8 3.8,2.8 l 6.3,0 0,-30.1 -7,1.1 C 1,33.9 0,35.1 0,36.5 l 0,0 z" />
      <path
         id="path12"
         d="M 70.1,29.4 C 59.5,28.3 54.5,28 43.7,26.7 l 4.9,-9.6 C 49.9,12.4 49.1,7.3 46.4,3.3 l -1.3,-2 c -0.7,-1 -2.2,-0.9 -2.8,0.2 -2.1,4 -4.3,6.9 -6,8.8 -4.1,4.7 -7,5.9 -11.4,10.8 -3.7,4 -6.1,7.9 -6.5,10.5 l -5.9,0.9 0,30.4 10.4,0 25.7,6.6 c 6.8,1.4 13.6,-2.1 16.4,-8.4 1.5,-3.4 3,-7.2 4.4,-10.9 2.1,-5.7 3.5,-11.1 4.4,-15.9 0.4,-2.4 -1.3,-4.7 -3.7,-4.9 l 0,0 z" />
    </g>
  </g>
</svg>
