
<svg width="18px" height="13px" viewBox="0 0 18 13" version="1.1" xmlns="http://www.w3.org/2000/svg" xmlns:xlink="http://www.w3.org/1999/xlink">
    <!-- Generator: Sketch 39.1 (31720) - http://www.bohemiancoding.com/sketch -->
    <desc>Created with Sketch.</desc>
    <defs>
        <polygon id="path-1" points="17.9558634 3.25534998e-15 7.71630835e-06 3.25534998e-15 7.71630835e-06 12.9594366 17.9558634 12.9594366 17.9558634 0"></polygon>
    </defs>
    <g id="Page-1" stroke="none" stroke-width="1" fill="none" fill-rule="evenodd">
        <mask id="mask-2" fill="white">
            <use xlink:href="#path-1"></use>
        </mask>
        <g id="Clip-2"></g>
        <path d="M3.34937981,6.40056432 C4.40354385,5.30907974 5.9269571,4.77848502 8.00672366,4.77848502 L10.0223262,4.77848502 C10.3881748,4.77848502 10.6537457,4.51069648 10.6537457,4.14165683 L10.6537457,1.56616784 L16.663077,6.19325154 C16.6799981,6.20607974 16.686812,6.21444097 16.6877773,6.21444097 C16.6885155,6.22039692 16.6885155,6.23425595 16.6885155,6.24456432 C16.6885155,6.25573172 16.6885155,6.27102247 16.6894808,6.27102247 C16.689424,6.271137 16.6838593,6.28018546 16.6619413,6.29679339 L10.6537457,10.8904322 L10.6537457,8.34752907 C10.6537457,7.97848943 10.3881748,7.71064361 10.0223262,7.71064361 L8.28472997,7.71064361 C5.27447129,7.71064361 3.22644606,8.61537489 1.45869842,10.7868903 C1.80126625,8.80018106 2.42365741,7.35907093 3.34937981,6.40056432 M17.4625155,5.17982423 L10.9584965,0.19853348 L10.9443009,0.188282379 C10.8151779,0.101462996 10.5871968,-1.71806169e-05 10.3698341,-1.71806169e-05 C9.89905174,-1.71806169e-05 9.39090662,0.377498238 9.39090662,0.987352863 L9.39090662,3.5048859 L7.97202965,3.5048859 C5.50767634,3.5048859 3.58718423,4.27303128 2.26398549,5.78807533 C1.07155647,7.15336167 0.334521767,9.11275374 0.0108056782,11.7783837 C-0.0296801262,12.0520709 0.0444776025,12.3160225 0.219878233,12.5222471 C0.328843533,12.6503573 0.471196845,12.7485159 0.628711041,12.8083044 L0.611733123,12.9594366 L0.698553312,12.8320137 C0.791789905,12.8599608 0.889114826,12.8747361 0.987064353,12.8747361 C1.28568265,12.8747361 1.57294448,12.7260665 1.79598549,12.4562163 L1.80984038,12.4380621 C3.54931041,9.95265683 5.36469842,8.9843 8.28472997,8.9843 L9.39090662,8.9843 L9.39090662,11.4668419 C9.39090662,12.0766392 9.89905174,12.4540974 10.3698341,12.4540974 C10.5894114,12.4540974 10.781506,12.3894982 10.9591211,12.2552031 L17.4174871,7.28233084 C17.7444397,7.0527978 17.9401685,6.68581982 17.9549886,6.27417225 C17.9702063,5.84998282 17.786118,5.44085507 17.4625155,5.17982423" id="Fill-1" fill="#909FA9" mask="url(#mask-2)"></path>
    </g>
</svg>