
<svg width="70px" height="76px" viewBox="287 876 70 76" version="1.1" xmlns="http://www.w3.org/2000/svg" xmlns:xlink="http://www.w3.org/1999/xlink">
    <!-- Generator: Sketch 39.1 (31720) - http://www.bohemiancoding.com/sketch -->
    <desc>Created with Sketch.</desc>
    <defs></defs>
    <g id="Group" stroke="none" stroke-width="1" fill="none" fill-rule="evenodd" transform="translate(287.000000, 876.000000)">
        <g transform="translate(16.000000, 18.000000)" id="Shape" fill="#56C8C2">
            <path d="M32.158,48.11 C31.769,48.11 31.381,47.96 31.087,47.66 C24.011,40.444 7.547,21.978 4.659,18.398 C2.641,15.896 0.13,12.782 0.538,9.48 C0.75,7.762 1.727,6.236 3.442,4.942 C8.779,0.918 13.517,6.01 16.061,8.747 C16.313,9.018 16.55,9.272 16.769,9.5 C18.376,11.164 23.418,15.792 26.373,18.486 C26.637,17.578 27.102,16.625 27.903,15.821 C29.062,14.658 30.652,14.046 32.644,13.993 C32.6,12.289 33.273,10.524 34.559,9.228 C35.972,7.804 37.88,7.212 39.931,7.494 C39.948,5.819 40.47,3.638 42.613,1.949 C43.973,0.876 45.537,0.421 47.135,0.634 C50.496,1.08 52.925,4.231 53.191,4.589 C53.685,5.254 53.546,6.193 52.881,6.688 C52.217,7.182 51.277,7.045 50.782,6.378 C50.264,5.689 48.521,3.84 46.732,3.607 C45.936,3.503 45.197,3.733 44.47,4.305 C42.159,6.127 43.125,9.067 43.135,9.097 C43.328,9.664 43.164,10.292 42.719,10.693 C42.274,11.094 41.632,11.192 41.088,10.943 C39.315,10.129 37.752,10.27 36.688,11.342 C35.716,12.322 35.368,13.882 35.879,14.97 C36.113,15.468 36.055,16.054 35.729,16.497 C35.402,16.939 34.864,17.167 34.315,17.093 C32.306,16.812 30.865,17.098 30.028,17.939 C28.811,19.161 29.066,21.38 29.069,21.402 C29.158,22.027 28.846,22.642 28.288,22.939 C27.729,23.235 27.046,23.15 26.578,22.727 C26.188,22.374 16.992,14.05 14.612,11.585 C14.38,11.345 14.131,11.077 13.864,10.791 C10.889,7.591 8.187,5.123 5.249,7.338 C4.193,8.135 3.625,8.956 3.515,9.849 C3.263,11.89 5.332,14.454 6.994,16.516 C9.857,20.065 26.199,38.391 33.229,45.561 C33.809,46.153 33.8,47.103 33.208,47.682 C32.917,47.968 32.537,48.11 32.158,48.11 L32.158,48.11 Z"></path>
            <path d="M37.426,57.13 C32.876,57.13 28.811,55.599 25.58,52.65 C20.891,48.369 18.192,41.269 18.177,33.172 C18.176,32.343 18.845,31.671 19.674,31.669 L19.677,31.669 C20.504,31.669 21.176,32.338 21.177,33.166 C21.191,40.425 23.533,46.719 27.603,50.434 C30.677,53.241 34.519,54.462 39.036,54.057 C39.852,53.984 40.589,54.593 40.663,55.418 C40.737,56.243 40.127,56.972 39.302,57.045 C38.669,57.103 38.042,57.13 37.426,57.13 L37.426,57.13 Z"></path>
        </g>
        <g id="Shape" fill="#56C8C2">
            <path d="M29.414,66.672 L7.062,66.672 C3.451,66.672 0.513,63.734 0.513,60.122 L0.513,7.417 C0.513,3.806 3.451,0.868 7.062,0.868 L32.745,0.868 C36.356,0.868 39.294,3.806 39.294,7.417 L39.294,34.326 C39.294,35.155 38.623,35.826 37.794,35.826 C36.965,35.826 36.294,35.155 36.294,34.326 L36.294,7.417 C36.294,5.46 34.702,3.868 32.745,3.868 L7.062,3.868 C5.105,3.868 3.513,5.46 3.513,7.417 L3.513,60.122 C3.513,62.08 5.105,63.672 7.062,63.672 L29.414,63.672 C34.393,63.672 35.571,62.589 35.808,60.961 C35.928,60.141 36.695,59.575 37.509,59.693 C38.329,59.813 38.896,60.574 38.777,61.394 C38.008,66.672 31.986,66.672 29.414,66.672 L29.414,66.672 Z"></path>
            <path d="M19.903,61.694 C17.204,61.694 15.008,59.498 15.008,56.798 C15.008,54.098 17.204,51.902 19.903,51.902 C22.603,51.902 24.8,54.098 24.8,56.798 C24.8,59.498 22.603,61.694 19.903,61.694 L19.903,61.694 Z M19.903,54.903 C18.859,54.903 18.008,55.753 18.008,56.799 C18.008,57.845 18.858,58.695 19.903,58.695 C20.949,58.695 21.8,57.845 21.8,56.799 C21.8,55.753 20.949,54.903 19.903,54.903 L19.903,54.903 Z"></path>
            <g transform="translate(12.000000, 7.000000)">
                <path d="M9.624,3.216 L1.626,3.216 C0.797,3.216 0.126,2.545 0.126,1.716 C0.126,0.887 0.797,0.216 1.626,0.216 L9.624,0.216 C10.453,0.216 11.124,0.887 11.124,1.716 C11.124,2.545 10.452,3.216 9.624,3.216 L9.624,3.216 Z"></path>
                <path d="M14.185,3.216 L13.703,3.216 C12.874,3.216 12.203,2.545 12.203,1.716 C12.203,0.887 12.874,0.216 13.703,0.216 L14.185,0.216 C15.014,0.216 15.685,0.887 15.685,1.716 C15.685,2.545 15.014,3.216 14.185,3.216 L14.185,3.216 Z"></path>
            </g>
        </g>
    </g>
</svg>
