
<svg width="20px" height="14px" viewBox="0 1 20 14" version="1.1" xmlns="http://www.w3.org/2000/svg" xmlns:xlink="http://www.w3.org/1999/xlink">
    <!-- Generator: Sketch 39.1 (31720) - http://www.bohemiancoding.com/sketch -->
    <desc>Created with Sketch.</desc>
    <defs>
        <polygon id="path-1" points="9.99895513 12.9380952 19.9978846 12.9380952 19.9978846 0.0225333333 9.99895513 0.0225333333 2.56410256e-05 0.0225333333 2.56410256e-05 12.9380952"></polygon>
    </defs>
    <g id="Page-1" stroke="none" stroke-width="1" fill="none" fill-rule="evenodd" transform="translate(0.000000, 1.000000)">
        <g id="Group-3" transform="translate(0.000000, 0.039371)">
            <mask id="mask-2" fill="white">
                <use xlink:href="#path-1"></use>
            </mask>
            <g id="Clip-2"></g>
            <path d="M15.7079103,8.63806667 C13.8391282,10.2581143 11.8927179,11.2160286 9.9989359,11.2160286 C8.10515385,11.2160286 6.15880769,10.2581143 4.28996154,8.63806667 C3.61861538,8.05597619 3.00739744,7.43005714 2.46932051,6.80494286 C2.37258974,6.69165714 2.28207692,6.58363333 2.19739744,6.48031429 C2.28162821,6.37699524 3.61861538,4.90459048 4.28996154,4.3225619 C6.15880769,2.70208095 8.10515385,1.7446 9.9989359,1.7446 C11.8927179,1.7446 13.8391282,2.70208095 15.7079103,4.3225619 C16.3793205,4.90459048 17.7157949,6.37699524 17.8005385,6.48031429 C17.7157949,6.58363333 16.3793205,8.05597619 15.7079103,8.63806667 M18.9002821,5.0557 C18.3100897,4.36948571 17.6400256,3.68320952 16.8995128,3.04131905 C14.7342564,1.16380952 12.4143205,0.0225333333 9.9989359,0.0225333333 C7.584,0.0225333333 5.26361538,1.16380952 3.09835897,3.04131905 C2.35784615,3.68364286 1.68739744,4.36948571 1.09758974,5.0557 C0.740923077,5.47027619 2.56410256e-05,6.48031429 2.56410256e-05,6.48031429 C2.56410256e-05,6.48031429 0.740923077,7.49029048 1.09758974,7.90486667 C1.68778205,8.59157619 2.35784615,9.27735714 3.09835897,9.91974286 C5.26361538,11.7971905 7.584,12.9380952 9.9989359,12.9380952 C12.4143205,12.9380952 14.7342564,11.7971905 16.8995128,9.91930952 C17.6400256,9.27698571 18.3100897,8.59114286 18.9002821,7.90443333 C19.2569487,7.48985714 19.9979103,6.47988095 19.9979103,6.47988095 C19.9979103,6.47988095 19.2569487,5.47027619 18.9002821,5.0557" id="Fill-1" fill="#909FA9" mask="url(#mask-2)"></path>
        </g>
        <path d="M9.99894231,7.81123571 C9.26022436,7.81123571 8.66150641,7.2326119 8.66150641,6.51965476 C8.66150641,5.80632619 9.26022436,5.22813571 9.99894231,5.22813571 C10.7372115,5.22813571 11.3363782,5.80632619 11.3363782,6.51965476 C11.3363782,7.2326119 10.7372115,7.81123571 9.99894231,7.81123571 M9.99894231,3.50606905 C8.27548077,3.50606905 6.87830128,4.85528333 6.87830128,6.51965476 C6.87830128,8.18365476 8.27548077,9.53330238 9.99894231,9.53330238 C11.7224038,9.53330238 13.1195833,8.18365476 13.1195833,6.51965476 C13.1195833,4.85528333 11.7224038,3.50606905 9.99894231,3.50606905" id="Fill-4" fill="#909FA9"></path>
    </g>
</svg>