
<svg width="17px" height="15px" viewBox="0 0 17 15" version="1.1" xmlns="http://www.w3.org/2000/svg" xmlns:xlink="http://www.w3.org/1999/xlink">
    <!-- Generator: Sketch 39.1 (31720) - http://www.bohemiancoding.com/sketch -->
    <desc>Created with Sketch.</desc>
    <defs></defs>
    <path d="M1.24021591,12.3686866 L4.13156854,12.3686866 L4.13156854,7.15916883 L1.24021591,7.15916883 L1.24021591,12.3686866 Z M15.7597841,8.4085489 C15.7597841,8.48109848 15.7454575,8.54051276 15.7285038,8.60829698 L14.4600317,12.3205137 C14.1981506,13.053799 13.5121524,13.5464946 12.7530853,13.5464946 L9.38800681,13.5464946 C8.91440318,13.5464946 8.42800027,13.461268 7.94236105,13.2931668 L7.91807603,13.2847357 L7.87812031,13.2847357 L5.01658173,12.3985923 L5.01658173,7.12477269 L5.28206736,6.89719613 L10.9757276,1.93156711 C11.0060609,1.91275004 11.0318733,1.90590747 11.070546,1.90590747 C11.1416599,1.90590747 11.2270393,1.94558827 11.2691028,1.99815998 L11.2803747,2.01074542 C11.3234157,2.05381696 11.3449514,2.10455584 11.3475174,2.16962136 L10.6216245,5.85480382 L10.3607821,7.15919938 L14.510404,7.15919938 C15.1993042,7.15919938 15.7597841,7.71964867 15.7597841,8.4085489 L15.7597841,8.4085489 Z M14.510404,5.91895291 L11.8726847,5.91895291 L12.566503,2.3431294 L12.568733,2.32755033 C12.6072835,1.89344421 12.4681411,1.47907158 12.1768736,1.16080041 C11.8889969,0.846164351 11.4857434,0.665691552 11.070546,0.665691552 C10.7875874,0.665691552 10.4985499,0.754492234 10.2567078,0.915689756 L10.2486433,0.921066061 L4.48900121,5.91895291 L0.676192598,5.91895291 C0.303333597,5.91895291 0,6.22231706 0,6.59514551 L0,12.9514048 C0,13.306241 0.284363792,13.603068 0.647325504,13.6272614 L4.63507788,13.6275974 L7.50779672,14.5172232 C8.08275593,14.7208202 8.70900387,14.8240697 9.36931193,14.8240697 L12.7343598,14.8240697 C14.032982,14.8240697 15.1953331,13.994072 15.6269344,12.7581938 L16.9173699,9.01769042 C16.9729657,8.85090276 17,8.65778342 17,8.42724378 C17,7.04418921 15.8831947,5.91895291 14.510404,5.91895291 L14.510404,5.91895291 Z" id="Page-1" stroke="none" fill="#909FA9" fill-rule="evenodd"></path>
</svg>