
<svg width="25px" height="27px" viewBox="0 0 25 27" version="1.1" xmlns="http://www.w3.org/2000/svg" xmlns:xlink="http://www.w3.org/1999/xlink">
    <!-- Generator: Sketch 39.1 (31720) - http://www.bohemiancoding.com/sketch -->
    <desc>Created with Sketch.</desc>
    <defs></defs>
    <path d="M19.9003522,27 L4.09964784,27 C1.83644189,27 0,25.1111556 0,22.7806088 L0,4.21831127 C0,1.8899244 1.83644189,0 4.09964784,0 L19.9003522,0 C22.1646015,0 24,1.8899244 24,4.21831127 L24,22.7806088 C24,25.1111556 22.1646015,27 19.9003522,27 L19.9003522,27 Z M12.0005217,7.55537778 C8.83474632,7.55537778 6.2679014,10.2153114 6.2679014,13.4962202 C6.2679014,16.776049 8.83474632,19.4359826 12.0005217,19.4359826 C15.1662971,19.4359826 17.7320986,16.776049 17.7320986,13.4962202 C17.7320986,10.2153114 15.1662971,7.55537778 12.0005217,7.55537778 L12.0005217,7.55537778 Z M17.7394026,6.47974081 L21.9131342,6.47974081 L21.9131342,2.16099356 L17.7394026,2.16099356 L17.7394026,6.47974081 Z M22.9565671,15.3904644 C22.9565671,15.2975881 22.9367419,15.2101116 22.9304813,15.1204752 L22.9555237,15.1204752 L22.9555237,11.8795248 L19.8262684,11.8795248 L19.8262684,11.8978841 C19.7720099,11.8946442 19.7198383,11.8816847 19.6655798,11.8806048 C19.7678362,12.4033039 19.8220947,12.9454422 19.8220947,13.50054 C19.8220947,17.9715611 16.3203339,21.5958962 12.0005217,21.5958962 C7.6796661,21.5958962 4.17790531,17.9715611 4.17790531,13.50054 C4.17790531,12.9454422 4.23216382,12.4033039 4.33546368,11.8806048 C4.28016173,11.8816847 4.22903352,11.8946442 4.17477501,11.8978841 L4.17477501,11.8795248 L1.04447633,11.8795248 L1.04447633,15.1204752 L1.06951872,15.1204752 C1.06325812,15.2101116 1.04447633,15.2975881 1.04447633,15.3904644 L1.04447633,22.4101836 C1.04447633,24.3487061 2.52197731,25.9200432 4.345898,25.9200432 L19.654102,25.9200432 C21.4780227,25.9200432 22.9565671,24.3487061 22.9565671,22.4101836 L22.9565671,15.3904644 L22.9565671,15.3904644 Z" id="Imported-Layers" stroke="none" fill="#FFFFFF" fill-rule="evenodd"></path>
</svg>