<?xml version="1.0" encoding="UTF-8" standalone="no"?>
<svg
   xmlns:dc="http://purl.org/dc/elements/1.1/"
   xmlns:cc="http://creativecommons.org/ns#"
   xmlns:rdf="http://www.w3.org/1999/02/22-rdf-syntax-ns#"
   xmlns:svg="http://www.w3.org/2000/svg"
   xmlns="http://www.w3.org/2000/svg"
   version="1.1"
   id="svg4233"
   viewBox="0 0 49.999873 49.995707"
   height="14.1099mm"
   width="14.111075mm">
  <defs
     id="defs4235" />
  <metadata
     id="metadata4238">
    <rdf:RDF>
      <cc:Work
         rdf:about="">
        <dc:format>image/svg+xml</dc:format>
        <dc:type
           rdf:resource="http://purl.org/dc/dcmitype/StillImage" />
        <dc:title></dc:title>
      </cc:Work>
    </rdf:RDF>
  </metadata>
  <g
     transform="translate(-157.45661,-686.65219)"
     id="layer1">
    <path
       id="path50"
       style="fill:#94a1ab;fill-opacity:1;fill-rule:nonzero;stroke:none"
       d="m 181.45467,715.63086 3.06518,3.06495 c -0.38894,0.79456 -0.25556,1.78211 0.40379,2.44169 l 2.89937,2.89914 0.01,0.01 4.21351,4.21351 3.51111,3.51122 c 0.82968,0.82973 2.17984,0.82973 3.00953,0 l 4.01273,-4.01276 c 0.82968,-0.82973 0.82968,-2.17995 0,-3.00968 L 191.94603,714.115 c -0.57485,-0.57485 -1.39727,-0.7418 -2.12559,-0.52003 -0.10575,0.0322 -0.20784,0.0754 -0.3081,0.12401 l -3.06655,-3.06655 c 0.0804,-0.0642 0.16079,-0.12858 0.24346,-0.18888 2.49513,-1.81727 6.0164,-1.60784 8.26626,0.642 l 10.63402,10.63392 c 2.48923,2.48919 2.48932,6.53941 0,9.02883 l -4.01276,4.01253 c -2.48933,2.48942 -6.53952,2.48942 -9.02871,0 l -3.51122,-3.511 -0.005,-0.005 -4.21854,-4.2183 -2.89914,-2.89938 c -2.32521,-2.32498 -2.478,-6.01137 -0.45952,-8.51609" />
    <path
       id="path52"
       style="fill:#94a1ab;fill-opacity:1;fill-rule:nonzero;stroke:none"
       d="m 159.32352,692.52769 0.50131,-0.50154 0.60202,-0.60202 2.90943,-2.9092 c 0.0338,-0.0338 0.0708,-0.0624 0.10528,-0.0952 0.20898,-0.20006 0.42914,-0.38072 0.65707,-0.54675 2.49513,-1.81705 6.0164,-1.60785 8.26624,0.64199 l 10.63415,10.63393 c 2.32498,2.32498 2.47778,6.01137 0.45929,8.51632 L 180.39313,704.6 c 0.38894,-0.79433 0.25579,-1.78211 -0.40379,-2.44146 l -10.63393,-10.63392 c -0.57485,-0.57485 -1.39727,-0.7418 -2.12537,-0.52027 -0.27954,0.085 -0.54219,0.2277 -0.77377,0.43005 -0.0361,0.0315 -0.076,0.0557 -0.11054,0.0902 l -2.90919,2.90919 -0.60203,0.60203 -0.50154,0.50131 c -0.8295,0.82973 -0.8295,2.17995 0,3.00968 l 2.89937,2.89914 0.0101,0.0103 4.21351,4.21328 3.51123,3.51122 c 0.65935,0.65936 1.6469,0.79273 2.44145,0.40402 l 3.06519,3.06495 c -2.50495,2.01849 -6.19135,1.8657 -8.51633,-0.45928 l -3.51122,-3.51122 -0.005,-0.005 -4.21854,-4.21853 -2.89914,-2.89938 c -2.48919,-2.48919 -2.48942,-6.5394 0,-9.02859" />
    <path
       id="path54"
       style="fill:#94a1ab;fill-opacity:1;fill-rule:nonzero;stroke:none"
       d="m 191.87369,721.85235 c -0.61117,0.61116 -1.61105,0.61116 -2.22221,0 l -4.2263,-4.22607 -3.00946,-3.00969 -2.92792,-2.92769 -3.00968,-3.00968 -4.26741,-4.26741 c -0.61116,-0.61094 -0.61116,-1.61082 0,-2.22198 l 0.78748,-0.78748 c 0.61116,-0.61116 1.61104,-0.61116 2.2222,0 l 4.26741,4.26718 3.00946,3.00969 2.92792,2.92792 3.00968,3.00945 4.2263,4.2263 c 0.61117,0.61094 0.61117,1.61082 0,2.22198 l -0.78747,0.78748" />
  </g>
</svg>
