<svg id="Layer_1" data-name="Layer 1" xmlns="http://www.w3.org/2000/svg" xmlns:xlink="http://www.w3.org/1999/xlink" viewBox="0 0 80 80"><defs><style>.cls-1{fill:url(#linear-gradient);}.cls-2{fill:url(#linear-gradient-2);}.cls-3,.cls-4{fill:#fff;}.cls-3{fill-rule:evenodd;}</style><linearGradient id="linear-gradient" x1="3" y1="40.5" x2="78" y2="40.5" gradientUnits="userSpaceOnUse"><stop offset="0" stop-color="#ebd197"/><stop offset="0.34" stop-color="#b48811"/><stop offset="0.67" stop-color="#a2790d"/><stop offset="1" stop-color="#bb9b49"/></linearGradient><linearGradient id="linear-gradient-2" x1="30.53" xlink:href="#linear-gradient"/></defs><title>logo gold</title><circle class="cls-1" cx="40.5" cy="40.5" r="37.5"/><path class="cls-2" d="M78,40.5A37.5,37.5,0,0,1,40.5,78c-11.13,0-11.67-5.49-7.79-12.28C36,59.91,40.19,52,40.19,42.46A87.57,87.57,0,0,0,36,15C33.63,7.92,30.28,3,40.5,3A37.5,37.5,0,0,1,78,40.5Z"/><path class="cls-3" d="M50.29,48.68c.74.12,1.36,0,2.09.13a12.4,12.4,0,0,1-.61,1.84c.68.05,2.24,0,3.32,0-.39.88-.79,1.76-1.11,2.71,1,.34,1.44-.11,2.59,0-.37,1-.93,1.78-1.36,2.71a25.1,25.1,0,0,0-2.7.24,18.89,18.89,0,0,0,1.35-2.7c-.89-.27-2.13.17-3.2.12.23-1,.73-1.81,1-2.83-.2-.49-1.25-.14-1.84-.25A19.55,19.55,0,0,1,50.29,48.68Z"/><path class="cls-4" d="M45.74,62.47c-.63,1-1.38,1.82-2,2.83a46.56,46.56,0,0,1,6-1.23,40,40,0,0,0,3.69-5.3,20.27,20.27,0,0,1-2.58.37c-.74.91-1.3,2-2.1,2.83A23.43,23.43,0,0,1,45.74,62.47Z"/><polygon class="cls-4" points="42.27 67.6 43.77 65.3 39.83 66.16 38.23 68.5 42.27 67.6"/><path class="cls-4" d="M62.47,24.07Q49,18.27,35.4,12.5C37.81,20.41,40,30,40,39.59h0c0,.43,0,1.09,0,1.94,0,1-.09,2-.17,3a49.09,49.09,0,0,1-1.92,9.79c-.37,1.24-.81,2.51-1.33,3.83l4.5-.41s.07,0,.09,0c-.54,1-1,2.13-1.6,3.08a34.74,34.74,0,0,1-4.55.61,32.12,32.12,0,0,1-1.84,3.2c1.61-.15,3-.51,4.67-.61l-.67,1-.23.33L35.87,67s0,0,0,.06a38.55,38.55,0,0,1,3.94-.86c.76-.93,1.29-2.08,2.09-3,1.17-.31,2.57-.38,3.69-.73a31.42,31.42,0,0,1,2.1-2.83,17.15,17.15,0,0,0,3.2-.5c.35-.9,1-1.54,1.35-2.41L55,56.48a66.39,66.39,0,0,0,5-12A66.74,66.74,0,0,0,62.47,24.07ZM42.78,62l-1.24.16a3.71,3.71,0,0,1-.78.09l-.65.08,1-1.76,2.86-.38Z"/><path class="cls-4" d="M37.19,65.05l.67-1C37.65,64.34,37.43,64.69,37.19,65.05Z"/><path class="cls-4" d="M36.73,21.77,23.81,20c4,6.3,8.12,14.09,10.39,22.43h0C36.48,52.17,35.83,56,35.83,56l.42-.18c1.08-2.58,2.08-9.43,2.1-9.47C39.33,38.05,38.39,29.56,36.73,21.77Z"/><path class="cls-4" d="M37.07,28.62q-.42-3-1.06-6.08L25.5,21.07a87.73,87.73,0,0,1,8.62,18.12A45.68,45.68,0,0,0,37.07,28.62Z"/><path class="cls-4" d="M34.46,58.66c1.17-6.94-1.41-15.78-3.05-20.44q-.59-1.63-1.23-3.21l-11.72.39c5.62,6.26,11.93,14.53,14.87,23.86.32-.14.74-.34,1.19-.56Z"/><path class="cls-4" d="M20.3,36.19a86.6,86.6,0,0,1,8,10.66A34.45,34.45,0,0,0,30.6,38.5c-.31-.87-.65-1.75-1-2.62Z"/><path class="cls-4" d="M40.88,40.41c0,.33,0,.71,0,1.14,0,1.09-.11,2.16-.17,3.06a43.44,43.44,0,0,1-1,6.22C51.9,40.05,58.59,23.33,57.05,22.68,50.26,19.76,43.42,16.85,36.74,14c2.79,9.58,4.15,18,4.16,25.58Z"/></svg>