
<svg width="18px" height="19px" viewBox="1131 56 18 19" version="1.1" xmlns="http://www.w3.org/2000/svg" xmlns:xlink="http://www.w3.org/1999/xlink">
    <!-- Generator: Sketch 39.1 (31720) - http://www.bohemiancoding.com/sketch -->
    <desc>Created with Sketch.</desc>
    <defs>
        <polygon id="path-1" points="17.402174 15.8050958 17.402174 0 8.70109003 0 6.09984568e-06 0 6.09984568e-06 15.8050958 17.402174 15.8050958"></polygon>
    </defs>
    <g id="Page-1" stroke="none" stroke-width="1" fill="none" fill-rule="evenodd" transform="translate(1131.000000, 56.000000)">
        <path d="M9.4999894,16.625 L7.91667727,16.625 C7.47967922,16.625 7.125,16.978875 7.125,17.4166808 C7.125,18.289875 7.83512183,19 8.70831213,19 C9.58154484,19 10.2916667,18.289875 10.2916667,17.4166808 C10.2916667,16.978875 9.93779325,16.625 9.4999894,16.625" id="Fill-1" fill="#56C8C2"></path>
        <path d="M7.91666667,10.2916667 C7.48124364,10.2916667 7.125,10.6479198 7.125,11.0833545 C7.125,11.5187468 7.48124364,11.875 7.91666667,11.875 C8.35208969,11.875 8.70833333,11.5187468 8.70833333,11.0833545 C8.70833333,10.6479198 8.35208969,10.2916667 7.91666667,10.2916667" id="Fill-3" fill="#56C8C2"></path>
        <g id="Group-7">
            <mask id="mask-2" fill="white">
                <use xlink:href="#path-1"></use>
            </mask>
            <g id="Clip-6"></g>
            <path d="M2.43711713,14.2245989 L4.57288356,11.5574866 C4.68522318,11.416807 4.74611794,11.2437411 4.74611794,11.0635628 L4.74611794,7.11229947 C4.74611794,4.93356506 6.520372,3.1610361 8.70122682,3.1610361 C10.8820817,3.1610361 12.6563781,4.93356506 12.6563781,7.11229947 L12.6563781,10.2733356 L10.2833043,10.2733356 C9.84822662,10.2733356 9.49226555,10.6289505 9.49226555,11.0635628 C9.49226555,11.4982175 9.84822662,11.8538324 10.2833043,11.8538324 L13.0669198,11.8538324 L14.9653789,14.2245989 L2.43711713,14.2245989 Z M17.2292913,14.5209447 L14.2384132,10.7861832 L14.2384132,7.11229947 C14.2384132,4.33028966 12.1716354,2.02192513 9.49226555,1.63722594 L9.49226555,0.790269608 C9.49226555,0.354048574 9.1378724,0 8.70122682,0 C8.26458124,0 7.91023047,0.354048574 7.91023047,0.790269608 L7.91023047,1.6371836 C5.23030975,2.02179813 3.16408287,4.33020499 3.16408287,7.11229947 L3.16408287,10.7861832 L0.174009874,14.5209447 C-0.01664118,14.7588258 -0.0538052109,15.0836208 0.0782817721,15.3578253 C0.209605981,15.6304635 0.487255616,15.8050958 0.791009063,15.8050958 L16.611487,15.8050958 C16.9160456,15.8050958 17.1920849,15.6304635 17.3242143,15.3578253 C17.4554961,15.0836208 17.4191372,14.7588258 17.2292913,14.5209447 L17.2292913,14.5209447 Z" id="Fill-5" fill="#56C8C2" mask="url(#mask-2)"></path>
        </g>
    </g>
</svg>