<?xml version="1.0" encoding="UTF-8" standalone="no"?>
<svg
   xmlns:dc="http://purl.org/dc/elements/1.1/"
   xmlns:cc="http://creativecommons.org/ns#"
   xmlns:rdf="http://www.w3.org/1999/02/22-rdf-syntax-ns#"
   xmlns:svg="http://www.w3.org/2000/svg"
   xmlns="http://www.w3.org/2000/svg"
   version="1.1"
   id="svg4390"
   viewBox="0 0 62.249498 72.749997"
   height="20.531666mm"
   width="17.568192mm">
  <defs
     id="defs4392" />
  <metadata
     id="metadata4395">
    <rdf:RDF>
      <cc:Work
         rdf:about="">
        <dc:format>image/svg+xml</dc:format>
        <dc:type
           rdf:resource="http://purl.org/dc/dcmitype/StillImage" />
        <dc:title></dc:title>
      </cc:Work>
    </rdf:RDF>
  </metadata>
  <g
     transform="translate(-431.73239,-584.55863)"
     id="layer1">
    <path
       id="path16"
       style="fill:#5da4d4;fill-opacity:1;fill-rule:evenodd;stroke:none"
       d="m 439.88864,584.55863 32.9995,0 21.09375,20.88625 0,43.7075 c 0,4.4825 -3.67237,8.15625 -8.15625,8.15625 l -45.937,0 c -4.48637,0 -8.15625,-3.67125 -8.15625,-8.15625 l 0,-56.4375 c 0,-4.48625 3.66988,-8.15625 8.15625,-8.15625" />
    <path
       id="path18"
       style="fill:#488cba;fill-opacity:1;fill-rule:evenodd;stroke:none"
       d="m 475.88714,603.52863 18.09475,16.7175 0,-14.80125 -4.88962,-4.84125 -13.20513,2.925" />
    <path
       id="path108"
       style="fill:#93cef5;fill-opacity:1;fill-rule:evenodd;stroke:none"
       d="m 449.82464,597.47238 26.065,0 0,3.27375 -26.065,0 0,-3.27375 z m 0,15.52375 17.81988,0 0,3.27375 -17.81988,0 0,-3.27375 z m 0,-7.7625 26.065,0 0,3.275 -26.065,0 0,-3.275" />
    <path
       id="path166"
       style="fill:#93cef5;fill-opacity:1;fill-rule:evenodd;stroke:none"
       d="m 493.95402,605.41738 -12.86225,0 c -4.48638,0 -8.15625,-3.67 -8.15625,-8.15625 l 0,-12.65625 21.0185,20.8125" />
    <text
       id="text4332-9"
       y="647.8869"
       x="442.02591"
       style="font-style:normal;font-variant:normal;font-weight:normal;font-stretch:normal;font-size:40px;line-height:125%;font-family:'Ubuntu Mono';-inkscape-font-specification:'Ubuntu Mono';letter-spacing:0px;word-spacing:0px;fill:#ffffff;fill-opacity:1;stroke:none;stroke-width:1px;stroke-linecap:butt;stroke-linejoin:miter;stroke-opacity:1"
       xml:space="preserve"><tspan
         style="font-style:normal;font-variant:normal;font-weight:bold;font-stretch:normal;font-size:27.5px;font-family:'Ubuntu Mono';-inkscape-font-specification:'Ubuntu Mono Bold';fill:#ffffff"
         y="647.8869"
         x="442.02591"
         id="tspan4334-6">PDF</tspan></text>
  </g>
</svg>
