<?xml version="1.0" encoding="UTF-8" standalone="no"?>
<svg
   xmlns:dc="http://purl.org/dc/elements/1.1/"
   xmlns:cc="http://creativecommons.org/ns#"
   xmlns:rdf="http://www.w3.org/1999/02/22-rdf-syntax-ns#"
   xmlns:svg="http://www.w3.org/2000/svg"
   xmlns="http://www.w3.org/2000/svg"
   version="1.1"
   id="svg4390"
   viewBox="0 0 62.249998 72.749997"
   height="20.531666mm"
   width="17.568333mm">
  <defs
     id="defs4392" />
  <metadata
     id="metadata4395">
    <rdf:RDF>
      <cc:Work
         rdf:about="">
        <dc:format>image/svg+xml</dc:format>
        <dc:type
           rdf:resource="http://purl.org/dc/dcmitype/StillImage" />
        <dc:title></dc:title>
      </cc:Work>
    </rdf:RDF>
  </metadata>
  <g
     transform="translate(-433.46453,-586.29077)"
     id="layer1">
    <path
       id="path22"
       style="fill:#0dabb3;fill-opacity:1;fill-rule:evenodd;stroke:none"
       d="m 441.62078,586.29077 33,0 21.09375,20.88625 0,43.7075 c 0,4.4825 -3.6725,8.15625 -8.15625,8.15625 l -45.9375,0 c -4.48625,0 -8.15625,-3.67125 -8.15625,-8.15625 l 0,-56.4375 c 0,-4.48625 3.67,-8.15625 8.15625,-8.15625" />
    <path
       id="path30"
       style="fill:#058a91;fill-opacity:1;fill-rule:evenodd;stroke:none"
       d="m 477.61953,605.26077 18.095,16.7175 0,-14.80125 -4.89,-4.84125 -13.205,2.925" />
    <path
       id="path110"
       style="fill:#48cdd4;fill-opacity:1;fill-rule:evenodd;stroke:none"
       d="m 451.55703,599.20452 26.065,0 0,3.27375 -26.065,0 0,-3.27375 z m 0,15.52375 17.82,0 0,3.27375 -17.82,0 0,-3.27375 z m 0,-7.7625 26.065,0 0,3.275 -26.065,0 0,-3.275" />
    <path
       id="path138"
       style="fill:#48cdd4;fill-opacity:1;fill-rule:evenodd;stroke:none"
       d="m 495.68578,607.14952 -12.8625,0 c -4.48625,0 -8.15625,-3.67 -8.15625,-8.15625 l 0,-12.65625 21.01875,20.8125" />
    <text
       id="text4332"
       y="651.21014"
       x="443.49704"
       style="font-style:normal;font-variant:normal;font-weight:normal;font-stretch:normal;font-size:20px;line-height:125%;font-family:'sans-serif';-inkscape-font-specification:'sans-serif';letter-spacing:0px;word-spacing:0px;fill:#ffffff;fill-opacity:1;stroke:none;stroke-width:1px;stroke-linecap:butt;stroke-linejoin:miter;stroke-opacity:1"
       xml:space="preserve"><tspan
         style="font-style:normal;font-variant:normal;font-weight:bold;font-stretch:normal;font-size:20px;font-family:'sans-serif';-inkscape-font-specification:'sans-serif Bold';fill:#ffffff"
         y="651.21014"
         x="443.49704"
         id="tspan4334">PPT</tspan></text>
  </g>
</svg>
