<?xml version="1.0" encoding="UTF-8" standalone="no"?>
<svg
   xmlns:dc="http://purl.org/dc/elements/1.1/"
   xmlns:cc="http://creativecommons.org/ns#"
   xmlns:rdf="http://www.w3.org/1999/02/22-rdf-syntax-ns#"
   xmlns:svg="http://www.w3.org/2000/svg"
   xmlns="http://www.w3.org/2000/svg"
   xml:space="preserve"
   style="enable-background:new 0 0 561 561;"
   viewBox="0 0 561 561"
   height="512px"
   width="512px"
   y="0px"
   x="0px"
   id="Capa_1"
   version="1.1"><metadata
     id="metadata42"><rdf:RDF><cc:Work
         rdf:about=""><dc:format>image/svg+xml</dc:format><dc:type
           rdf:resource="http://purl.org/dc/dcmitype/StillImage" /><dc:title></dc:title></cc:Work></rdf:RDF></metadata><defs
     id="defs40" /><g
     id="g3"><g
       id="person-add"><path
         style="fill:#ffffff"
         id="path6"
         d="m 357,280.5 c 56.1,0 102,-45.9 102,-102 0,-56.1 -45.9,-102 -102,-102 -56.1,0 -102,45.9 -102,102 0,56.1 45.9,102 102,102 z m -229.5,-51 0,0.0506 -51,0.11143 0,0.13506 L 0,229.5 l 0,51 76.5,0 0,0.13506 51,0 0,0.16208 76.5,-0.29714 0,-51 z m 229.5,102 c -68.85,0 -204,33.15 -204,102 l 0,51 408,0 0,-51 c 0,-68.85 -135.15,-102 -204,-102 z" /></g></g><g
     id="g8" /><g
     id="g10" /><g
     id="g12" /><g
     id="g14" /><g
     id="g16" /><g
     id="g18" /><g
     id="g20" /><g
     id="g22" /><g
     id="g24" /><g
     id="g26" /><g
     id="g28" /><g
     id="g30" /><g
     id="g32" /><g
     id="g34" /><g
     id="g36" /></svg>