
<svg width="17px" height="17px" viewBox="1093 57 17 17" version="1.1" xmlns="http://www.w3.org/2000/svg" xmlns:xlink="http://www.w3.org/1999/xlink">
    <!-- Generator: Sketch 39.1 (31720) - http://www.bohemiancoding.com/sketch -->
    <desc>Created with Sketch.</desc>
    <defs></defs>
    <path d="M1094.66239,63.8285841 C1094.66239,60.9897345 1096.96416,58.6879646 1099.80301,58.6879646 C1102.64186,58.6879646 1104.94363,60.9897345 1104.94363,63.8285841 C1104.94363,66.6674336 1102.64186,68.9692035 1099.80301,68.9692035 C1096.96416,68.9692035 1094.66239,66.6674336 1094.66239,63.8285841 L1094.66239,63.8285841 Z M1105.14823,67.9973451 C1106.04336,66.8464602 1106.58044,65.3886726 1106.58044,63.8030088 C1106.58044,60.0434513 1103.53699,57 1099.77743,57 C1096.01788,57 1093,60.0690265 1093,63.8285841 C1093,67.5881416 1096.04345,70.6315929 1099.80301,70.6315929 C1101.38867,70.6315929 1102.82088,70.0945133 1103.99735,69.1993805 L1108.56779,73.769823 C1108.72124,73.9232743 1108.95142,74 1109.15602,74 C1109.36062,74 1109.5908,73.9232743 1109.74425,73.769823 C1110.07673,73.4373451 1110.07673,72.9258407 1109.74425,72.5933628 L1105.14823,67.9973451 Z" id="Page-1" stroke="none" fill="#fff" fill-rule="evenodd"></path>
</svg>