
<svg width="23px" height="23px" viewBox="1282 450 23 23" version="1.1" xmlns="http://www.w3.org/2000/svg" xmlns:xlink="http://www.w3.org/1999/xlink">
    <!-- Generator: Sketch 39.1 (31720) - http://www.bohemiancoding.com/sketch -->
    <desc>Created with Sketch.</desc>
    <defs></defs>
    <path d="M1284.65227,459.336991 C1284.65227,455.663186 1287.63103,452.684425 1291.30483,452.684425 C1294.97864,452.684425 1297.9574,455.663186 1297.9574,459.336991 C1297.9574,463.010796 1294.97864,465.989558 1291.30483,465.989558 C1287.63103,465.989558 1284.65227,463.010796 1284.65227,459.336991 L1284.65227,459.336991 Z M1298.22218,464.731858 C1299.38059,463.242478 1300.07563,461.355929 1300.07563,459.303894 C1300.07563,454.438584 1296.13705,450.5 1291.27174,450.5 C1286.40643,450.5 1282.50094,454.471681 1282.50094,459.336991 C1282.50094,464.202301 1286.43952,468.140885 1291.30483,468.140885 C1293.35687,468.140885 1295.21032,467.445841 1296.7328,466.287434 L1302.64749,472.202124 C1302.84607,472.400708 1303.14395,472.5 1303.40873,472.5 C1303.67351,472.5 1303.97138,472.400708 1304.16997,472.202124 C1304.60023,471.771858 1304.60023,471.109912 1304.16997,470.679646 L1298.22218,464.731858 Z" id="Page-1" stroke="none" fill="#FFFFFF" fill-rule="evenodd"></path>
</svg>