<?xml version="1.0" encoding="UTF-8" standalone="no"?>
<svg
   xmlns:dc="http://purl.org/dc/elements/1.1/"
   xmlns:cc="http://creativecommons.org/ns#"
   xmlns:rdf="http://www.w3.org/1999/02/22-rdf-syntax-ns#"
   xmlns:svg="http://www.w3.org/2000/svg"
   xmlns="http://www.w3.org/2000/svg"
   viewBox="0 0 50 55.091736"
   height="55.091736"
   width="50"
   xml:space="preserve"
   version="1.1"
   id="svg2"><metadata
     id="metadata8"><rdf:RDF><cc:Work
         rdf:about=""><dc:format>image/svg+xml</dc:format><dc:type
           rdf:resource="http://purl.org/dc/dcmitype/StillImage" /><dc:title></dc:title></cc:Work></rdf:RDF></metadata><defs
     id="defs6" /><g
     transform="matrix(1.25,0,0,-1.25,-400.70234,345.35451)"
     id="g10"><g
       transform="scale(0.1,0.1)"
       id="g12"><path
         id="path134"
         style="fill:#94a1ab;fill-opacity:1;fill-rule:nonzero;stroke:none"
         d="m 3566.4355,2618.9854 c 0,-204.9983 -130.0272,-249.2481 -160.7704,-256.8441 -30.7631,7.6629 -160.8765,52.2834 -160.8765,256.8441 l 0,24.3984 c 67.049,13.3992 122.8337,36.14 160.8301,65.3252 37.9633,-29.1852 93.7214,-51.926 160.8168,-65.3252 l 0,-24.3984 z m -160.8301,143.8507 c -31.9764,-40.6616 -106.252,-72.7839 -199.9867,-86.4615 0,-19.5784 0,-41.5163 0,-57.3892 0,-265.7302 199.9867,-296.8832 199.9867,-296.8832 0,0 200.0133,30.5158 200.0133,296.8832 0,24.5111 0,43.148 0,57.3892 -93.7678,13.6776 -168.0302,45.7999 -200.0133,86.4615" /><path
         id="path136"
         style="fill:#94a1ab;fill-opacity:1;fill-rule:nonzero;stroke:none"
         d="m 3542.2427,2618.9854 0,4.8923 c -54.2597,12.6639 -100.8619,31.4931 -136.624,55.1754 l 0,-140.0444 128.4691,0 c 5.3968,24.2849 8.1549,50.9315 8.1549,79.9767" /><path
         id="path138"
         style="fill:#94a1ab;fill-opacity:1;fill-rule:nonzero;stroke:none"
         d="m 3331.0911,2433.5376 c 28.0382,-29.0453 58.3637,-41.4241 74.5276,-46.2905 l 0,151.7616 -128.4294,0 c 9.6069,-42.8695 27.5675,-78.1874 53.9018,-105.4711" /></g></g></svg>