<?xml version="1.0" encoding="UTF-8" standalone="no"?>
<svg id="svg2" xmlns:rdf="http://www.w3.org/1999/02/22-rdf-syntax-ns#" xmlns="http://www.w3.org/2000/svg" height="133px" width="133px" version="1.1" xmlns:cc="http://creativecommons.org/ns#" xmlns:dc="http://purl.org/dc/elements/1.1/" viewBox="504 1420 133 133">
 <metadata id="metadata16">
  <rdf:RDF>
   <cc:Work rdf:about="">
    <dc:format>image/svg+xml</dc:format>
    <dc:type rdf:resource="http://purl.org/dc/dcmitype/StillImage"/>
    <dc:title/>
   </cc:Work>
  </rdf:RDF>
 </metadata>
<!-- Generator: Sketch 39.1 (31720) - http://www.bohemiancoding.com/sketch -->
 <desc id="desc4">Created with Sketch.</desc>
 <g id="Group-6" fill-rule="evenodd" transform="translate(506 1422)" fill="none">
  <circle id="Oval-2" stroke-width="4" cy="64.5" stroke="#56C8C2" cx="64.5" r="64.5"/>
 </g>
 <g id="g3417" fill="#56c8c2" transform="matrix(.15681 0 0 .15681 531.34 1449.3)">
  <g id="g3345" fill="#56c8c2">
   <g id="g3347" fill="#56c8c2">
    <path id="path3349" fill="#56c8c2" d="m385.51 301.21c-27.438 0-51.64 13.072-67.452 33.09l-146.66-75.002c1.92-7.161 3.3-14.56 3.3-22.347 0-8.477-1.639-16.458-3.926-24.224l146.01-74.656c15.725 20.924 40.553 34.6 68.746 34.6 47.758 0 86.391-38.633 86.391-86.348 0.01-47.667-38.63-86.322-86.38-86.322-47.65 0-86.326 38.655-86.326 86.326 0 7.809 1.381 15.229 3.322 22.412l-146.65 75c-15.833-20.039-40.079-33.154-67.56-33.154-47.715 0-86.326 38.676-86.326 86.369s38.612 86.348 86.326 86.348c28.236 0 53.043-13.719 68.832-34.664l145.95 74.656c-2.287 7.744-3.947 15.79-3.947 24.289 0 47.693 38.676 86.348 86.326 86.348 47.758 0 86.391-38.655 86.391-86.348 0.022-47.736-38.611-86.37-86.369-86.37z"/>
   </g>
  </g>
 </g>
</svg>
