
<svg width="20px" height="16px" viewBox="56 4 20 16" version="1.1" xmlns="http://www.w3.org/2000/svg" xmlns:xlink="http://www.w3.org/1999/xlink">
    <!-- Generator: Sketch 39.1 (31720) - http://www.bohemiancoding.com/sketch -->
    <desc>Created with Sketch.</desc>
    <defs></defs>
    <path d="M75.6161538,6.07846154 L73.8130769,7.84923077 C73.8130769,7.84923077 73.8130769,7.68923077 73.8130769,8.14538462 C73.8130769,8.46846154 73.76,8.77846154 73.6830769,9.07769231 C73.6415385,11.5138462 72.8507692,14.7446154 69.6061538,17.2946154 C63.2230769,22.31 56.3846154,17.8846154 56.3846154,17.8846154 C61.7938462,17.8846154 61.7938462,16.1138462 61.7938462,16.1138462 C60.5915385,16.1138462 58.1884615,13.7523077 58.1884615,13.7523077 C58.7892308,14.3430769 59.9907692,13.7523077 59.9907692,13.7523077 C56.9861538,11.9823077 56.9861538,10.2107692 56.9861538,10.2107692 C57.5869231,10.8015385 58.7892308,10.2107692 58.7892308,10.2107692 C55.7838462,7.84923077 57.5869231,4.89846154 57.5869231,4.89846154 C58.1884615,7.84923077 66.0007692,9.03 66.0007692,9.03 L66.1,8.98153846 C66.0384615,8.71153846 66.0007692,8.13769231 66.0007692,7.84923077 C66.0007692,5.73076923 67.7492308,4.30769231 69.9069231,4.30769231 C71.0946154,4.30769231 72.1446154,4.84 72.8607692,5.66076923 L73.2123077,5.48846154 L75.0146154,4.30769231 L73.8130769,6.66923077 L75.6161538,6.07846154" id="Imported-Layers" stroke="none" fill="#FFFFFF" fill-rule="evenodd"></path>
</svg>