
<svg width="63px" height="49px" viewBox="227 425 63 49" version="1.1" xmlns="http://www.w3.org/2000/svg" xmlns:xlink="http://www.w3.org/1999/xlink">
    <!-- Generator: Sketch 39.1 (31720) - http://www.bohemiancoding.com/sketch -->
    <desc>Created with Sketch.</desc>
    <defs></defs>
    <g id="Group" stroke="none" stroke-width="1" fill="none" fill-rule="evenodd" transform="translate(228.000000, 425.000000)">
        <path d="M1.85138889,0.249955211 C0.794854332,0.360894982 -0.00568134286,1.25614023 -2.21087349e-13,2.32037775 L-2.21087349e-13,32.6865749 C0.000114117004,33.8299904 0.925325456,34.7568831 2.06666667,34.7569975 L15.8444444,34.7569975 C16.5897587,34.7675572 17.2830126,34.3752627 17.6587457,33.7303311 C18.0344789,33.0853996 18.0344789,32.2877503 17.6587457,31.6428187 C17.2830126,30.9978872 16.5897587,30.6055926 15.8444444,30.6161524 L4.13333333,30.6161524 L4.13333333,4.39080028 L57.8666667,4.39080028 L57.8666667,30.6161524 L46.1555556,30.6161524 C45.4102413,30.6055926 44.7169874,30.9978872 44.3412543,31.6428187 C43.9655211,32.2877503 43.9655211,33.0853996 44.3412543,33.7303311 C44.7169874,34.3752627 45.4102413,34.7675572 46.1555556,34.7569975 L59.9333333,34.7569975 C61.0746745,34.7568831 61.9998859,33.8299904 62,32.6865749 L62,2.32037775 C61.9998859,1.17696231 61.0746745,0.250069536 59.9333333,0.249955211 L2.06666667,0.249955211 C1.99495613,0.24620879 1.92309943,0.24620879 1.85138889,0.249955211 L1.85138889,0.249955211 Z M30.7631944,20.9541806 C30.2976331,21.0101981 29.8649215,21.2231445 29.5361111,21.5580538 L21.2694444,29.8397439 C20.6932133,30.3513741 20.4486319,31.1414809 20.6347869,31.88997 C20.820942,32.6384592 21.40697,33.2212354 22.1554548,33.4021998 C22.9039396,33.5831643 23.6907866,33.3323141 24.1972222,32.7512756 L28.9333333,28.0065573 L28.9333333,46.4893918 C28.9178884,47.5831961 29.908045,48.6029482 31,48.6029482 C32.091955,48.6029482 33.0821081,47.5831961 33.0666667,46.4893918 L33.0666667,28.0065573 L37.8027778,32.7512756 C38.3092134,33.3323141 39.0960604,33.5831643 39.8445452,33.4021998 C40.59303,33.2212354 41.179058,32.6384592 41.3652131,31.88997 C41.5513681,31.1414809 41.3067867,30.3513741 40.7305556,29.8397439 L32.4638889,21.5580538 C32.0192527,21.1064047 31.392497,20.8838598 30.7631944,20.9541806 L30.7631944,20.9541806 Z" id="Shape" fill="#FFFFFF"></path>
    </g>
</svg>