
<svg width="88px" height="69px" viewBox="992 459 88 69" version="1.1" xmlns="http://www.w3.org/2000/svg" xmlns:xlink="http://www.w3.org/1999/xlink">
    <!-- Generator: Sketch 39.1 (31720) - http://www.bohemiancoding.com/sketch -->
    <desc>Created with Sketch.</desc>
    <defs></defs>
    <g id="Group" stroke="none" stroke-width="1" fill="none" fill-rule="evenodd" transform="translate(992.000000, 459.000000)">
        <path d="M44,0.36218 C37.33922,0.36218 31.578681,3.86963 28.1875,9.08093 C26.855957,8.66007 25.466376,8.39343 24,8.39343 C16.741142,8.39343 10.800301,13.99324 10.125,21.08093 C4.309203,22.78661 0,28.01121 0,34.36218 C0,42.08358 6.278595,48.36218 14,48.36218 L26,48.36218 C26.7212701,48.372378 27.3921584,47.9934263 27.7557695,47.3704322 C28.1193806,46.7474382 28.1193806,45.9769218 27.7557695,45.3539278 C27.3921584,44.7309337 26.7212701,44.351982 26,44.36218 L14,44.36218 C8.425405,44.36218 4,39.93678 4,34.36218 C4,29.35895 7.601866,25.27612 12.34375,24.48718 C13.3123632,24.3182115 14.014529,23.4703132 14,22.48718 C13.999841,22.47188 14,22.44953 14,22.39343 C14,16.84689 18.453463,12.39343 24,12.39343 C25.47999,12.39343 26.866495,12.69765 28.125,13.26843 C29.0931111,13.7018683 30.2312255,13.3042138 30.71875,12.36218 C33.224408,7.58398 38.205277,4.36218 44,4.36218 C49.794723,4.36218 54.775592,7.58398 57.28125,12.36218 C57.7687745,13.3042138 58.9068889,13.7018683 59.875,13.26843 C61.133505,12.69765 62.52001,12.39343 64,12.39343 C69.546537,12.39343 74,16.84689 74,22.39343 C74,22.44963 74.000159,22.47188 74,22.48718 C73.985471,23.4703132 74.6876368,24.3182115 75.65625,24.48718 C80.398134,25.27612 84,29.35895 84,34.36218 C84,39.93678 79.574595,44.36218 74,44.36218 L62,44.36218 C61.2787299,44.351982 60.6078416,44.7309337 60.2442305,45.3539278 C59.8806194,45.9769218 59.8806194,46.7474382 60.2442305,47.3704322 C60.6078416,47.9934263 61.2787299,48.372378 62,48.36218 L74,48.36218 C81.721405,48.36218 88,42.08358 88,34.36218 C88,28.01121 83.690797,22.78661 77.875,21.08093 C77.199699,13.99324 71.258858,8.39343 64,8.39343 C62.533624,8.39343 61.144043,8.66007 59.8125,9.08093 C56.421319,3.86963 50.66078,0.36218 44,0.36218 L44,0.36218 Z M43.78125,40.36218 C43.3333668,40.4106032 42.9149446,40.6088032 42.59375,40.92468 L30.59375,52.92468 C30.0691657,53.4235723 29.8550952,54.1669816 30.0340245,54.8684561 C30.2129539,55.5699307 30.7569532,56.1199745 31.4564079,56.3066438 C32.1558626,56.4933131 32.9015918,56.2874699 33.40625,55.76843 L42,47.17468 L42,66.36218 C41.98506,67.41878 42.943272,68.39343 44,68.39343 C45.056728,68.39343 46.01494,67.41878 46,66.36218 L46,47.17468 L54.59375,55.76843 C55.0984082,56.2874699 55.8441374,56.4933131 56.5435921,56.3066438 C57.2430468,56.1199745 57.7870461,55.5699307 57.9659755,54.8684561 C58.1449048,54.1669816 57.9308343,53.4235723 57.40625,52.92468 L45.40625,40.92468 C44.9769353,40.5020269 44.379987,40.2953909 43.78125,40.36218 L43.78125,40.36218 Z" id="Shape" fill="#ADBAC8"></path>
    </g>
</svg>