<?xml version="1.0" encoding="UTF-8" standalone="no"?>
<svg
   xmlns:dc="http://purl.org/dc/elements/1.1/"
   xmlns:cc="http://creativecommons.org/ns#"
   xmlns:rdf="http://www.w3.org/1999/02/22-rdf-syntax-ns#"
   xmlns:svg="http://www.w3.org/2000/svg"
   xmlns="http://www.w3.org/2000/svg"
   viewBox="0 0 12.61807 7.4998827"
   height="7.4998827"
   width="12.61807"
   xml:space="preserve"
   version="1.1"
   id="svg2"><metadata
     id="metadata8"><rdf:RDF><cc:Work
         rdf:about=""><dc:format>image/svg+xml</dc:format><dc:type
           rdf:resource="http://purl.org/dc/dcmitype/StillImage" /><dc:title></dc:title></cc:Work></rdf:RDF></metadata><defs
     id="defs6"><clipPath
       id="clipPath16"
       clipPathUnits="userSpaceOnUse"><path
         id="path18"
         d="M 0,25 25,25 25,0 0,0 0,25 Z" /></clipPath></defs><g
     transform="matrix(1.25,0,0,-1.25,-9.31584,19.37507)"
     id="g10"><g
       id="g12"><g
         clip-path="url(#clipPath16)"
         id="g14"><g
           transform="translate(7.7734,13.8584)"
           id="g20"><path
             id="path22"
             style="fill:#ff614e;fill-opacity:1;fill-rule:nonzero;stroke:none"
             d="m 0,0 4.086,-4.086 c 0.363,-0.363 0.918,-0.363 1.281,0 L 9.453,0 c 0.369,0.368 0.45,0.877 0.082,1.239 L 9.383,1.392 C 9.056,1.684 8.676,1.748 8.383,1.432 7.378,0.427 6.372,-0.579 5.367,-1.584 5.004,-1.941 4.449,-1.941 4.086,-1.584 L 1.07,1.432 C 0.783,1.748 0.397,1.684 0.07,1.392 L -0.082,1.239 C -0.45,0.877 -0.369,0.368 0,0" /></g></g></g></g></svg>