<?xml version="1.0" encoding="UTF-8" standalone="no"?>
<svg
   xmlns:dc="http://purl.org/dc/elements/1.1/"
   xmlns:cc="http://creativecommons.org/ns#"
   xmlns:rdf="http://www.w3.org/1999/02/22-rdf-syntax-ns#"
   xmlns:svg="http://www.w3.org/2000/svg"
   xmlns="http://www.w3.org/2000/svg"
   id="svg2"
   version="1.1"
   xml:space="preserve"
   width="50"
   height="50"
   viewBox="0 0 50 50"><metadata
     id="metadata8"><rdf:RDF><cc:Work
         rdf:about=""><dc:format>image/svg+xml</dc:format><dc:type
           rdf:resource="http://purl.org/dc/dcmitype/StillImage" /><dc:title></dc:title></cc:Work></rdf:RDF></metadata><defs
     id="defs6"><clipPath
       clipPathUnits="userSpaceOnUse"
       id="clipPath16"><path
         d="M 0,40 40,40 40,0 0,0 0,40 Z"
         id="path18" /></clipPath><clipPath
       id="clipPath16-3"
       clipPathUnits="userSpaceOnUse"><path
         id="path18-5"
         d="M 0,40 40,40 40,0 0,0 0,40 Z" /></clipPath></defs><g
     style="fill:#503bff;fill-opacity:1"
     id="g10"
     transform="matrix(1.25,0,0,-1.25,0,50.000125)"><g
       style="fill:#503bff;fill-opacity:1"
       id="g12"><g
         style="fill:#503bff;fill-opacity:1"
         id="g14"
         clip-path="url(#clipPath16)"><g
           style="fill:#503bff;fill-opacity:1"
           id="g24"
           transform="translate(20,38.0952)"><path
             d="m 0,0 c -9.978,0 -18.095,-8.118 -18.095,-18.095 0,-9.978 8.117,-18.096 18.095,-18.096 9.978,0 18.095,8.118 18.095,18.096 C 18.095,-8.118 9.978,0 0,0 m 0,-38.095 c -11.028,0 -20,8.971 -20,20 0,11.028 8.972,20 20,20 11.028,0 20,-8.972 20,-20 0,-11.029 -8.972,-20 -20,-20"
             style="fill:#503bff;fill-opacity:1;fill-rule:nonzero;stroke:none"
             id="path26" /></g></g></g></g><g
     style="fill:#503bff;fill-opacity:1"
     transform="matrix(0.07434294,0,0,0.07434294,14.3243,12.841252)"
     id="g4183"><g
       style="fill:#503bff;fill-opacity:1"
       id="XMLID_801_"><path
         style="fill:#503bff;fill-opacity:1"
         id="XMLID_802_"
         d="m 72.16,99.73 -62.233,0 c -2.762,0 -5,2.239 -5,5 l 0,199.928 c 0,2.762 2.238,5 5,5 l 62.233,0 c 2.762,0 5,-2.238 5,-5 l 0,-199.928 c 0,-2.761 -2.238,-5 -5,-5 z" /><path
         style="fill:#503bff;fill-opacity:1"
         id="XMLID_803_"
         d="M 41.066,0.341 C 18.422,0.341 0,18.743 0,41.362 0,63.991 18.422,82.4 41.066,82.4 63.692,82.4 82.099,63.99 82.099,41.362 82.1,18.743 63.692,0.341 41.066,0.341 Z" /><path
         style="fill:#503bff;fill-opacity:1"
         id="XMLID_804_"
         d="m 230.454,94.761 c -24.995,0 -43.472,10.745 -54.679,22.954 l 0,-12.985 c 0,-2.761 -2.238,-5 -5,-5 l -59.599,0 c -2.762,0 -5,2.239 -5,5 l 0,199.928 c 0,2.762 2.238,5 5,5 l 62.097,0 c 2.762,0 5,-2.238 5,-5 l 0,-98.918 c 0,-33.333 9.054,-46.319 32.29,-46.319 25.306,0 27.317,20.818 27.317,48.034 l 0,97.204 c 0,2.762 2.238,5 5,5 l 62.12,0 c 2.762,0 5,-2.238 5,-5 l 0,-109.664 C 310,145.43 300.549,94.761 230.454,94.761 Z" /></g><g
       style="fill:#503bff;fill-opacity:1"
       id="g4147" /><g
       style="fill:#503bff;fill-opacity:1"
       id="g4149" /><g
       style="fill:#503bff;fill-opacity:1"
       id="g4151" /><g
       style="fill:#503bff;fill-opacity:1"
       id="g4153" /><g
       style="fill:#503bff;fill-opacity:1"
       id="g4155" /><g
       style="fill:#503bff;fill-opacity:1"
       id="g4157" /><g
       style="fill:#503bff;fill-opacity:1"
       id="g4159" /><g
       style="fill:#503bff;fill-opacity:1"
       id="g4161" /><g
       style="fill:#503bff;fill-opacity:1"
       id="g4163" /><g
       style="fill:#503bff;fill-opacity:1"
       id="g4165" /><g
       style="fill:#503bff;fill-opacity:1"
       id="g4167" /><g
       style="fill:#503bff;fill-opacity:1"
       id="g4169" /><g
       style="fill:#503bff;fill-opacity:1"
       id="g4171" /><g
       style="fill:#503bff;fill-opacity:1"
       id="g4173" /><g
       style="fill:#503bff;fill-opacity:1"
       id="g4175" /></g></svg>