<?xml version="1.0" encoding="UTF-8" standalone="no"?>
<svg
   xmlns:dc="http://purl.org/dc/elements/1.1/"
   xmlns:cc="http://creativecommons.org/ns#"
   xmlns:rdf="http://www.w3.org/1999/02/22-rdf-syntax-ns#"
   xmlns:svg="http://www.w3.org/2000/svg"
   xmlns="http://www.w3.org/2000/svg"
   width="8.4666662mm"
   height="8.7931013mm"
   viewBox="0 0 29.999998 31.156658"
   id="svg5779"
   version="1.1">
  <defs
     id="defs5781" />
  <metadata
     id="metadata5784">
    <rdf:RDF>
      <cc:Work
         rdf:about="">
        <dc:format>image/svg+xml</dc:format>
        <dc:type
           rdf:resource="http://purl.org/dc/dcmitype/StillImage" />
        <dc:title></dc:title>
      </cc:Work>
    </rdf:RDF>
  </metadata>
  <g
     style="fill:#ffffff;fill-opacity:1"
     id="layer1"
     transform="matrix(0.62313312,0,0,0.62313312,-154.13613,-300.13077)">
    <g
       id="g4417"
       transform="matrix(0.94400189,0,0,0.94400189,246.42871,481.64792)"
       style="fill:#ffffff;fill-opacity:1">
      <path
         id="path4379"
         d="M 51.704,51.273 36.845,35.82 c 3.79,-3.801 6.138,-9.041 6.138,-14.82 0,-11.58 -9.42,-21 -21,-21 -11.58,0 -21,9.42 -21,21 0,11.58 9.42,21 21,21 5.083,0 9.748,-1.817 13.384,-4.832 l 14.895,15.491 c 0.196,0.205 0.458,0.307 0.721,0.307 0.25,0 0.499,-0.093 0.693,-0.279 0.398,-0.383 0.41,-1.016 0.028,-1.414 z M 21.983,40 c -10.477,0 -19,-8.523 -19,-19 0,-10.477 8.523,-19 19,-19 10.477,0 19,8.523 19,19 0,10.477 -8.524,19 -19,19 z"
         style="fill:#ffffff;fill-opacity:1" />
      <g
         id="g4381"
         style="fill:#ffffff;fill-opacity:1" />
      <g
         id="g4383"
         style="fill:#ffffff;fill-opacity:1" />
      <g
         id="g4385"
         style="fill:#ffffff;fill-opacity:1" />
      <g
         id="g4387"
         style="fill:#ffffff;fill-opacity:1" />
      <g
         id="g4389"
         style="fill:#ffffff;fill-opacity:1" />
      <g
         id="g4391"
         style="fill:#ffffff;fill-opacity:1" />
      <g
         id="g4393"
         style="fill:#ffffff;fill-opacity:1" />
      <g
         id="g4395"
         style="fill:#ffffff;fill-opacity:1" />
      <g
         id="g4397"
         style="fill:#ffffff;fill-opacity:1" />
      <g
         id="g4399"
         style="fill:#ffffff;fill-opacity:1" />
      <g
         id="g4401"
         style="fill:#ffffff;fill-opacity:1" />
      <g
         id="g4403"
         style="fill:#ffffff;fill-opacity:1" />
      <g
         id="g4405"
         style="fill:#ffffff;fill-opacity:1" />
      <g
         id="g4407"
         style="fill:#ffffff;fill-opacity:1" />
      <g
         id="g4409"
         style="fill:#ffffff;fill-opacity:1" />
    </g>
  </g>
</svg>
