<?xml version="1.0" encoding="iso-8859-1"?>
<!-- Generator: Adobe Illustrator 19.0.0, SVG Export Plug-In . SVG Version: 6.00 Build 0)  -->
<svg version="1.1" id="Layer_1" xmlns="http://www.w3.org/2000/svg" xmlns:xlink="http://www.w3.org/1999/xlink" x="0px" y="0px"
	 viewBox="0 0 512.001 512.001" style="enable-background:new 0 0 512.001 512.001;" xml:space="preserve">
<g>
	<g>
		<path d="M382.559,347.76h-275.83c-4.161,0-7.534,3.372-7.534,7.534v31.658c0,4.162,3.373,7.534,7.534,7.534h275.83
			c4.161,0,7.534-3.372,7.534-7.534v-31.658C390.092,351.132,386.719,347.76,382.559,347.76z M375.025,379.418H114.263v-16.591
			h260.763V379.418z"/>
	</g>
</g>
<g>
	<g>
		<path d="M506.376,106.543c-4.726-6.703-11.755-11.16-19.794-12.551l-369.09-63.854c-4.098-0.699-7.998,2.039-8.707,6.139
			c-0.709,4.099,2.039,7.999,6.139,8.708l369.09,63.854c4.072,0.704,7.641,2.972,10.048,6.385c2.394,3.395,3.334,7.492,2.651,11.544
			l-9.079,46.876c-4.129-12.043-15.557-20.727-28.982-20.727H84.077c-4.161,0-7.534,3.372-7.534,7.534
			c0,4.162,3.373,7.534,7.534,7.534H458.65c8.585,0,15.569,6.984,15.569,15.569v52.527H15.067v-52.527
			c0-4.804,2.19-9.106,5.621-11.964c0.199-0.138,0.392-0.284,0.577-0.44c2.611-1.978,5.851-3.165,9.371-3.165
			c4.161,0,7.534-3.372,7.534-7.534c0-4.162-3.373-7.534-7.534-7.534c-1.522,0-3.016,0.116-4.479,0.331L44.267,48.561
			c0.705-4.073,2.972-7.641,6.386-10.048c3.413-2.407,7.536-3.344,11.609-2.639c4.097,0.699,7.999-2.039,8.708-6.138
			c0.71-4.1-2.039-7.999-6.138-8.708c-8.038-1.395-16.156,0.445-22.86,5.17c-6.703,4.726-11.16,11.755-12.551,19.794L9.447,161.46
			C3.631,167.039,0,174.879,0,183.555v60.061v68.149v149.026c0,16.892,13.743,30.637,30.637,30.637H458.65
			c16.893,0,30.637-13.744,30.637-30.637V311.764v-67.426l22.234-114.787c0.009-0.049,0.019-0.098,0.027-0.148
			C512.938,121.364,511.101,113.246,506.376,106.543z M474.22,460.791c0,8.585-6.984,15.569-15.569,15.569H30.637
			c-8.585,0-15.569-6.984-15.569-15.569V319.298H474.22V460.791z M474.22,251.149v53.082H15.067v-53.082L474.22,251.149
			L474.22,251.149z"/>
	</g>
</g>
<g>
</g>
<g>
</g>
<g>
</g>
<g>
</g>
<g>
</g>
<g>
</g>
<g>
</g>
<g>
</g>
<g>
</g>
<g>
</g>
<g>
</g>
<g>
</g>
<g>
</g>
<g>
</g>
<g>
</g>
</svg>
