<?xml version="1.0" encoding="UTF-8" standalone="no"?>
<svg
   xmlns:dc="http://purl.org/dc/elements/1.1/"
   xmlns:cc="http://creativecommons.org/ns#"
   xmlns:rdf="http://www.w3.org/1999/02/22-rdf-syntax-ns#"
   xmlns:svg="http://www.w3.org/2000/svg"
   xmlns="http://www.w3.org/2000/svg"
   viewBox="0 0 502.99799 79.430977"
   height="79.430977"
   width="502.99799"
   xml:space="preserve"
   version="1.1"
   id="svg2"><metadata
     id="metadata8"><rdf:RDF><cc:Work
         rdf:about=""><dc:format>image/svg+xml</dc:format><dc:type
           rdf:resource="http://purl.org/dc/dcmitype/StillImage" /><dc:title></dc:title></cc:Work></rdf:RDF></metadata><defs
     id="defs6" /><g
     transform="matrix(1.25,0,0,-1.25,-474.90217,346.07862)"
     id="g10"><g
       id="g4180"><g
         id="g12"
         transform="matrix(0.03417488,0,0,0.03417488,365.84063,172.43471)"><path
           d="m 3729.9,2510.71 c -0.1,-106.84 -86.59,-193.29 -193.43,-193.19 -106.88,0.15 -193.48,86.81 -193.38,193.65 0.15,106.82 87,193.3 193.88,193.18 106.86,-0.12 193.08,-86.8 192.93,-193.64"
           style="fill:#ffffff;fill-opacity:1;fill-rule:nonzero;stroke:none"
           id="path14" /><path
           d="m 3838.43,1745.18 c -0.15,-62.8 -51.06,-113.6 -114.02,-113.53 l -2056.47,2.53 c -62.88,0.11 -113.41,51.03 -113.41,113.88 l 1.55,1194.06 c 0,62.76 50.7,113.65 113.55,113.58 l 2056.63,-2.52 c 62.93,-0.11 113.53,-51.14 113.7,-113.94 l -1.53,-1194.06"
           style="fill:#959496;fill-opacity:1;fill-rule:nonzero;stroke:none"
           id="path16" /><path
           d="m 3839.16,2474.91 -2283.88,2.88 0.61,282.63 2283.78,-2.84 -0.51,-282.67"
           style="fill:#423f3f;fill-opacity:1;fill-rule:nonzero;stroke:none"
           id="path18" /><path
           d="m 1763.9,2323.21 -86.32,0.11 c -5.84,-0.04 -10.69,4.85 -10.69,10.83 0,5.92 4.85,10.74 10.69,10.78 l 86.32,-0.1 c 5.98,-0.05 10.73,-4.84 10.73,-10.74 0,-5.98 -4.75,-10.93 -10.73,-10.88 z m 172.58,-0.23 -86.13,0.11 c -5.97,0 -10.92,4.92 -10.92,10.89 0,5.89 4.95,10.72 10.92,10.72 l 86.13,-0.12 c 6.16,0 11,-4.82 11,-10.72 0,-6 -4.84,-10.88 -11,-10.88 z m 172.9,-0.18 -86.29,0.06 c -5.96,0 -10.91,4.89 -10.91,10.88 0,5.9 4.95,10.74 10.91,10.74 l 86.29,-0.1 c 5.95,-0.03 10.73,-4.85 10.73,-10.75 0,-5.98 -4.78,-10.88 -10.73,-10.83 z m 172.55,-0.25 -86.41,0.09 c -5.99,0.03 -10.6,4.93 -10.6,10.91 0,5.92 4.73,10.73 10.72,10.68 l 86.46,-0.06 c 5.99,0 10.75,-4.86 10.75,-10.77 0,-5.98 -4.91,-10.85 -10.92,-10.85 z m 172.76,-0.17 -86.43,0.06 c -5.97,0.04 -10.62,4.85 -10.62,10.85 0,5.89 4.78,10.8 10.75,10.76 l 86.43,-0.07 c 5.82,-0.04 10.75,-4.91 10.59,-10.81 0.16,-5.98 -4.88,-10.83 -10.72,-10.79 z m 172.6,-0.29 -86.31,0.14 c -5.97,0.06 -10.73,4.88 -10.73,10.86 0,5.92 4.89,10.8 10.84,10.74 l 86.31,-0.12 c 6,0.03 10.76,-4.84 10.76,-10.73 0,-5.98 -4.92,-10.85 -10.87,-10.89 z m 172.85,-0.2 -86.25,0.13 c -6.16,0.02 -10.88,4.87 -10.88,10.86 0,5.88 4.72,10.79 10.88,10.75 l 86.25,-0.11 c 6,0 10.73,-4.87 10.73,-10.79 0,-5.97 -4.73,-10.84 -10.73,-10.84 z m 172.75,-0.22 -86.43,0.16 c -5.95,0 -10.75,4.82 -10.75,10.8 0,5.92 4.8,10.81 10.75,10.81 l 86.43,-0.17 c 5.84,0.05 10.72,-4.81 10.61,-10.7 0.11,-5.98 -4.77,-10.85 -10.61,-10.9 z m 163.08,-0.19 -76.79,0.1 c -5.82,0 -10.69,4.87 -10.69,10.85 0,5.91 4.87,10.79 10.69,10.79 l 76.79,-0.14 c 5.98,0 10.85,-4.84 10.73,-10.76 0.12,-5.97 -4.75,-10.84 -10.73,-10.84"
           style="fill:#423f3f;fill-opacity:1;fill-rule:nonzero;stroke:none"
           id="path20" /><path
           d="m 2695.82,1309.92 c 0,-62.82 -51.09,-113.72 -113.94,-113.62 l -2056.235,2.55 c -62.872,0.1 -113.614,51.12 -113.614,113.92 l 1.387,1194.02 c 0.117,62.85 51.035,113.65 113.867,113.62 l 2056.605,-2.57 c 62.88,-0.09 113.57,-51.05 113.45,-113.94 l -1.52,-1193.98"
           style="fill:#61ccf5;fill-opacity:1;fill-rule:nonzero;stroke:none"
           id="path22" /><path
           d="m 2557.35,1494.95 -1920.905,2.38 0.125,62.34 1920.78,-2.36 0,-62.36"
           style="fill:#50a8cb;fill-opacity:1;fill-rule:nonzero;stroke:none"
           id="path24" /><path
           d="m 2499.41,1288.82 c -0.05,0 -0.09,0 -0.14,0 -45.83,0.04 -82.94,37.18 -82.94,82.96 0,45.75 37.4,82.83 83.2,82.83 0.02,0 0.04,0 0.06,0 45.69,-0.07 82.91,-37.23 82.91,-82.99 -0.17,-45.77 -37.45,-82.8 -83.09,-82.8"
           style="fill:#50a8cb;fill-opacity:1;fill-rule:nonzero;stroke:none"
           id="path26" /><path
           d="m 2278.17,1289.07 c -0.02,0 -0.03,0 -0.05,0 -45.82,0.05 -82.91,37.19 -82.91,82.96 0.16,45.8 37.4,82.86 83.21,82.86 0.01,0 0.01,0 0.02,0 45.62,-0.1 82.75,-37.2 82.75,-83.01 -0.12,-45.75 -37.42,-82.81 -83.02,-82.81"
           style="fill:#50a8cb;fill-opacity:1;fill-rule:nonzero;stroke:none"
           id="path28" /><path
           d="m 1043.05,2213.85 c 0.16,-62.83 -50.902,-113.73 -113.421,-113.66 l -227.774,0.31 c -62.832,0.09 -113.554,51.08 -113.718,113.92 l 0.34,132.65 c 0.117,62.81 51.003,113.63 113.867,113.59 l 227.605,-0.35 c 62.492,-0.07 113.581,-51 113.381,-113.81 l -0.28,-132.65"
           style="fill:#d0e05a;fill-opacity:1;fill-rule:nonzero;stroke:none"
           id="path30" /><path
           d="m 773.605,2342.05 -185.128,0.28 -0.176,9.51 185.117,-0.26 0.187,-9.53"
           style="fill:#788033;fill-opacity:1;fill-rule:nonzero;stroke:none"
           id="path32" /><path
           d="m 773.418,2266.27 -9.629,0.05 0,80.54 9.629,-0.05 0,-80.54"
           style="fill:#788033;fill-opacity:1;fill-rule:nonzero;stroke:none"
           id="path34" /><path
           d="m 858.516,2350.76 184.814,-0.2 0,-9.51 -184.697,0.2 -0.117,9.51"
           style="fill:#788033;fill-opacity:1;fill-rule:nonzero;stroke:none"
           id="path36" /><path
           d="m 858.633,2423.57 9.531,0.03 0,-80.54 -9.531,-0.04 0,80.55"
           style="fill:#788033;fill-opacity:1;fill-rule:nonzero;stroke:none"
           id="path38" /><path
           d="m 906.172,2291.76 9.355,0.03 -0.168,-80.56 -9.324,-0.04 0.137,80.57"
           style="fill:#788033;fill-opacity:1;fill-rule:nonzero;stroke:none"
           id="path40" /><path
           d="m 906.035,2220.62 137.175,-0.1 0,-9.44 -137.175,0.11 0,9.43"
           style="fill:#788033;fill-opacity:1;fill-rule:nonzero;stroke:none"
           id="path42" /><path
           d="m 919.988,2111.32 -9.519,0 0.176,80.54 9.472,0.01 -0.129,-80.55"
           style="fill:#788033;fill-opacity:1;fill-rule:nonzero;stroke:none"
           id="path44" /><path
           d="m 920.117,2187.15 -331.816,0.41 0,9.48 331.816,-0.44 0,-9.45"
           style="fill:#788033;fill-opacity:1;fill-rule:nonzero;stroke:none"
           id="path46" /><path
           d="m 750.469,1737.17 -113.699,0.15 c -8,0 -14.153,6.37 -14.297,14.23 0.144,7.85 6.297,14.21 14.297,14.21 l 113.699,-0.15 c 7.793,0 14.414,-6.37 14.219,-14.24 0.195,-7.83 -6.426,-14.2 -14.219,-14.2 z m 227.414,-0.3 -113.672,0.15 c -7.856,0 -14.152,6.4 -14.301,14.25 0.149,7.85 6.613,14.18 14.426,14.18 l 113.738,-0.11 c 7.805,0 14.074,-6.44 14.074,-14.27 0,-7.85 -6.386,-14.17 -14.265,-14.2 z m 227.487,-0.28 -113.75,0.16 c -7.79,0.04 -14.1,6.36 -14.22,14.21 0.12,7.86 6.43,14.18 14.22,14.23 l 113.75,-0.15 c 7.68,0.01 14.38,-6.37 14.38,-14.23 -0.13,-7.85 -6.7,-14.24 -14.38,-14.22 z m 227.46,-0.27 -113.77,0.15 c -7.99,0.05 -14.2,6.38 -14.07,14.24 0,7.84 6.08,14.24 14.07,14.2 l 113.77,-0.17 c 7.81,0 14.28,-6.34 14.08,-14.2 0,-7.85 -6.27,-14.22 -14.08,-14.22 z m 227.29,-0.26 -113.56,0.11 c -8,0.04 -14.39,6.42 -14.27,14.27 -0.12,7.85 6.27,14.2 14.27,14.15 l 113.56,-0.1 c 7.82,-0.03 14.41,-6.4 14.41,-14.25 -0.15,-7.85 -6.59,-14.23 -14.41,-14.18 z m 227.63,-0.31 -113.89,0.11 c -7.82,0 -14.08,6.43 -13.94,14.28 0,7.85 6.12,14.16 13.94,14.24 l 114.01,-0.19 c 7.82,0 14.12,-6.4 14.12,-14.21 -0.13,-7.9 -6.44,-14.23 -14.24,-14.23 z m 227.29,-0.26 -113.59,0.1 c -7.93,0.1 -14.22,6.4 -14.11,14.22 0,7.9 6.3,14.31 14.3,14.23 l 113.53,-0.13 c 7.82,0 14.26,-6.38 14.26,-14.23 0,-7.86 -6.58,-14.19 -14.39,-14.19 z m 227.6,-0.26 -113.87,0.1 c -7.81,0.03 -14.28,6.35 -14.1,14.22 0,7.86 6.41,14.24 14.27,14.22 l 113.89,-0.12 c 7.8,-0.02 13.91,-6.41 14.07,-14.25 -0.16,-7.87 -6.47,-14.22 -14.26,-14.17 z m 214.88,-0.28 -101.29,0.11 c -7.85,-0.03 -14.28,6.4 -14.15,14.26 -0.13,7.87 6.47,14.15 14.3,14.16 l 101.29,-0.1 c 7.82,0 14.13,-6.39 14.13,-14.25 -0.15,-7.86 -6.45,-14.18 -14.28,-14.18"
           style="fill:#3a7692;fill-opacity:1;fill-rule:nonzero;stroke:none"
           id="path48" /></g><text
         xml:space="preserve"
         style="font-style:normal;font-variant:normal;font-weight:500;font-stretch:normal;font-size:32px;line-height:125%;font-family:sans-serif;-inkscape-font-specification:'sans-serif Medium';letter-spacing:0px;word-spacing:0px;fill:#666666;fill-opacity:1;stroke:none;stroke-width:1px;stroke-linecap:butt;stroke-linejoin:miter;stroke-opacity:1"
         x="508.07794"
         y="-229.71611"
         id="text4176"
         transform="scale(1,-1)"><tspan
           id="tspan4178"
           x="508.07794"
           y="-229.71611"
           style="font-style:italic;font-variant:normal;font-weight:normal;font-stretch:normal;font-size:48px;font-family:sans-serif;-inkscape-font-specification:'sans-serif Italic';fill:#4d4d4d">Credit Card</tspan></text>
</g></g></svg>