<?xml version="1.0" encoding="UTF-8" standalone="no"?>
<svg
   xmlns:dc="http://purl.org/dc/elements/1.1/"
   xmlns:cc="http://creativecommons.org/ns#"
   xmlns:rdf="http://www.w3.org/1999/02/22-rdf-syntax-ns#"
   xmlns:svg="http://www.w3.org/2000/svg"
   xmlns="http://www.w3.org/2000/svg"
   viewBox="0 0 2437.75 862.09375"
   height="862.09375"
   width="2437.75"
   xml:space="preserve"
   version="1.1"
   id="svg2"><metadata
     id="metadata8"><rdf:RDF><cc:Work
         rdf:about=""><dc:format>image/svg+xml</dc:format><dc:type
           rdf:resource="http://purl.org/dc/dcmitype/StillImage" /><dc:title></dc:title></cc:Work></rdf:RDF></metadata><defs
     id="defs6"><clipPath
       id="clipPath52"
       clipPathUnits="userSpaceOnUse"><path
         id="path54"
         d="m 0,689.675 1950.195,0 L 1950.195,0 0,0 0,689.675 Z" /></clipPath><clipPath
       id="clipPath64"
       clipPathUnits="userSpaceOnUse"><path
         id="path66"
         d="m 0,689.675 1950.195,0 L 1950.195,0 0,0 0,689.675 Z" /></clipPath></defs><g
     transform="matrix(1.25,0,0,-1.25,0,862.09375)"
     id="g10"><g
       transform="translate(553.4341,234.0088)"
       id="g12"><path
         id="path14"
         style="fill:#ffffff;fill-opacity:1;fill-rule:evenodd;stroke:none"
         d="M 0,0 -103.044,103.052 -206.09,0 -103.044,-103.049 0,0 Z" /></g><g
       transform="translate(665.4194,122.0235)"
       id="g16"><path
         id="path18"
         style="fill:#ffffff;fill-opacity:1;fill-rule:evenodd;stroke:none"
         d="M 0,0 -103.049,103.052 -206.093,0 -103.049,-103.052 0,0 Z" /></g><g
       transform="translate(777.3994,234.0088)"
       id="g20"><path
         id="path22"
         style="fill:#ffffff;fill-opacity:1;fill-rule:evenodd;stroke:none"
         d="M 0,0 -103.039,103.052 -206.083,0 -103.039,-103.049 0,0 Z" /></g><g
       transform="translate(841.5952,298.2041)"
       id="g24"><path
         id="path26"
         style="fill:#ffffff;fill-opacity:1;fill-rule:evenodd;stroke:none"
         d="m 0,0 -46.075,46.061 -1.737,1.736 1.737,1.737 46.051,46.065 -55.231,55.238 L -158.298,47.792 -55.255,-55.26 0,0 Z" /></g><g
       transform="translate(777.3994,457.9766)"
       id="g28"><path
         id="path30"
         style="fill:#ffffff;fill-opacity:1;fill-rule:evenodd;stroke:none"
         d="M 0,0 -103.039,103.054 -206.083,0 -103.039,-103.052 0,0 Z" /></g><g
       transform="translate(665.4194,569.9546)"
       id="g32"><path
         id="path34"
         style="fill:#ffffff;fill-opacity:1;fill-rule:evenodd;stroke:none"
         d="M 0,0 -103.049,103.057 -206.093,0 -103.049,-103.036 0,0 Z" /></g><g
       transform="translate(553.4341,457.9766)"
       id="g36"><path
         id="path38"
         style="fill:#ffffff;fill-opacity:1;fill-rule:evenodd;stroke:none"
         d="M 0,0 -103.044,103.054 -206.09,0 -103.044,-103.052 0,0 Z" /></g><g
       transform="translate(393.6548,298.2041)"
       id="g40"><path
         id="path42"
         style="fill:#ffffff;fill-opacity:1;fill-rule:evenodd;stroke:none"
         d="m 0,0 -46.075,46.061 -1.737,1.736 1.737,1.737 46.058,46.065 -55.235,55.238 L -158.291,47.792 -55.252,-55.26 0,0 Z" /></g><g
       transform="translate(217.4814,345.9961)"
       id="g44"><path
         id="path46"
         style="fill:#ffffff;fill-opacity:1;fill-rule:evenodd;stroke:none"
         d="M 0,0 -103.044,103.045 -206.107,0 -103.044,-103.052 0,0 Z" /></g><g
       id="g48"><g
         clip-path="url(#clipPath52)"
         id="g50"><g
           transform="translate(1411.4014,244.0552)"
           id="g56"><path
             id="path58"
             style="fill:#ffffff;fill-opacity:1;fill-rule:evenodd;stroke:none"
             d="M 0,0 6.499,0 C 5.991,-8.902 2.344,-13.361 -4.486,-13.361 c -2.018,0 -3.771,0.381 -5.237,1.134 -1.424,0.746 -2.631,1.919 -3.586,3.526 -0.957,1.572 -1.67,3.589 -2.118,6.034 -0.432,2.434 -0.653,5.347 -0.653,8.703 0,6.692 0.914,11.674 2.771,14.884 1.873,3.22 4.766,4.839 8.684,4.839 7.602,0 11.393,-6.691 11.393,-20.083 l 0,-0.874 -16.003,0 c 0,-8.112 1.592,-12.169 4.831,-12.169 C -1.487,-7.367 0,-4.911 0,0 m -0.389,9.854 c -0.263,3.978 -0.731,6.595 -1.365,7.856 -0.611,1.366 -1.652,2.081 -3.077,2.081 -1.428,0 -2.444,-0.715 -3.078,-2.081 -0.588,-1.261 -1.061,-3.878 -1.326,-7.856 l 8.846,0 z m 17.199,15.276 7.014,0 0,-4.354 c 1.995,3.315 4.586,4.983 7.763,4.983 3.056,0 5.258,-1.219 6.582,-3.637 0.734,-1.353 1.103,-4.025 1.103,-7.938 l 0,-26.963 -6.99,0 -0.043,25.354 c 0,2.55 -0.307,4.375 -0.917,5.443 -0.609,1.091 -1.674,1.631 -3.137,1.631 -0.816,0 -1.506,-0.166 -2.058,-0.451 -0.528,-0.276 -0.983,-0.715 -1.329,-1.344 -0.346,-0.63 -0.585,-1.432 -0.753,-2.425 -0.158,-0.997 -0.221,-2.242 -0.221,-3.689 l 0,-24.519 -7.014,0 0,37.909 z m 35.051,10.618 6.991,0 0,-10.618 3.814,0 0,-5.563 -3.814,0 0,-32.346 -6.991,0 0,32.346 -3.847,0 0,5.563 3.847,0 0,10.618 z M 86.184,0 92.685,0 c -0.508,-8.902 -4.179,-13.361 -10.987,-13.361 -2.039,0 -3.77,0.381 -5.234,1.134 -1.448,0.746 -2.629,1.919 -3.589,3.526 -0.959,1.572 -1.669,3.589 -2.115,6.034 -0.451,2.434 -0.653,5.347 -0.653,8.703 0,6.692 0.893,11.674 2.768,14.884 1.876,3.22 4.774,4.839 8.665,4.839 7.618,0 11.413,-6.691 11.413,-20.083 l 0,-0.874 -16.023,0 c 0,-8.112 1.611,-12.169 4.831,-12.169 2.936,0 4.423,2.456 4.423,7.367 m -0.388,9.854 c -0.283,3.978 -0.734,6.595 -1.363,7.856 -0.615,1.366 -1.656,2.081 -3.08,2.081 -1.425,0 -2.447,-0.715 -3.056,-2.081 -0.609,-1.261 -1.061,-3.878 -1.367,-7.856 l 8.866,0 z m 17.199,15.276 6.995,0 0,-4.728 c 1.199,1.998 2.385,3.423 3.545,4.218 1.2,0.794 2.731,1.285 4.664,1.398 l 0,-7.329 -1.243,0.113 c -2.504,0 -4.322,-0.664 -5.378,-1.957 -1.041,-1.253 -1.588,-3.474 -1.588,-6.652 l 0,-22.972 -6.995,0 0,37.909 z m 23.864,-53.436 0,53.436 6.991,0 0,-4.913 c 1.002,2.078 2,3.529 2.998,4.323 1.041,0.814 2.384,1.219 4.058,1.219 3.119,0 5.398,-1.619 6.842,-4.877 1.473,-3.212 2.207,-8.269 2.207,-15.166 0,-6.736 -0.734,-11.586 -2.245,-14.539 -1.469,-3.037 -3.81,-4.538 -7.072,-4.538 -1.569,0 -2.831,0.34 -3.828,1.062 -0.514,0.339 -0.98,0.818 -1.488,1.459 -0.47,0.633 -0.978,1.398 -1.472,2.312 l 0,-19.778 -6.991,0 z m 15.837,34.277 c 0,5.157 -0.345,8.64 -1.017,10.478 -0.672,1.974 -1.876,2.974 -3.57,2.974 -1.607,0 -2.749,-1.041 -3.439,-3.077 -0.672,-1.914 -1.023,-5.319 -1.023,-10.19 0,-4.889 0.351,-8.274 1.023,-10.189 0.71,-2.017 1.851,-3.036 3.439,-3.036 1.67,0 2.855,0.979 3.57,2.931 0.672,1.806 1.017,5.179 1.017,10.109 m 17.588,19.159 6.99,0 0,-4.728 c 1.205,1.998 2.385,3.423 3.565,4.218 1.185,0.794 2.716,1.285 4.649,1.398 l 0,-7.329 -1.223,0.113 c -2.529,0 -4.323,-0.664 -5.403,-1.957 -1.036,-1.253 -1.588,-3.474 -1.588,-6.652 l 0,-22.972 -6.99,0 0,37.909 z m 23.883,0 7.033,0 0,-37.911 -7.033,0 0,37.911 z m 3.306,16.128 c 1.261,0 2.341,-0.478 3.277,-1.396 0.939,-0.936 1.386,-2.037 1.386,-3.342 0,-1.312 -0.447,-2.433 -1.386,-3.373 -0.936,-0.914 -2.039,-1.372 -3.363,-1.372 -1.32,0 -2.448,0.458 -3.378,1.372 -0.903,0.919 -1.349,2.039 -1.349,3.414 0,1.264 0.471,2.365 1.387,3.301 0.998,0.918 2.14,1.396 3.426,1.396 m 30.077,-16.905 0,-6.549 c -1.695,1.272 -3.503,1.905 -5.379,1.905 -0.633,0 -1.224,-0.101 -1.751,-0.326 -0.532,-0.226 -1.022,-0.521 -1.449,-0.919 -0.369,-0.367 -0.691,-0.813 -0.959,-1.365 -0.201,-0.489 -0.303,-1.06 -0.303,-1.629 0,-1.816 1.627,-3.958 4.908,-6.462 1.329,-1.02 2.408,-1.977 3.301,-2.852 0.878,-0.879 1.53,-1.711 2.019,-2.498 0.936,-1.537 1.407,-3.473 1.407,-5.817 0,-3.392 -0.974,-6.103 -2.975,-8.175 -1.938,-2.025 -4.562,-3.027 -7.868,-3.027 -2.02,0 -4.078,0.604 -6.155,1.808 l 0,6.762 c 2.039,-1.525 3.958,-2.278 5.747,-2.278 3.2,0 4.812,1.578 4.812,4.737 0,1.162 -0.288,2.171 -0.878,3.038 -0.283,0.414 -0.715,0.887 -1.281,1.415 l -2.164,1.876 c -2.955,2.3 -4.951,4.219 -6.011,5.797 -1.017,1.601 -1.545,3.537 -1.545,5.818 0,3.058 0.931,5.543 2.812,7.508 1.929,1.919 4.399,2.898 7.455,2.898 2.14,0 4.236,-0.561 6.257,-1.665 M 243.433,0 l 6.52,0 c -0.509,-8.902 -4.179,-13.361 -10.982,-13.361 -2.02,0 -3.79,0.381 -5.239,1.134 -1.425,0.746 -2.629,1.919 -3.608,3.526 -0.936,1.572 -1.65,3.589 -2.102,6.034 -0.446,2.434 -0.67,5.347 -0.67,8.703 0,6.692 0.939,11.674 2.772,14.884 1.896,3.22 4.788,4.839 8.703,4.839 7.58,0 11.39,-6.691 11.39,-20.083 l 0,-0.874 -15.995,0 c 0,-8.112 1.588,-12.169 4.831,-12.169 2.912,0 4.38,2.456 4.38,7.367 m -0.365,9.854 c -0.288,3.978 -0.739,6.595 -1.348,7.856 -0.633,1.366 -1.669,2.081 -3.075,2.081 -1.444,0 -2.466,-0.715 -3.099,-2.081 -0.591,-1.261 -1.061,-3.878 -1.324,-7.856 l 8.846,0 z m 51.192,14.499 0,-6.549 c -1.694,1.272 -3.484,1.905 -5.36,1.905 -0.652,0 -1.223,-0.101 -1.775,-0.326 -0.527,-0.226 -1.021,-0.521 -1.425,-0.919 -0.388,-0.367 -0.695,-0.813 -0.954,-1.365 -0.207,-0.489 -0.326,-1.06 -0.326,-1.629 0,-1.816 1.645,-3.958 4.907,-6.462 1.324,-1.02 2.428,-1.977 3.301,-2.852 0.878,-0.879 1.55,-1.711 2.02,-2.498 0.936,-1.537 1.425,-3.473 1.425,-5.817 0,-3.392 -0.998,-6.103 -2.974,-8.175 -1.939,-2.025 -4.568,-3.027 -7.869,-3.027 -2.039,0 -4.097,0.604 -6.155,1.808 l 0,6.762 c 2.02,-1.525 3.934,-2.278 5.747,-2.278 3.2,0 4.813,1.578 4.813,4.737 0,1.162 -0.308,2.171 -0.878,3.038 -0.288,0.414 -0.715,0.887 -1.306,1.415 l -2.158,1.876 c -2.956,2.3 -4.951,4.219 -5.992,5.797 -1.041,1.601 -1.55,3.537 -1.55,5.818 0,3.058 0.959,5.543 2.835,7.508 1.895,1.919 4.361,2.898 7.436,2.898 2.121,0 4.218,-0.561 6.238,-1.665 M 327.887,5.851 c 0,-12.801 -3.978,-19.212 -11.904,-19.212 -7.925,0 -11.903,6.493 -11.903,19.517 0,13.066 3.935,19.603 11.86,19.603 2.058,0 3.814,-0.405 5.321,-1.18 1.511,-0.773 2.754,-1.977 3.727,-3.618 0.98,-1.638 1.695,-3.699 2.164,-6.196 0.49,-2.497 0.735,-5.45 0.735,-8.914 m -7.254,0.185 c 0,4.991 -0.351,8.456 -1.003,10.413 -0.652,1.974 -1.809,2.974 -3.503,2.974 -1.674,0 -2.855,-0.978 -3.565,-2.933 -0.652,-1.958 -0.978,-5.362 -0.978,-10.234 0,-4.85 0.326,-8.25 0.978,-10.166 0.71,-1.96 1.891,-2.934 3.565,-2.934 1.65,0 2.811,0.952 3.465,2.893 0.69,1.792 1.041,5.136 1.041,9.987 m 17.602,43.409 6.995,0 0,-62.224 -6.995,0 0,62.224 z m 18.774,-24.315 6.99,0 0,-25.343 c 0.038,-2.332 0.407,-4.014 1.041,-5.024 0.647,-1 1.751,-1.487 3.257,-1.487 1.594,0 2.711,0.425 3.325,1.315 0.629,0.918 0.955,2.537 0.955,4.828 l 0,3.047 0,22.664 6.995,0 0,-22.664 c 0,-5.318 -0.375,-8.854 -1.166,-10.636 -1.631,-3.464 -5.033,-5.191 -10.19,-5.191 -4.054,0 -6.928,1.014 -8.641,3.08 -1.713,2.073 -2.566,5.536 -2.566,10.363 l 0,25.048 z m 35.152,10.618 6.99,0 0,-10.618 3.814,0 0,-5.563 -3.814,0 0,-32.346 -6.99,0 0,32.346 -3.848,0 0,5.563 3.848,0 0,10.618 z m 19.647,-10.618 7.033,0 0,-37.911 -7.033,0 0,37.911 z m 3.3,16.128 c 1.282,0 2.39,-0.478 3.301,-1.396 0.921,-0.936 1.405,-2.037 1.405,-3.342 0,-1.312 -0.484,-2.433 -1.405,-3.373 -0.911,-0.914 -2.058,-1.372 -3.378,-1.372 -1.328,0 -2.427,0.458 -3.367,1.372 -0.917,0.919 -1.344,2.039 -1.344,3.414 0,1.264 0.447,2.365 1.406,3.301 0.979,0.918 2.121,1.396 3.382,1.396 M 452.934,5.851 c 0,-12.801 -3.954,-19.212 -11.923,-19.212 -7.907,0 -11.879,6.493 -11.879,19.517 0,13.066 3.972,19.603 11.879,19.603 2.039,0 3.809,-0.405 5.282,-1.18 1.525,-0.773 2.769,-1.977 3.747,-3.618 0.96,-1.638 1.689,-3.699 2.159,-6.196 0.489,-2.497 0.735,-5.45 0.735,-8.914 m -7.255,0.185 c 0,4.991 -0.326,8.456 -0.979,10.413 -0.672,1.974 -1.833,2.974 -3.526,2.974 -1.651,0 -2.85,-0.978 -3.545,-2.933 -0.652,-1.958 -0.998,-5.362 -0.998,-10.234 0,-4.85 0.346,-8.25 0.998,-10.166 0.695,-1.96 1.894,-2.934 3.545,-2.934 1.675,0 2.811,0.952 3.488,2.893 0.672,1.792 1.017,5.136 1.017,9.987 m 17.584,19.094 7.014,0 0,-4.354 c 2.015,3.315 4.586,4.983 7.767,4.983 3.075,0 5.278,-1.219 6.583,-3.637 0.753,-1.353 1.099,-4.025 1.099,-7.938 l 0,-26.963 -6.991,0 -0.038,25.354 c 0,2.55 -0.288,4.375 -0.902,5.443 -0.609,1.091 -1.67,1.631 -3.157,1.631 -0.791,0 -1.488,-0.166 -2.058,-0.451 -0.528,-0.276 -0.979,-0.715 -1.306,-1.344 -0.344,-0.63 -0.609,-1.432 -0.772,-2.425 -0.144,-0.997 -0.225,-2.242 -0.225,-3.689 l 0,-24.519 -7.014,0 0,37.909 z m 48.874,-0.777 0,-6.549 c -1.713,1.272 -3.507,1.905 -5.383,1.905 -0.649,0 -1.219,-0.101 -1.771,-0.326 -0.528,-0.226 -1.003,-0.521 -1.406,-0.919 -0.407,-0.367 -0.733,-0.813 -0.954,-1.365 -0.226,-0.489 -0.351,-1.06 -0.351,-1.629 0,-1.816 1.632,-3.958 4.914,-6.462 1.324,-1.02 2.422,-1.977 3.3,-2.852 0.878,-0.879 1.569,-1.711 2.015,-2.498 0.96,-1.537 1.43,-3.473 1.43,-5.817 0,-3.392 -0.979,-6.103 -2.955,-8.175 -1.977,-2.025 -4.582,-3.027 -7.888,-3.027 -2.039,0 -4.078,0.604 -6.155,1.808 l 0,6.762 c 2.02,-1.525 3.929,-2.278 5.766,-2.278 3.2,0 4.793,1.578 4.793,4.737 0,1.162 -0.306,2.171 -0.878,3.038 -0.288,0.414 -0.695,0.887 -1.285,1.415 l -2.179,1.876 c -2.955,2.3 -4.951,4.219 -5.992,5.797 -1.041,1.601 -1.535,3.537 -1.535,5.818 0,3.058 0.94,5.543 2.821,7.508 1.89,1.919 4.357,2.898 7.437,2.898 2.14,0 4.236,-0.561 6.256,-1.665" /></g></g></g><g
       id="g60"><g
         clip-path="url(#clipPath64)"
         id="g62"><g
           transform="translate(1184.4756,305.9883)"
           id="g68"><path
             id="path70"
             style="fill:#ffffff;fill-opacity:1;fill-rule:evenodd;stroke:none"
             d="m 0,0 c 0,-14.786 -9.622,-30.945 -28.858,-37.842 -12.779,-4.934 -59.674,-8.206 -79.277,-8.225 l -12.33,0 c -7.376,0 -11.068,4.435 -11.068,13.299 0,6.988 3.692,10.493 11.068,10.493 l 52.129,0.817 c 3.731,0 10.742,1.303 20.995,3.894 10.655,2.965 16.303,11.287 16.955,14.326 l -81.091,0 c -19.137,0 -34.869,2.302 -47.202,6.856 -17.909,6.534 -26.879,17.514 -26.879,32.926 l 0,47.83 c 0,27.022 27.82,40.549 83.475,40.57 l 5.443,-0.136 7.703,-0.147 c 0.101,-0.101 0.813,-0.136 2.118,-0.136 l 2.099,0 3.503,0 5.445,0 c 17.67,0 33.627,-2.503 47.912,-7.514 C -9.296,110.023 0,99.053 0,84.085 L 0,0 Z m -29.837,20.424 0,62.466 c 0,6.352 -5.462,11.147 -16.384,14.37 -8.868,2.335 -17.118,3.488 -24.76,3.488 l -46.653,0 c -11.023,0 -18.91,-0.536 -23.679,-1.612 -9.799,-2.316 -14.693,-7.081 -14.693,-14.23 l 0,-47.959 c 0,-11.032 14.652,-16.523 43.975,-16.523 l 82.194,0 z m 224.419,15.297 c 0,-14.685 -7.58,-25.428 -22.7,-32.211 -10.721,-5.218 -25.006,-7.797 -42.865,-7.797 l -49.128,0 C 63.644,-4.287 48.932,-1.66 35.765,3.618 19.521,10.61 11.393,21.319 11.393,35.721 l 0,47.431 c 0,14.417 8.088,25.35 24.252,32.781 11.84,5.736 26.536,8.592 44.097,8.592 l 49.275,0 c 43.695,0 65.565,-13.706 65.565,-41.095 l 0,-47.709 z m -29.976,0 0,49.586 c 0,10.208 -12.148,15.303 -36.419,15.303 l -48.013,0 c -8.969,0 -16.998,-1.059 -24.113,-3.214 -10.068,-3.138 -15.12,-7.892 -15.12,-14.244 l 0,-47.431 c 0,-6.096 5.138,-10.569 15.406,-13.421 6.829,-1.876 14.798,-2.814 23.966,-2.814 l 48.015,0 c 7.744,0 15.082,1.068 21.993,3.219 9.514,2.951 14.285,7.283 14.285,13.016 m 227.33,0.541 c 0,-27.048 -23.293,-40.549 -69.859,-40.549 l -45.367,0 c -16.547,0 -31.708,2.812 -45.526,8.444 -17.833,7.257 -26.743,17.742 -26.743,31.449 l 0,112.975 c 0,5.193 1.962,8.404 5.872,9.668 1.226,0.617 5.465,0.939 12.741,0.939 7.275,0 10.942,-3.537 10.942,-10.607 l 0,-25.114 88.081,0 c 46.566,0 69.859,-13.306 69.859,-39.921 l 0,-47.284 z m -29.405,0.943 0,45.821 c 0,11.094 -13.309,16.643 -39.902,16.643 l -88.633,0 0,-63.948 c 0,-5.812 6.318,-10.204 19.032,-13.162 4.587,-0.974 9.092,-1.739 13.574,-2.279 4.485,-0.54 9.029,-0.794 13.591,-0.794 l 42.171,0 c 6.415,0 11.693,0.122 15.814,0.396 4.198,0.254 7.354,0.619 9.5,1.07 9.921,2.24 14.853,7.658 14.853,16.253 m 76.666,104.916 c 0,-4.648 -2.057,-8.33 -6.174,-11.01 -3.526,-2.332 -7.887,-3.49 -13.021,-3.49 -5.138,0 -9.475,1.158 -13.002,3.49 -4.121,2.68 -6.174,6.362 -6.174,11.01 0,4.657 2.053,8.332 6.174,11.032 3.527,2.321 7.864,3.478 13.002,3.478 5.134,0 9.495,-1.157 13.021,-3.478 4.117,-2.7 6.174,-6.375 6.174,-11.032 M 435.12,6.321 c 0,-7.095 -3.666,-10.608 -11.04,-10.608 -7.196,0 -11.375,0.296 -12.599,0.927 -3.852,1.345 -5.766,4.565 -5.766,9.681 l 0,108.134 c 0,6.992 3.709,10.489 11.063,10.489 7.116,0 11.25,-0.323 12.474,-0.959 3.915,-1.34 5.868,-4.512 5.868,-9.53 l 0,-108.134 z M 552.408,110.3 c 0,-6.987 -3.693,-10.491 -11.049,-10.491 l -46.772,0 0,-93.488 c 0,-7.095 -3.665,-10.608 -10.939,-10.608 -7.196,0 -11.394,0.296 -12.593,0.927 -4.021,1.427 -6.017,4.658 -6.017,9.681 l 0,93.488 c -3.953,0 -7.153,0.039 -9.682,0.145 -2.399,0.177 -4.13,0.354 -5.171,0.541 -4.668,1.51 -7.015,5.234 -7.015,11.147 0,5.91 2.347,9.629 7.015,11.147 1.041,0.177 2.772,0.294 5.171,0.398 2.529,0.18 5.729,0.257 9.682,0.28 l 0,25.367 c 0,6.994 3.627,10.491 10.905,10.491 7.192,0 11.395,-0.324 12.594,-0.94 4.011,-1.339 6.03,-4.533 6.05,-9.551 l 0,-25.367 46.772,0 c 7.356,0 11.049,-4.397 11.049,-13.167 M 740.387,35.721 c 0,-14.685 -7.542,-25.428 -22.684,-32.211 -10.737,-5.218 -25.024,-7.797 -42.839,-7.797 l -49.151,0 c -16.245,0 -30.936,2.627 -44.101,7.905 -16.245,6.992 -24.377,17.701 -24.377,32.103 l 0,47.431 c 0,14.417 8.07,25.35 24.228,32.781 11.841,5.736 26.56,8.592 44.105,8.592 l 49.296,0 c 43.674,0 65.523,-13.706 65.523,-41.095 l 0,-47.709 z m -29.957,0 0,49.586 c 0,10.208 -12.148,15.303 -36.395,15.303 l -48.035,0 c -8.972,0 -17.018,-1.059 -24.094,-3.214 -10.09,-3.138 -15.136,-7.892 -15.136,-14.244 l 0,-47.431 c 0,-6.096 5.148,-10.569 15.405,-13.421 6.807,-1.876 14.815,-2.814 23.965,-2.814 l 48.014,0 c 7.768,0 15.104,1.068 21.989,3.219 9.518,2.951 14.287,7.283 14.287,13.016" /></g></g></g></g></svg>