<?xml version="1.0" encoding="UTF-8" standalone="no"?>
<svg
   xmlns:dc="http://purl.org/dc/elements/1.1/"
   xmlns:cc="http://creativecommons.org/ns#"
   xmlns:rdf="http://www.w3.org/1999/02/22-rdf-syntax-ns#"
   xmlns:svg="http://www.w3.org/2000/svg"
   xmlns="http://www.w3.org/2000/svg"
   viewBox="0 0 31.25 31.25"
   height="31.25"
   width="31.25"
   xml:space="preserve"
   version="1.1"
   id="svg2"><metadata
     id="metadata8"><rdf:RDF><cc:Work
         rdf:about=""><dc:format>image/svg+xml</dc:format><dc:type
           rdf:resource="http://purl.org/dc/dcmitype/StillImage" /><dc:title></dc:title></cc:Work></rdf:RDF></metadata><defs
     id="defs6"><clipPath
       id="clipPath16"
       clipPathUnits="userSpaceOnUse"><path
         id="path18"
         d="M 0,25 25,25 25,0 0,0 0,25 Z" /></clipPath></defs><g
     transform="matrix(1.25,0,0,-1.25,0,31.25)"
     id="g10"><g
       id="g12"><g
         clip-path="url(#clipPath16)"
         id="g14"><g
           transform="translate(24.2061,3.8574)"
           id="g20"><path
             id="path22"
             style="fill:#363b42;fill-opacity:1;fill-rule:nonzero;stroke:none"
             d="M 0,0 -9.107,8.643 0,17.285 c 0.912,0.865 1.115,2.061 0.203,2.912 l -0.377,0.358 c -0.81,0.687 -1.752,0.838 -2.475,0.096 -2.491,-2.363 -4.982,-4.726 -7.471,-7.089 -0.899,-0.839 -2.274,-0.839 -3.171,0 -2.491,2.363 -4.98,4.726 -7.472,7.089 -0.709,0.742 -1.665,0.591 -2.475,-0.096 l -0.376,-0.358 c -0.913,-0.851 -0.71,-2.047 0.202,-2.912 L -14.305,8.643 -23.412,0 c -0.912,-0.865 -1.115,-2.061 -0.203,-2.912 l 0.377,-0.358 c 0.81,-0.686 1.752,-0.837 2.475,-0.095 2.491,2.362 4.982,4.725 7.471,7.089 0.898,0.838 2.273,0.838 3.171,0 2.491,-2.364 4.98,-4.727 7.472,-7.089 0.709,-0.742 1.665,-0.591 2.475,0.095 l 0.376,0.358 C 1.115,-2.061 0.912,-0.865 0,0" /></g></g></g></g></svg>