<?xml version="1.0" encoding="UTF-8" standalone="no"?>
<svg
   xmlns:dc="http://purl.org/dc/elements/1.1/"
   xmlns:cc="http://creativecommons.org/ns#"
   xmlns:rdf="http://www.w3.org/1999/02/22-rdf-syntax-ns#"
   xmlns:svg="http://www.w3.org/2000/svg"
   xmlns="http://www.w3.org/2000/svg"
   xmlns:sodipodi="http://sodipodi.sourceforge.net/DTD/sodipodi-0.dtd"
   xmlns:inkscape="http://www.inkscape.org/namespaces/inkscape"
   viewBox="0 0 40 39.999802"
   height="39.999802"
   width="40"
   xml:space="preserve"
   version="1.1"
   id="svg2"
   inkscape:version="0.91 r13725"
   sodipodi:docname="facebook.svg"><sodipodi:namedview
     pagecolor="#ffffff"
     bordercolor="#666666"
     borderopacity="1"
     objecttolerance="10"
     gridtolerance="10"
     guidetolerance="10"
     inkscape:pageopacity="0"
     inkscape:pageshadow="2"
     inkscape:window-width="1855"
     inkscape:window-height="1056"
     id="namedview14"
     showgrid="false"
     inkscape:zoom="4.72"
     inkscape:cx="-41.737288"
     inkscape:cy="24.99975"
     inkscape:window-x="65"
     inkscape:window-y="24"
     inkscape:window-maximized="1"
     inkscape:current-layer="svg2"
     fit-margin-top="0"
     fit-margin-left="0"
     fit-margin-right="0"
     fit-margin-bottom="0" /><metadata
     id="metadata8"><rdf:RDF><cc:Work
         rdf:about=""><dc:format>image/svg+xml</dc:format><dc:type
           rdf:resource="http://purl.org/dc/dcmitype/StillImage" /><dc:title></dc:title></cc:Work></rdf:RDF></metadata><defs
     id="defs6"><clipPath
       id="clipPath16"
       clipPathUnits="userSpaceOnUse"><path
         id="path18"
         d="M 0,40 40,40 40,0 0,0 0,40 Z"
         inkscape:connector-curvature="0" /></clipPath></defs><g
     transform="matrix(1,0,0,-1,0,40)"
     id="g10"
     style="fill:#ffbb3d;fill-opacity:1"><g
       id="g12"
       style="fill:#ffbb3d;fill-opacity:1"><g
         clip-path="url(#clipPath16)"
         id="g14"
         style="fill:#ffbb3d;fill-opacity:1"><g
           transform="translate(17.3721,19.9199)"
           id="g20"
           style="fill:#ffbb3d;fill-opacity:1"><path
             id="path22"
             style="fill:#ffbb3d;fill-opacity:1;fill-rule:evenodd;stroke:none"
             d="m 0,0 0,-9.778 c 0,-0.141 0.114,-0.255 0.255,-0.255 l 3.631,0 c 0.141,0 0.255,0.114 0.255,0.255 l 0,9.938 2.632,0 c 0.133,0 0.243,0.101 0.254,0.233 L 7.281,3.388 C 7.293,3.536 7.176,3.663 7.027,3.663 l -2.886,0 0,2.125 c 0,0.498 0.403,0.901 0.901,0.901 l 2.029,0 c 0.141,0 0.255,0.115 0.255,0.255 l 0,2.994 c 0,0.141 -0.114,0.255 -0.255,0.255 l -3.428,0 C 1.631,10.193 0,8.563 0,6.55 l 0,-2.887 -1.816,0 C -1.957,3.663 -2.07,3.55 -2.07,3.409 l 0,-2.995 c 0,-0.141 0.113,-0.254 0.254,-0.254 L 0,0.16 0,0 Z"
             inkscape:connector-curvature="0" /></g><g
           transform="translate(20,38.0952)"
           id="g24"
           style="fill:#ffbb3d;fill-opacity:1"><path
             id="path26"
             style="fill:#ffbb3d;fill-opacity:1;fill-rule:nonzero;stroke:none"
             d="m 0,0 c -9.978,0 -18.095,-8.118 -18.095,-18.095 0,-9.978 8.117,-18.096 18.095,-18.096 9.978,0 18.095,8.118 18.095,18.096 C 18.095,-8.118 9.978,0 0,0 m 0,-38.095 c -11.028,0 -20,8.971 -20,20 0,11.028 8.972,20 20,20 11.028,0 20,-8.972 20,-20 0,-11.029 -8.972,-20 -20,-20"
             inkscape:connector-curvature="0" /></g></g></g></g></svg>