<?xml version="1.0" encoding="UTF-8" standalone="no"?>
<svg
   xmlns:dc="http://purl.org/dc/elements/1.1/"
   xmlns:cc="http://creativecommons.org/ns#"
   xmlns:rdf="http://www.w3.org/1999/02/22-rdf-syntax-ns#"
   xmlns:svg="http://www.w3.org/2000/svg"
   xmlns="http://www.w3.org/2000/svg"
   xmlns:sodipodi="http://sodipodi.sourceforge.net/DTD/sodipodi-0.dtd"
   xmlns:inkscape="http://www.inkscape.org/namespaces/inkscape"
   id="svg2"
   version="1.1"
   xml:space="preserve"
   width="40"
   height="39.999802"
   viewBox="0 0 40 39.999802"
   inkscape:version="0.91 r13725"
   sodipodi:docname="linkedin.svg"><sodipodi:namedview
     pagecolor="#ffffff"
     bordercolor="#666666"
     borderopacity="1"
     objecttolerance="10"
     gridtolerance="10"
     guidetolerance="10"
     inkscape:pageopacity="0"
     inkscape:pageshadow="2"
     inkscape:window-width="1855"
     inkscape:window-height="1056"
     id="namedview30"
     showgrid="false"
     fit-margin-top="0"
     fit-margin-left="0"
     fit-margin-right="0"
     fit-margin-bottom="0"
     inkscape:zoom="4.72"
     inkscape:cx="-2.7542373"
     inkscape:cy="24.99975"
     inkscape:window-x="65"
     inkscape:window-y="24"
     inkscape:window-maximized="1"
     inkscape:current-layer="svg2" /><metadata
     id="metadata8"><rdf:RDF><cc:Work
         rdf:about=""><dc:format>image/svg+xml</dc:format><dc:type
           rdf:resource="http://purl.org/dc/dcmitype/StillImage" /><dc:title></dc:title></cc:Work></rdf:RDF></metadata><defs
     id="defs6"><clipPath
       clipPathUnits="userSpaceOnUse"
       id="clipPath16"><path
         d="M 0,40 40,40 40,0 0,0 0,40 Z"
         id="path18"
         inkscape:connector-curvature="0" /></clipPath></defs><g
     id="g4175"
     transform="scale(0.8,0.8)"><g
       transform="matrix(1.25,0,0,-1.25,0,50)"
       id="g10"
       style="fill:#ffbb3d;fill-opacity:1"><g
         id="g12"
         style="fill:#ffbb3d;fill-opacity:1"><g
           clip-path="url(#clipPath16)"
           id="g14"
           style="fill:#ffbb3d;fill-opacity:1"><g
             transform="translate(20,38.0952)"
             id="g24"
             style="fill:#ffbb3d;fill-opacity:1"><path
               id="path26"
               style="fill:#ffbb3d;fill-opacity:1;fill-rule:nonzero;stroke:none"
               d="m 0,0 c -9.978,0 -18.095,-8.118 -18.095,-18.095 0,-9.978 8.117,-18.096 18.095,-18.096 9.978,0 18.095,8.118 18.095,18.096 C 18.095,-8.118 9.978,0 0,0 m 0,-38.095 c -11.028,0 -20,8.971 -20,20 0,11.028 8.972,20 20,20 11.028,0 20,-8.972 20,-20 0,-11.029 -8.972,-20 -20,-20"
               inkscape:connector-curvature="0" /></g></g></g></g><g
       transform="matrix(0.05231716,0,0,0.05231716,14.347994,12.947087)"
       style="fill:#ffbb3d;fill-opacity:1"
       id="g4142"><path
         style="fill:#ffbb3d;fill-opacity:1"
         id="LinkedIn"
         d="m 430.117,261.543 0,159.017 -92.188,0 0,-148.367 c 0,-37.271 -13.334,-62.707 -46.703,-62.707 -25.473,0 -40.632,17.142 -47.301,33.724 -2.432,5.928 -3.058,14.179 -3.058,22.477 l 0,154.873 -92.219,0 c 0,0 1.242,-251.285 0,-277.32 l 92.21,0 0,39.309 c -0.187,0.294 -0.43,0.611 -0.606,0.896 l 0.606,0 0,-0.896 c 12.251,-18.869 34.13,-45.824 83.102,-45.824 60.673,-0.001 106.157,39.636 106.157,124.818 z M 52.183,9.558 C 20.635,9.558 0,30.251 0,57.463 c 0,26.619 20.038,47.94 50.959,47.94 l 0.616,0 c 32.159,0 52.159,-21.317 52.159,-47.94 C 103.128,30.251 83.734,9.558 52.183,9.558 Z M 5.477,420.56 l 92.184,0 0,-277.32 -92.184,0 0,277.32 z"
         inkscape:connector-curvature="0" /></g></g><g
     id="g4145"
     style="fill:#ffbb3d;fill-opacity:1"
     transform="matrix(0.05231716,0,0,0.05231716,14.347994,2.947137)" /><g
     id="g4147"
     style="fill:#ffbb3d;fill-opacity:1"
     transform="matrix(0.05231716,0,0,0.05231716,14.347994,2.947137)" /><g
     id="g4149"
     style="fill:#ffbb3d;fill-opacity:1"
     transform="matrix(0.05231716,0,0,0.05231716,14.347994,2.947137)" /><g
     id="g4151"
     style="fill:#ffbb3d;fill-opacity:1"
     transform="matrix(0.05231716,0,0,0.05231716,14.347994,2.947137)" /><g
     id="g4153"
     style="fill:#ffbb3d;fill-opacity:1"
     transform="matrix(0.05231716,0,0,0.05231716,14.347994,2.947137)" /><g
     id="g4155"
     style="fill:#ffbb3d;fill-opacity:1"
     transform="matrix(0.05231716,0,0,0.05231716,14.347994,2.947137)" /><g
     id="g4157"
     style="fill:#ffbb3d;fill-opacity:1"
     transform="matrix(0.05231716,0,0,0.05231716,14.347994,2.947137)" /><g
     id="g4159"
     style="fill:#ffbb3d;fill-opacity:1"
     transform="matrix(0.05231716,0,0,0.05231716,14.347994,2.947137)" /><g
     id="g4161"
     style="fill:#ffbb3d;fill-opacity:1"
     transform="matrix(0.05231716,0,0,0.05231716,14.347994,2.947137)" /><g
     id="g4163"
     style="fill:#ffbb3d;fill-opacity:1"
     transform="matrix(0.05231716,0,0,0.05231716,14.347994,2.947137)" /><g
     id="g4165"
     style="fill:#ffbb3d;fill-opacity:1"
     transform="matrix(0.05231716,0,0,0.05231716,14.347994,2.947137)" /><g
     id="g4167"
     style="fill:#ffbb3d;fill-opacity:1"
     transform="matrix(0.05231716,0,0,0.05231716,14.347994,2.947137)" /><g
     id="g4169"
     style="fill:#ffbb3d;fill-opacity:1"
     transform="matrix(0.05231716,0,0,0.05231716,14.347994,2.947137)" /><g
     id="g4171"
     style="fill:#ffbb3d;fill-opacity:1"
     transform="matrix(0.05231716,0,0,0.05231716,14.347994,2.947137)" /><g
     id="g4173"
     style="fill:#ffbb3d;fill-opacity:1"
     transform="matrix(0.05231716,0,0,0.05231716,14.347994,2.947137)" /></svg>