<?xml version="1.0" encoding="UTF-8" standalone="no"?>
<svg
   xmlns:dc="http://purl.org/dc/elements/1.1/"
   xmlns:cc="http://creativecommons.org/ns#"
   xmlns:rdf="http://www.w3.org/1999/02/22-rdf-syntax-ns#"
   xmlns:svg="http://www.w3.org/2000/svg"
   xmlns="http://www.w3.org/2000/svg"
   xmlns:sodipodi="http://sodipodi.sourceforge.net/DTD/sodipodi-0.dtd"
   xmlns:inkscape="http://www.inkscape.org/namespaces/inkscape"
   viewBox="0 0 40 39.999802"
   height="39.999802"
   width="40"
   xml:space="preserve"
   version="1.1"
   id="svg2"
   inkscape:version="0.91 r13725"
   sodipodi:docname="twitter.svg"><sodipodi:namedview
     pagecolor="#ffffff"
     bordercolor="#666666"
     borderopacity="1"
     objecttolerance="10"
     gridtolerance="10"
     guidetolerance="10"
     inkscape:pageopacity="0"
     inkscape:pageshadow="2"
     inkscape:window-width="1855"
     inkscape:window-height="1056"
     id="namedview22"
     showgrid="false"
     inkscape:zoom="4.72"
     inkscape:cx="-41.737288"
     inkscape:cy="24.99975"
     inkscape:window-x="65"
     inkscape:window-y="24"
     inkscape:window-maximized="1"
     inkscape:current-layer="svg2"
     fit-margin-top="0"
     fit-margin-left="0"
     fit-margin-right="0"
     fit-margin-bottom="0" /><metadata
     id="metadata8"><rdf:RDF><cc:Work
         rdf:about=""><dc:format>image/svg+xml</dc:format><dc:type
           rdf:resource="http://purl.org/dc/dcmitype/StillImage" /><dc:title></dc:title></cc:Work></rdf:RDF></metadata><defs
     id="defs6"><clipPath
       id="clipPath16"
       clipPathUnits="userSpaceOnUse"><path
         id="path18"
         d="M 0,40 40,40 40,0 0,0 0,40 Z"
         inkscape:connector-curvature="0" /></clipPath></defs><g
     transform="matrix(1,0,0,-1,0,40)"
     id="g10"
     style="fill:#ffbb3d;fill-opacity:1"><g
       id="g12"
       style="fill:#ffbb3d;fill-opacity:1"><g
         clip-path="url(#clipPath16)"
         id="g14"
         style="fill:#ffbb3d;fill-opacity:1"><g
           transform="translate(29.7593,26.1577)"
           id="g20"
           style="fill:#ffbb3d;fill-opacity:1"><path
             id="path22"
             style="fill:#ffbb3d;fill-opacity:1;fill-rule:nonzero;stroke:none"
             d="m 0,0 c -0.625,-0.283 -1.312,-0.455 -1.987,-0.567 0.32,0.053 0.792,0.632 0.981,0.867 0.288,0.357 0.527,0.765 0.661,1.204 0.017,0.035 0.031,0.078 -0.004,0.104 C -0.392,1.625 -0.42,1.616 -0.454,1.599 -1.207,1.196 -1.985,0.903 -2.813,0.696 -2.882,0.679 -2.933,0.696 -2.977,0.739 -3.045,0.817 -3.109,0.89 -3.183,0.95 -3.531,1.247 -3.904,1.479 -4.326,1.651 -4.879,1.876 -5.483,1.972 -6.079,1.933 -6.658,1.896 -7.228,1.732 -7.742,1.463 -8.258,1.194 -8.718,0.819 -9.084,0.367 -9.463,-0.1 -9.742,-0.652 -9.885,-1.238 c -0.138,-0.564 -0.127,-1.123 -0.043,-1.694 0.013,-0.095 0.005,-0.108 -0.081,-0.095 -3.241,0.483 -5.928,1.642 -8.109,4.128 -0.094,0.107 -0.146,0.107 -0.223,-0.009 -0.954,-1.43 -0.492,-3.728 0.701,-4.858 0.159,-0.151 0.322,-0.301 0.498,-0.439 -0.064,-0.012 -0.858,0.074 -1.565,0.439 -0.094,0.059 -0.142,0.025 -0.15,-0.082 -0.009,-0.154 0.004,-0.297 0.025,-0.464 0.184,-1.45 1.188,-2.792 2.563,-3.314 0.164,-0.07 0.344,-0.129 0.52,-0.16 -0.313,-0.068 -0.636,-0.118 -1.535,-0.047 -0.112,0.021 -0.154,-0.035 -0.112,-0.142 0.676,-1.841 2.133,-2.388 3.225,-2.7 0.146,-0.026 0.292,-0.026 0.439,-0.06 -0.009,-0.014 -0.018,-0.014 -0.026,-0.026 -0.362,-0.552 -1.617,-0.963 -2.202,-1.167 -1.063,-0.371 -2.221,-0.538 -3.344,-0.428 -0.18,0.026 -0.218,0.024 -0.267,0 -0.049,-0.03 -0.006,-0.073 0.052,-0.12 0.228,-0.15 0.46,-0.284 0.696,-0.413 0.714,-0.378 1.458,-0.679 2.236,-0.894 4.017,-1.11 8.543,-0.295 11.559,2.702 2.369,2.354 3.199,5.6 3.199,8.85 0,0.127 0.15,0.197 0.24,0.264 0.616,0.464 1.106,1.017 1.566,1.636 0.103,0.139 0.097,0.263 0.097,0.314 L 0.074,0 C 0.074,0.052 0.08,0.036 0,0"
             inkscape:connector-curvature="0" /></g><g
           transform="translate(16.0073,11.9707)"
           id="g24"
           style="fill:#ffbb3d;fill-opacity:1"><path
             id="path26"
             style="fill:#ffbb3d;fill-opacity:1;fill-rule:evenodd;stroke:none"
             d="M 0,0 C 1.666,0 0.08,0 0,0 0.219,0 -0.009,0 0,0"
             inkscape:connector-curvature="0" /></g><g
           transform="translate(16.0073,11.9707)"
           id="g28"
           style="fill:#ffbb3d;fill-opacity:1"><path
             id="path30"
             style="fill:#ffbb3d;fill-opacity:1;fill-rule:evenodd;stroke:none"
             d="M 0,0 C -0.026,-0.002 -0.325,0 0,0 0,0 -0.052,0 0,0"
             inkscape:connector-curvature="0" /></g><g
           transform="translate(16.6694,11.9531)"
           id="g32"
           style="fill:#ffbb3d;fill-opacity:1"><path
             id="path34"
             style="fill:#ffbb3d;fill-opacity:1;fill-rule:evenodd;stroke:none"
             d="M 0,0 C 0,0.033 0.349,0 0,0 0,0.018 0.043,0 0,0"
             inkscape:connector-curvature="0" /></g><g
           transform="translate(23.6255,28.0752)"
           id="g36"
           style="fill:#ffbb3d;fill-opacity:1"><path
             id="path38"
             style="fill:#ffbb3d;fill-opacity:1;fill-rule:evenodd;stroke:none"
             d="M 0,0 C -0.022,-0.017 -0.052,-0.017 -0.082,0 L 0,0 Z"
             inkscape:connector-curvature="0" /></g><g
           transform="translate(20,38.0952)"
           id="g40"
           style="fill:#ffbb3d;fill-opacity:1"><path
             id="path42"
             style="fill:#ffbb3d;fill-opacity:1;fill-rule:nonzero;stroke:none"
             d="m 0,0 c -9.978,0 -18.095,-8.118 -18.095,-18.095 0,-9.978 8.117,-18.096 18.095,-18.096 9.978,0 18.095,8.118 18.095,18.096 C 18.095,-8.118 9.978,0 0,0 m 0,-38.095 c -11.028,0 -20,8.971 -20,20 0,11.028 8.972,20 20,20 11.028,0 20,-8.972 20,-20 0,-11.029 -8.972,-20 -20,-20"
             inkscape:connector-curvature="0" /></g></g></g></g></svg>